<svg width="30" height="30" viewBox="0 0 30 30" fill="none" xmlns="http://www.w3.org/2000/svg">
<path fill-rule="evenodd" clip-rule="evenodd" d="M15 0C23.2704 0 30 6.72955 30 15C30 19.6038 27.9107 23.7259 24.6351 26.4799C24.6274 26.4884 24.619 26.4955 24.6105 26.5026C24.6041 26.508 24.5977 26.5134 24.5916 26.5194C21.9893 28.6901 18.6454 30 15 30C11.3546 30 8.01067 28.6901 5.40839 26.5194C5.4023 26.5134 5.3959 26.508 5.38952 26.5027L5.38949 26.5026C5.381 26.4955 5.37255 26.4884 5.36491 26.4799C2.08927 23.7259 0 19.6038 0 15C0 6.72955 6.72955 0 15 0ZM15 1.91489C7.78425 1.91489 1.9149 7.78424 1.9149 15C1.9149 18.3771 3.23482 21.4291 5.34232 23.7528C6.00524 19.8609 8.13986 17.1214 11.3242 15.9595C9.88241 14.8499 8.93618 13.1259 8.93618 11.1702C8.93618 7.82663 11.6564 5.10638 15 5.10638C18.3436 5.10638 21.0638 7.82663 21.0638 11.1702C21.0638 13.1259 20.1176 14.8499 18.6758 15.9595C21.8602 17.1214 23.9948 19.8609 24.6577 23.7528C26.7652 21.4291 28.0851 18.3771 28.0851 15C28.0851 7.78424 22.2158 1.91489 15 1.91489ZM10.8511 11.1702C10.8511 8.88256 12.7124 7.02127 15 7.02127C17.2877 7.02127 19.149 8.88256 19.149 11.1702C19.149 13.4579 17.2877 15.3191 15 15.3191C12.7124 15.3191 10.8511 13.4579 10.8511 11.1702ZM15 17.234C10.299 17.234 7.4531 20.1968 7.08534 25.3494C9.29008 27.0401 12.0131 28.0851 15 28.0851C17.9869 28.0851 20.7099 27.0401 22.9147 25.3494C22.5469 20.1968 19.7011 17.234 15 17.234Z" fill="black"/>
</svg>
