<svg width="50" height="48" viewBox="0 0 50 48" fill="none" xmlns="http://www.w3.org/2000/svg">
<path fill-rule="evenodd" clip-rule="evenodd" d="M0.972811 0C0.72867 0 0.469507 0.0812988 0.281702 0.265991C-0.0939007 0.635254 -0.0939007 1.25586 0.281702 1.62512L17.8598 18.8813L28.8274 29.6665L46.4355 47.0114C46.6234 47.1959 46.8788 47.2772 47.1267 47.2772C47.3746 47.2772 47.63 47.1959 47.8178 47.0114C48.1934 46.642 48.1934 46.0215 47.8178 45.6521L30.48 28.6028C30.8481 28.285 31.1448 27.9526 31.3214 27.6277C31.3214 27.6277 29.4772 25.2859 27.2048 24.4069C26.8179 24.2592 26.3972 24.1853 25.9728 24.1705L23.3586 21.5997C23.3323 21.2452 23.261 20.887 23.1483 20.536C22.322 17.9395 19.9031 16.4879 19.9031 16.4879C19.5876 16.6542 19.2496 16.92 18.9416 17.2562L1.66391 0.265991C1.47611 0.0812988 1.21695 0 0.972811 0ZM46.1652 1.89111C46.1652 1.89111 41.6768 1.90955 39.6147 3.81177C39.8439 4.37317 40.0392 4.96777 40.0955 5.61414C40.1556 5.9762 40.2232 6.80725 40.0655 7.97803C40.1437 7.97009 40.222 7.96155 40.3006 7.95288L40.3039 7.95251C40.5905 7.92114 40.8804 7.8894 41.1772 7.8894C41.7219 7.8894 42.135 7.92639 42.3191 7.94849C42.9726 7.99658 43.5811 8.17383 44.152 8.39172C46.1502 6.39722 46.1652 1.89111 46.1652 1.89111ZM32.403 6.88464C33.1166 4.75354 35.2275 2.92151 36.7299 2.6593C36.7299 2.6593 38.0745 4.24377 38.1722 5.85046C38.1722 5.85046 38.3825 6.7887 38.052 8.39172L38.022 8.53943L34.8669 11.6715C34.8181 11.2764 34.7467 10.8663 34.6265 10.4896C34.1345 8.94202 33.2406 7.73792 32.403 6.88464ZM29.5184 7.00293C28.4404 7.56799 27.2535 9.28552 26.8441 11.1101C27.8169 11.9523 29.109 13.3558 29.7287 15.306C29.8489 15.6827 29.9203 16.0928 29.9691 16.4879L32.9138 13.5922C33.0828 12.7833 33.0603 11.8932 32.7936 11.051C31.9673 8.45447 29.5184 7.00293 29.5184 7.00293ZM39.2842 10.0168C40.0279 9.83215 40.7378 9.77673 41.2674 9.7804C41.797 9.78418 42.1388 9.8396 42.1388 9.8396C43.7726 9.93555 45.3839 11.2578 45.3839 11.2578C45.1248 12.7131 43.3069 14.7815 41.1772 15.5128C40.6739 15.0216 40.0767 14.5118 39.4344 14.1536C38.2287 13.4813 37.6541 13.2487 37.3311 13.1489C37.0869 13.0529 36.7038 12.9569 36.3395 12.8831L39.2842 10.0168ZM24.6208 11.8193C23.5916 12.3586 22.4949 13.9615 22.0366 15.6902C23.0169 16.5249 24.3691 17.958 25.0114 19.9746C25.1235 20.3262 25.167 20.6809 25.212 21.048L25.2217 21.1271L28.0162 18.4086C28.1852 17.5997 28.1627 16.7391 27.896 15.897C27.0697 13.3004 24.6208 11.8193 24.6208 11.8193ZM34.4163 14.7742C34.5778 14.7446 34.7318 14.7262 34.8971 14.7151C35.3891 14.6781 35.9074 14.704 36.3694 14.8333C39.2052 15.5166 40.9668 18.1427 40.9668 18.1427C40.3808 19.2249 38.5667 20.4253 36.6699 20.802L36.5497 20.6838C36.5086 20.6433 36.4655 20.5999 36.421 20.5549L36.419 20.5529C36.3261 20.4591 36.2276 20.3596 36.129 20.2701C36.1033 20.2449 36.0776 20.2267 36.0513 20.2083C36.0277 20.1917 36.0037 20.1747 35.9788 20.152C35.9328 20.1104 35.8863 20.0676 35.8392 20.0242C35.6939 19.8906 35.5423 19.7512 35.3778 19.6201C35.3552 19.6016 35.3289 19.5886 35.3025 19.5757L35.3013 19.5751C35.2755 19.5624 35.2497 19.5497 35.2276 19.5315C35.021 19.3689 34.8219 19.2139 34.5966 19.0587C34.5819 19.0491 34.5644 19.0353 34.5462 19.0209L34.5451 19.02C34.5217 19.0016 34.4973 18.9823 34.4764 18.9701C34.2247 18.8038 33.9656 18.645 33.6951 18.4973C33.6675 18.4818 33.6398 18.469 33.6121 18.4562L33.6085 18.4545L33.605 18.4529C33.5749 18.4391 33.5449 18.4252 33.5148 18.4086C33.2294 18.2609 32.9439 18.1132 32.6435 17.995C32.3693 17.8878 32.0725 17.814 31.7721 17.7585C31.7102 17.746 31.6483 17.7429 31.5858 17.74L31.5841 17.7399L31.5794 17.7396C31.5339 17.7374 31.488 17.7351 31.4415 17.729L34.4163 14.7742ZM30.1193 19.5315C29.9576 19.5457 29.7958 19.5817 29.6341 19.6178L29.6099 19.6232L29.5858 19.6285L29.4883 19.6497L26.6938 22.368C27.1108 22.4235 27.5164 22.5159 27.8958 22.6636C29.6761 23.3506 31.171 24.6617 32.0424 25.5593C33.8378 25.1272 35.5092 24.019 36.0688 22.9886C36.0688 22.9886 34.1946 20.6469 31.9222 19.7678C31.3588 19.5499 30.7503 19.4724 30.1193 19.5315ZM12.271 25.4115C12.6954 23.6128 13.8523 21.9211 14.9152 21.3634C14.9152 21.3634 17.3641 22.8445 18.1905 25.441C18.4609 26.2869 18.4496 27.1438 18.2806 27.9526L15.396 30.8188C15.3472 30.4236 15.2758 30.0137 15.1556 29.637C14.5284 27.6682 13.2476 26.25 12.271 25.4115ZM18.8215 22.5157C19.2948 23.1805 19.738 23.9784 20.0235 24.8796C20.1437 25.2563 20.215 25.6405 20.2638 26.032L21.3155 24.9683L18.8215 22.5157ZM7.28301 32.0895C6.99381 29.7256 8.60513 26.9075 10.0474 26.1503C10.0474 26.1503 12.4964 27.6018 13.3227 30.1984C13.5894 31.0442 13.6119 31.9307 13.4429 32.7395L10.1376 35.9899H11.4897V37.3195L14.9152 33.951C15.7528 33.7775 16.628 33.807 17.3792 34.0988C19.6516 34.9778 21.4958 37.2899 21.4958 37.2899C20.7258 38.7083 17.8599 40.3224 15.4561 40.038C13.0522 39.7314 11.8203 38.4054 11.4897 37.3491L2.26499 46.4204C2.07719 46.6051 1.82178 46.6863 1.57388 46.6863C1.32598 46.6863 1.07058 46.6051 0.882776 46.4204C0.507174 46.051 0.507174 45.4305 0.882776 45.0612L10.1075 35.9899C9.04459 35.6943 7.6774 34.5013 7.28301 32.0895ZM22.6974 26.3275L21.7058 27.2731C22.1265 27.3285 22.5584 27.3912 22.9378 27.5389C23.8655 27.8972 24.6768 28.4329 25.4017 28.9868L22.6974 26.3275ZM19.9288 29.1619C20.0906 29.1257 20.2523 29.0897 20.4141 29.0756C21.0451 29.0201 21.6536 29.094 22.217 29.3119C24.4894 30.1909 26.3636 32.5327 26.3636 32.5327C25.7852 33.6001 23.9936 34.7672 22.1268 35.1625C21.2479 34.2687 19.8019 32.9944 18.0703 32.3258C17.691 32.1781 17.2891 32.0858 16.8684 32.0304L19.7831 29.1937C19.8317 29.1835 19.8802 29.1726 19.9288 29.1619Z" transform="translate(0.950439)" fill="black"/>
</svg>
