<svg width="50" height="49" viewBox="0 0 50 49" fill="none" xmlns="http://www.w3.org/2000/svg">
<path fill-rule="evenodd" clip-rule="evenodd" d="M0.0383185 0.696868C0.140125 0.353729 0.431263 0.0965266 0.910206 0.00326487C1.20281 -0.0206609 1.49053 0.0878596 1.69146 0.297698L8.03179 6.51254L18.8188 17.086C17.1143 13.4284 16.3938 8.62509 20.802 4.45065C23.1097 2.18869 25.9042 0.609954 26.4811 0.327239C26.9618 0.0444026 27.641 0.121063 27.8332 0.592254C28.0256 1.06357 27.9234 1.63498 27.4426 1.91769L27.3994 1.94308C26.8229 2.28134 24.3064 3.75815 22.1542 5.77597C19.3657 8.41501 17.2624 13.051 22.9354 20.1197C23.1406 20.1197 23.3183 20.1449 23.4834 20.1682L23.4858 20.1685C23.6292 20.1889 23.7631 20.208 23.897 20.208C24.1856 20.2552 24.4697 20.2758 24.7538 20.2965C25.0376 20.317 25.3214 20.3376 25.6097 20.3847C22.8386 16.7993 21.452 13.8542 21.3729 11.431C21.3602 11.3431 21.3602 11.2539 21.3729 11.166C21.3842 9.4996 22.0179 8.10153 23.296 6.92465C24.4499 5.79367 28.6987 2.30649 29.2756 2.21225C29.7563 2.11801 30.3212 2.47726 30.4174 2.94858C30.5135 3.41977 30.3152 3.79086 30.0268 3.97934C29.9149 4.05246 29.1606 4.60361 28.4342 5.15756L42.8573 12.9037C42.9904 12.4314 43.1129 11.9326 43.2179 11.431C43.314 10.8656 43.879 10.6004 44.3597 10.6947C44.9366 10.7889 45.2371 11.3426 45.1409 11.8139C44.4679 14.6414 43.1097 18.6058 40.0328 21.1505C37.3761 23.3825 30.6929 22.8611 23.9571 22.1225L25.8201 23.9486C32.4385 24.671 38.4501 25.0582 41.2948 22.2697C44.1794 19.4422 45.7119 16.4262 46.1926 12.8448C46.1926 12.2793 46.6734 11.9023 47.1542 11.9023C47.7311 11.9023 48.1217 12.4619 48.0256 12.9331C47.4487 16.9858 45.6998 20.3023 42.5268 23.5068C40.0268 26.0515 35.802 26.5287 30.8982 26.2459C31.5151 27.5105 31.9796 28.8694 32.2504 30.2516L47.8453 45.5377C48.0922 45.7796 48.1886 46.1324 48.0983 46.4631C48.0079 46.7937 47.7445 47.052 47.4072 47.1405C47.0699 47.2291 46.71 47.1345 46.4631 46.8925L20.8921 21.7986L18.7888 19.7368L0.309254 1.65256C0.0413703 1.41013 -0.0635491 1.04001 0.0383185 0.696868ZM42.2261 14.7298L26.8115 6.45346C26.3585 6.82175 25.9302 7.20029 25.4996 7.5809L25.4957 7.58432L25.4881 7.59103L25.3091 7.74936L40.7237 17.5868C41.3005 16.7487 41.8042 15.794 42.2261 14.7298ZM23.9271 9.10422L39.5221 19.0593L39.4725 19.1091C39.253 19.33 39.0369 19.5476 38.801 19.7368C38.4285 20.0374 37.8572 20.2458 37.2084 20.4142L23.2961 10.8419C23.3544 10.0697 23.6282 9.52011 23.9271 9.10422ZM34.4136 20.7971L23.7466 13.4632C24.3676 15.2177 25.7233 17.5464 28.3139 20.6792C30.3601 20.8192 32.5277 20.8979 34.4136 20.7971ZM14.0713 19.5011C10.1078 19.4959 6.73357 20.1137 4.54607 22.093C-0.0376702 26.3109 0.0314216 33.3669 0.0385017 34.0935L0.0388679 34.1393C0.0388679 34.6106 0.519642 35.0818 1.00042 35.0818C1.57732 35.0818 1.96196 34.6106 1.96196 34.1393L1.96154 34.089C1.95397 33.3752 1.88793 27.1665 5.89824 23.4183C8.20598 21.2506 12.7312 21.0621 17.8274 21.5334L15.8141 19.5306C15.2252 19.507 14.6376 19.5018 14.0713 19.5011ZM7.06993 24.6259C8.39208 23.3889 10.8739 22.9554 13.8909 22.9471C15.7011 22.9421 17.6949 23.0885 19.7502 23.3005L21.8536 25.4801C18.9059 25.1705 15.7385 24.8884 13.1397 24.9499L26.2707 33.1084C26.2842 31.7158 26.0263 30.3496 25.6096 29.0733L28.1036 31.5179C28.2959 33.4972 28.2118 35.4647 27.4426 37.3497C26.1926 40.3657 23.5063 42.5276 19.6601 43.5643H19.3596C18.8788 43.5643 18.4943 43.2933 18.3981 42.9162C18.3019 42.445 18.6084 41.8913 19.0892 41.7971C19.7082 41.6237 20.2663 41.4035 20.8019 41.1786L5.56755 33.2263L5.53563 33.6582C5.51867 33.886 5.50743 34.0371 5.50743 34.0509C5.50743 34.5222 5.02672 34.9934 4.54595 34.9934C4.06517 34.9934 3.5844 34.5222 3.5844 34.0509V34.0453C3.58324 33.8188 3.55303 27.8868 7.06993 24.6259ZM10.0749 25.274L25.76 35.0525C25.8434 35.1051 25.9347 35.1449 26.0304 35.1703C25.9269 35.656 25.7941 36.1439 25.6098 36.6135C25.5523 36.7516 25.4819 36.8812 25.4117 37.0103L25.4112 37.0113C25.3766 37.0748 25.3422 37.1382 25.3093 37.2025L7.76122 26.7761L7.82848 26.6903C8.00548 26.4641 8.18053 26.2403 8.3922 26.0398C8.77044 25.6886 9.36449 25.4514 10.0749 25.274ZM28.7047 26.0396C28.4485 26.0396 28.1797 26.0277 27.9235 26.0102L29.3057 27.3651L29.2281 27.1808L29.2276 27.1794L29.2271 27.1783C29.0649 26.7918 28.9038 26.4082 28.7047 26.0396ZM6.76952 28.396L24.2575 38.7634C23.8335 39.2519 23.3433 39.6952 22.7851 40.0888L5.838 31.2235C6.01976 30.3388 6.32317 29.3456 6.76952 28.396ZM29.5459 39.2347C30.219 37.6325 30.6216 35.8418 30.7178 34.051L32.5507 35.8476C32.3584 37.3557 31.9618 38.7694 31.2887 40.0888C29.3657 43.8589 25.8921 46.4037 21.3729 47.1576H21.1926C20.7118 47.1576 20.3272 46.8631 20.231 46.3918C20.1349 45.8264 20.5315 45.3669 21.0123 45.2727C26.0123 44.4244 28.3921 41.4967 29.5459 39.2347Z" transform="translate(0.922607 0.90979)" fill="black"/>
</svg>
