<svg width="20" height="20" viewBox="0 0 20 20" fill="none" xmlns="http://www.w3.org/2000/svg">
<path fill-rule="evenodd" clip-rule="evenodd" d="M0 10C0 4.48569 4.48568 0 10 0C15.5143 0 20 4.48569 20 10C20 15.5143 15.5143 20 10 20C4.48568 20 0 15.5143 0 10ZM18.3333 10C18.3333 5.38736 14.6126 1.66666 10 1.66666C5.38737 1.66666 1.66667 5.38736 1.66667 10C1.66667 14.6126 5.38737 18.3333 10 18.3333C14.6126 18.3333 18.3333 14.6126 18.3333 10ZM10 5C8.16732 5 6.66667 6.50064 6.66667 8.33334H8.33334C8.33334 7.40234 9.06901 6.66666 10 6.66666C10.931 6.66666 11.6667 7.40234 11.6667 8.33334C11.6667 8.97134 11.2565 9.53775 10.651 9.73959L10.3125 9.84375C9.63216 10.0684 9.16667 10.7194 9.16667 11.4323V12.5H10.8333V11.4323L11.1719 11.3281C12.4544 10.9017 13.3333 9.68423 13.3333 8.33334C13.3333 6.50064 11.8327 5 10 5ZM9.16667 15V13.3333H10.8333V15H9.16667Z" fill="currentColor"/>
</svg>
