<svg width="22" height="22" viewBox="0 0 22 22" fill="none" xmlns="http://www.w3.org/2000/svg">
<path fill-rule="evenodd" clip-rule="evenodd" d="M6.03758 0H15.8408C19.1702 0 21.8787 2.70859 21.8786 6.03771V15.8409C21.8786 19.17 19.1702 21.8786 15.8408 21.8786H6.03758C2.70846 21.8786 0 19.1702 0 15.8409V6.03771C0 2.70859 2.70846 0 6.03758 0ZM15.8409 19.9374C18.0998 19.9374 19.9376 18.0998 19.9376 15.8409H19.9374V6.03771C19.9374 3.77895 18.0997 1.94118 15.8408 1.94118H6.03758C3.77882 1.94118 1.94118 3.77895 1.94118 6.03771V15.8409C1.94118 18.0998 3.77882 19.9376 6.03758 19.9374H15.8409Z" fill="#167A65"/>
<path fill-rule="evenodd" clip-rule="evenodd" d="M5.30176 10.9393C5.30176 7.83072 7.83072 5.30176 10.9393 5.30176C14.0479 5.30176 16.5769 7.83072 16.5769 10.9393C16.5769 14.0478 14.0479 16.5766 10.9393 16.5766C7.83072 16.5766 5.30176 14.0478 5.30176 10.9393ZM7.24293 10.9392C7.24293 12.9773 8.90122 14.6353 10.9393 14.6353C12.9774 14.6353 14.6357 12.9773 14.6357 10.9392C14.6357 8.90096 12.9776 7.2428 10.9393 7.2428C8.90109 7.2428 7.24293 8.90096 7.24293 10.9392Z" fill="#167A65"/>
<path d="M16.8133 3.65625C16.4393 3.65625 16.0719 3.80766 15.8078 4.07296C15.5423 4.33696 15.3898 4.70449 15.3898 5.07978C15.3898 5.45391 15.5425 5.82131 15.8078 6.0866C16.0718 6.3506 16.4393 6.50331 16.8133 6.50331C17.1886 6.50331 17.5548 6.3506 17.8201 6.0866C18.0854 5.82131 18.2368 5.45378 18.2368 5.07978C18.2368 4.70449 18.0854 4.33696 17.8201 4.07296C17.5561 3.80766 17.1886 3.65625 16.8133 3.65625Z" fill="#167A65"/>
</svg>
