<svg width="24" height="30" viewBox="0 0 24 30" version="1.1" xmlns="http://www.w3.org/2000/svg" xmlns:xlink="http://www.w3.org/1999/xlink">
<path fill-rule="evenodd" clip-rule="evenodd" d="M 12 0C 7.69922 0 4.19995 3.49921 4.19995 7.79999L 4.19995 11.2687L 1.80005 11.2687C 0.813232 11.2687 0 12.082 0 13.0688L 0 27.4688C 0 28.4555 0.813232 29.2687 1.80005 29.2687L 22.2 29.2687C 23.1868 29.2687 24 28.4555 24 27.4688L 24 13.0688C 24 12.082 23.1868 11.2687 22.2 11.2687L 19.8 11.2687L 19.8 7.79999C 19.8 3.49921 16.3008 0 12 0ZM 12 1.20001C 15.6538 1.20001 18.5999 4.14612 18.5999 7.80002L 18.5999 11.2688L 5.3999 11.2688L 5.3999 7.80002C 5.3999 4.14612 8.34595 1.20001 12 1.20001ZM 22.8 13.0688C 22.8 12.7313 22.5374 12.4688 22.2 12.4688L 1.80005 12.4688C 1.4624 12.4688 1.19995 12.7313 1.19995 13.0688L 1.19995 27.4688C 1.19995 27.8062 1.4624 28.0688 1.80005 28.0688L 22.2 28.0688C 22.5374 28.0688 22.8 27.8062 22.8 27.4688L 22.8 13.0688ZM 4.80005 19.0688C 4.13672 19.0688 3.6001 19.6055 3.6001 20.2688C 3.6001 20.932 4.13672 21.4688 4.80005 21.4688C 5.46338 21.4688 6 20.932 6 20.2688C 6 19.6055 5.46338 19.0688 4.80005 19.0688ZM 8.3999 20.2688C 8.3999 19.6055 8.93652 19.0688 9.59985 19.0688C 10.2632 19.0688 10.7998 19.6055 10.7998 20.2688C 10.7998 20.932 10.2632 21.4688 9.59985 21.4688C 8.93652 21.4688 8.3999 20.932 8.3999 20.2688ZM 14.3999 19.0688C 13.7366 19.0688 13.2 19.6055 13.2 20.2688C 13.2 20.932 13.7366 21.4688 14.3999 21.4688C 15.0632 21.4688 15.5999 20.932 15.5999 20.2688C 15.5999 19.6055 15.0632 19.0688 14.3999 19.0688ZM 18 20.2688C 18 19.6055 18.5366 19.0688 19.2 19.0688C 19.8633 19.0688 20.3999 19.6055 20.3999 20.2688C 20.3999 20.932 19.8633 21.4688 19.2 21.4688C 18.5366 21.4688 18 20.932 18 20.2688Z" transform="translate(0 0.131256)" fill="black"/>
</svg>

