<svg width="100" height="56" viewBox="0 0 100 56" fill="none" xmlns="http://www.w3.org/2000/svg">
<path d="M2.99588 14.7356L4.82947 9.09779L0 5.62176L5.99175 5.62176L7.8425 0L9.69452 5.62267H15.6863L10.8568 9.09871L12.6875 14.7368L7.84159 11.2601L3.10575 14.6597L2.99588 14.7356Z" transform="translate(7.84314)" fill="black"/>
<path fill-rule="evenodd" clip-rule="evenodd" d="M41.994 0.0393801C42.0022 0.0259524 42.0342 0.011426 42.0622 0.00507834C42.1095 -0.00578592 42.1137 -0.00212381 42.1137 0.0451174C42.1137 0.0822268 42.1286 0.109937 42.1762 0.148267C42.2702 0.198682 42.3739 0.179151 42.4815 0.158887L42.4827 0.158643L42.4839 0.158399C42.5489 0.146314 42.6153 0.133863 42.6818 0.136792C42.7494 0.144849 42.8162 0.150342 42.8827 0.155713C43.0106 0.165967 43.1376 0.176221 43.267 0.205518C43.3702 0.242017 43.4214 0.207349 43.4851 0.164014C43.5067 0.149365 43.5298 0.13374 43.5568 0.11958C43.6303 0.130811 43.6439 0.120435 43.6664 0.103223C43.6821 0.09126 43.7022 0.0760012 43.75 0.0623293C43.8051 0.0839358 43.8516 0.0949221 43.8974 0.105664L43.8993 0.106153L43.9008 0.106519C43.9366 0.115064 43.9721 0.123609 44.0113 0.136792C44.1184 0.10188 44.1578 0.130322 44.2097 0.16792C44.2319 0.184033 44.2565 0.201856 44.2897 0.216992C44.3437 0.233472 44.3618 0.233106 44.4261 0.199903C44.4946 0.176709 44.5679 0.174756 44.6424 0.172803H44.6433C44.6863 0.171704 44.7296 0.170606 44.7727 0.165479C44.8145 0.176953 44.8628 0.200025 44.8806 0.216992C44.9286 0.262891 45.1097 0.276563 45.1931 0.239942L45.2556 0.211255C45.2895 0.271192 45.3374 0.297803 45.3883 0.326001C45.4101 0.338086 45.4324 0.350537 45.4545 0.36604C45.5357 0.41084 45.5625 0.388257 45.5957 0.360303C45.6136 0.345288 45.6334 0.328565 45.6647 0.320142C45.7444 0.320142 45.7612 0.334302 45.7556 0.44624C45.7559 0.557324 45.792 0.56294 45.8666 0.574658C45.8887 0.578076 45.9142 0.582105 45.9431 0.589551C46.0446 0.580884 46.1411 0.591138 46.2373 0.601392L46.2386 0.601514C46.3376 0.612012 46.4364 0.62251 46.5396 0.6125C46.5793 0.621655 46.583 0.634229 46.5794 0.698438C46.5575 0.757642 46.5709 0.79939 46.5816 0.832837C46.586 0.846509 46.5899 0.85896 46.5908 0.870435C46.6208 0.877393 46.6786 0.864331 46.7555 0.836011C46.8394 0.805127 46.9035 0.792188 46.9658 0.79585L47.0737 0.881909C47.0938 0.97749 47.1389 1.00081 47.2839 0.985059C47.3671 0.976026 47.3795 0.979077 47.4203 1.01936C47.468 1.06672 47.5715 1.07991 47.6362 1.04805C47.6745 1.02925 47.6894 1.03938 47.7441 1.11116C47.7763 1.15986 47.7706 1.16938 47.7616 1.18416C47.7554 1.19441 47.7476 1.2071 47.7498 1.23726C47.7637 1.25325 47.8196 1.2707 47.8862 1.2773C48.0113 1.28572 48.1251 1.34346 48.2305 1.39692C48.2544 1.40913 48.2779 1.42097 48.3009 1.43208C48.3574 1.54048 48.4661 1.57856 48.5725 1.61604L48.5818 1.61934L48.5892 1.6219L48.6191 1.63264C48.639 1.68672 48.6799 1.67134 48.7133 1.65876L48.7146 1.65828L48.7159 1.65779C48.7291 1.65303 48.741 1.64863 48.7498 1.64985C48.7644 1.59614 48.7945 1.59602 48.8577 1.64985C48.9021 1.6877 48.9127 1.74727 48.8748 1.74727C48.8676 1.74727 48.845 1.75764 48.8236 1.77595C48.7594 1.82576 48.8018 1.85725 48.8419 1.88704C48.8612 1.90132 48.8799 1.91523 48.8861 1.93062C48.8553 1.97651 49.0944 2.01948 49.1702 1.98225C49.2291 1.95332 49.2846 1.97639 49.2725 2.02241C49.2557 2.08589 49.3168 2.12983 49.4429 2.14851C49.542 2.15889 49.603 2.21614 49.6693 2.27839C49.7009 2.30806 49.7337 2.33882 49.7724 2.36628C49.8471 2.38777 49.9174 2.41084 49.9861 2.43342L49.9884 2.43416C50.1013 2.47126 50.2105 2.50703 50.3292 2.53242C50.4534 2.5417 50.5775 2.58162 50.6893 2.61751C50.7219 2.628 50.7535 2.63813 50.7837 2.64705C50.8044 2.68428 50.8162 2.68574 50.8974 2.68147C50.9477 2.67878 51.0321 2.66768 51.0849 2.65278L51.0869 2.65217C51.1768 2.62703 51.1854 2.62459 51.261 2.65852C51.3726 2.73665 51.4773 2.74751 51.6065 2.76094L51.6133 2.76167C51.7186 2.76179 51.8016 2.77314 51.8462 2.79036C51.9561 2.79609 52.0654 2.80427 52.1746 2.81257L52.1802 2.81294C52.3617 2.82661 52.5432 2.84028 52.7269 2.84199C52.8117 2.86848 52.8253 2.86812 53.028 2.82478C53.1966 2.78315 53.3609 2.79451 53.528 2.81331C53.554 2.82612 53.6132 2.82075 53.7495 2.79609C53.8558 2.77778 53.9656 2.76741 54.0743 2.75715L54.0787 2.75679C54.1208 2.75288 54.1627 2.74897 54.2041 2.74458C54.2883 2.72896 54.3545 2.73237 54.562 2.75605C54.7522 2.77766 54.8297 2.78108 54.8575 2.76753C54.8781 2.75728 54.9198 2.74495 54.9484 2.74458C55.0095 2.73176 55.0699 2.71443 55.1301 2.69709L55.1404 2.69417C55.1768 2.68379 55.2131 2.67341 55.2495 2.66426C55.3343 2.64021 55.4235 2.61995 55.5109 2.60127C55.6261 2.55806 55.771 2.54158 55.9654 2.5439C56.0629 2.53157 56.16 2.49446 56.2529 2.45894L56.3006 2.44075C56.3417 2.44075 56.4316 2.42659 56.4995 2.41218C56.5673 2.39766 56.6744 2.38936 56.7438 2.38923C56.8288 2.38875 56.91 2.36384 56.9909 2.33906L57.0335 2.32612C57.1136 2.30525 57.1889 2.2978 57.2633 2.29036L57.2648 2.29023L57.2661 2.29011L57.2671 2.28999L57.2682 2.28987C57.368 2.27986 57.4665 2.27009 57.5733 2.22871C57.6437 2.21052 57.7137 2.19783 57.7841 2.18501L57.786 2.18464L57.7923 2.18355C57.8737 2.1689 57.9556 2.154 58.0392 2.1313C58.1298 2.10237 58.2256 2.09138 58.3207 2.08052L58.3336 2.07905C58.3625 2.07563 58.3913 2.07222 58.4199 2.06831C58.4605 2.05732 58.5475 2.04072 58.6187 2.03389C58.778 2.01863 59.2266 1.91548 59.2437 1.89058C59.2969 1.88057 59.3514 1.87214 59.406 1.86372C59.4564 1.85591 59.5067 1.8481 59.5562 1.83906C59.6065 1.81514 59.6474 1.80879 59.7834 1.81611L60.113 1.753C60.2023 1.71199 60.2947 1.67854 60.3175 1.67854C60.3685 1.67854 60.537 1.62581 60.5732 1.59834C60.6109 1.58613 60.655 1.58149 60.6985 1.5771C60.7196 1.5749 60.7406 1.57271 60.7607 1.56965C60.8352 1.55476 61.0242 1.53206 61.1868 1.52376C61.303 1.50361 61.423 1.50313 61.5399 1.50264C61.5857 1.50239 61.631 1.50215 61.6754 1.50081C61.8033 1.53657 61.8652 1.5301 62.0618 1.47224C62.2238 1.42451 62.2468 1.42 62.3401 1.43782C62.4503 1.45881 62.8703 1.43489 62.914 1.40339C62.9264 1.39448 63.0682 1.38423 63.2322 1.38057C63.4304 1.37593 63.5889 1.36299 63.7094 1.34041C63.8621 1.31453 63.937 1.32051 64.0673 1.33467C64.1111 1.37105 64.61 1.39729 64.698 1.36909C64.728 1.35945 64.783 1.35737 64.8173 1.36335C64.8517 1.36921 64.9271 1.36372 64.9878 1.35188C65.0873 1.33247 65.1035 1.3343 65.1696 1.36335C65.2163 1.41987 65.2632 1.42756 65.3158 1.43623C65.3413 1.44038 65.3681 1.44478 65.3968 1.45503C65.5737 1.44758 65.7419 1.49409 65.9128 1.54146C66.0264 1.57295 66.1411 1.60469 66.2605 1.62117C66.3191 1.64375 66.3754 1.65449 66.5843 1.66707C66.6148 1.6689 66.6786 1.66292 66.7263 1.65559C66.8013 1.64412 66.8246 1.64839 66.8854 1.68428C66.9878 1.7447 67.076 1.75593 67.1184 1.71296C67.1703 1.66023 67.2443 1.66792 67.3059 1.73579C67.4476 1.78071 67.5657 1.7845 67.6951 1.78865H67.6963C67.7335 1.78975 67.7716 1.79097 67.8116 1.79316C67.9085 1.79463 68.0048 1.82124 68.1011 1.84785C68.1409 1.85884 68.1808 1.86982 68.2206 1.8791C68.3282 1.86531 68.4028 1.8979 68.5047 1.94795C68.5469 1.9687 68.6079 1.98225 68.6638 1.98225C68.7566 1.98945 68.8321 2.0489 68.9036 2.1053C68.9281 2.12471 68.9521 2.14363 68.9763 2.15999C68.9763 2.19832 69.0489 2.22627 69.1353 2.21724C69.1668 2.22432 69.1968 2.23188 69.2269 2.23958L69.229 2.24006L69.2327 2.24104C69.2966 2.25728 69.3613 2.27376 69.4421 2.28608C69.4926 2.33052 69.5423 2.35884 69.5899 2.36628C69.6556 2.40144 69.7118 2.4106 69.7721 2.42036L69.7766 2.42109C69.8005 2.425 69.8251 2.42903 69.8512 2.43501C69.8737 2.4814 69.918 2.49421 69.9601 2.50642C69.9801 2.51216 69.9996 2.51777 70.016 2.52681C70.1344 2.54329 70.2548 2.57893 70.3683 2.61274C70.4384 2.64399 70.5049 2.67744 70.571 2.71077L70.5731 2.71187L70.5742 2.71235C70.6521 2.75154 70.7294 2.79036 70.8114 2.82478C70.8898 2.83687 70.9442 2.8824 71.0037 2.9322L71.033 2.95662C71.0666 2.96321 71.1087 2.97932 71.1239 2.99104C71.1503 3.0113 71.3556 3.0395 71.4591 3.03682C71.4981 3.03596 71.5199 3.05891 71.5841 3.13997L71.6637 3.23738L71.7275 3.23274C71.8029 3.22725 71.878 3.22175 71.9534 3.21455C72.026 3.20613 72.0792 3.23604 72.0841 3.28901L72.086 3.31892L72.0861 3.3199C72.087 3.33687 72.0882 3.35713 72.0898 3.37495C72.0926 3.40645 72.1074 3.43965 72.1182 3.44954C72.1289 3.45942 72.2039 3.47285 72.283 3.4781C72.4092 3.48103 72.4946 3.53755 72.5889 3.5998C72.6112 3.61458 72.634 3.62959 72.6579 3.64436C72.7146 3.69404 72.7703 3.7303 72.7943 3.7303C72.8168 3.7303 72.9087 3.75178 72.9931 3.7762C73.1131 3.81074 73.1567 3.83455 73.1977 3.87935C73.2892 3.93135 73.3797 3.96931 73.4694 4.00691C73.6004 4.06172 73.7295 4.11592 73.8567 4.21174C73.9062 4.26106 73.9521 4.29939 74.1352 4.3321C74.2811 4.32625 74.2826 4.36567 74.2844 4.41487C74.2854 4.44368 74.2866 4.47578 74.317 4.5041C74.3405 4.52705 74.3796 4.54414 74.4022 4.54414C74.4961 4.58516 74.5866 4.63618 74.6755 4.68647C74.7403 4.7231 74.8042 4.75923 74.8681 4.7906C74.8963 4.84749 75.0015 4.92 75.0783 4.93391C75.1716 4.95076 75.2601 4.98628 75.2601 5.00837C75.3788 5.1822 75.5483 5.26362 75.743 5.32356L75.851 5.42109C75.8989 5.5782 76.012 5.68416 76.1284 5.79341C76.1916 5.85261 76.2559 5.91292 76.3112 5.98274C76.356 6.00374 76.4128 6.02278 76.4362 6.02278C76.5004 6.02583 76.54 6.06685 76.577 6.10518C76.5925 6.12129 76.6075 6.13679 76.6237 6.14888C76.6529 6.18855 76.6813 6.2314 76.7095 6.274L76.7102 6.2751C76.7363 6.31453 76.7623 6.35371 76.7884 6.3896C76.7946 6.42415 76.8251 6.48958 76.8567 6.53291C76.9022 6.59553 76.9326 6.61421 77.0044 6.63606C77.0719 6.64888 77.1212 6.6916 77.1683 6.7325L77.1696 6.73359C77.1884 6.74983 77.2068 6.76582 77.2259 6.77937C77.2662 6.86799 77.3237 6.91279 77.4816 6.99141C77.531 7.04658 77.5802 7.0998 77.6292 7.15278L77.6463 7.17122C77.6862 7.21418 77.7259 7.25715 77.7657 7.30085C77.799 7.33052 77.8191 7.36848 77.8395 7.40718L77.84 7.40803C77.8505 7.42793 77.8611 7.44795 77.8737 7.46711C77.8993 7.4991 77.9309 7.55403 77.9418 7.58748C78.115 7.70772 78.2226 7.93464 78.2884 8.09175C78.3379 8.11262 78.3893 8.1407 78.402 8.15486C78.4937 8.16462 78.519 8.20381 78.5514 8.25398C78.565 8.27485 78.5797 8.29768 78.6009 8.321C78.6236 8.43135 78.6959 8.48921 78.7739 8.55159C78.7919 8.56599 78.8101 8.58064 78.8282 8.59614C78.9972 8.64924 79.0518 8.7751 79.1136 8.91731C79.1322 8.96028 79.1515 9.00459 79.1747 9.0489C79.1903 9.06575 79.2327 9.09773 79.2713 9.11775C79.3518 9.15706 79.3978 9.23225 79.4423 9.30501L79.4439 9.30757C79.4545 9.3249 79.465 9.34211 79.4759 9.35847C79.5164 9.44087 79.5787 9.50776 79.6435 9.57734C79.7068 9.64522 79.7724 9.71565 79.8224 9.80549C79.864 9.82307 79.9017 9.84639 79.9077 9.86274C79.9575 9.88289 79.9923 9.9228 80.0278 9.9637L80.0286 9.96455C80.0462 9.98469 80.0639 10.005 80.0838 10.0233C80.0838 10.0629 80.1576 10.1666 80.1861 10.1666C80.2157 10.182 80.2435 10.2058 80.2711 10.2296L80.2724 10.2307C80.2834 10.2401 80.2943 10.2495 80.3054 10.2583C80.373 10.3093 80.3965 10.4017 80.4176 10.4848C80.4219 10.5015 80.426 10.5178 80.4304 10.5333C80.5272 10.5886 80.595 10.6699 80.6643 10.7532C80.6844 10.7774 80.7047 10.8017 80.7258 10.8256C80.8183 10.9053 80.8454 11.0094 80.874 11.119C80.8902 11.181 80.9068 11.2448 80.9361 11.3071C80.956 11.3433 80.9794 11.3795 81.0029 11.4157L81.0042 11.4178C81.026 11.4515 81.0478 11.4853 81.0667 11.5191C81.0859 11.5695 81.1123 11.6049 81.1388 11.6405C81.151 11.6568 81.1632 11.6732 81.1747 11.691C81.2415 11.7668 81.3114 11.8472 81.3735 11.9202C81.3736 11.9415 81.4042 12.0086 81.436 12.0693C81.4679 12.13 81.5074 12.2342 81.5269 12.3043C81.5381 12.3441 81.5525 12.3922 81.5653 12.4348C81.575 12.467 81.5838 12.4962 81.5894 12.5163C81.6026 12.5631 81.631 12.6416 81.6576 12.6883C81.6917 12.7637 81.7324 12.8359 81.7729 12.9075L81.7742 12.9097L81.7747 12.9107C81.8009 12.9569 81.8268 13.0029 81.8508 13.0493C81.8907 13.0928 81.894 13.1182 81.8849 13.1696C81.808 13.2391 81.8248 13.2727 81.8453 13.3138C81.8564 13.3359 81.8685 13.3601 81.8679 13.3933C81.8932 13.5761 81.8869 13.7249 81.8394 13.8575C81.792 13.9899 81.703 14.1064 81.5781 14.2357C81.567 14.2813 81.5329 14.2945 81.4982 14.3079C81.4804 14.3148 81.4625 14.3217 81.4474 14.3331C81.4153 14.3687 81.4545 14.5256 81.5156 14.6082C81.5404 14.6418 81.5611 14.6729 81.5611 14.6827C81.6129 14.7622 81.6491 14.8521 81.6847 14.9404L81.6917 14.9578C81.6984 15.0406 81.7262 15.1127 81.7545 15.186C81.7641 15.2109 81.7737 15.2359 81.7827 15.2615C81.8329 15.31 81.8342 15.3757 81.8354 15.4388C81.8359 15.4626 81.8364 15.486 81.8395 15.508C81.8113 15.524 81.8151 15.5802 81.8622 15.703C81.8752 15.746 81.8887 15.7865 81.9021 15.8267C81.9155 15.8667 81.9288 15.9067 81.9417 15.9494C81.9741 16.0356 81.9963 16.1185 82.0181 16.2C82.0507 16.3219 82.0825 16.4406 82.1463 16.5626C82.1847 16.6258 82.1877 16.6501 82.1804 16.7518C82.1738 16.8431 82.1811 16.8874 82.2088 16.9466C82.2417 16.9873 82.266 17.0295 82.2906 17.0722L82.2916 17.0739L82.2927 17.0759C82.3075 17.1014 82.3224 17.1271 82.3394 17.1529C82.3394 17.1837 82.4983 17.439 82.5326 17.4625C82.5427 17.5159 82.5485 17.574 82.5545 17.6334L82.5547 17.6345C82.5608 17.6954 82.5671 17.7576 82.5781 17.8177C82.5169 17.8785 82.5249 17.9284 82.5333 17.981C82.5373 18.0058 82.5413 18.0311 82.5383 18.0584C82.6003 18.1369 82.6292 18.2294 82.6578 18.3209C82.6652 18.3444 82.6725 18.3679 82.6804 18.3909C82.7133 18.5388 82.7405 18.6879 82.7599 18.838C82.7714 18.8916 82.7791 18.9442 82.7868 18.9965C82.7939 19.0449 82.8011 19.0931 82.811 19.1417C82.8014 19.2511 82.8367 19.378 82.8849 19.4053C82.9056 19.4171 82.943 19.5334 82.9587 19.6461C82.9857 19.7413 83.0356 19.828 83.0854 19.9146L83.0861 19.9157C83.1046 19.9479 83.1232 19.9803 83.1406 20.0129C83.1645 20.0911 83.1613 20.171 83.158 20.2534C83.156 20.3022 83.154 20.3519 83.1576 20.4025C83.1967 20.4735 83.201 20.4967 83.1974 20.7407C83.1682 20.9786 83.154 21.1618 83.2428 21.3769C83.2786 21.4344 83.2894 21.546 83.2599 21.566C83.2026 21.6048 83.1866 21.6558 83.2087 21.7323C83.2526 21.8245 83.2509 21.908 83.2491 21.9959C83.2482 22.0454 83.2471 22.0961 83.2542 22.1506C83.2656 22.2672 83.2817 22.3834 83.2996 22.5002C83.3438 22.5638 83.349 22.6438 83.3541 22.7231L83.3564 22.7581C83.3698 22.7943 83.3779 22.8819 83.3792 22.953C83.4049 23.1098 83.4204 23.2696 83.4189 23.4229C83.4225 23.4766 83.4243 23.5288 83.426 23.5799L83.4261 23.5823C83.4296 23.6903 83.4331 23.7948 83.453 23.9044C83.4871 23.9586 83.4791 24.0617 83.4733 24.1346L83.4732 24.1361C83.4717 24.155 83.4704 24.1718 83.4701 24.1851C83.5062 24.244 83.5397 24.3171 83.5666 24.3858C83.6022 24.4453 83.6291 24.5047 83.6291 24.5119C83.6291 24.519 83.6012 24.529 83.5666 24.5405C83.4732 24.5716 83.4528 24.6031 83.4814 24.6666C83.537 24.7102 83.5587 24.7639 83.5812 24.82C83.5905 24.8431 83.6 24.8667 83.6121 24.8901C83.6209 24.8951 83.6295 24.9387 83.6348 24.9819C83.6401 25.025 83.6605 25.0775 83.6803 25.1021C83.7001 25.1269 83.7243 25.1676 83.7314 25.1939C83.742 25.233 83.7356 25.2521 83.6973 25.2799C83.6291 25.3292 83.6439 25.4656 83.7201 25.4919C83.7925 25.5169 83.8184 25.5855 83.7769 25.6467C83.7878 25.7081 83.8163 25.783 83.8447 25.8579L83.845 25.8587L83.8462 25.8619C83.8621 25.9039 83.878 25.9456 83.8905 25.9848C83.933 26.0281 83.9339 26.0761 83.9349 26.1279C83.9353 26.1538 83.9358 26.1807 83.9416 26.2083C83.9514 26.2252 83.9654 26.2706 83.9701 26.3115C83.9934 26.518 84.004 26.5952 84.0212 26.6152C84.0033 26.6527 84.0157 26.6865 84.0283 26.7207C84.035 26.7387 84.0416 26.7569 84.0439 26.7757C84.0967 26.8211 84.136 26.9273 84.1235 26.9877C84.1184 27.0122 84.1326 27.0755 84.1519 27.1311C84.147 27.1881 84.177 27.229 84.2058 27.2683C84.2198 27.2873 84.2334 27.306 84.2428 27.3259C84.2957 27.3669 84.3434 27.4837 84.3223 27.5151C84.3231 27.5456 84.3365 27.5748 84.3497 27.6036C84.3563 27.618 84.3628 27.6324 84.3678 27.6468C84.443 27.7133 84.4857 27.8095 84.5269 27.9024L84.5382 27.9277C84.5382 27.9425 84.5806 27.9793 84.6348 28.0136C84.689 28.0479 84.7512 28.0959 84.7712 28.1168C84.8238 28.1719 84.8846 28.3302 84.8848 28.4091C84.885 28.512 84.9679 28.6693 85.0325 28.6899C85.0798 28.7203 85.1243 28.7574 85.1685 28.7943L85.1699 28.7954L85.1712 28.7965L85.2086 28.8275C85.2215 28.8646 85.3038 28.9421 85.3279 28.9421C85.3457 28.9786 85.3695 29.0158 85.3926 29.052L85.3933 29.0531C85.4041 29.0699 85.4148 29.0865 85.4246 29.1026C85.4519 29.1182 85.4586 29.1408 85.4586 29.2C85.4721 29.2785 85.517 29.3483 85.561 29.4167L85.5836 29.4522C85.6185 29.4903 85.6258 29.5201 85.6234 29.5668C85.6165 29.7034 85.6291 29.7365 85.6802 29.7904C85.7086 29.8203 85.7746 29.9222 85.8279 30.0196C85.8813 30.117 85.9288 30.1969 85.9359 30.1972C86.033 30.2523 86.0426 30.3568 86.0524 30.4636C86.0548 30.4895 86.0572 30.5156 86.0609 30.5411C86.0672 30.5925 86.0772 30.6407 86.0836 30.65C86.0901 30.6594 86.1004 30.7221 86.1063 30.7875C86.1155 30.888 86.1284 30.9172 86.1859 30.9938C86.2233 31.0439 86.2541 31.0908 86.2541 31.097C86.2541 31.1032 86.2358 31.1202 86.2143 31.1372C86.1792 31.1647 86.1801 31.1811 86.1916 31.2747C86.1931 31.3188 86.2103 31.359 86.2268 31.3977C86.2348 31.4161 86.2426 31.4343 86.2484 31.4523C86.2421 31.4617 86.2488 31.5599 86.2654 31.6701C86.282 31.7805 86.2964 31.9493 86.2995 32.0427C86.3051 32.2103 86.3305 32.4664 86.3563 32.6387C86.3673 32.7125 86.3606 32.7369 86.3279 32.7878C86.3064 32.8214 86.2835 32.8951 86.2768 32.9482C86.27 33.0014 86.2554 33.0535 86.2427 33.0628C86.2228 33.0773 86.212 33.1679 86.2143 33.252H86.2995C86.418 33.2714 86.4819 33.2325 86.5632 33.1829L86.6006 33.1604C86.6569 33.0699 86.7378 33.028 86.8139 32.9885C86.8322 32.979 86.8503 32.9696 86.8677 32.9597C86.8848 32.9696 86.9147 33.0092 86.9302 33.0515C86.9556 33.1231 86.9308 33.1912 86.9055 33.2609C86.9003 33.2751 86.8951 33.2893 86.8904 33.3035C86.8683 33.3182 86.8755 33.4689 86.9018 33.5214C86.9316 33.5811 86.998 33.6206 87.0949 33.6361C87.2349 33.6606 87.2983 33.7479 87.3726 33.8503L87.3961 33.8824C87.4372 33.9144 87.4582 33.9495 87.4586 33.9799C87.4597 34.075 87.6285 34.1956 87.6915 34.1461C87.774 34.0244 87.7902 33.8737 87.8059 33.7279C87.8093 33.697 87.8126 33.6662 87.8165 33.6361C87.8233 33.6036 87.8204 33.491 87.8108 33.3839C87.7969 33.2285 87.7964 33.179 87.8165 33.1374C87.8538 33.0601 87.8952 33.0317 87.9472 33.0457C88.0124 33.0632 88.0496 33.114 88.1006 33.252C88.166 33.429 88.2479 33.481 88.3335 33.3896C88.3838 33.3717 88.4127 33.333 88.4408 33.2954C88.4554 33.2757 88.4698 33.2564 88.4869 33.2406C88.521 33.1356 88.5968 33.017 88.629 33.017C88.7863 33.1082 88.815 33.2452 88.8482 33.4033L88.8562 33.4411C88.827 33.5075 88.8241 33.5494 88.8335 33.6131C88.8544 33.7541 88.8914 33.8251 88.9415 33.8251C89.0361 33.85 89.0628 33.9168 89.0912 33.9879C89.1008 34.012 89.1106 34.0366 89.1233 34.0601C89.1551 34.0883 89.1396 34.1984 89.1006 34.232C89.0622 34.2651 89.0717 34.3646 89.1176 34.427C89.1263 34.4719 89.1596 34.5017 89.1905 34.5292C89.2058 34.5429 89.2205 34.556 89.2312 34.5701C89.261 34.5346 89.2986 34.5075 89.3356 34.4808L89.3372 34.4797L89.3384 34.4788C89.3541 34.4674 89.3698 34.4561 89.3846 34.444C89.4206 34.4364 89.4487 34.4143 89.4755 34.3524C89.5105 34.2718 89.6268 34.1647 89.6801 34.1633C89.6927 34.1629 89.7335 34.1942 89.771 34.232C89.8349 34.2966 89.9073 34.3181 89.9073 34.2779C89.9681 34.2865 89.9903 34.2425 90.0124 34.1986C90.0233 34.1771 90.0341 34.1556 90.0494 34.1403C90.1047 34.0485 90.2319 33.9559 90.3278 33.9627C90.3928 33.9672 90.4266 34.0328 90.4615 34.1005C90.478 34.1325 90.4948 34.1651 90.5153 34.192L90.5664 34.3237L90.5153 34.4097C90.4322 34.5357 90.3945 34.7408 90.4357 34.8568C90.6509 34.9708 90.7797 34.7502 90.8797 34.5789L90.9016 34.5416C90.9999 34.4941 91.0138 34.4897 91.055 34.5186C91.0895 34.5427 91.1018 34.5701 91.1118 34.6562C91.1223 34.7459 91.1278 34.7766 91.163 34.7937C91.2201 34.8215 91.2607 34.8031 91.288 34.7364C91.3441 34.6267 91.4315 34.5333 91.5152 34.444C91.5843 34.3681 91.6459 34.3544 91.663 34.4097C91.6663 34.4207 91.6746 34.4387 91.6835 34.4582L91.6852 34.4619C91.6913 34.475 91.6975 34.4887 91.7027 34.5014C91.7266 34.8314 91.8289 34.965 91.9641 35.0516C91.9641 35.0018 92.1105 34.9 92.163 34.914C92.2324 34.9327 92.2677 35.1162 92.2255 35.2351C92.211 35.2756 92.2145 35.305 92.2425 35.3725C92.2812 35.4663 92.2966 35.4732 92.3788 35.4299C92.4729 35.3803 92.5379 35.3718 92.5379 35.4069C92.5548 35.441 92.5855 35.4647 92.6164 35.4885C92.6325 35.5008 92.6487 35.5133 92.6629 35.5273C92.6795 35.559 92.8025 35.5939 92.8447 35.5789C92.8551 35.5441 92.8809 35.5213 92.907 35.498L92.908 35.4971C92.9217 35.4849 92.9354 35.4727 92.947 35.4586C92.99 35.4331 93.0512 35.387 93.0834 35.361C93.1561 35.3026 93.2534 35.2911 93.3731 35.3267L93.4302 35.3441C93.4669 35.3554 93.5035 35.3667 93.5265 35.3725C93.5741 35.3848 93.6014 35.4096 93.6231 35.4586C93.6393 35.4949 93.667 35.5299 93.6856 35.5445C93.7516 35.5961 93.9356 35.5664 93.9356 35.5043C93.9356 35.4699 94.1919 35.4753 94.2311 35.5101C94.2672 35.6683 94.3575 35.7492 94.4754 35.854C94.5497 35.854 94.5697 35.8565 94.6515 35.9342C94.7028 35.9829 94.7562 36.026 94.7708 36.026C94.8855 36.1086 94.9693 36.2241 95.0504 36.3359C95.0671 36.359 95.0836 36.3818 95.1004 36.4041C95.1049 36.4046 95.1239 36.405 95.1524 36.4055L95.1673 36.4057L95.1738 36.4058C95.2139 36.4067 95.2665 36.4078 95.3219 36.4099C95.4789 36.4156 95.5335 36.41 95.5663 36.3869C95.6176 36.351 95.8394 36.2691 95.8901 36.2666C95.9685 36.2326 96.0041 36.2604 96.0461 36.2932C96.0651 36.3079 96.0854 36.3238 96.1117 36.3354C96.1853 36.3682 96.2182 36.4238 96.248 36.5761C96.2597 36.6356 96.295 36.7253 96.3276 36.7767C96.3791 36.858 96.3966 36.8737 96.4526 36.8741C96.5407 36.8748 96.6609 36.9071 96.6685 36.9315C96.744 36.9486 96.8063 36.9927 96.8669 37.0358L96.8689 37.0373C96.893 37.0544 96.9169 37.0712 96.9412 37.0861C97.0105 37.1467 97.0394 37.2232 97.0688 37.3012C97.077 37.3232 97.0853 37.3452 97.0946 37.367C97.1258 37.4139 97.1443 37.4167 97.1798 37.4072C97.2521 37.4191 97.2977 37.5042 97.3385 37.5805C97.3502 37.6025 97.3615 37.6236 97.373 37.6422C97.4185 37.6856 97.4372 37.6973 97.481 37.6879C97.5222 37.6792 97.5477 37.682 97.5719 37.7109C97.6045 37.75 97.7796 37.7907 97.9582 37.7968C98.0428 37.7998 98.0883 37.8198 98.1628 37.8885C98.2638 37.9606 98.3553 38.0428 98.4471 38.1254C98.4956 38.1691 98.5443 38.2128 98.5946 38.2553C98.6671 38.2763 98.7395 38.3176 98.7764 38.3527C98.8338 38.3833 98.8749 38.4251 98.9171 38.4681C98.9358 38.487 98.9546 38.5062 98.9752 38.5247C99.0019 38.5247 99.2164 38.6121 99.2991 38.6566C99.3944 38.7128 99.4998 38.7556 99.606 38.7987L99.6074 38.7991L99.6083 38.7995C99.684 38.8303 99.7601 38.8612 99.8332 38.8973C99.9492 38.9395 99.9832 38.9971 99.9979 39.1781C100.017 39.5101 99.901 39.7414 99.6002 39.843C99.3432 39.893 99.1361 39.9096 98.9355 39.9174C98.7737 39.9006 98.6434 39.8876 98.4866 39.8945C98.4279 39.9006 98.3712 39.9023 98.3143 39.9039L98.248 39.906C97.8359 39.9213 97.4272 39.8865 97.0196 39.8519L97.0172 39.8516C96.4933 39.8072 95.9714 39.7629 95.4469 39.8258C93.973 39.78 92.7614 39.8856 91.4882 39.9967L91.4848 39.9969L91.4838 39.997C90.6936 40.066 89.8795 40.137 88.9642 40.1754C88.9604 40.1872 88.6121 40.1973 88.0494 40.2039C87.6823 40.2083 87.085 40.2293 86.4066 40.2534L86.3893 40.254C85.6476 40.2801 84.8107 40.3095 84.0724 40.3243C83.9682 40.3182 83.3342 40.3005 83.2712 40.3015C82.9763 40.3127 82.6828 40.285 82.3906 40.2498C81.1287 40.1285 79.9758 40.1218 78.7566 40.1147H78.7547H78.7529C77.6973 40.1086 76.5918 40.1022 75.3226 40.0206C74.1968 39.8809 72.9785 39.8482 71.7789 39.8161L71.7333 39.8149L71.686 39.8137C71.4272 39.8066 71.1694 39.7996 70.9137 39.7913C70.6638 39.7858 70.4095 39.781 70.1526 39.7761H70.1512H70.1497C69.0793 39.7554 67.9635 39.734 66.9252 39.6652C66.5786 39.6535 66.204 39.6607 65.8225 39.668C65.3144 39.6779 64.7941 39.6879 64.3116 39.6538L64.2719 39.6525C64.1371 39.6485 64.1177 39.648 63.9309 39.6595C63.8144 39.6667 63.7513 39.6618 63.7434 39.648L63.5323 39.6507C62.8987 39.6586 62.2399 39.6669 61.607 39.7226C61.4791 39.7055 61.3573 39.725 61.2328 39.7449L61.2312 39.7452L61.2294 39.7454C61.1506 39.758 61.0708 39.7706 60.9877 39.7741C60.7969 39.7789 60.6652 39.7916 60.6241 39.8085C59.823 39.8297 59.1136 39.8651 58.3912 39.9576C58.1796 39.9582 57.9799 39.9737 57.7812 39.9892L57.7795 39.9893C57.5808 40.0048 57.3831 40.0202 57.1754 40.0206C57.0428 40.0343 56.904 40.0338 56.7623 40.0332C56.6288 40.0327 56.4928 40.0322 56.3572 40.0435C55.8734 40.0397 55.2709 40.0987 54.6449 40.1601C54.0344 40.2199 53.4015 40.2819 52.8347 40.29C52.5417 40.2927 52.1015 40.3254 51.6483 40.3591L51.6432 40.3594C51.3641 40.3803 51.0804 40.4013 50.8234 40.4161C49.9519 40.4898 49.0677 40.551 48.1758 40.5994C47.8986 40.5985 47.6255 40.6334 47.3531 40.6683L47.3521 40.6684C47.0894 40.7021 46.8271 40.7357 46.5622 40.737C46.3778 40.7601 46.1933 40.7716 46.0063 40.7832C45.7585 40.7984 45.5063 40.8142 45.244 40.8574C44.9051 40.8396 44.5694 40.8762 44.234 40.9129L44.2293 40.9134C43.9845 40.9401 43.7399 40.9667 43.4941 40.972C43.3939 40.967 43.2649 40.9713 43.1703 40.9891C43.05 41.0279 42.9258 41.026 42.8054 41.024L42.7725 41.0235C42.6086 41.0206 42.4457 41.0363 42.2827 41.0521L42.279 41.0524C42.1503 41.0649 42.0215 41.0773 41.8919 41.0809C41.7364 41.088 41.5814 41.0968 41.4266 41.1057L41.4249 41.1058C41.1247 41.123 40.8249 41.1401 40.5226 41.1439C40.3447 41.1529 40.1674 41.1475 39.9907 41.1422C39.7144 41.1337 39.4394 41.1254 39.1647 41.1726C39.1155 41.1511 38.8457 41.1584 38.8068 41.184C38.7169 41.1199 38.6052 41.1417 38.479 41.1662C38.4069 41.1802 38.3301 41.1951 38.25 41.1955C38.1949 41.2008 38.1397 41.2069 38.0846 41.2131L38.0676 41.215C37.9467 41.2288 37.8258 41.2425 37.7046 41.247C37.6681 41.2711 37.2505 41.2673 37.1648 41.2413C36.5792 41.1511 35.9709 41.1069 35.3623 41.0628C34.8413 41.025 34.3201 40.9871 33.8126 40.9204C33.8006 40.9124 33.72 40.9021 33.6365 40.8974C33.3475 40.8579 33.0641 40.846 32.7772 40.8339L32.7743 40.8338L32.7715 40.8337L32.7329 40.8321L32.6959 40.8305C32.6403 40.8281 32.5846 40.8258 32.5286 40.8229C32.3362 40.7956 32.1425 40.7921 31.9488 40.7886C31.8314 40.7866 31.714 40.7845 31.5968 40.7771C30.941 40.7624 30.3202 40.7293 29.7055 40.6966L29.701 40.6964L29.6965 40.6961L29.6926 40.6959L29.6889 40.6956C28.861 40.6516 28.0435 40.608 27.1652 40.6109C27.0419 40.6185 26.7696 40.5963 26.6879 40.5708C25.5698 40.4575 24.51 40.4273 23.4326 40.3967L23.425 40.3964C22.7567 40.3774 22.0814 40.3581 21.3812 40.3186C21.0963 40.2911 20.4737 40.3015 20.3699 40.3358C20.2154 40.3342 20.0495 40.3404 19.887 40.3472L19.7901 40.3498C19.3957 40.3604 19.1199 40.3679 19.1199 40.3702C18.9639 40.3761 18.7895 40.394 18.6116 40.4123C18.4721 40.4267 18.3304 40.4412 18.1938 40.4504C17.2339 40.5035 16.3027 40.5795 15.3678 40.656L15.3612 40.6564L15.3538 40.6571C14.4921 40.7276 13.6272 40.7983 12.7338 40.8516C12.6452 40.8605 12.5476 40.8525 12.4512 40.8444L12.4497 40.8443C12.3997 40.8402 12.35 40.8361 12.302 40.8344C11.6359 40.8179 11.3811 40.8012 11.3191 40.7713C11.2083 40.764 11.0963 40.7598 10.9835 40.7558C10.575 40.7409 10.1552 40.7257 9.73962 40.5535C9.71338 40.5754 9.32296 40.5891 8.71124 40.5994C8.42801 40.6042 8.08709 40.6127 7.95559 40.6167C7.845 40.6092 7.73468 40.6118 7.62567 40.6142L7.62274 40.6143L7.61996 40.6145H7.61889C7.58325 40.6153 7.54773 40.6162 7.51242 40.6167C6.9866 40.5972 6.46164 40.5844 5.93295 40.5822C5.85 40.6022 5.57049 40.5813 5.30795 40.5249C4.43869 40.3825 3.61862 40.4036 2.72021 40.4268H2.71902L2.70224 40.4273L2.68444 40.4278C2.29348 40.4377 1.88739 40.4479 1.45578 40.4447C1.3901 40.4835 1.11688 40.4838 1.08648 40.4447C0.697659 40.4519 0.188687 40.3825 0.00698504 40.2498C-0.0151707 40.1745 0.0194362 40.1054 0.0540737 40.0362C0.063351 40.0177 0.0726283 39.9991 0.0808376 39.9804C0.0917324 39.9077 0.0993007 39.9039 0.228543 39.8543C0.393612 39.7911 0.57629 39.7458 0.666043 39.7454C0.976864 39.6535 1.25232 39.5375 1.5126 39.3386L1.63192 39.3328L2.35348 39.1781L2.75119 39.052L3.06936 38.989L3.21707 39.0347L3.43866 39.0233L3.84774 38.8972L4.13751 38.817L4.6318 38.5477H4.80224L5.04657 38.6107L5.84201 38.1005L6.21698 38.0834L6.58627 37.837L6.66015 37.6135L6.79083 37.4644L6.88742 37.642L6.92151 37.7453L7.0408 37.7338L7.17147 37.642L7.43283 37.6077L7.60327 37.5733L7.71692 37.195L7.77374 37.0919L7.84759 37.1148L8.01803 37.5446L8.40438 37.4816L8.88733 36.9315L9.03506 36.6735L9.08618 36.4213H9.24527L9.37594 36.7365L9.44412 36.8339L9.54071 36.8856L9.64868 36.7709L9.71115 36.4443L9.73388 36.3411L9.76797 36.2208L9.80206 36.0373L9.97253 36.066L10.0123 36.2208L10.0918 36.4615L10.1941 36.5646L10.285 36.5188L10.4043 36.3067L10.552 36.1749H10.66L10.6714 36.3239L10.7282 36.513L10.8361 36.5245L10.91 36.3928L11.0464 36.3067L11.1827 36.4844L11.2395 36.6965L11.5634 36.7423L11.8986 36.3469L12.0577 36.2208L12.3645 36.45L12.5179 36.5876L12.7565 36.5532L12.9213 36.4787L13.0235 36.5188H13.2451L13.6031 36.3813L13.7394 36.3297L13.9553 36.2609L14.194 36.215L14.3473 36.1749L14.4496 36.0603L14.4951 35.9399L14.7621 35.854L14.8587 35.7106L14.7564 35.4241L14.7167 35.3496L14.7621 35.1719L15.0576 35.2006L15.2508 35.1261L15.3644 35.0803L15.5121 35.109L15.6257 35.2521L15.8416 35.4871L15.9326 35.4642L16.0405 35.3782L16.4268 35.3095L16.5291 35.4929L16.6655 35.5445L17.0291 35.4471L17.1711 35.3325L17.3018 35.0688L17.4723 34.9025L17.5745 34.9656L17.7507 35.0286L17.9154 34.9829L17.9552 34.9427L18.3586 34.5587L18.404 34.4957L18.5347 34.467L18.6654 34.5701L18.8074 34.6905L18.9779 34.6848L19.2279 34.4154L19.3699 34.232L19.5574 34.2377L19.5801 34.4613L19.5631 34.6046L19.6427 34.6562L19.762 34.5931L19.9779 34.5701L20.154 34.6103L20.5006 34.4727L20.7733 34.4498L20.9381 34.5014L21.154 34.3925H21.3472L21.421 34.4842L21.6824 34.6562L22.0233 34.7307L22.188 34.7651L22.313 34.7879L22.6823 34.9427C22.684 34.9427 22.8001 34.9166 22.9577 34.8811L23.008 34.8697L23.1248 34.8433C23.3785 34.786 23.6682 34.7207 23.7789 34.6962C23.783 34.6827 23.7865 34.671 23.7902 34.6562C23.8139 34.5618 23.8364 34.5239 23.8584 34.5186C23.8756 34.5145 23.9047 34.4885 23.9266 34.4613C24.0466 34.4365 24.1269 34.3558 24.2093 34.2729L24.2505 34.232C24.2655 34.2122 24.3046 34.1861 24.3357 34.1805C24.4256 34.1199 24.5546 34.022 24.6084 33.9741C24.7258 33.9475 24.8211 33.8695 24.9138 33.7935L24.9207 33.7879L24.9258 33.7838C24.9469 33.7666 24.9679 33.7495 24.9891 33.7333C25.0093 33.7299 25.033 33.7089 25.0625 33.6828C25.0922 33.6566 25.1276 33.6252 25.1709 33.6016L25.2419 33.5637L25.2506 33.559C25.3348 33.5144 25.4402 33.4584 25.5232 33.4067C25.6619 33.3161 25.7738 33.3085 25.9234 33.2984L25.9322 33.2978C25.9746 33.2907 26.0495 33.2843 26.097 33.2863C26.1846 33.2735 26.2694 33.2542 26.3544 33.2351L26.3564 33.2346L26.3588 33.234L26.3634 33.233C26.4329 33.2171 26.5026 33.2014 26.5742 33.1889C26.6386 33.1708 26.7399 33.1544 26.7958 33.1545C26.8517 33.1547 27.0842 33.1502 27.3128 33.143C27.486 33.1577 27.6518 33.1241 27.8149 33.091L27.8696 33.08C28.051 33.0255 28.2095 32.9228 28.3639 32.8164C28.4883 32.7436 28.5772 32.6315 28.6663 32.5191L28.6669 32.5184C28.712 32.4614 28.7572 32.4042 28.8071 32.3521C28.8279 32.2871 28.8614 32.2291 28.895 32.1706C28.9096 32.1455 28.9242 32.1202 28.9378 32.0942C28.9794 32.0043 29.0338 31.9201 29.0869 31.8381L29.1139 31.7962C29.1363 31.7962 29.2793 31.4879 29.273 31.4523C29.3209 31.4075 29.352 31.3457 29.3834 31.2832C29.3954 31.2591 29.4076 31.2349 29.4207 31.2116C29.4522 31.1605 29.4741 31.1091 29.4967 31.0562C29.5117 31.0209 29.527 30.9851 29.5457 30.9479C29.614 30.8454 29.6916 30.7427 29.773 30.6557C29.792 30.6315 29.8177 30.6075 29.8441 30.5828L29.8449 30.5821C29.8672 30.5614 29.89 30.5401 29.9094 30.5181C29.9309 30.4338 29.9863 30.3613 30.0378 30.2937C30.0524 30.2745 30.0667 30.2557 30.0798 30.2373C30.1214 30.2238 30.2669 30.0766 30.2673 30.0482C30.3404 29.9854 30.4019 29.9082 30.464 29.8302L30.4775 29.8132C30.5829 29.6428 30.721 29.4986 30.8582 29.3554L30.86 29.3536C30.9354 29.2749 31.0105 29.1965 31.0798 29.114C31.0963 29.0776 31.1114 29.05 31.128 29.0198L31.1422 28.9936C31.1573 28.9936 31.1867 28.9733 31.2047 28.9478C31.2228 28.9222 31.2626 28.8771 31.2957 28.8503C31.3111 28.8182 31.3392 28.7996 31.3645 28.7832C31.377 28.775 31.3887 28.7673 31.3979 28.7586C31.4768 28.7484 31.5353 28.6717 31.5945 28.5941C31.6227 28.557 31.6511 28.5197 31.682 28.4893C31.6883 28.471 31.7073 28.4483 31.7274 28.4434C31.7964 28.3973 31.8127 28.3302 31.8296 28.2607L31.8301 28.2585C31.8351 28.2381 31.8402 28.2174 31.8468 28.197C31.8679 28.087 31.9043 28.0606 31.9722 28.0113C31.9874 28.0003 32.0043 27.988 32.0229 27.9735L32.0617 27.9276C32.0828 27.9024 32.1036 27.8776 32.1252 27.8531C32.1493 27.8447 32.1706 27.8276 32.1706 27.8129C32.221 27.7254 32.2716 27.6682 32.3206 27.6126C32.3671 27.5599 32.4123 27.5087 32.4547 27.4348C32.466 27.3731 32.4758 27.3618 32.5172 27.3659C32.6678 27.2222 32.6899 27.132 32.7097 27.051C32.7173 27.0198 32.7246 26.9901 32.7388 26.9591C32.8777 26.8968 32.8828 26.753 32.8881 26.6046C32.8891 26.5756 32.8901 26.5465 32.8922 26.5178C32.9934 26.4036 33.0415 26.2615 33.0854 26.1223C33.1157 26.0845 33.1308 26.0446 33.1308 26.0019C33.1946 25.9332 33.2126 25.8548 33.2308 25.7755C33.2367 25.7497 33.2426 25.7238 33.2501 25.6982C33.2824 25.6982 33.4143 25.4007 33.4603 25.2225C33.537 25.1474 33.5553 25.0349 33.5569 24.9416C33.5583 24.8668 33.5832 24.7691 33.6075 24.6734L33.6251 24.6035C33.6718 24.4892 33.682 24.3728 33.6927 24.2496L33.6933 24.2425C33.7224 24.171 33.743 24.0979 33.7633 24.0258C33.7737 23.9887 33.7841 23.9519 33.7956 23.9157C33.8779 23.7858 33.8916 23.6429 33.9035 23.4917C33.9109 23.4371 33.9214 23.3889 33.9311 23.3441L33.9315 23.3426C33.9487 23.2639 33.9635 23.1962 33.9546 23.1248C33.9867 23.1207 33.9968 23.1031 34.0058 23.0332C34.0118 22.9863 34.0111 22.9263 34.0058 22.9013C33.9972 22.8612 34.0334 22.7683 34.091 22.6778C34.1426 22.5415 34.1834 22.3981 34.2217 22.2595C34.3183 22.1079 34.3627 21.9372 34.4128 21.7443C34.4226 21.7067 34.4326 21.6683 34.4433 21.629C34.4776 21.599 34.5015 21.4622 34.5001 21.3195C34.5122 21.2568 34.5544 21.2048 34.5969 21.1525L34.6194 21.1246C34.6316 21.132 34.6437 21.1185 34.6555 21.1054C34.6605 21.0997 34.6656 21.0941 34.6705 21.0903C34.6312 21.0771 34.5352 20.9801 34.5342 20.9527C34.5338 20.9425 34.5668 20.9061 34.6024 20.8725C34.6613 20.8216 34.6531 20.8013 34.643 20.776C34.637 20.7609 34.6302 20.744 34.6364 20.7177C34.6419 20.6287 34.6666 20.5886 34.6945 20.5432C34.7091 20.5195 34.7246 20.4942 34.7387 20.4598C34.7617 20.4204 34.7602 20.4161 34.7274 20.3911C34.7188 20.3396 34.6871 20.3081 34.6556 20.2768C34.6408 20.262 34.626 20.2473 34.6137 20.2305C34.5392 20.1903 34.4548 20.1707 34.3713 20.1513C34.3459 20.1455 34.3205 20.1396 34.2955 20.1331C34.2732 20.1221 34.2467 20.1263 34.1989 20.1561C34.1231 20.2034 34.0578 20.2094 34.0058 20.1733C33.9548 20.1378 33.8925 20.145 33.8694 20.1848C33.8119 20.2332 33.7493 20.2811 33.6876 20.328C33.6599 20.3839 33.6231 20.3808 33.5967 20.3222C33.568 20.2585 33.4084 20.1702 33.3694 20.1962C33.3111 20.2121 33.2822 20.2553 33.2522 20.2999C33.2393 20.3193 33.2261 20.3388 33.2103 20.3566C33.1943 20.3897 33.1804 20.3968 33.091 20.3968C32.9995 20.3968 32.9755 20.3995 32.9206 20.4483C32.8817 20.483 32.8439 20.5057 32.8126 20.5057C32.7904 20.4769 32.757 20.4512 32.7235 20.4256L32.7223 20.4246L32.721 20.4237C32.697 20.4055 32.6732 20.3873 32.6535 20.3681C32.5427 20.415 32.4658 20.5061 32.3922 20.5974C32.3433 20.6452 32.2801 20.6525 32.2388 20.6146C32.2018 20.5805 32.1342 20.5849 32.1195 20.6203C32.0884 20.6948 32.0464 20.7124 31.9206 20.7005C31.8184 20.6909 31.8041 20.6853 31.8127 20.6604C31.8335 20.6002 31.6831 20.5125 31.6252 20.5515C31.594 20.5725 31.563 20.654 31.5627 20.712C31.5625 20.7419 31.5534 20.7752 31.5457 20.7865C31.5301 20.8089 31.421 20.8062 31.3866 20.7807C31.3749 20.7722 31.3394 20.7585 31.307 20.7521C31.2663 20.768 31.2268 20.7739 31.1857 20.78L31.183 20.7803C31.1535 20.7847 31.1233 20.7893 31.0911 20.7979C30.9812 20.7885 30.9748 20.7907 30.915 20.8381C30.8801 20.8658 30.8238 20.9062 30.79 20.924C30.7333 20.9539 30.7288 20.9576 30.7389 21.0157C30.7482 21.0701 30.7386 21.0837 30.6991 21.1075C30.6739 21.1226 30.6233 21.1403 30.5854 21.1418C30.5421 21.1529 30.5147 21.1717 30.4851 21.192C30.4705 21.2019 30.4555 21.2121 30.4377 21.2221C30.3939 21.1894 30.3776 21.1806 30.3583 21.1701C30.3445 21.1627 30.3293 21.1544 30.3014 21.1361C30.2777 21.1481 30.2452 21.1558 30.2275 21.1533C30.137 21.2468 30.0212 21.307 29.912 21.3638L29.9109 21.3643L29.898 21.371C29.7798 21.3718 29.7554 21.388 29.6991 21.5086C29.6538 21.6058 29.5757 21.6425 29.4832 21.6118C29.3854 21.5793 29.3412 21.5871 29.3412 21.6347C29.3705 21.6926 29.3738 21.7517 29.3773 21.815C29.3783 21.8328 29.3793 21.851 29.3809 21.8697C29.4006 21.9477 29.377 22.0015 29.3241 22.0015C29.2763 22.0015 29.2503 21.9495 29.2503 21.8582C29.2503 21.8167 29.2453 21.7613 29.2389 21.7321C29.2287 21.6853 29.2206 21.6749 29.165 21.6749C29.1176 21.6749 29.0991 21.6861 29.0855 21.7149C29.0756 21.7359 29.0578 21.7683 29.0457 21.7838C29.0541 21.8651 29.0425 21.9407 29.0308 22.0177C29.0258 22.0501 29.0209 22.0828 29.0173 22.1162C29.0128 22.2109 28.9981 22.2359 28.9321 22.2365C28.8995 22.2366 28.8937 22.2286 28.9037 22.0875L28.9151 21.9328C28.6811 21.8803 28.6732 21.9486 28.7048 22.1621C28.7302 22.208 28.7502 22.2681 28.7503 22.2938C28.7504 22.3343 28.7466 22.3397 28.6992 22.3397C28.6633 22.3397 28.6382 22.3275 28.6253 22.3052C28.6144 22.2866 28.5873 22.2709 28.5685 22.2709C28.5421 22.2709 28.5326 22.2868 28.523 22.3454C28.5076 22.4403 28.4879 22.4541 28.4208 22.4084C28.3558 22.3643 28.2803 22.3618 28.2674 22.4027C28.2622 22.419 28.2514 22.4754 28.2446 22.5288C28.231 22.6356 28.2174 22.6513 28.131 22.6663C28.0592 22.6788 28.0224 22.647 28.0571 22.6033C28.0701 22.587 28.079 22.5579 28.0742 22.5345C28.0693 22.5112 28.0743 22.484 28.0855 22.4715C28.0968 22.4591 28.1095 22.3887 28.1139 22.3167L28.1196 22.1849H28.0742C28.0104 22.2084 27.9781 22.1782 27.943 22.1452C27.9247 22.1281 27.9056 22.1103 27.881 22.099C27.8126 22.0668 27.7969 22.0686 27.7049 22.0875C27.5899 22.1112 27.5648 22.129 27.6139 22.1621C27.6747 22.1555 27.7069 22.1601 27.744 22.1655C27.7651 22.1685 27.7879 22.1718 27.8185 22.1734C27.8261 22.1999 27.8152 22.2189 27.7901 22.2365C27.7574 22.2594 27.759 22.2672 27.7787 22.3282C27.7908 22.3656 27.8138 22.4273 27.8355 22.46C27.8862 22.5362 27.915 22.7556 27.8753 22.7695C27.8226 22.7882 27.7931 22.7414 27.7844 22.6263C27.7798 22.5643 27.7678 22.4975 27.756 22.4772C27.7328 22.4375 27.6675 22.4072 27.631 22.4199C27.5889 22.4346 27.5818 22.5322 27.6196 22.6434C27.6604 22.7634 27.6617 22.7894 27.6026 22.8039C27.5492 22.817 27.5117 22.7764 27.5117 22.695C27.5117 22.6427 27.5056 22.6217 27.4549 22.5861C27.4202 22.5618 27.3668 22.5402 27.3356 22.5402C27.2826 22.5402 27.2795 22.5378 27.2844 22.4772C27.2873 22.4422 27.295 22.4007 27.3014 22.3856C27.2946 22.3195 27.2435 22.296 27.1974 22.2746C27.1791 22.2662 27.1617 22.2581 27.1481 22.248C27.1359 22.2591 27.1105 22.423 27.1083 22.5117C27.1065 22.582 27.1415 22.6077 27.1992 22.5747C27.2551 22.5426 27.303 22.5753 27.3072 22.6549C27.309 22.6912 27.3143 22.7563 27.3242 22.7982C27.334 22.84 27.3382 22.887 27.3299 22.9013C27.3208 22.9168 27.326 22.9392 27.3412 22.9644C27.3689 23.0103 27.378 23.1879 27.3526 23.1879C27.3439 23.1879 27.3098 23.1806 27.2787 23.1707C27.2137 23.1499 27.1938 23.101 27.2105 23.0045C27.2271 22.9091 27.1905 22.8065 27.1253 22.7637C27.0902 22.7226 27.0717 22.7424 27.0497 22.7657C27.0374 22.7788 27.024 22.793 27.006 22.7982C26.9398 22.8212 26.9436 22.9141 27.023 23.0446C27.0774 23.134 27.0912 23.163 27.0912 23.2509C27.0912 23.3496 27.0872 23.3598 27.0458 23.3598C26.9849 23.3598 26.9529 23.3179 26.9662 23.2567C26.9325 23.1862 26.8383 23.0264 26.8128 22.993C26.8128 22.9661 26.729 22.8497 26.7105 22.8497C26.6553 22.8497 26.636 22.8955 26.6594 22.9758C26.675 23.0296 26.6788 23.0612 26.6651 23.0847C26.6407 23.1265 26.6699 23.2359 26.7219 23.2968L26.8753 23.5146L26.8412 23.5833C26.822 23.619 26.7986 23.6464 26.7901 23.6464C26.7679 23.6464 26.7219 23.574 26.7219 23.5432C26.7219 23.5048 26.6331 23.4228 26.5912 23.4228C26.56 23.4228 26.5514 23.4398 26.5514 23.5146C26.5676 23.6347 26.5842 23.7506 26.6026 23.8699L26.5969 23.9444L26.5231 23.9387L26.5148 23.9381C26.449 23.9333 26.4481 23.9332 26.4265 24.0075C26.4141 24.0501 26.3966 24.0877 26.3867 24.0877C26.3768 24.0877 26.3581 24.0603 26.3412 24.0303C26.3155 23.9847 26.3123 23.9683 26.3299 23.8985C26.3753 23.718 26.3481 23.6466 26.2503 23.6807C26.1489 23.7163 26.1257 23.8168 26.1935 23.9387C26.2336 24.0108 26.2501 24.2453 26.2162 24.2711C26.1949 24.2873 26.1804 24.2833 26.1537 24.2653C26.1277 24.2479 26.1215 24.2231 26.1197 24.1392C26.1176 24.0487 26.1002 23.9416 26.0629 23.8183C26.0581 23.8028 26.0345 23.799 25.989 23.8068C25.9369 23.7467 25.8176 23.7695 25.803 23.7723L25.8015 23.7725C25.8083 23.7976 25.8081 23.8277 25.7958 23.8413C25.7942 23.8547 25.8215 23.8728 25.8507 23.892L25.8524 23.8931C25.8664 23.9024 25.8808 23.9119 25.8924 23.9215C25.8506 23.9707 25.8518 24.0257 25.8981 24.0762C25.9325 24.1137 25.942 24.1395 25.9379 24.1851C25.933 24.2384 25.9268 24.2496 25.8867 24.2481C25.8613 24.2473 25.8249 24.2381 25.8072 24.231C25.7793 24.2446 25.7523 24.3663 25.7418 24.4135L25.739 24.4259C25.694 24.4259 25.6707 24.4915 25.6992 24.5405C25.7219 24.5794 25.7262 24.7576 25.7049 24.7697C25.6972 24.7741 25.6697 24.7745 25.6424 24.7697C25.5944 24.7613 25.5938 24.7602 25.6026 24.6723L25.614 24.5806L25.5458 24.5577C25.4219 24.5101 25.3621 24.5338 25.4095 24.6149C25.4389 24.6655 25.453 24.9703 25.4265 24.9703C25.4157 24.9703 25.3976 24.9547 25.3867 24.936C25.3412 24.8579 25.2758 24.9168 25.2617 25.0449C25.2538 25.1174 25.2415 25.1308 25.2106 25.1308C25.1757 25.092 25.1553 24.9768 25.1429 24.9071L25.1367 24.8729C25.1164 24.8706 25.0857 24.8795 25.0629 24.8958C25.0518 24.9881 25.0102 25.1099 24.9844 25.1856L24.9777 25.2053C24.9399 25.2004 24.9372 25.189 24.9322 25.0849C24.9282 25.0011 24.9169 24.9703 24.8981 24.9703C24.8699 24.9703 24.8605 24.9946 24.8413 25.1079C24.8276 25.1887 24.7533 25.2913 24.7106 25.2913C24.6719 25.2913 24.6825 25.1903 24.7277 25.0964C24.753 25.0303 24.7578 24.9573 24.7626 24.8859C24.764 24.8642 24.7654 24.8426 24.7674 24.8214C24.8041 24.7407 24.7905 24.7041 24.7106 24.6895C24.6758 24.6882 24.6413 24.682 24.607 24.6757L24.6057 24.6755L24.6043 24.6752C24.5866 24.6722 24.569 24.669 24.5515 24.6666C24.4995 24.6391 24.493 24.5821 24.4866 24.5255C24.4843 24.5052 24.482 24.4849 24.4777 24.466C24.4982 24.4117 24.456 24.4068 24.4113 24.4017C24.3875 24.399 24.363 24.3962 24.347 24.3857C24.2908 24.3089 24.2352 24.3707 24.2036 24.4058C24.1941 24.4165 24.1867 24.4246 24.1822 24.4259C24.173 24.4787 24.1596 24.4946 24.1311 24.4946C24.0983 24.4946 24.097 24.4808 24.097 24.3857C24.097 24.2678 24.065 24.2174 23.989 24.1909C23.962 24.1815 23.9494 24.1639 23.955 24.1507C23.9713 24.1115 23.9354 24.074 23.8981 24.0935C23.88 24.1029 23.8246 24.111 23.7788 24.1107L23.7646 24.1105C23.7282 24.1104 23.7121 24.1103 23.7058 24.1024C23.7008 24.096 23.7021 24.0848 23.7043 24.0648L23.705 24.059C23.71 24.013 23.7033 24.0017 23.6709 24.0017C23.6198 24.0332 23.5807 24.0264 23.5389 24.0194C23.5179 24.0158 23.4962 24.0122 23.472 24.0131C23.4039 24.0308 23.3081 24.0245 23.2618 24.0017C23.1992 23.9581 23.182 24.0056 23.1667 24.0478C23.1597 24.0672 23.153 24.0856 23.1425 24.0935C23.1302 24.1047 23.0233 24.0534 23.0232 24.0361C23.023 24.012 22.967 23.9674 22.9322 23.9674C22.9123 23.9674 22.8712 23.9909 22.8414 24.0189C22.7777 24.0787 22.6911 24.0871 22.6766 24.0361C22.6702 24.0136 22.6474 24.0037 22.597 23.9959C22.5363 23.9865 22.5125 23.988 22.455 24.0246C22.4135 24.0372 22.369 24.0545 22.3258 24.0715L22.3214 24.0732L22.3191 24.0742L22.317 24.075L22.3105 24.0776C22.273 24.0922 22.2369 24.1065 22.205 24.1163C22.1829 24.1551 22.1656 24.1586 22.0687 24.1622C21.9024 24.1682 21.8348 24.2204 21.7505 24.3914C21.7339 24.4251 21.7269 24.4246 21.6191 24.4161L21.5971 24.4144C21.498 24.4042 21.4326 24.4523 21.361 24.5051C21.315 24.5389 21.2665 24.5745 21.205 24.5977C21.1319 24.6043 21.0852 24.6514 21.044 24.6927C21.033 24.7038 21.0225 24.7144 21.0119 24.7238C21.0119 24.7773 21.0045 24.7797 20.9266 24.804C20.8101 24.8405 20.6774 24.9244 20.6766 24.9588C20.6757 24.998 20.6699 24.9987 20.4953 25.0205L20.4835 25.0219C20.3876 25.0229 20.3043 25.0614 20.2224 25.0992L20.2195 25.1005L20.21 25.1049C20.1951 25.1118 20.1802 25.1186 20.1653 25.1251C20.1317 25.1611 20.0159 25.1717 19.9835 25.1422C19.9725 25.1323 19.9164 25.1389 19.8358 25.1594C19.6757 25.2003 19.6155 25.1979 19.5915 25.1594C19.5385 25.1665 19.4644 25.1599 19.3959 25.1538C19.3708 25.1514 19.3466 25.1494 19.3244 25.1479C19.2916 25.1225 19.2361 25.1025 19.1824 25.0964L19.1156 25.0896L19.114 25.0894C19.0677 25.0849 19.0127 25.0795 18.9665 25.0734C18.8935 25.0638 18.7941 25.0511 18.7505 25.0505C18.5599 25.0457 18.4234 24.9921 18.2676 24.8844C18.1542 24.8796 18.1423 24.8449 18.1233 24.7895C18.1151 24.7655 18.1055 24.7376 18.0858 24.7066L17.9778 24.6436V24.5233C17.9778 24.4322 17.9732 24.3869 17.9495 24.357C17.8824 24.2728 17.8699 24.2393 17.8699 24.1163C17.8699 23.991 17.8706 23.9898 17.921 23.9844C17.9674 23.9797 17.9689 23.9702 17.9829 23.8796L17.9835 23.8756L17.986 23.8597C18.0023 23.7547 18.0056 23.7341 17.9892 23.6693C17.9202 23.5832 17.8481 23.498 17.7733 23.4171C17.7242 23.3691 17.7413 23.3254 17.8074 23.3254C17.841 23.3254 17.876 23.3443 17.921 23.3884C17.9576 23.4243 18.0055 23.457 18.0233 23.463C18.0443 23.5242 18.0938 23.5322 18.1403 23.5395C18.1617 23.5429 18.1824 23.5462 18.1994 23.5546C18.2304 23.4268 18.2204 23.2841 18.2112 23.1544L18.2108 23.1478C18.2518 23.1101 18.3878 23.2813 18.438 23.4343C18.4685 23.5269 18.6811 23.6124 18.8074 23.5833C18.8442 23.5748 18.8494 23.5651 18.8415 23.5202C18.8363 23.4912 18.8209 23.4406 18.8074 23.4056C18.7857 23.3496 18.7755 23.3426 18.7221 23.3426C18.673 23.3426 18.6582 23.3288 18.6426 23.291C18.6141 23.2619 18.6023 23.2225 18.5912 23.1855L18.5907 23.1838C18.5857 23.1671 18.5808 23.1507 18.5744 23.1363C18.5456 23.1197 18.542 22.9688 18.5688 22.8784C18.5829 22.8297 18.6153 22.7965 18.6477 22.7634C18.6638 22.7469 18.6799 22.7304 18.6938 22.7121C18.6972 22.6846 18.7164 22.6611 18.7449 22.6491C18.8076 22.5817 18.8719 22.5198 18.9346 22.4595L18.9376 22.4567L18.9459 22.4487C18.984 22.4121 19.0214 22.3761 19.0574 22.3397C19.1297 22.3111 19.1427 22.3013 19.1255 22.2823L19.0658 22.2634L19.0346 22.2536C19.222 22.0963 19.3349 21.9266 19.3755 21.692C19.3818 21.6124 19.3777 21.5726 19.3585 21.5488C19.3087 21.5209 19.2336 21.5457 19.1648 21.5684C19.141 21.5762 19.1181 21.5837 19.0971 21.5888C19.0213 21.6229 18.9587 21.669 18.8955 21.7156C18.8349 21.7603 18.7736 21.8054 18.6994 21.841C18.6385 21.887 18.5706 21.9364 18.5063 21.9786C18.4315 22.0559 18.3416 22.1136 18.2519 22.1712C18.1993 22.205 18.1467 22.2388 18.0972 22.2766C18.0373 22.3039 17.968 22.3398 17.9438 22.3569C17.7864 22.4101 17.6283 22.4617 17.4665 22.5001C17.4252 22.5109 17.3925 22.5479 17.3678 22.576L17.3672 22.5767L17.366 22.5781C17.3567 22.5885 17.3486 22.5976 17.3415 22.6033L17.3432 22.6093C17.3493 22.6319 17.3585 22.6657 17.3643 22.6893C17.3837 22.72 17.3959 22.754 17.4082 22.7878L17.4085 22.7888L17.4093 22.7911C17.4165 22.8107 17.4237 22.8306 17.4324 22.8497C17.4401 22.8914 17.4583 22.9511 17.4722 22.9873C17.4861 23.0234 17.4949 23.0649 17.4893 23.0732C17.4724 23.0982 17.4045 23.0902 17.3927 23.0618C17.2851 23.0224 17.1978 22.9425 17.1093 22.8613L17.1029 22.8554C17.0834 22.8192 17.0467 22.7966 17.011 22.7747L17.0095 22.7738C16.9923 22.7631 16.9754 22.7526 16.9608 22.7408C16.9608 22.713 16.8633 22.6292 16.779 22.5861C16.7435 22.5679 16.6708 22.5469 16.62 22.5402C16.5691 22.5335 16.5072 22.524 16.4779 22.5173C16.4487 22.5107 16.3534 22.5166 16.2677 22.5288C16.1168 22.5504 16.1042 22.548 15.9666 22.5058C15.8884 22.4819 15.7776 22.4488 15.7166 22.4371C15.6253 22.3984 15.5359 22.373 15.4425 22.3465L15.3984 22.3339C15.1453 22.2885 14.9372 22.1954 14.7336 22.0417C14.6912 22.0017 14.6258 21.9514 14.5859 21.9327C14.5461 21.9141 14.4991 21.88 14.4837 21.8582C14.4474 21.8073 14.4144 21.6674 14.4325 21.6405C14.4578 21.6029 14.5064 21.6363 14.5064 21.692C14.5064 21.7369 14.5109 21.7482 14.5461 21.7436C14.6089 21.7354 14.6131 21.6739 14.5518 21.629L14.495 21.5946L14.5405 21.5773C14.5689 21.5677 14.6011 21.5665 14.62 21.5773C14.663 21.602 14.7082 21.5832 14.7223 21.5316C14.7408 21.4636 14.7064 21.4473 14.603 21.4742C14.5398 21.4907 14.511 21.508 14.5064 21.5316C14.4951 21.5887 14.4685 21.6003 14.4496 21.5545C14.4335 21.5156 14.4201 21.5091 14.3132 21.5029C14.2123 21.4982 14.1272 21.4527 14.0403 21.4063L14.0064 21.3883C13.9326 21.3344 13.8577 21.2761 13.7905 21.2106C13.706 21.158 13.6371 21.0252 13.6371 20.9183C13.6371 20.857 13.6482 20.8321 13.7053 20.775C13.7528 20.736 13.8011 20.6986 13.8496 20.661L13.8871 20.6318C13.9337 20.6165 13.9737 20.5853 14.0115 20.5556C14.029 20.5418 14.0461 20.5284 14.0632 20.5172C14.0632 20.5039 14.1344 20.4672 14.2337 20.4311C14.4254 20.3614 14.4986 20.3004 14.478 20.2248C14.5195 20.1331 14.5987 20.0596 14.6723 19.9913L14.7166 19.9498C14.82 19.8499 14.9104 19.7341 14.995 19.6116C15.0507 19.591 15.0911 19.5209 15.1319 19.4503C15.1501 19.4187 15.1684 19.3869 15.1882 19.3594C15.2877 19.2857 15.3559 19.2036 15.4265 19.1184L15.4284 19.1162L15.4291 19.1153C15.4752 19.0599 15.5224 19.0031 15.5802 18.9467C15.6102 18.8981 15.6481 18.8562 15.6855 18.8146C15.7059 18.7921 15.7261 18.7695 15.745 18.7462C15.7783 18.6719 15.828 18.6048 15.8765 18.5393L15.9097 18.494C15.9105 18.4643 15.9764 18.4195 16.0177 18.4195C16.0656 18.4195 16.0934 18.3861 16.1086 18.3164C16.1444 18.2646 16.189 18.2127 16.2327 18.1619C16.2629 18.1268 16.2927 18.0921 16.3188 18.0584C16.3435 18.0584 16.3627 18.039 16.3813 17.9953C16.4337 17.9361 16.4792 17.8702 16.5242 17.8051L16.5254 17.8034L16.5259 17.8026C16.5691 17.7399 16.6118 17.6779 16.6597 17.6229L16.7219 17.5522L16.7225 17.5515L16.7231 17.5507C16.7771 17.4897 16.8303 17.4295 16.8813 17.3649C16.9372 17.3001 16.9767 17.2393 17.0186 17.1748L17.0252 17.1645L17.0262 17.1629C17.0381 17.1447 17.0502 17.1261 17.0631 17.107C17.0779 17.0837 17.1043 17.04 17.1199 17.0096C17.1792 16.9592 17.2064 16.8996 17.2362 16.8347C17.246 16.8133 17.2561 16.7913 17.2676 16.7689C17.3423 16.6241 17.3729 16.5365 17.3699 16.4365C17.3944 16.3906 17.4014 16.3389 17.4073 16.2963C17.4098 16.2779 17.412 16.2613 17.4154 16.2474C17.3886 16.2336 17.3292 15.9417 17.3472 15.9149C17.3701 15.8997 17.3839 15.9193 17.399 15.9407C17.4072 15.9525 17.4159 15.9648 17.4267 15.9722C17.4895 15.9476 17.4457 15.8908 17.4111 15.8461C17.3969 15.8278 17.3843 15.8115 17.3813 15.8002C17.3406 15.8002 17.3455 15.7828 17.3983 15.7373C17.453 15.69 17.4531 15.6638 17.4097 15.6169C17.388 15.5935 17.3517 15.5805 17.296 15.5767C17.2202 15.5703 17.1805 15.513 17.1402 15.4547L17.1396 15.4538L17.1378 15.4511C17.1283 15.4375 17.1187 15.4237 17.1085 15.4106C17.0726 15.3706 17.0431 15.3187 17.0163 15.2717C17.0009 15.2446 16.9864 15.2192 16.9722 15.1986C16.9775 15.1784 16.9845 15.1453 16.9901 15.1184L16.9949 15.0954C16.9985 15.0129 17.0306 14.9434 17.0616 14.8764L17.0619 14.8756C17.0723 14.8532 17.0825 14.8311 17.0915 14.8088C17.1609 14.7395 17.2104 14.6418 17.2563 14.5509C17.2563 14.5377 17.3026 14.4611 17.3585 14.3847C17.4045 14.3333 17.4345 14.2735 17.4646 14.2135C17.4762 14.1901 17.4879 14.1668 17.5006 14.144C17.5077 14.0814 17.5328 14.0354 17.5591 13.9873C17.5744 13.9593 17.5901 13.9306 17.6028 13.8975C17.6405 13.781 17.6754 13.7313 17.7278 13.7313C17.8004 13.5758 17.8806 13.4238 17.9611 13.2714L17.9616 13.2703L17.9631 13.2677C18.038 13.1257 18.1131 12.9833 18.1824 12.8372C18.2458 12.7177 18.2974 12.6499 18.3457 12.5863L18.3465 12.5853C18.3718 12.552 18.3962 12.5197 18.421 12.4819C18.4434 12.4477 18.4633 12.42 18.4818 12.3945C18.5232 12.3372 18.5567 12.2907 18.5914 12.2067C18.6051 12.1668 18.6296 12.1318 18.6541 12.0969C18.6658 12.0803 18.6775 12.0636 18.688 12.0463C18.7335 12.0336 18.7685 12.0046 18.8037 11.9754C18.8249 11.9578 18.8462 11.9403 18.8698 11.926C18.8978 11.9222 18.9126 11.9067 18.921 11.8686C18.9802 11.7552 19.071 11.6636 19.1604 11.5734L19.1612 11.5726C19.2263 11.507 19.2906 11.4422 19.3414 11.3701C19.3686 11.3439 19.3973 11.3129 19.4264 11.2816C19.4531 11.2528 19.4801 11.2238 19.5062 11.1981C19.5343 11.0334 19.4856 10.8747 19.4377 10.7187L19.4266 10.6823C19.4027 10.6488 19.3997 10.6195 19.4096 10.5505C19.4155 10.509 19.4211 10.4573 19.4248 10.4235L19.4266 10.4072C19.4301 10.3758 19.448 10.3239 19.4664 10.2926C19.4659 10.1749 19.4862 10.0723 19.5045 9.97993L19.5118 9.94294C19.5389 9.84956 19.5749 9.76082 19.6131 9.6667L19.6312 9.62202C19.6476 9.60688 19.6626 9.53901 19.6709 9.44429C19.6814 9.32649 19.693 9.28413 19.7221 9.2552C19.7469 9.21126 19.7653 9.16487 19.7843 9.11714C19.7917 9.09834 19.7993 9.07942 19.8073 9.06038C19.845 9.00398 19.8925 8.94697 19.942 8.88765C20.0101 8.80598 20.082 8.7198 20.1368 8.62471C20.1693 8.57966 20.2096 8.54646 20.2503 8.51301L20.2524 8.5113C20.2709 8.49617 20.2894 8.48091 20.3073 8.46431C20.3819 8.41768 20.4767 8.36409 20.58 8.36689C20.6401 8.36848 20.7139 8.38887 20.7881 8.40938L20.7892 8.40974L20.7914 8.41035L20.7944 8.41121C20.8456 8.42537 20.8969 8.4394 20.9436 8.44709C20.9896 8.49421 21.0618 8.59199 21.0743 8.62471C21.169 8.66475 21.2762 8.71162 21.3697 8.76228C21.4794 8.8321 21.5725 8.92378 21.6578 9.00789L21.6879 9.03743C21.8939 9.15852 21.988 9.2115 22.1709 9.26668C22.2487 9.28291 22.3079 9.24617 22.3692 9.2082L22.3758 9.20418L22.3788 9.20234C22.3907 9.19502 22.4028 9.18757 22.4152 9.18074C22.4384 9.18074 22.5295 9.16011 22.614 9.13484C22.6864 9.10798 22.7859 9.10725 22.8516 9.10676H22.8525L22.8924 9.10615C22.9814 9.08149 23.033 9.02131 23.0787 8.96809C23.0945 8.94966 23.1096 8.93208 23.1254 8.91707C23.1346 8.88667 23.1558 8.87227 23.1773 8.85774C23.1868 8.85127 23.1963 8.8448 23.2049 8.83687C23.2559 8.82051 23.2596 8.81428 23.256 8.73945C23.2542 8.67415 23.2897 8.62117 23.3248 8.56855L23.3258 8.56709C23.3371 8.55012 23.3484 8.53328 23.3583 8.51594C23.3791 8.44063 23.4096 8.36714 23.4398 8.29426L23.4549 8.25801C23.4736 8.19392 23.5138 8.14985 23.5533 8.1064L23.5547 8.10493C23.5672 8.09114 23.5796 8.07747 23.5912 8.06318C23.6076 8.03669 23.624 8.01082 23.6402 7.9853C23.6918 7.90376 23.7419 7.82466 23.7844 7.7364C23.8173 7.70405 23.8536 7.66304 23.864 7.64473C23.8969 7.61824 23.9264 7.59272 23.9549 7.56794C24.0362 7.49751 24.1096 7.43379 24.2333 7.37544C24.3491 7.32942 24.4426 7.24959 24.5359 7.16987L24.5571 7.15181C24.6382 7.14375 24.7285 7.16169 24.821 7.18001L24.822 7.18025L24.8229 7.18049C24.8798 7.19185 24.9376 7.20332 24.9946 7.20918C25.0297 7.2375 25.0725 7.26082 25.0912 7.26082C25.2357 7.32087 25.3588 7.41304 25.4492 7.49006L25.5344 7.47859C25.5344 7.57344 25.5748 7.60029 25.6274 7.63521C25.6481 7.649 25.6707 7.66401 25.6935 7.68489C25.7231 7.69746 25.7423 7.73311 25.7673 7.83967C25.7961 7.96187 25.8069 7.98213 25.8582 8.01155C25.9482 8.06318 26.1395 8.02644 26.2446 7.93709C26.291 7.89753 26.3963 7.85518 26.5002 7.83394C26.5378 7.80916 26.5569 7.76716 26.5764 7.72444C26.5862 7.70308 26.596 7.68159 26.6082 7.66194C26.698 7.60127 26.7474 7.55 26.8071 7.45564C26.8371 7.42122 26.8554 7.40242 26.8762 7.38118L26.878 7.37935L26.915 7.34102C26.842 7.32637 26.863 7.29548 26.9718 7.25508C27.0304 7.19441 27.0826 7.20405 27.1355 7.21394C27.1601 7.21858 27.1848 7.2231 27.2104 7.22065C27.2381 7.21089 27.2362 7.18379 27.2104 7.07161C27.262 6.98066 27.3408 6.95198 27.4214 6.92268C27.4458 6.91377 27.4705 6.90474 27.4945 6.89399C27.5884 6.89399 27.6593 6.85981 27.6593 6.81367C27.6593 6.8022 27.6723 6.78474 27.6877 6.77937L27.7276 6.7469L27.7299 6.74495L27.7353 6.74055C27.8757 6.62605 28.0177 6.51008 28.1536 6.3896C28.1633 6.36934 28.1838 6.35139 28.199 6.34956C28.204 6.34883 28.2155 6.3481 28.2314 6.34712L28.2421 6.34651L28.257 6.34553L28.266 6.34492L28.2717 6.34456C28.3005 6.34285 28.3347 6.34077 28.3695 6.33809C28.5124 6.3271 28.5418 6.30867 28.4831 6.26924C28.4392 6.2397 28.4667 6.21126 28.5626 6.18904C28.6099 6.17805 28.6485 6.15864 28.6536 6.14314C28.7424 6.05244 28.8513 5.98481 28.9595 5.91768L28.9606 5.91694L28.9621 5.91597C29.0057 5.88899 29.0491 5.86201 29.0911 5.83369C29.1665 5.79817 29.2392 5.77205 29.3096 5.74678L29.3118 5.74605C29.4481 5.69722 29.576 5.65132 29.699 5.54707C29.7857 5.51191 29.8868 5.44758 29.9546 5.40388C30.0038 5.41816 30.1238 5.41755 30.1705 5.40388C30.2317 5.36287 30.2798 5.30439 30.3273 5.24678L30.3316 5.24153L30.3637 5.2032C30.3758 5.15278 30.4123 5.12776 30.4461 5.10469C30.4618 5.09395 30.4769 5.08357 30.4887 5.07136C30.4976 5.12849 30.554 5.13728 30.6013 5.14473C30.622 5.1479 30.6409 5.15083 30.6535 5.15742C30.6612 5.13655 30.6923 5.10786 30.7558 5.06575C30.7855 5.03145 30.8137 5.00068 30.8428 4.96907L30.8751 4.93391C30.878 4.88801 30.9331 4.89168 30.9615 4.89363C30.9693 4.89412 30.9751 4.89448 30.9773 4.89375C30.9827 4.90657 31.01 4.92244 31.0398 4.92244C31.0821 4.92244 31.1123 4.90034 31.1705 4.8365L31.2444 4.75618L31.3466 4.76191L31.3564 4.76265C31.442 4.76924 31.449 4.76973 31.4546 4.73323C31.4586 4.70723 31.4738 4.69087 31.5001 4.68745C31.5276 4.68379 31.543 4.66426 31.5512 4.63008C31.576 4.52656 31.7662 4.44404 31.7898 4.52693C31.7951 4.54561 31.813 4.56135 31.8296 4.56135C31.8592 4.56135 31.9575 4.50776 31.9943 4.46968C32.0175 4.44575 32.1626 4.42683 32.3011 4.42952C32.3935 4.43135 32.4085 4.42427 32.4432 4.38374C32.4647 4.35859 32.4829 4.32136 32.4829 4.30342C32.5687 4.22957 32.6932 4.18623 32.8106 4.14534L32.8193 4.14229C32.8461 4.13301 32.8724 4.12385 32.8977 4.11433C32.9606 4.08308 33.0355 4.05171 33.0625 4.04548C33.2041 3.95967 33.3297 3.85042 33.4535 3.74275C33.4804 3.71931 33.5072 3.696 33.5341 3.67305C33.5439 3.65693 33.6099 3.63325 33.7159 3.61567C33.8491 3.5937 33.8849 3.5832 33.892 3.55842C33.8971 3.5406 33.9214 3.52974 33.9431 3.52974C33.9685 3.52974 33.9867 3.51179 33.9943 3.48384C34.0091 3.42964 34.089 3.39338 34.142 3.41511C34.1961 3.43733 34.3271 3.37935 34.3408 3.32918C34.3538 3.28157 34.5292 3.20063 34.5624 3.22603C34.6576 3.23079 34.7148 3.10383 34.7442 3.0384C34.7486 3.02864 34.7524 3.02022 34.7556 3.01387L34.7646 2.99507L34.7655 2.99299L34.7668 2.99006C34.7799 2.96113 34.7847 2.95063 34.8351 2.91646C34.8974 2.87434 34.9803 2.85396 35.0851 2.83626C35.2502 2.82832 35.2528 2.82612 35.3285 2.76265L35.3295 2.76179C35.3725 2.72566 35.419 2.69294 35.4317 2.69294C35.5119 2.69294 35.6647 2.59993 35.6647 2.54963C35.6647 2.53828 35.6721 2.52119 35.6874 2.50959C35.7026 2.498 35.7158 2.47554 35.7158 2.45796C35.7158 2.43843 35.7293 2.42366 35.7499 2.42366C35.781 2.42366 35.8863 2.30501 35.8863 2.26887C35.8863 2.26033 35.9008 2.25166 35.9203 2.25166C35.9445 2.25166 35.9626 2.23481 35.9772 2.19441C35.9998 2.1313 36.0068 2.13167 36.1067 2.13704H36.1078C36.2021 2.14204 36.2644 2.1125 36.3124 2.04536C36.5869 1.82014 36.8597 1.67366 37.1589 1.53523C37.2047 1.48909 37.2731 1.4322 37.3123 1.40913C37.3937 1.3155 37.5009 1.27229 37.6071 1.22969L37.6589 1.20857C37.74 1.19307 37.8203 1.16182 37.8991 1.13105L37.9657 1.10542C38.0462 1.06355 38.123 1.00959 38.1987 0.956372C38.2302 0.934278 38.3013 0.909375 38.3521 0.899121C38.4828 0.872754 38.6373 0.819654 38.6532 0.795972C38.6606 0.784863 38.7037 0.770703 38.7498 0.767285C38.8764 0.757764 38.972 0.732129 39.0623 0.675611C39.1337 0.630811 39.1521 0.626294 39.227 0.635449C39.3005 0.644361 39.3223 0.637036 39.3691 0.601026C39.4683 0.523145 39.5801 0.505567 39.6983 0.487012L39.7384 0.480664C39.7597 0.50752 39.8229 0.521192 39.9657 0.526563C40.0215 0.544873 40.0424 0.516431 40.0655 0.485181C40.0774 0.46919 40.0898 0.452344 40.1077 0.440625C40.1604 0.422193 40.3693 0.413648 40.3861 0.429151C40.4108 0.451734 40.4404 0.439893 40.46 0.400464C40.4835 0.352979 40.5583 0.335279 40.6304 0.360303C40.7165 0.353833 40.8039 0.313428 40.8902 0.273389L40.8912 0.272901C40.9296 0.255078 40.9677 0.2375 41.0054 0.222852C41.0711 0.182813 41.0823 0.179029 41.1361 0.199903C41.2205 0.232739 41.4214 0.213208 41.5168 0.165479C41.5711 0.122754 41.6522 0.138745 41.6876 0.145703C41.696 0.147412 41.7019 0.148511 41.7042 0.148267C41.7042 0.250073 41.7551 0.258863 41.852 0.171216C41.8854 0.14668 41.9151 0.116895 41.9445 0.0873537L41.9471 0.0847902L41.948 0.0839358C41.9632 0.068677 41.9784 0.0535402 41.994 0.0393801ZM53.4651 23.7443C53.4595 23.728 53.4457 23.7156 53.4311 23.7156C53.4129 23.7156 53.3993 23.7403 53.3914 23.8016L53.3897 23.8139C53.3832 23.8643 53.3731 23.9427 53.3629 23.9965L53.3624 23.9995C53.3438 24.0981 53.3414 24.1109 53.3914 24.2028C53.4205 24.2564 53.4515 24.3062 53.4595 24.3117C53.4759 24.4506 53.5252 24.5727 53.5788 24.7014C53.5956 24.755 53.6186 24.8071 53.6356 24.816C53.6643 24.831 53.6681 24.8342 53.6356 24.8562C53.6386 24.89 53.6416 24.9178 53.6451 24.9504L53.6527 25.0224C53.6374 25.034 53.6243 25.0548 53.6243 25.0682C53.6243 25.1046 53.7393 25.2574 53.7663 25.2574C53.7792 25.2574 53.7891 25.2744 53.7891 25.2917C53.926 25.4392 53.975 25.5668 54.0277 25.7446C54.0234 25.8681 54.0466 25.9312 54.1299 26.0139C54.1644 26.057 54.1881 26.1083 54.2116 26.159C54.2202 26.1778 54.2288 26.1964 54.2379 26.2144C54.2576 26.2401 54.2655 26.2645 54.2606 26.2718C54.2442 26.2962 54.3278 26.4921 54.3799 26.5526C54.4631 26.649 54.4905 26.7617 54.4424 26.8105C54.4107 26.8427 54.4188 26.9603 54.4538 26.971C54.5065 27.0899 54.5863 27.1977 54.6635 27.3018L54.6757 27.3183L54.7151 27.3721C54.7646 27.4 54.883 27.5627 54.8685 27.5843C54.862 27.5939 54.8694 27.6247 54.8856 27.6473C54.9091 27.705 54.9315 27.7608 54.9538 27.8192C55.0006 27.8898 55.0006 27.9356 54.9538 27.9625C54.9116 27.9866 54.903 28.0599 54.9424 28.0599C54.97 28.0599 55.0107 28.1441 55.0106 28.2032C55.0104 28.2918 55.0744 28.4084 55.1867 28.5128C55.3061 28.6236 55.3163 28.6411 55.3287 28.7878C55.3638 28.8601 55.3788 28.9354 55.3932 29.008L55.3935 29.0092C55.3998 29.0412 55.4061 29.0726 55.414 29.103C55.3711 29.2761 55.3723 29.2771 55.4205 29.3117L55.4253 29.3151C55.4595 29.3398 55.4752 29.3709 55.4821 29.4183C55.4907 29.477 55.484 29.4917 55.4424 29.5272C55.4045 29.5594 55.3971 29.5849 55.3969 29.6418C55.3965 29.7381 55.3543 29.8536 55.3174 29.8538C55.3015 29.854 55.2721 29.8667 55.2549 29.8825C55.2272 29.9079 55.2279 29.9149 55.2492 29.9742C55.2451 30.0458 55.2689 30.1041 55.2931 30.1633C55.3038 30.1894 55.3145 30.2158 55.3231 30.2435C55.3231 30.2766 55.3111 30.2874 55.2719 30.2951C55.244 30.3006 55.1939 30.3121 55.1583 30.3238C55.0973 30.3438 55.0892 30.3525 55.0958 30.4155C55.0937 30.5345 55.0489 30.5871 54.99 30.656C54.9697 30.6796 54.9478 30.7054 54.9254 30.7364C54.9281 30.8002 54.942 30.8923 54.9538 30.9371C54.9777 31.0278 54.9544 31.0742 54.8969 31.0573C54.8549 31.0451 54.7663 31.1113 54.7663 31.1549C54.7082 31.1956 54.6721 31.2562 54.6365 31.3159C54.625 31.3352 54.6136 31.3542 54.6015 31.3726C54.5929 31.3726 54.5929 31.3964 54.6015 31.4241C54.6163 31.4716 54.6284 31.5545 54.6242 31.6019C54.5915 31.6143 54.5559 31.6345 54.5207 31.6544C54.4999 31.6662 54.4793 31.6778 54.4595 31.6878C54.3961 31.7427 54.3937 31.7501 54.414 31.791C54.4248 31.8127 54.4277 31.8465 54.4254 31.8826C54.6129 31.7675 54.8201 31.6624 55.1413 31.7108C55.166 31.6882 55.2828 31.675 55.3685 31.6821C55.3863 31.6835 55.4026 31.6945 55.4026 31.7108C55.4026 31.727 55.418 31.7537 55.4367 31.7738C55.4484 31.8009 55.4611 31.8284 55.4739 31.8565L55.476 31.861L55.478 31.8654C55.4929 31.8977 55.5079 31.9302 55.5219 31.963C55.5454 31.9908 55.5537 32.0273 55.5447 32.1635C55.5358 32.2976 55.5359 32.3354 55.556 32.3354C55.5569 32.3354 55.5565 32.338 55.5556 32.3427C55.5465 32.3952 55.4907 32.7156 56.6526 32.8513H56.6551H56.6582C56.7126 32.8381 56.7696 32.8337 56.8279 32.8293C56.8881 32.8247 56.9495 32.8199 57.0105 32.8054C57.0352 32.7906 57.1114 32.7703 57.1753 32.7653C57.2391 32.7602 57.2989 32.7517 57.3116 32.7424C57.5445 32.7274 57.7777 32.7021 58.0105 32.677L58.0159 32.6763L58.0212 32.6757L58.0697 32.6705L58.073 32.6701C58.1337 32.6635 58.1942 32.6569 58.2548 32.6507C58.4254 32.6466 58.5873 32.6442 58.6127 32.645C59.1867 32.6616 59.2761 32.658 59.3059 32.6278C59.3233 32.6101 59.3475 32.5998 59.3684 32.6048C59.3881 32.6096 59.472 32.6046 59.5559 32.5933C59.6397 32.5821 59.7744 32.5758 59.8513 32.5761C59.9858 32.5769 59.9884 32.5727 60.0191 32.5231L60.0218 32.5189C60.0403 32.489 60.0764 32.4461 60.1013 32.4215C60.1392 32.3837 60.1473 32.3715 60.1297 32.3411C60.113 32.3126 60.1127 32.299 60.1354 32.2781C60.1511 32.2637 60.1689 32.2324 60.1751 32.2094C60.2009 32.1806 60.2207 32.1418 60.2377 32.1083C60.2458 32.0925 60.2532 32.0778 60.2604 32.0661C60.291 32.0661 60.3033 32.038 60.3399 31.8139C60.3594 31.6948 60.3611 31.6508 60.3456 31.6419C60.3185 31.6265 60.2944 31.6395 60.2944 31.6706C60.2944 31.7022 60.2394 31.7021 60.2263 31.6706C60.2413 31.63 60.2397 31.5876 60.238 31.5452C60.2372 31.524 60.2363 31.5026 60.2376 31.4815C60.2207 31.4066 60.2197 31.3787 60.2433 31.3267L60.2556 31.3004C60.2677 31.2747 60.2734 31.2626 60.2696 31.2563C60.2663 31.2507 60.2556 31.2496 60.2356 31.2475L60.2263 31.2465C60.1783 31.2414 60.1713 31.239 60.1695 31.1549C60.213 31.0853 60.1949 31.0615 60.174 31.0338C60.1626 31.0188 60.1504 31.0025 60.1467 30.9771C60.1467 30.9261 60.1529 30.9117 60.1922 30.9027C60.2012 30.8928 60.1964 30.8773 60.1917 30.862C60.1894 30.8542 60.187 30.8465 60.1865 30.8396C60.1471 30.8326 60.113 30.7336 60.141 30.7078C60.1517 30.675 60.1481 30.6365 60.1445 30.5988C60.1428 30.5813 60.1412 30.5639 60.141 30.5473C60.1474 30.529 60.1512 30.4182 60.1524 30.3009C60.1545 30.1082 60.151 30.0852 60.1183 30.0601C60.0902 30.0386 60.0786 30.0052 60.0729 29.9111C60.0683 29.8364 60.0771 29.7821 60.0899 29.7679C60.11 29.7457 60.1282 29.5722 60.1297 29.4183C60.1137 29.3521 60.0905 29.2949 60.0678 29.239L60.0673 29.2379C60.0508 29.197 60.0346 29.1569 60.0217 29.1145C59.9723 29.0938 59.9702 29.0455 59.999 28.9082C60.0078 28.8662 60.0072 28.8259 59.999 28.8165C59.9794 28.7939 59.9397 28.6397 59.9365 28.5758C59.9351 28.5478 59.9212 28.5222 59.9081 28.5128C59.8788 28.42 59.8967 28.2917 59.9097 28.1983L59.9138 28.1689C59.8907 28.1365 59.8863 28.1077 59.8967 28.0543C59.9204 27.9327 59.9182 27.8355 59.8854 27.7562C59.868 27.7142 59.8502 27.666 59.8513 27.6473C59.7897 27.5108 59.7796 27.4058 59.7695 27.3015C59.7639 27.2426 59.7582 27.184 59.7433 27.1201C59.7556 27.0996 59.7631 27.0734 59.7604 27.057C59.7888 27.0322 59.8202 26.9854 59.8362 26.9616L59.8456 26.9481C59.8202 26.9125 59.8165 26.8972 59.8399 26.8162C59.8545 26.7661 59.8682 26.7036 59.8683 26.673C59.8685 26.6295 59.8776 26.6112 59.9138 26.5985C59.9392 26.5896 59.9592 26.5784 59.9592 26.5698C59.9592 26.5446 59.9135 26.5319 59.891 26.5527C59.8566 26.5843 59.8231 26.5426 59.8456 26.4953C59.8503 26.4254 59.8584 26.3653 59.8662 26.3072L59.8663 26.3061C59.8804 26.201 59.8937 26.1021 59.8854 25.9624C59.8673 25.8887 59.8776 25.8706 59.9195 25.8706C59.9837 25.8706 59.9209 25.8272 59.8456 25.819C59.7458 25.8081 59.7206 25.7923 59.7206 25.7502C59.7206 25.721 59.7516 25.6391 59.7945 25.5611C59.8034 25.5449 59.8114 25.5124 59.8115 25.4866C59.8592 25.4335 59.8328 25.3575 59.8186 25.3168C59.8145 25.3051 59.8115 25.2963 59.8115 25.2918C59.7904 25.2918 59.7774 25.2832 59.7774 25.2689C59.811 25.2579 59.8398 25.2316 59.8658 25.208C59.8786 25.1964 59.8907 25.1854 59.9024 25.1771C59.9024 25.1521 59.8973 25.1193 59.8854 25.1083C59.8691 25.0933 59.8642 25.0799 59.8797 25.0511C59.8974 25.0179 59.9132 24.9511 59.9251 24.8504C59.9268 24.8365 59.9431 24.8156 59.9592 24.8046C59.9493 24.7634 59.9683 24.6627 59.9885 24.5554C59.9985 24.5023 60.0088 24.4476 60.016 24.3977C59.999 24.3282 60.0128 24.2883 60.0785 24.2487C60.1036 24.2336 60.124 24.2135 60.124 24.2028C60.124 24.1728 60.015 24.0936 59.9535 24.0825C59.9232 24.077 59.8572 24.0633 59.8115 24.0538C59.6129 24.0058 59.4313 24.1081 59.3854 24.2888C59.3505 24.4432 59.2418 24.5672 59.2093 24.4895C59.2035 24.4757 59.2148 24.4162 59.232 24.3576C59.2997 24.1267 59.3012 24.0219 59.2433 24.0423C59.2286 24.0476 59.1935 24.0538 59.1638 24.0538C59.1205 24.0833 59.0827 24.1445 59.0455 24.2047L59.0448 24.2058L59.0441 24.2069C59.0329 24.225 59.0217 24.2431 59.0104 24.2601C58.9952 24.2718 58.982 24.3033 58.982 24.3347C58.982 24.4071 58.9053 24.4631 58.857 24.4263C58.8292 24.3485 58.8668 24.2264 58.8879 24.1579L58.8968 24.1284C58.8775 24.0968 58.8472 24.0844 58.8156 24.0716C58.799 24.0649 58.782 24.0579 58.7661 24.048C58.6241 23.9964 58.625 24.0372 58.6285 24.1817C58.6292 24.2111 58.63 24.2448 58.6297 24.283C58.5987 24.346 58.5729 24.4266 58.5729 24.4608C58.5729 24.515 58.5661 24.5235 58.5104 24.5467C58.4326 24.5791 58.4073 24.5627 58.4081 24.478C58.4087 24.4204 58.4625 24.2546 58.4877 24.2315C58.5138 24.2076 58.497 24.1727 58.4536 24.1627C58.3809 24.1459 58.2871 24.2382 58.2718 24.3404C58.2571 24.4387 58.1999 24.5295 58.1525 24.5295C58.1029 24.5295 58.0893 24.4886 58.1184 24.4149C58.1567 24.3176 58.1874 24.1505 58.1695 24.1341C58.0759 24.1407 57.9982 24.2066 57.9297 24.2647C57.9125 24.2794 57.8959 24.2934 57.8798 24.306C57.8283 24.306 57.8203 24.2797 57.857 24.2258C57.886 24.1831 57.8623 24.1376 57.7946 24.1169C57.7358 24.0988 57.6554 24.1408 57.6298 24.2028C57.609 24.253 57.5777 24.2424 57.5446 24.1799C57.5264 24.1456 57.524 24.1304 57.5389 24.1169C57.55 24.1065 57.5559 24.0926 57.5559 24.0825C57.5559 24.0623 57.459 24.0162 57.4082 24.0137C57.3906 24.0128 57.3651 23.9965 57.3514 23.9793C57.3299 23.9522 57.3161 23.9495 57.2775 23.9678C57.2055 24.0021 57.1696 24.0408 57.1696 24.0767C57.1696 24.1046 57.1628 24.1079 57.1184 24.0997C57.0724 24.1229 57.0298 24.122 56.9874 24.1212C56.9668 24.1207 56.9462 24.1203 56.9253 24.1226C56.8895 24.0913 56.8527 24.064 56.8161 24.0369C56.7955 24.0218 56.775 24.0067 56.7548 23.9908C56.694 23.9736 56.6751 23.9732 56.6241 24.0023C56.5294 24.056 56.5188 24.0511 56.5332 23.9449C56.5438 23.8671 56.5413 23.8507 56.5162 23.8417C56.497 23.835 56.4769 23.8417 56.4593 23.8647C56.4442 23.8846 56.4087 23.8991 56.3855 23.8991C56.3415 23.8991 56.2981 23.9377 56.2776 23.9908C56.2691 24.0125 56.251 24.0233 56.2151 24.0195C56.1697 24.0146 56.1644 24.0056 56.1696 23.9564L56.1753 23.8991H56.0276C55.915 23.8991 55.8741 23.9047 55.8741 23.9219C55.8741 23.965 55.8192 24.0548 55.7832 24.0653C55.7285 24.0813 55.7093 24.0615 55.7207 23.9965C55.7293 23.9482 55.7298 23.9334 55.7037 23.9334C55.6024 23.8771 55.5401 23.9031 55.4671 23.9335L55.4649 23.9344C55.447 23.9418 55.4283 23.9495 55.4083 23.9564C55.3948 24.0056 55.322 24.0374 55.2094 24.0423C55.1436 24.0452 55.1298 24.0388 55.1242 24.0137C55.1204 23.9967 55.1309 23.9727 55.1469 23.9564C55.1744 23.9284 55.1701 23.9272 55.0787 23.9392C55.0254 23.9461 54.9342 23.9499 54.8799 23.9506C54.7989 23.9517 54.7795 23.9584 54.7719 23.9851C54.753 24.0517 54.6412 24.0366 54.6412 23.9678C54.6412 23.9421 54.6059 23.9388 54.3912 23.9277C54.0499 23.9101 54.0304 23.9125 54.0163 23.9334C53.9951 23.9649 53.8721 23.9302 53.8515 23.8876C53.828 23.8391 53.76 23.84 53.7436 23.8876C53.734 23.9154 53.7244 23.9149 53.7038 23.8991C53.6835 23.8836 53.6786 23.8891 53.6697 23.9106C53.6537 23.9489 53.6242 23.9398 53.6242 23.8991C53.6242 23.8532 53.5922 23.8577 53.5788 23.9049C53.5722 23.9279 53.5599 23.9379 53.5504 23.9277C53.5353 23.9117 53.4865 23.8063 53.4651 23.7443ZM44.1461 25.1256L44.1584 25.1323C44.3187 25.22 44.4668 25.3012 44.5108 25.5039C44.5296 25.5581 44.5371 25.6019 44.5279 25.6071C44.4959 25.6252 44.531 25.6473 44.6131 25.6586C44.6376 25.6782 44.6666 25.6949 44.6954 25.7116L44.6965 25.7122C44.7563 25.7467 44.8148 25.7803 44.829 25.8364C44.8246 25.869 44.8184 25.9396 44.8176 25.991C44.8164 26.0821 44.8167 26.0821 44.8662 26.0772L44.8688 26.077C44.9143 26.0863 44.96 26.0958 45.0051 26.1057L45.0057 26.1168C45.009 26.179 45.0172 26.3364 45.0392 26.4208C45.0627 26.4447 45.0729 26.4726 45.0821 26.498C45.1009 26.5498 45.1158 26.5909 45.2324 26.5642C45.2917 26.5452 45.4199 26.5733 45.4199 26.6043C45.4199 26.613 45.4357 26.6311 45.4597 26.6501C45.4963 26.6794 45.5236 26.7381 45.5562 26.8508C45.5592 26.8609 45.6001 26.8787 45.6472 26.8908C45.719 26.9533 45.7919 26.9975 45.8633 27.0408L45.8643 27.0415C45.9003 27.0633 45.936 27.085 45.971 27.1087C45.9924 27.1392 46.0213 27.1793 46.0392 27.2041L46.0449 27.2119L46.0542 27.2281C46.1281 27.357 46.1716 27.4329 46.3346 27.4583H46.4596L46.5903 27.6704C46.6374 27.6704 46.7475 27.783 46.7607 27.848L46.774 27.8886C46.7931 27.947 46.8123 28.0057 46.8232 28.0657C46.8232 28.1156 46.8723 28.1702 46.9085 28.1575C46.9314 28.1663 46.9541 28.1732 46.9761 28.1798L46.9799 28.1809C47.0621 28.2053 47.1341 28.2266 47.1698 28.3294C47.1902 28.3814 47.2122 28.4377 47.2153 28.4555C47.23 28.465 47.2449 28.4766 47.2603 28.4885L47.2637 28.4912C47.293 28.5141 47.3239 28.538 47.3573 28.5529C47.3763 28.5579 47.3967 28.5611 47.4174 28.5642C47.4722 28.5723 47.5289 28.5809 47.5675 28.6274L47.6205 28.6687C47.7254 28.7506 47.8343 28.8355 47.9539 28.9025C47.9859 28.9556 48.0806 29.0288 48.13 29.0401C48.1469 29.0529 48.1645 29.0649 48.1821 29.0769L48.1837 29.078C48.2577 29.1284 48.3306 29.1782 48.3459 29.2751C48.4297 29.4025 48.5313 29.4973 48.6363 29.5952L48.6375 29.5963L48.6382 29.597C48.7151 29.6687 48.7939 29.7419 48.8686 29.831L48.8859 29.8387C48.9525 29.8679 49.1325 29.947 49.005 29.9342C49.0048 29.935 49.0007 29.9365 48.9947 29.9386C48.9682 29.9479 48.9051 29.9702 48.9879 30.0144C49.1134 30.1289 49.2415 30.2296 49.3913 30.3067C49.4099 30.3149 49.4291 30.3216 49.4481 30.3281C49.5031 30.347 49.5569 30.3654 49.5902 30.4213C49.6555 30.4937 49.8119 30.7171 49.8516 30.7996C49.8732 30.8444 49.8976 30.8798 49.9141 30.8798C49.977 31.1137 49.9586 31.3171 49.8231 31.5332H49.5902C49.5363 31.5354 49.4864 31.5405 49.4378 31.5455C49.3622 31.5533 49.2896 31.5607 49.2095 31.5561C49.0779 31.5512 48.8916 31.5458 48.7096 31.5676C48.5844 31.575 48.4652 31.602 48.4652 31.625C48.4473 31.6337 48.4288 31.6422 48.4103 31.6506L48.409 31.6512C48.3628 31.6723 48.3157 31.6939 48.2721 31.7224C48.2122 31.7597 48.1454 31.786 48.0959 31.7911C47.9946 31.8016 47.7879 31.8459 47.7494 31.8656L47.7446 31.8679L47.7437 31.8684C47.6471 31.916 47.5643 31.9569 47.4823 32.0261C47.4669 32.033 47.4497 32.0428 47.4315 32.0532L47.4084 32.0662C47.404 32.0665 47.4019 32.0664 47.3997 32.0662H47.3914L47.3927 32.0555C47.3935 32.0468 47.3944 32.0377 47.3971 32.0318C47.2967 32.0668 47.2118 31.9958 47.1248 31.9229C47.0262 31.8404 46.9247 31.7554 46.7948 31.8198C46.5259 32 46.4193 31.7347 46.3744 31.5274C46.3189 31.5456 46.2551 31.5831 46.1858 31.6237C46.024 31.7188 45.8323 31.8313 45.6472 31.7567C45.5075 31.6251 45.3394 31.6982 45.1648 31.7741C45.0268 31.8342 44.8848 31.8959 44.7494 31.8599C44.7284 31.8438 44.6989 31.7988 44.666 31.7484L44.665 31.7469C44.5893 31.6309 44.4954 31.4871 44.4427 31.5963C44.2823 31.7181 44.265 31.6074 44.2445 31.4769C44.2248 31.3509 44.2022 31.2064 44.0449 31.2352C44.0109 31.406 43.7971 31.538 43.7779 31.2696C43.7191 31.2026 43.67 31.1761 43.6302 31.1778C43.5617 31.181 43.5155 31.2629 43.4684 31.3466C43.4333 31.409 43.3976 31.4722 43.3518 31.5046C43.2537 31.6037 43.1158 31.5869 42.9851 31.5709C42.8197 31.5507 42.6659 31.5321 42.6189 31.7509C42.5525 31.9897 42.1725 32.041 41.9939 31.9688C41.9719 31.535 41.6556 31.7377 41.4181 31.8898C41.3868 31.91 41.3568 31.9292 41.3291 31.9459C41.1981 32.1081 41.0082 32.0522 40.8259 31.9986C40.7173 31.9667 40.6115 31.9356 40.5223 31.9516C40.4808 31.9362 40.4324 31.9274 40.385 31.9188L40.384 31.9187C40.2478 31.8939 40.1196 31.8707 40.1815 31.6994C40.3699 31.5605 40.1369 31.1531 39.9996 31.4185C39.9018 31.4378 39.8882 31.4785 39.8758 31.5158C39.8643 31.5502 39.8537 31.5819 39.7781 31.5905C39.6306 31.7219 39.6198 31.6236 39.6067 31.5061C39.593 31.3824 39.577 31.2374 39.3974 31.3154C39.2986 31.6744 38.8431 31.7241 38.494 31.7109C38.3845 31.7216 38.2785 31.75 38.1725 31.7784C38.0052 31.8232 37.8383 31.868 37.6588 31.8426C37.6395 31.8422 37.6291 31.8513 37.619 31.8598L37.3975 31.8656C37.4266 31.8442 37.4629 31.8305 37.5111 31.8369C37.5615 31.8358 37.6124 31.8253 37.6247 31.814C37.627 31.8 37.6289 31.7844 37.6309 31.768C37.6372 31.7152 37.6443 31.6556 37.6702 31.6248C37.6857 31.6248 37.7055 31.6036 37.7156 31.5791C37.7321 31.5393 37.7395 31.5367 37.8008 31.5446C37.8268 31.5321 37.8513 31.5227 37.8743 31.5137L37.8766 31.5129C37.9634 31.4796 38.0302 31.4539 38.0849 31.3039C38.0767 31.2353 38.1116 31.2199 38.244 31.2237C38.3442 31.2265 38.369 31.2208 38.386 31.195C38.3959 31.1807 38.4075 31.1677 38.419 31.1547C38.4405 31.1304 38.4619 31.1064 38.4713 31.0747C38.4713 31.0625 38.534 31.0227 38.6076 30.9887C38.7837 30.9077 38.7837 30.9035 38.7837 30.8177V30.8167C38.7939 30.8049 38.8012 30.788 38.809 30.7702C38.8262 30.7305 38.8457 30.6859 38.9031 30.6792C38.9109 30.6679 38.9798 30.6572 39.0622 30.6506C39.196 30.6398 39.212 30.635 39.2269 30.599C39.2356 30.5893 39.2458 30.581 39.2557 30.5729C39.2763 30.5562 39.2962 30.5401 39.3008 30.513C39.3008 30.4445 39.3231 30.4215 39.3747 30.4213C39.416 30.4211 39.4277 30.4079 39.4655 30.3295C39.4873 30.3167 39.5045 30.2994 39.5217 30.2821C39.5582 30.2453 39.5939 30.2093 39.6701 30.2207C39.7126 30.1998 39.7183 30.1779 39.7383 30.0373C39.7449 29.9907 39.7613 29.9462 39.7724 29.9399L39.8446 29.94H39.8481C39.9158 29.9404 39.9832 29.9407 40.0508 29.9342C40.0769 29.9163 40.1379 29.7114 40.136 29.6475C40.1501 29.6331 40.1638 29.6187 40.1772 29.6044L40.1817 29.5997C40.2808 29.4949 40.3682 29.4024 40.528 29.4012C40.5586 29.4117 40.5838 29.4147 40.5848 29.4125C40.5859 29.4105 40.6061 29.3514 40.6246 29.2808C40.6247 29.2664 40.6234 29.2469 40.6219 29.225C40.6161 29.137 40.6079 29.0137 40.6757 29.0573C40.8329 29.0771 40.8832 29.0539 40.9655 28.937C41.0061 28.8791 41.0493 28.8289 41.0621 28.8223C41.0933 28.7963 41.1175 28.7728 41.1386 28.7521C41.2031 28.6892 41.2385 28.6546 41.3575 28.6676C41.4362 28.6722 41.4431 28.6679 41.4541 28.6274C41.4554 28.6147 41.4553 28.6024 41.4552 28.5902C41.455 28.5656 41.4548 28.5421 41.4655 28.5185C41.4838 28.4871 41.4879 28.4887 41.5453 28.5107L41.5507 28.5128C41.6614 28.5552 41.6731 28.5496 41.6587 28.4613C41.6517 28.4187 41.6326 28.3367 41.6132 28.2835C41.5479 28.1042 41.5693 28.0574 41.7041 28.1002C41.7707 28.1213 41.7819 28.1193 41.8121 28.0887C41.8269 28.0712 41.8316 28.0488 41.8359 28.0278C41.8437 27.9898 41.8505 27.957 41.9143 27.9683C42.0122 27.9549 42.0204 27.947 42.028 27.8537C42.0329 27.7933 42.0447 27.7756 42.1132 27.7333C42.1771 27.677 42.2596 27.6218 42.3234 27.59C42.409 27.5731 42.4178 27.571 42.4143 27.5271C42.4073 27.5079 42.3975 27.4897 42.3877 27.4716C42.3706 27.44 42.3536 27.4086 42.3518 27.3723L42.3791 27.3444C42.522 27.1989 42.6934 27.0245 42.7439 26.8049C42.7548 26.703 42.7763 26.6833 42.8745 26.6903C42.9603 26.6964 42.9797 26.6716 42.9995 26.5241C43.0189 26.3798 43.0583 26.295 43.1188 26.2662C43.147 26.2528 43.1793 26.2432 43.1927 26.2432C43.2071 26.2432 43.2241 26.2034 43.2382 26.1458C43.2467 26.128 43.2555 26.1104 43.2643 26.0928C43.3011 26.0192 43.3375 25.9466 43.3518 25.8649C43.3591 25.8627 43.3683 25.8537 43.3791 25.8428C43.408 25.8142 43.449 25.7734 43.4995 25.8192V25.7446C43.4995 25.6209 43.5372 25.5524 43.6188 25.5383C43.7514 25.4472 43.8569 25.3353 43.9672 25.2182L44.0222 25.1601C44.0287 25.1529 44.0364 25.1458 44.0442 25.1386L44.0457 25.1372C44.0618 25.1225 44.078 25.1076 44.0847 25.0913C44.1052 25.1031 44.1257 25.1143 44.1461 25.1256ZM73.1884 26.687C73.1728 26.6854 73.1592 26.6839 73.1465 26.6845C73.0806 26.6878 73.0581 26.7115 73.0385 26.759L72.9919 26.7916C72.9384 26.8289 72.8853 26.866 72.8397 26.8966C72.7684 26.9124 72.6832 26.9581 72.6181 26.994C72.5778 26.9941 72.5353 27.0048 72.5045 27.0284C72.4609 27.0617 72.4512 27.0843 72.442 27.1947C72.4362 27.264 72.4292 27.3225 72.425 27.3264C72.3784 27.3115 72.3364 27.2954 72.2941 27.2791L72.2375 27.2576C72.1338 27.2635 72.0443 27.3468 72.0443 27.4353C72.0205 27.465 71.9966 27.4898 71.9723 27.5151C71.9318 27.5572 71.8901 27.6005 71.8454 27.6702C71.8199 27.7508 71.7588 27.7769 71.6866 27.8077C71.6361 27.8292 71.5802 27.8531 71.5272 27.8996C71.4637 27.9694 71.4015 28.0207 71.3568 28.0371C71.2986 28.0585 71.2839 28.0764 71.2659 28.1345C71.2166 28.2468 71.1215 28.2867 71.0187 28.3299C70.9785 28.3468 70.937 28.3642 70.8966 28.3867C70.8814 28.3228 70.8321 28.328 70.779 28.3334C70.7556 28.3359 70.7314 28.3385 70.7091 28.3352C70.6464 28.3132 70.5937 28.3493 70.5784 28.4326C70.5714 28.4707 70.556 28.5091 70.5443 28.5128C70.5224 28.5198 70.4261 28.5333 70.3853 28.5357C70.3725 28.5365 70.3368 28.5874 70.3057 28.6503C70.2813 28.7329 70.2319 28.7797 70.1818 28.8275C70.1641 28.8442 70.1464 28.861 70.1296 28.8796C70.1061 28.9779 70.0709 29.0115 69.9762 29.0172L69.9681 29.0177C69.8934 29.022 69.8895 29.0222 69.8739 29.0802C69.859 29.1357 69.8537 29.1446 69.8114 29.1375C69.7357 29.1248 69.71 29.1525 69.6978 29.2694L69.6864 29.3782L69.5273 29.3955C69.3464 29.4151 69.2965 29.4425 69.3171 29.5216C69.3479 29.6395 69.3476 29.7238 69.3171 29.8081C69.2357 29.9021 69.142 29.9854 69.0444 30.066C69.0392 30.066 68.998 30.0438 68.9592 30.0201C68.902 30.0288 68.8735 29.9924 68.8519 29.9649C68.8435 29.9541 68.8361 29.9447 68.8285 29.9399C68.8285 29.8911 68.8187 29.8746 68.783 29.8597C68.7105 29.8293 68.6783 29.8494 68.6921 29.9169C68.701 29.9605 68.6917 29.9779 68.6694 29.9858C68.677 29.9937 68.7085 30.0355 68.7364 30.0726L68.766 30.1118C68.7633 30.1398 68.7622 30.1663 68.7614 30.1837C68.761 30.1939 68.7607 30.201 68.7603 30.2036C68.7338 30.2143 68.697 30.2279 68.6694 30.2379C68.5832 30.1955 68.4883 30.2589 68.4406 30.2906C68.428 30.299 68.4187 30.3052 68.4137 30.3067C68.4301 30.3459 68.3862 30.4704 68.3399 30.513C68.312 30.5386 68.2912 30.5798 68.283 30.6334C68.2761 30.6793 68.2628 30.7308 68.249 30.748C68.1801 30.7747 68.1124 30.7019 68.0525 30.6373C68.042 30.6259 68.0317 30.6149 68.0217 30.6047C67.9835 30.6047 67.9592 30.6361 67.9592 30.6964C67.9592 30.7489 67.8527 30.8543 67.783 30.8684C67.714 30.8823 67.661 30.9301 67.6581 30.983C67.6408 31.0198 67.6071 31.0473 67.5737 31.0745C67.5576 31.0876 67.5416 31.1008 67.5274 31.1148C67.4867 31.1865 67.4025 31.2464 67.3172 31.2695C67.248 31.2882 67.2425 31.3016 67.232 31.3555C67.2151 31.4412 67.1811 31.4866 67.1297 31.5102C67.099 31.5242 67.0898 31.5496 67.0842 31.5961L67.1183 31.5848L67.2035 31.6248L67.3683 31.7911L67.5672 31.8885L67.6694 31.6822L67.8115 31.5848L67.9194 31.8313L67.9365 32.0146L68.3171 31.7109L68.5444 31.5102L68.6808 31.5389L68.7205 31.7911L68.7319 31.9687L68.7717 32.0776L68.9705 32.0318L69.0558 31.9572L69.2432 31.7509L69.4364 31.6363L69.5728 31.7224L69.6523 31.8427L69.7432 31.8541L69.8398 31.7911L70.1012 31.4472L70.2432 31.5102L70.317 31.7109L70.3909 31.9057L70.9022 31.9631H71.0557L71.1522 31.8598L71.1977 32.0203L71.2488 32.3757L71.8681 32.324L72.0442 31.9802L72.1806 31.9L72.334 31.9573L72.4647 32.0261L72.7431 31.7624L72.8624 31.9401L73.0045 32.0433L73.1976 31.9802L73.3624 32.0433L73.5499 32.2496L73.8112 32.3699L74.0669 32.2954L74.2487 32.4101L74.3283 32.3642L74.4419 32.2266L74.476 32.1579L74.7089 32.2094L74.9078 32.5018L75.1123 32.4846L75.2601 32.3814L75.4419 32.5133L75.6066 32.6336H75.6862L75.7771 32.559L75.9873 32.4559L76.0725 32.5305L76.1066 32.582L76.1407 32.6451L76.4248 32.6221L76.652 32.7138C76.736 32.8281 76.7559 32.8381 76.8054 32.8514C76.8436 32.8616 76.8606 32.8573 76.885 32.8227C76.9246 32.7666 76.9843 32.7806 77.0498 32.8629L77.0952 32.9259L78.5156 33.0233C78.8533 32.7241 78.7755 32.807 78.5497 33.0233L78.777 33.0405L78.7829 33.0379C78.795 33.0328 78.8072 33.0275 78.8111 33.0233C78.9048 32.9909 78.9936 32.9447 79.0825 32.8983L79.1179 32.88C79.1424 32.8557 79.1748 32.8457 79.2076 32.8356C79.2253 32.8303 79.2431 32.8248 79.2599 32.817C79.3311 32.7829 79.4098 32.7706 79.4877 32.7584C79.5084 32.7551 79.5291 32.7519 79.5496 32.7482C79.5954 32.7386 79.695 32.7222 79.7712 32.7138C79.8475 32.7054 79.9326 32.6899 79.9644 32.6794C79.9963 32.6689 80.1028 32.6596 80.2031 32.6564C80.3874 32.6508 80.4416 32.6463 80.6917 32.6164C80.866 32.5955 80.8907 32.5849 80.9246 32.5247C80.9492 32.4812 80.9645 32.4731 81.0439 32.4731C81.1302 32.4731 81.1916 32.4439 81.1916 32.3986C81.1916 32.3649 81.3129 32.2381 81.3451 32.2381C81.3653 32.2381 81.3735 32.2238 81.3735 32.2037C81.4337 32.1486 81.4487 32.0817 81.4658 32.0059L81.4757 31.963V31.665L81.4594 31.65C81.4084 31.6027 81.4073 31.6016 81.3905 31.6363C81.3651 31.6925 81.3475 31.6695 81.3269 31.6428C81.3155 31.628 81.3032 31.6121 81.2882 31.6076C81.247 31.5799 81.2487 31.5355 81.2501 31.499C81.2508 31.4835 81.2513 31.4694 81.2485 31.4587C81.2297 31.4587 81.1985 31.4427 81.1803 31.4243C81.1621 31.4058 81.1427 31.3912 81.1348 31.3956C81.1214 31.4033 81.0507 31.3104 81.0212 31.2467C81.0137 31.2303 80.999 31.218 80.9871 31.218C80.9752 31.218 80.953 31.2086 80.9417 31.195C80.8264 31.1152 80.7138 31.088 80.6024 31.061C80.5257 31.0424 80.4496 31.024 80.3735 30.9887C80.3304 30.9826 80.2712 30.9675 80.2428 30.9543C80.2007 30.9348 80.1803 30.9316 80.1292 30.9486C80.0617 30.971 80.0099 30.9512 80.0099 30.9028C80.0099 30.8739 79.8388 30.8693 79.7826 30.897C79.7543 30.911 79.7378 30.9096 79.7144 30.8913C79.6975 30.878 79.669 30.8624 79.6519 30.8569C79.6186 30.846 79.5089 30.8663 79.4417 30.897C79.4107 30.9112 79.3755 30.9138 79.2997 30.897C79.2325 30.8822 79.1399 30.879 79.0213 30.8856C78.8559 30.8946 78.8424 30.8929 78.8338 30.8626C78.796 30.8304 78.7325 30.8161 78.6753 30.8033L78.6349 30.7939C78.5784 30.7659 78.5448 30.7622 78.4758 30.7709C78.4464 30.7614 78.4193 30.7518 78.3935 30.7426C78.2856 30.7043 78.1987 30.6733 78.0497 30.6907C78.0352 30.6777 77.9851 30.6503 77.9361 30.6334C77.8766 30.606 77.8237 30.5721 77.77 30.5375L77.7315 30.513L77.4134 30.4615L77.3849 30.3869C77.3532 30.3078 77.3057 30.2795 77.1974 30.2608C77.1455 30.2519 77.1286 30.2557 77.1009 30.2838C76.9747 30.3419 76.8676 30.289 76.7559 30.2337C76.731 30.2215 76.706 30.2092 76.6804 30.1978C76.6269 30.1452 76.6256 30.1326 76.635 30.0488C76.643 29.978 76.6397 29.9591 76.6179 29.9514C76.5775 29.9371 76.5441 29.9752 76.5441 30.0373C76.5441 30.0856 76.5354 30.0872 76.4873 30.0889C76.4063 30.0915 76.2912 30.0679 76.2543 30.0373C76.2364 30.0224 76.2202 29.9887 76.2202 29.9686C76.2202 29.9484 76.2062 29.9179 76.1918 29.8997C76.1671 29.8687 76.1649 29.8706 76.1231 29.9067L76.118 29.9112C76.0728 29.9503 76.0676 29.9479 76.0124 29.9237L76.01 29.9227C75.955 29.911 75.9037 29.8896 75.8529 29.8685C75.8314 29.8596 75.81 29.8507 75.7884 29.8425C75.7703 29.8249 75.7511 29.8081 75.743 29.8081C75.7349 29.8081 75.7109 29.7678 75.6919 29.7164C75.6382 29.5715 75.4866 29.4844 75.4475 29.5788C75.4368 29.6048 75.4136 29.6247 75.3907 29.6247C75.3569 29.6135 75.3477 29.5722 75.3385 29.5313C75.3341 29.5115 75.3297 29.4918 75.3225 29.4757C75.3068 29.4593 75.2779 29.429 75.26 29.4069C75.1665 29.3896 75.1308 29.3294 75.0942 29.2679C75.0805 29.2449 75.0668 29.2218 75.0498 29.2005C74.9798 29.2088 74.8623 29.1849 74.7914 29.1705C74.766 29.1652 74.7465 29.1613 74.7373 29.1605C74.7227 29.1063 74.7007 29.0568 74.6781 29.0062L74.6578 28.9599C74.6416 28.9282 74.6068 28.8997 74.5807 28.8784C74.5704 28.8699 74.5615 28.8626 74.5555 28.8566C74.543 28.8656 74.4915 28.8667 74.4476 28.8624C74.3611 28.8541 74.334 28.8217 74.334 28.7249C74.3256 28.6925 74.3114 28.6654 74.2967 28.6373L74.2828 28.6103C74.2828 28.5847 74.2612 28.5538 74.2374 28.5357C74.2111 28.3483 74.125 28.3098 73.9682 28.2393L73.9646 28.2377C73.9407 28.2113 73.9154 28.1134 73.9021 28.0085C73.9103 27.9415 73.9122 27.8513 73.9131 27.8131L73.9135 27.7963C73.8703 27.6793 73.8045 27.7283 73.7558 27.7646C73.7368 27.7788 73.7204 27.7911 73.709 27.7907C73.667 27.7907 73.6419 27.7434 73.6294 27.6417C73.6357 27.5732 73.6421 27.5378 73.6474 27.5084L73.6521 27.4812C73.6378 27.4593 73.6238 27.4367 73.6098 27.4141C73.5936 27.3881 73.5775 27.3623 73.5612 27.3378C73.5153 27.3248 73.4913 27.3 73.4533 27.2176C73.4289 27.1647 73.4001 27.1091 73.3873 27.0842L73.3851 27.08C73.3592 27.0296 73.3658 26.8885 73.3965 26.8106C73.4303 26.7246 73.3897 26.6988 73.226 26.6903C73.2121 26.6895 73.1997 26.6882 73.1884 26.687Z" transform="translate(0 14.7368)" fill="black"/>
</svg>
