<?xml version="1.0" encoding="utf-8"?>
<!-- Generator: Adobe Illustrator 18.0.0, SVG Export Plug-In . SVG Version: 6.00 Build 0)  -->
<!DOCTYPE svg PUBLIC "-//W3C//DTD SVG 1.1//EN" "http://www.w3.org/Graphics/SVG/1.1/DTD/svg11.dtd">
<svg version="1.1" id="Layer_1" xmlns="http://www.w3.org/2000/svg" xmlns:xlink="http://www.w3.org/1999/xlink" x="0px" y="0px"
	 viewBox="0 0 27.319 16.172" enable-background="new 0 0 27.319 16.172" xml:space="preserve">
<path fill="currentColor" d="M27.319,8.086c0-4.466-3.62-8.086-8.086-8.086c-1.938,0-3.701,0.678-5.094,1.815
	c1.062,1.026,1.873,2.31,2.308,3.761h-0.672c-0.421-1.29-1.161-2.429-2.122-3.343c-0.968,0.922-1.692,2.069-2.108,3.339h-0.672
	c0.429-1.425,1.215-2.716,2.284-3.752C11.768,0.696,10.013,0,8.086,0C3.621,0,0,3.62,0,8.086c0,4.466,3.62,8.086,8.086,8.086
	c1.927,0,3.682-0.696,5.071-1.821c-1.054-1.022-1.851-2.308-2.284-3.752h0.672c0.416,1.27,1.14,2.417,2.108,3.339
	c0.962-0.914,1.701-2.052,2.122-3.343h0.672c-0.435,1.452-1.246,2.736-2.308,3.761c1.393,1.137,3.156,1.815,5.094,1.815
	C23.698,16.172,27.319,12.552,27.319,8.086z"/>
<path fill="#FFFFFF" d="M25.524,7.334c-0.041-0.03-0.077-0.068-0.115-0.108c-0.109-0.115-0.235-0.246-0.521-0.246l-0.074,0
	c-0.448-0.004-1.095-0.011-1.47,1.273c-0.265,0.906,0.271,1.731,0.855,1.731c0.271-0.01,0.542-0.125,0.709-0.24l0.105,0.24h0.876
	l0.709-3.796h-0.855L25.524,7.334z M17.962,7.062c0.271,0,0.417,0.021,0.626,0.146l0.532-0.532c-0.208-0.23-0.449-0.455-1.116-0.48
	c-0.563-0.021-1.528,0.39-1.836,1.512c-0.417,1.523,0.5,2.274,1.345,2.274c0.448,0,0.72-0.062,0.991-0.188l-0.24-0.73
	c-0.834,0.281-1.429-0.146-1.293-1.012C17.085,7.322,17.69,7.062,17.962,7.062z M10.556,6.228h0.814l-0.167,0.793h0.438
	l-0.146,0.647h-0.417l-0.229,1.21c-0.042,0.23-0.021,0.438,0.449,0.365l-0.052,0.605c-0.177,0.115-0.417,0.146-0.605,0.146
	c-0.188,0-0.803-0.115-0.646-0.928L10.556,6.228z M21.375,9.98l0.558-2.992h0.706l0.074,0.295c0.126-0.148,0.369-0.295,0.779-0.295
	l-0.221,0.779l-0.031,0c-0.207-0.003-0.56-0.007-0.79,0.843l-0.253,1.37H21.375z M12.966,6.979c1.429,0,1.21,1.189,1.116,1.669
	h-1.773c-0.091,0.659,0.398,0.658,0.723,0.657l0.028,0c0.323,0,0.793-0.042,0.918-0.073l-0.125,0.615
	c-0.198,0.104-0.699,0.146-1.043,0.136c-1.408,0-1.387-1.324-1.356-1.512l0.003-0.02C11.496,8.204,11.691,6.979,12.966,6.979z
	 M9.784,7.688l0.188-0.605c-0.337-0.128-0.61-0.12-0.751-0.116c-0.02,0.001-0.038,0.001-0.052,0.001H9.163
	c-0.137,0-1.088-0.001-1.236,0.709C7.813,8.231,8.015,8.46,8.209,8.544c0.205,0.089,0.351,0.173,0.475,0.244l0.003,0.002
	c0.064,0.037,0.123,0.07,0.179,0.099c0.206,0.103,0.168,0.448-0.104,0.448c-0.021,0-0.054,0.002-0.096,0.004l-0.003,0
	C8.454,9.352,8.025,9.375,7.688,9.263L7.573,9.879c0.375,0.104,0.678,0.104,0.96,0.104l0.031,0c0.252,0.003,1.143,0.012,1.272-0.845
	c0.066-0.437-0.125-0.636-0.282-0.73c-0.156-0.104-0.417-0.25-0.584-0.324C8.804,8.012,8.679,7.73,8.981,7.647
	C9.169,7.626,9.555,7.626,9.784,7.688z M5.185,6.374L4.507,9.983H3.662l0.48-2.545L3.004,9.983H2.233L2.014,7.375L1.513,9.983H0.699
	l0.699-3.609h1.303l0.157,2.19l0.991-2.19H5.185z M5.404,7.073L5.278,7.72c0.049-0.005,0.117-0.014,0.197-0.024
	c0.247-0.032,0.602-0.078,0.815-0.07c0.027,0.001,0.054,0.002,0.081,0.002c0.257,0.005,0.504,0.01,0.419,0.415
	C6.764,8.046,6.717,8.044,6.654,8.042C6.228,8.029,5.093,7.995,4.893,9.086c-0.094,0.616,0.438,0.928,0.855,0.908
	C6.165,9.973,6.28,9.92,6.426,9.816L6.53,9.983h0.761l0.323-1.627c0.083-0.407,0.219-1.387-1.147-1.387
	C6.425,6.97,6.382,6.972,6.337,6.973C6.115,6.979,5.846,6.986,5.404,7.073z M19.046,7.72l0.125-0.647
	c0.442-0.087,0.711-0.094,0.933-0.1c0.045-0.001,0.088-0.002,0.131-0.004c1.366,0,1.231,0.981,1.148,1.387l-0.324,1.627h-0.761
	l-0.104-0.167c-0.146,0.104-0.26,0.157-0.678,0.178c-0.417,0.021-0.949-0.292-0.855-0.908c0.2-1.091,1.335-1.056,1.761-1.043
	c0.063,0.002,0.11,0.003,0.137,0.001c0.085-0.406-0.163-0.41-0.419-0.415c-0.027-0.001-0.055-0.001-0.081-0.002
	c-0.213-0.008-0.569,0.038-0.815,0.07C19.163,7.706,19.095,7.715,19.046,7.72z"/>
<path fill="currentColor" d="M13.372,8.106h-1.012c0.094-0.376,0.323-0.542,0.647-0.542C13.331,7.563,13.425,7.814,13.372,8.106z
	 M6.604,8.639l0.051,0.009L6.593,8.971C6.54,9.243,6.155,9.416,5.894,9.316C5.623,9.211,5.696,8.898,5.956,8.721
	C6.188,8.563,6.454,8.611,6.604,8.639z M25.232,8.554c0.083-0.271,0.038-0.61-0.052-0.73c-0.25-0.334-0.826-0.07-1.001,0.584
	c-0.115,0.427,0.136,0.751,0.417,0.751C24.898,9.159,25.086,8.919,25.232,8.554z M20.373,8.639c0.019,0.003,0.036,0.007,0.051,0.009
	l-0.063,0.323c-0.052,0.272-0.438,0.445-0.698,0.345c-0.271-0.105-0.198-0.417,0.063-0.595C19.957,8.563,20.221,8.611,20.373,8.639z
	"/>
<path fill="#FFFFFF" d="M14.105,9.983l0.553-2.962h0.699l0.073,0.292c0.125-0.146,0.365-0.292,0.772-0.292l-0.209,0.782
	c-0.198,0-0.584-0.062-0.824,0.824l-0.25,1.356L14.105,9.983L14.105,9.983z"/>
</svg>
