<svg width="30" height="31" viewBox="0 0 30 31" version="1.1" xmlns="http://www.w3.org/2000/svg" xmlns:xlink="http://www.w3.org/1999/xlink">
<path fill-rule="evenodd" clip-rule="evenodd" d="M 28.7633 0.00335693C 28.6852 0.0125427 28.6117 0.0378113 28.5427 0.0768738L 0.307495 15.371C 0.102905 15.4813 -0.0164795 15.7019 0.00183105 15.934C 0.022583 16.166 0.178833 16.3636 0.399414 16.4372L 8.41406 19.0659L 7.64197 27.007C 7.60986 27.2644 7.75232 27.5125 7.99133 27.6159C 8.23022 27.7194 8.5083 27.6504 8.67139 27.4482L 13.7266 21.7313L 21.3552 29.2497C 21.5046 29.3967 21.7206 29.4519 21.9229 29.3944C 22.125 29.337 22.2789 29.1784 22.3295 28.9739L 29.3883 0.738647C 29.4412 0.552521 29.3953 0.352631 29.2711 0.205566C 29.1448 0.0585022 28.9563 -0.017334 28.7633 0.00335693ZM 27.9178 1.73129L 21.4288 27.6872L 14.4619 20.8122L 24.5906 6.82321C 24.8135 6.58884 24.8066 6.21887 24.5723 5.996C 24.3379 5.7731 23.9679 5.78 23.745 6.01437L 8.94727 17.9997L 2.05383 15.757L 27.9178 1.73129ZM 13.3221 20.4261L 21.0427 9.70923L 9.60889 18.9556L 8.98389 25.3159L 13.1935 20.5916C 13.205 20.5732 13.2164 20.5548 13.2302 20.5364L 13.267 20.4997C 13.2831 20.4744 13.3014 20.4491 13.3221 20.4261Z" transform="translate(0.00500488 0.584869)" fill="black"/>
</svg>

