<svg width="50" height="46" viewBox="0 0 50 46" fill="none" xmlns="http://www.w3.org/2000/svg">
<path d="M10.0354 45.3476C9.83928 45.3476 9.6432 45.2523 9.44713 45.157C9.15301 44.9665 8.95693 44.4902 9.05497 44.1091L13.3687 28.4851L0.427518 18.2915C0.0353608 18.1009 -0.0626785 17.6246 0.0353608 17.2435C0.1334 16.8624 0.525557 16.5766 0.917714 16.5766L17.5844 15.7192L23.5648 0.571608C23.7609 0.285804 24.153 0 24.5452 0C24.9373 0 25.3295 0.285804 25.4275 0.571608L31.4079 15.7192L48.0746 16.5766C48.4667 16.5766 48.8589 16.8624 48.9569 17.2435C49.055 17.6246 48.9569 18.0057 48.6628 18.2915L35.7216 28.4851L40.0354 44.1091C40.1334 44.4902 40.0354 44.8712 39.6432 45.157C39.3491 45.3476 38.8589 45.4428 38.5648 45.157L24.5452 36.3924L10.5256 45.157C10.3295 45.3476 10.2314 45.3476 10.0354 45.3476Z" transform="translate(0.945007)" fill="black"/>
</svg>
