<?xml version="1.0" encoding="utf-8"?>
<!-- Generator: Adobe Illustrator 18.0.0, SVG Export Plug-In . SVG Version: 6.00 Build 0)  -->
<!DOCTYPE svg PUBLIC "-//W3C//DTD SVG 1.1//EN" "http://www.w3.org/Graphics/SVG/1.1/DTD/svg11.dtd">
<svg version="1.1" id="Layer_1" xmlns="http://www.w3.org/2000/svg" xmlns:xlink="http://www.w3.org/1999/xlink" x="0px" y="0px"
	 width="19px" height="30px" viewBox="0 0 19 30" enable-background="new 0 0 19 30" xml:space="preserve">
<g id="Canvas">
	<g id="icons8-reminder">
		<path id="Shape" d="M13.469,0c-0.574,0-1.172,0.198-1.645,0.612C11.35,1.026,11.02,1.674,11.02,2.449v0.249
			c-0.294-0.134-0.574-0.249-0.918-0.249c-1.177,0-2.143,0.966-2.143,2.143c0,1.177,0.966,2.143,2.143,2.143
			c0.351,0,0.671-0.102,1.041-0.22l0.03-0.01c0.383-0.122,0.789-0.263,1.167-0.421c0.421-0.175,0.745-0.332,0.981-0.446
			c0.054-0.026,0.103-0.05,0.148-0.071c0.032,0.015,0.067,0.032,0.105,0.05l0.013,0.006l0.031,0.015
			c0.236,0.114,0.56,0.27,0.98,0.445c0.378,0.158,0.784,0.299,1.167,0.421l0.03,0.01c0.37,0.118,0.69,0.22,1.041,0.22
			c1.177,0,2.143-0.966,2.143-2.143c0-1.177-0.966-2.143-2.143-2.143c-0.344,0-0.624,0.115-0.918,0.249V2.392
			c0-0.753-0.349-1.397-0.823-1.798C14.622,0.191,14.043,0,13.469,0z M13.469,1.224c0.282,0,0.612,0.11,0.842,0.306
			c0.23,0.196,0.383,0.452,0.383,0.861v0.957c-0.064,0.038-0.129,0.077-0.191,0.115c-0.402,0.25-0.729,0.477-0.981,0.652
			l-0.052,0.036l-0.052-0.036c-0.252-0.175-0.579-0.402-0.981-0.652c-0.062-0.038-0.127-0.077-0.191-0.115V2.449
			c0-0.45,0.153-0.72,0.383-0.918C12.857,1.332,13.187,1.224,13.469,1.224z M10.114,3.677c-0.009-0.002-0.013-0.004-0.012-0.004
			c-0.536,0-0.918,0.383-0.918,0.918c0,0.536,0.383,0.918,0.918,0.918c0.069,0,0.378-0.045,0.708-0.153
			c0.246-0.08,0.511-0.192,0.778-0.306l0.013-0.006c0.087-0.037,0.174-0.074,0.261-0.11c0.11-0.046,0.154-0.066,0.206-0.09
			l0.002-0.001l0,0l0.002-0.001c0.034-0.016,0.072-0.034,0.135-0.061c-0.079-0.052-0.125-0.086-0.169-0.118l-0.002-0.001
			c-0.061-0.045-0.117-0.086-0.25-0.168c-0.356-0.222-0.749-0.438-1.071-0.593C10.433,3.767,10.173,3.694,10.114,3.677z
			 M16.837,3.673c0.536,0,0.918,0.383,0.918,0.918c0,0.536-0.383,0.918-0.918,0.918c-0.069,0-0.378-0.045-0.708-0.153
			c-0.246-0.08-0.511-0.192-0.778-0.306l-0.013-0.006c-0.087-0.037-0.174-0.074-0.261-0.11c-0.111-0.046-0.155-0.066-0.207-0.091
			l0,0l-0.002-0.001c-0.034-0.016-0.072-0.034-0.135-0.061c0.079-0.052,0.126-0.086,0.169-0.118l0.002-0.001
			c0.061-0.045,0.118-0.086,0.25-0.168c0.356-0.222,0.749-0.438,1.072-0.593c0.282-0.136,0.542-0.209,0.6-0.226
			C16.833,3.675,16.837,3.673,16.837,3.673z M11.02,7.347l1.224-0.497v6.62c0,0.368-0.244,0.612-0.612,0.612
			c-0.368,0-0.612-0.244-0.612-0.612V11.02c0-0.49-0.306-1.224-1.224-1.224c-0.918,0-1.224,0.734-1.224,1.224v1.837
			c0,0.368-0.244,0.612-0.612,0.612c-0.368,0-0.612-0.244-0.612-0.612v-1.224c0-0.55-0.184-1.224-1.224-1.224
			c-0.612,0-1.224,0.122-1.224,1.837v1.225c0,0.368-0.244,0.612-0.612,0.612c-0.368,0-0.612-0.244-0.612-0.612
			c0-1.593-0.612-1.837-1.224-1.837c-0.612,0-1.224,0.244-1.224,1.837v11.02c0,2.387,1.899,4.286,4.286,4.286h5.568
			c1.653,0,3.131-0.923,3.865-2.392l1.703-3.425c0.184-0.368,0.555-1.339,0.555-2.258c0-2.449-1.889-3.004-1.952-3.004
			c-0.244-0.062-0.497-0.306-0.497-0.612V6.849l1.224,0.497v9.375c1.04,0.428,2.449,1.65,2.449,4.037
			c0,1.214-0.451,2.287-0.616,2.679c-0.026,0.063-0.045,0.108-0.054,0.133l-1.779,3.367C15.057,28.838,13.158,30,11.078,30H5.51
			C2.449,30,0,27.551,0,24.49v-11.02c0-2.693,1.531-3.061,2.449-3.061c0.428,0,0.926,0.053,1.416,0.421
			c0.428-1.346,1.401-1.645,2.258-1.645c0.674,0,1.22,0.191,1.588,0.497c0.428-0.674,1.105-1.11,2.085-1.11
			c0.49,0,0.856,0.122,1.224,0.306V7.347z"/>
	</g>
</g>
</svg>
