<svg width="52" height="51" viewBox="0 0 52 51" fill="none" xmlns="http://www.w3.org/2000/svg">
<path fill-rule="evenodd" clip-rule="evenodd" d="M21.7564 0.386453C21.9728 0.136208 22.2863 -0.00429445 22.6175 0.000100083C22.7677 0.000100083 22.9178 0.0308618 23.0547 0.0922632C39.0088 6.93272 38.5319 17.5974 34.6725 21.0659C33.1756 22.4094 31.5859 22.7783 30.3142 22.5235C29.7313 22.405 29.3074 22.1855 28.9321 21.9485C28.57 23.9374 27.965 26.0887 27.0598 28.4947C26.9273 28.8855 26.5917 29.1709 26.1854 29.2456C25.7748 29.3158 25.3597 29.1621 25.1036 28.8417C24.8431 28.5211 24.7812 28.082 24.9402 27.7044C25.6909 25.7243 26.2208 23.9725 26.5785 22.3568L26.5482 22.3692C26.4841 22.3956 26.422 22.4211 26.3532 22.4402C25.1963 22.7695 23.8363 22.9494 22.4321 22.8353C21.0323 22.7256 19.5795 22.3084 18.3607 21.3777C17.142 20.4513 16.2058 18.9936 15.8437 17.0661C15.0621 12.8468 16.8461 9.6417 18.5638 7.16551C18.819 6.79539 19.073 6.43809 19.3184 6.093L19.3192 6.0919L19.3199 6.09092C19.8976 5.27818 20.4274 4.53306 20.8115 3.84617C21.3634 2.87144 21.6019 2.07237 21.4915 1.28208C21.4429 0.961648 21.5401 0.632302 21.7564 0.386453ZM33.1534 19.3974C35.1405 17.615 37.0172 9.32115 23.5977 2.89781C23.4254 3.6179 23.1473 4.30283 22.7852 4.94383C22.3032 5.80125 21.7143 6.62241 21.1198 7.45139L21.1183 7.45347L21.1175 7.45469C20.8847 7.77915 20.6511 8.10484 20.4227 8.4343C18.7933 10.7876 17.4244 13.2112 18.0691 16.6534C18.3385 18.1242 18.9523 18.9979 19.7339 19.5951C20.5199 20.1921 21.5355 20.5083 22.6129 20.596C23.6948 20.6839 24.8252 20.5346 25.7349 20.28C26.3045 20.1175 26.7196 19.9068 27.0243 19.7268C27.4924 15.5206 26.596 12.2409 24.9577 8.2982C24.8032 7.95127 24.8385 7.55613 25.046 7.24009C25.2536 6.92393 25.6068 6.73081 25.9822 6.72642C26.4502 6.72642 26.8697 7.0073 27.042 7.4376C28.7023 11.4199 29.6473 15.0903 29.2631 19.5467C29.7532 19.8937 30.2566 20.2185 30.76 20.3196C31.3782 20.4425 32.0406 20.3985 33.1534 19.3974ZM3.3913 10.1159C2.45074 10.1159 1.63824 10.5506 1.0377 11.1477C0.437164 11.7449 0 12.5527 0 13.4879V28.1787C0 30.2773 0.238449 31.6032 0.733017 32.6307C1.13451 33.4574 1.65321 33.9997 2.16491 34.5348L2.16563 34.5355C2.28964 34.665 2.41324 34.7943 2.53465 34.927C3.37769 35.9273 7.09568 40.3553 9.41779 43.1209L9.5913 43.3276L11.3043 45.3677V49.4553C11.2999 49.8592 11.5119 50.2368 11.8652 50.4431C12.2184 50.6451 12.6512 50.6451 13.0044 50.4431C13.3577 50.2368 13.5696 49.8592 13.5652 49.4553V44.9593C13.5652 44.6959 13.4725 44.4413 13.3003 44.2394C13.3003 44.2394 5.46671 34.905 4.23472 33.4474C4.2303 33.4408 4.22478 33.4353 4.21926 33.4298C4.21375 33.4243 4.20822 33.4188 4.2038 33.4122C4.0557 33.2501 3.91919 33.1048 3.79327 32.9709C3.32228 32.4697 2.99957 32.1262 2.77309 31.6516C2.48166 31.0544 2.26087 30.1062 2.26087 28.1787V13.4879C2.26087 13.2991 2.38892 12.983 2.63621 12.7372C2.88349 12.4912 3.20142 12.3639 3.3913 12.3639C3.58118 12.3639 3.89912 12.4912 4.1464 12.7372C4.39368 12.983 4.52174 13.2991 4.52174 13.4879V26.9757C4.52174 27.2743 4.64097 27.5595 4.85292 27.7704L5.96128 28.8724C6.02751 29.7241 6.46909 30.5013 7.11379 31.1423C7.17192 31.2001 7.33141 31.3573 7.5677 31.5901L7.59915 31.6211C8.82218 32.8259 11.9638 35.9209 13.8876 37.8774C14.1702 38.1716 14.5853 38.2945 14.9827 38.1935C15.3801 38.0969 15.6936 37.7939 15.7996 37.4032C15.9056 37.008 15.7952 36.5909 15.5037 36.3055C13.5155 34.2842 10.229 31.0471 9.0968 29.932L9.09217 29.9275C8.88673 29.7252 8.75312 29.5936 8.7123 29.553C8.27955 29.1227 8.19566 28.8504 8.19566 28.6616C8.19566 28.4729 8.27955 28.2007 8.7123 27.7704C9.14504 27.3401 9.41882 27.2567 9.6087 27.2567C9.79858 27.2567 10.0723 27.3401 10.5051 27.7704L11.3472 28.6064C13.0861 30.3324 16.833 34.0516 17.2789 34.5055L17.2965 34.523C19.5618 36.727 20.3478 38.7511 20.3478 42.7114V49.4553C20.3434 49.8592 20.5554 50.2368 20.9086 50.4431C21.2619 50.6451 21.6946 50.6451 22.0479 50.4431C22.4012 50.2368 22.6131 49.8592 22.6087 49.4553V42.7114C22.6087 38.4087 21.4959 35.4626 18.8774 32.9161C18.3274 32.3587 14.6618 28.7203 12.9475 27.0188L12.9082 26.9797L12.1036 26.181C11.4059 25.4873 10.5493 25.0086 9.6087 25.0086C8.66814 25.0086 7.81148 25.4873 7.11379 26.181C7.0034 26.2907 6.90625 26.4137 6.8091 26.5366L6.78261 26.5102V13.4879C6.78261 12.5527 6.34545 11.7449 5.7449 11.1477C5.14436 10.5506 4.33186 10.1159 3.3913 10.1159ZM46.2553 11.1477C46.8558 10.5506 47.6683 10.1159 48.6089 10.1159C49.5494 10.1159 50.3619 10.5506 50.9625 11.1477C51.563 11.7449 52.0002 12.5527 52.0002 13.4879V28.1787C52.0002 30.2773 51.7617 31.6032 51.2628 32.6307C50.8664 33.454 50.351 33.9953 49.8437 34.5282C49.718 34.6603 49.5928 34.7918 49.47 34.927C48.5208 36.0492 43.9567 41.4846 41.804 44.0482L40.6959 45.3677V49.4553C40.7003 49.8592 40.4883 50.2368 40.135 50.4431C39.7818 50.6451 39.349 50.6451 38.9958 50.4431C38.6425 50.2368 38.4306 49.8592 38.435 49.4553V44.9593C38.435 44.6959 38.5277 44.4413 38.6999 44.2394C38.6999 44.2394 46.5335 34.905 47.7655 33.4474C47.7699 33.4408 47.7754 33.4353 47.7809 33.4298C47.7865 33.4243 47.792 33.4188 47.7964 33.4122C47.9445 33.2501 48.081 33.1048 48.2069 32.9709C48.6779 32.4697 49.0006 32.1263 49.2271 31.6516C49.5185 31.0544 49.7393 30.1062 49.7393 28.1787V13.4879C49.7393 13.2991 49.6113 12.983 49.364 12.7372C49.1167 12.4912 48.7988 12.3639 48.6089 12.3639C48.419 12.3639 48.1011 12.4912 47.8538 12.7372C47.6065 12.983 47.4785 13.2991 47.4785 13.4879V26.9757C47.4785 27.2743 47.3592 27.5595 47.1473 27.7704L46.0389 28.8724C45.9727 29.7241 45.5311 30.5013 44.8864 31.1423C44.8258 31.2026 44.6548 31.3711 44.4014 31.6207C43.1786 32.8253 40.0366 35.9208 38.1126 37.8774C37.83 38.1716 37.4149 38.2945 37.0175 38.1935C36.6201 38.0969 36.3066 37.7939 36.2006 37.4032C36.0946 37.008 36.205 36.5909 36.4965 36.3055C38.4874 34.2814 41.7802 31.0383 42.9081 29.9275C43.1135 29.7251 43.2471 29.5936 43.2879 29.553C43.7206 29.1227 43.8045 28.8504 43.8045 28.6616C43.8045 28.4729 43.7206 28.2007 43.2879 27.7704C42.8552 27.3401 42.5814 27.2567 42.3915 27.2567C42.2016 27.2567 41.9278 27.3401 41.4951 27.7704L40.653 28.6064C38.9141 30.3324 35.1672 34.0516 34.7213 34.5055L34.7037 34.523C32.4384 36.727 31.6524 38.7511 31.6524 42.7114V49.4553C31.6568 49.8592 31.4448 50.2368 31.0916 50.4431C30.7383 50.6451 30.3056 50.6451 29.9523 50.4431C29.599 50.2368 29.3871 49.8592 29.3915 49.4553V42.7114C29.3915 38.4087 30.5043 35.4626 33.1228 32.9161C33.677 32.3545 37.3951 28.664 39.092 26.9797L39.8966 26.181C40.5943 25.4873 41.4509 25.0086 42.3915 25.0086C43.3321 25.0086 44.1887 25.4873 44.8864 26.181C44.9797 26.2738 45.0635 26.3758 45.1485 26.4795L45.1955 26.5366L45.2176 26.5102V13.4879C45.2176 12.5527 45.6547 11.7449 46.2553 11.1477Z" transform="translate(0 0.405396)" fill="black"/>
</svg>
