<svg width="50" height="50" viewBox="0 0 50 50" fill="none" xmlns="http://www.w3.org/2000/svg">
<path fill-rule="evenodd" clip-rule="evenodd" d="M0 19.2032C0 8.58667 8.83905 0 19.7675 0C30.6959 0 39.5349 8.58667 39.5349 19.2032C39.5349 23.5848 37.9996 27.5869 35.4651 30.8169L49.564 44.478L44.6221 49.2788L30.3416 35.4059C27.2802 37.2944 23.6691 38.4064 19.7675 38.4064C8.83905 38.4064 0 29.8197 0 19.2032ZM34.8837 19.2032C34.8837 11.071 28.1386 4.51843 19.7674 4.51843C11.3962 4.51843 4.65112 11.071 4.65112 19.2032C4.65112 27.3354 11.3962 33.8881 19.7674 33.8881C28.1386 33.8881 34.8837 27.3354 34.8837 19.2032Z" fill="black"/>
</svg>
