<svg width="30" height="30" viewBox="0 0 30 30" version="1.1" xmlns="http://www.w3.org/2000/svg" xmlns:xlink="http://www.w3.org/1999/xlink">
<path transform="translate(0, 7)" fill-rule="evenodd" clip-rule="evenodd" d="M 1.7063 0C 0.771118 0 0 0.771088 0 1.70624L 0 17.4C 0 18.3961 0.803955 19.2 1.80005 19.2L 4.25623 19.2C 4.54224 20.9016 6.02112 22.2 7.80005 22.2C 9.57886 22.2 11.0579 20.9016 11.3438 19.2L 16.8938 19.2C 17.3367 19.2 17.7328 19.0125 18.0375 18.7313C 18.3492 19.0055 18.7477 19.1953 19.2 19.2L 19.8562 19.2C 20.1422 20.9016 21.6211 22.2 23.4 22.2C 25.3805 22.2 27 20.5805 27 18.6L 27 19.2L 28.2 19.2C 29.196 19.2 30 18.3961 30 17.4L 30 11.625C 30 10.2516 29.0437 9.03751 29.0437 9.03751L 29.025 9.03751L 26.55 5.73749L 26.55 5.71875L 26.5312 5.70001C 25.9781 5.03204 25.1484 4.20001 24 4.20001L 19.2 4.20001C 18.9867 4.20001 18.7898 4.24454 18.6 4.3125L 18.6 1.74374C 18.6 0.822662 17.8734 0 16.9125 0L 1.7063 0ZM 27 18.6C 27 16.6195 25.3805 15 23.4 15C 21.6211 15 20.1422 16.2984 19.8562 18L 19.2 18C 19.0875 18 18.9164 17.9227 18.7875 17.7938C 18.6586 17.6649 18.6 17.5102 18.6 17.4L 18.6 6C 18.6 5.77499 18.975 5.39999 19.2 5.39999L 24 5.39999C 24.4711 5.39999 25.1344 5.9039 25.5938 6.45001C 25.5961 6.45355 25.5996 6.45651 25.6031 6.45944C 25.6067 6.46237 25.6102 6.46527 25.6125 6.46875L 25.7063 6.60001L 22.8 6.60001C 21.8438 6.60001 21 7.37344 21 8.39999L 21 10.8C 21 11.2992 21.225 11.7375 21.5437 12.0562C 21.8625 12.375 22.3008 12.6 22.8 12.6L 28.8 12.6L 28.8 17.4C 28.8 17.625 28.425 18 28.2 18L 27 18L 27 18.6ZM 1.70618 1.20001L 16.9125 1.20001C 17.1703 1.20001 17.3999 1.44846 17.3999 1.74377L 17.3999 17.4938C 17.3999 17.775 17.1772 18 16.8937 18L 11.3438 18C 11.0577 16.2985 9.57886 15 7.79993 15C 6.021 15 4.54211 16.2985 4.25623 18L 1.79993 18C 1.57495 18 1.19995 17.6227 1.19995 17.4L 1.19995 1.70627C 1.19995 1.42502 1.42029 1.20001 1.70618 1.20001ZM 26.6062 7.79999L 22.7999 7.79999C 22.5562 7.79999 22.2 8.09766 22.2 8.39999L 22.2 10.8C 22.2 10.9008 22.2749 11.0625 22.4062 11.1937C 22.5375 11.325 22.6992 11.4 22.7999 11.4L 28.725 11.4C 28.6124 10.6805 28.0687 9.75 28.0687 9.75L 26.6062 7.79999ZM 7.80005 16.2C 9.13367 16.2 10.2001 17.2664 10.2001 18.6C 10.2001 19.9336 9.13367 21 7.80005 21C 6.46643 21 5.40002 19.9336 5.40002 18.6C 5.40002 17.2664 6.46643 16.2 7.80005 16.2ZM 25.8 18.6C 25.8 17.2664 24.7336 16.2 23.4 16.2C 22.0664 16.2 21 17.2664 21 18.6C 21 19.9336 22.0664 21 23.4 21C 24.7336 21 25.8 19.9336 25.8 18.6Z" fill="black"/>
</svg>

