<svg width="22" height="19" viewBox="0 0 22 19" fill="none" xmlns="http://www.w3.org/2000/svg">
<path d="M22 2.13356C21.1903 2.49562 20.3215 2.74116 19.4086 2.85078C20.3407 2.28755 21.0542 1.39418 21.3923 0.332928C20.518 0.85452 19.5529 1.23326 18.5246 1.43858C17.7011 0.552136 16.5299 0 15.2307 0C12.7383 0 10.7174 2.03925 10.7174 4.55293C10.7174 4.90944 10.7573 5.25764 10.8343 5.5906C7.08401 5.40052 3.75852 3.58741 1.53281 0.83232C1.14375 1.50376 0.92242 2.28613 0.92242 3.12128C0.92242 4.70137 1.71978 6.09555 2.92956 6.91122C2.18994 6.88626 1.49431 6.68094 0.885322 6.33967V6.39655C0.885322 8.60226 2.44154 10.4431 4.50501 10.8621C4.12695 10.9648 3.72829 11.0216 3.31586 11.0216C3.02443 11.0216 2.7426 10.9925 2.46627 10.937C3.04089 12.7474 4.70711 14.0638 6.68125 14.0999C5.1374 15.3207 3.19076 16.0462 1.07642 16.0462C0.712125 16.0462 0.353295 16.024 0 15.9838C1.99751 17.2781 4.36895 18.0328 6.91772 18.0328C15.2198 18.0328 19.7578 11.0938 19.7578 5.07594L19.7427 4.48637C20.6294 3.84819 21.3965 3.04638 22 2.13356Z" fill="#008489"/>
</svg>
