<svg width="50" height="49" viewBox="0 0 50 49" fill="none" xmlns="http://www.w3.org/2000/svg">
<path fill-rule="evenodd" clip-rule="evenodd" d="M8.38068 0.318848C8.56268 0.143677 8.80237 0.029663 9.05539 0.00341785C9.40164 -0.0229493 9.74344 0.104126 9.9787 0.354004C9.9787 0.354004 15.7404 6.14673 16.8324 12.6932C17.4627 16.4747 16.424 19.7129 15.1278 22.0529C14.4798 23.2228 13.7873 24.1824 13.1747 24.8922C12.5621 25.6021 12.0739 26.0315 11.7188 26.2944C11.3991 26.588 10.9375 26.6757 10.5336 26.5223C10.1252 26.3645 9.84109 25.9965 9.81003 25.5626C9.77451 25.1333 9.992 24.7257 10.3693 24.5066C10.427 24.4629 10.9109 24.0247 11.4347 23.4199C11.9585 22.8153 12.5799 21.9783 13.1392 20.9661C14.2622 18.9418 15.1278 16.2338 14.5952 13.0437C13.8139 8.36389 10.2628 4.20117 9.12643 2.91296C7.83469 4.24499 2.27274 10.2175 2.27274 17.3204C2.27274 20.9574 3.34695 24.2876 6.14346 26.8203C6.10971 26.6797 6.07361 26.5444 6.03745 26.4092C5.98801 26.2241 5.93848 26.0387 5.8949 25.8387C4.99377 21.7111 4.61649 16.799 7.31534 10.9404C7.48401 10.5242 7.8924 10.2482 8.34518 10.2394C8.74023 10.235 9.10422 10.4365 9.31287 10.7609C9.52591 11.0895 9.54813 11.5013 9.375 11.8519C6.90695 17.2152 7.23987 21.4744 8.09659 25.3831C8.31589 26.3835 8.57733 27.3593 8.83469 28.3197C9.58267 31.1111 10.2957 33.7722 9.83664 36.5304C9.80557 36.951 9.53479 37.3191 9.13974 37.4813C8.74466 37.6434 8.28748 37.5732 7.96341 37.2972C7.63937 37.0212 7.49734 36.5918 7.59943 36.1799C7.8924 34.4183 7.50177 32.4291 6.96024 30.2206C1.96201 27.162 0 22.285 0 17.3204C0 8.00903 8.38068 0.318848 8.38068 0.318848ZM27.0596 19.2836C27.8675 19.1959 28.6576 19.1433 29.4388 19.1433C41.1532 19.1389 49.6803 28.2225 49.6803 28.2225C49.9999 28.5642 50.071 29.0682 49.8579 29.4845C49.8579 29.4845 42.8755 43.1251 28.7286 44.6632C21.431 45.4563 15.2698 42.1392 15.2698 42.1392C14.8614 41.9814 14.5773 41.609 14.5463 41.1752C14.5152 40.7415 14.7372 40.3295 15.1189 40.1147C15.5051 39.9044 15.9756 39.9264 16.3351 40.1761C16.3351 40.1761 22.0081 43.1558 28.48 42.4547C40.0656 41.1971 46.3023 31.1277 47.4076 29.204C45.8629 27.7186 37.7707 20.4053 27.3082 21.527C19.4335 22.3727 16.3707 26.2726 15.0212 30.0804C14.2133 32.3589 14.1024 34.4797 14.1335 35.8994C16.2197 34.0854 18.7943 32.302 21.9104 30.8516C25.6835 29.0945 29.8472 28.5117 33.061 28.3627C36.2748 28.2137 38.5653 28.5029 38.5653 28.5029C39.0047 28.5029 39.4042 28.7527 39.5907 29.1471C39.7815 29.5414 39.7194 30.0059 39.4397 30.3389C39.1601 30.6763 38.7073 30.8209 38.2812 30.7114C38.2812 30.7114 29.5853 29.7561 22.8692 32.8848C13.0237 37.4681 8.98431 45.6797 8.98431 45.6797C8.84225 46.0917 8.46939 46.3809 8.03436 46.4291C7.59491 46.4772 7.16879 46.2712 6.93796 45.8988C6.71158 45.5308 6.72046 45.0619 6.96014 44.6982C6.96014 44.6982 8.51822 41.5302 12.0028 37.9326V37.8976C12.0028 37.8976 11.3325 33.7479 12.8906 29.3442C14.4486 24.9404 18.4614 20.2037 27.0596 19.2836Z" transform="translate(0 1.11841)" fill="black"/>
</svg>
