<svg width="22" height="23" viewBox="0 0 22 23" fill="none" xmlns="http://www.w3.org/2000/svg">
<rect width="22" height="23" fill="black" fill-opacity="0"/>
<path d="M10.211 16.544C10.913 15.647 11.927 14.399 12.486 13.593C13.006 12.839 13.383 12.306 13.383 11.435C13.383 9.992 12.317 8.77 10.393 8.77C8.807 8.77 7.754 10.083 7.754 10.083C7.663 10.187 7.689 10.356 7.767 10.434L8.417 11.071C8.521 11.188 8.664 11.188 8.781 11.071C9.08 10.746 9.639 10.291 10.276 10.291C11.238 10.291 11.693 10.902 11.693 11.5C11.693 11.955 11.433 12.475 11.017 12.982C10.159 14.113 8.56 16.193 7.65 17.311C7.611 17.363 7.546 17.467 7.546 17.61V17.74C7.546 17.883 7.65 18 7.793 18H13.071C13.214 18 13.331 17.883 13.331 17.74V16.817C13.331 16.687 13.214 16.57 13.071 16.57H10.211V16.544Z" fill="#008489"/>
<path fill-rule="evenodd" clip-rule="evenodd" d="M17.7693 1.69238H19.4614C20.8999 1.69238 22 2.79248 22 4.23096V19.4617C22 20.9001 20.8999 22 19.4614 22H2.53857C1.1001 22 0 20.9001 0 19.4617V4.23096C0 2.79248 1.1001 1.69238 2.53857 1.69238H4.23071V3.38477C4.23071 4.31543 4.99219 5.0769 5.9231 5.0769C6.85376 5.0769 7.61548 4.31543 7.61548 3.38477V1.69238H14.3845V3.38477C14.3845 4.31543 15.1462 5.0769 16.0769 5.0769C17.0078 5.0769 17.7693 4.31543 17.7693 3.38477V1.69238ZM19.4617 20.3079C19.9692 20.3079 20.3079 19.9692 20.3079 19.4617V7.61548H1.69238V19.4617C1.69238 19.9692 2.03076 20.3079 2.53857 20.3079H19.4617Z" fill="#008489"/>
<path d="M5.92306 4.23077C5.41537 4.23077 5.0769 3.89231 5.0769 3.38462V0.846154C5.0769 0.338462 5.41537 0 5.92306 0C6.43075 0 6.76921 0.338462 6.76921 0.846154V3.38462C6.76921 3.89231 6.43075 4.23077 5.92306 4.23077Z" fill="#008489"/>
<path d="M16.0769 4.23077C15.5692 4.23077 15.2307 3.89231 15.2307 3.38462V0.846154C15.2307 0.338462 15.5692 0 16.0769 0C16.5846 0 16.923 0.338462 16.923 0.846154V3.38462C16.923 3.89231 16.5846 4.23077 16.0769 4.23077Z" fill="#008489"/>
</svg>
