<?xml version="1.0" encoding="utf-8"?>
<!-- Generator: Adobe Illustrator 18.0.0, SVG Export Plug-In . SVG Version: 6.00 Build 0)  -->
<!DOCTYPE svg PUBLIC "-//W3C//DTD SVG 1.1//EN" "http://www.w3.org/Graphics/SVG/1.1/DTD/svg11.dtd">
<svg version="1.1" id="Layer_1" xmlns="http://www.w3.org/2000/svg" xmlns:xlink="http://www.w3.org/1999/xlink" x="0px" y="0px"
	 width="477px" height="251.805px" viewBox="0 0 477 251.805" enable-background="new 0 0 477 251.805" xml:space="preserve">
<g id="Shape_13">
	<path fill="#FFFFFF" d="M31.324,250.574l0.231-27.756l-4.166,0.23l17.593-14.108l28.24,0.23v-13.877h6.944v-6.94l6.945-6.938H163.5
		v-69.39h6.944v-6.94h20.834V84.268h13.888V70.39h6.945V49.573h6.944L226,42.634h6.944l6.945,6.939h6.944V70.39h6.945v13.878h13.888
		v83.269h27.778l13.89,6.939V35.695h6.944V21.817h41.666v13.878h6.945v76.33h48.61v62.45h6.945v13.879h6.945v62.45h20.833V105.086
		h6.944V70.39h6.945V42.634H476v207.94"/>
</g>
<g id="Shape_14">
	<path fill="#ECEBEB" d="M60.72,250.805h40.417V222.98H60.72V250.805z"/>
</g>
<g id="Shape_15">
	<path fill="#ECEBEB" d="M351,35.695h6.944V21.817H351V35.695z M198.222,112.024h-6.944v-6.939h6.944V112.024z M198.222,250.805
		h6.945v-138.78h-6.945V250.805z M101,250.805h83.333v-55.512H101V250.805z M295.444,250.805v-69.39h27.778v69.39H295.444z
		 M410.028,209.17h-31.25v41.635h31.666L410.028,209.17z M364.889,195.292l-6.945,6.94V35.696h6.945V195.292z M385.722,174.476
		h6.945v13.878H413.5v62.451h13.889v-62.451h-6.945v-13.878H413.5v-62.452h-27.778V174.476z M45.444,243.866H38.5v-13.878h6.944
		V243.866z M170.444,139.78h6.945v-13.877h-6.945V139.78z M191.278,139.78h-6.945v-13.877h6.945V139.78z M260.723,209.17v-13.877
		h-13.89v13.877H260.723z M274.611,209.17h-6.944v-13.877h6.944V209.17z M281.556,209.17h6.944v-13.877h-6.944V209.17z
		 M212.111,112.024h-6.944V91.207h6.944V112.024z M219.056,112.024H226V91.207h-6.944V112.024z M239.889,112.024h-6.945V91.207
		h6.945V112.024z M246.833,112.024h6.945v62.452l13.889-6.939V84.268h-13.889V70.39h-6.945V49.573h-6.944V70.39h6.944v13.878h6.945
		v6.939h-6.945V112.024z M323.222,56.512h-6.944v-6.939h6.944V56.512z M344.056,56.512H351v-6.939h-6.944V56.512z M323.222,91.207
		h-6.944V63.451h6.944V91.207z M344.056,91.207H351V63.451h-6.944V91.207z M337.111,56.512h-6.944v-6.939h6.944V56.512z
		 M330.167,91.207h6.944V63.451h-6.944V91.207z M371.833,223.049h-6.944v-6.94h6.944V223.049z M462.111,91.207h6.945v-6.939h-6.945
		V91.207z M469.056,125.903h-6.945v-6.94h6.945V125.903z M462.111,146.72h6.945v-13.878h-6.945V146.72z"/>
</g>
<g id="Shape_16">
	<path fill="none" stroke="#4A4A4A" stroke-width="2" stroke-linecap="round" stroke-linejoin="round" d="M-4.555,250.805
		 M-24,250.805 M476,250.805H1.718H476z M31.556,223.049v27.756H101V223.05L31.556,223.049z M103.778,223.049l-16.667-13.878H45.444
		l-16.666,13.878h2.778H103.778z M51.515,215.237l-5.99-5.985L51.515,215.237z"/>
</g>
<g id="Shape_17">
	<path fill="none" stroke="#4A4A4A" stroke-width="2" stroke-linecap="round" stroke-linejoin="round" d="M73.22,209.17v-13.877
		h6.945v-6.94l6.944-6.938h83.333l6.945,6.939v6.939h6.944v55.512h-83.333l0.139-27.825l2.639,0.069l-16.667-13.878L73.22,209.17z
		 M87.109,181.415l6.945,6.939L87.109,181.415z M177.387,195.64h-48.611H177.387z M170.443,229.988h13.888H170.443z
		 M100.998,229.988h55.556H100.998z"/>
</g>
<g id="Shape_18">
	<path fill="none" stroke="#4A4A4A" stroke-width="2" stroke-linecap="round" stroke-linejoin="round" d="M163.5,181.415v-69.39
		h6.944v-6.94h27.778v6.94h6.945v138.78L163.5,181.415z M198.222,112.371h-6.944H198.222z M184.333,105.085V84.268V105.085z
		 M323.222,250.805v-69.39l-27.778-13.878h-27.777l-27.778,13.878v69.39H323.222z M267.667,181.415h-27.778H267.667z
		 M267.667,158.678v3.932V158.678z"/>
</g>
<g id="Shape_19">
	<path fill="none" stroke="#4A4A4A" stroke-width="2" stroke-linecap="round" stroke-linejoin="round" d="M191.28,105.085V84.268
		h13.889V70.39h6.944V49.573h6.945l6.944-6.939h6.944l6.945,6.94h6.944V70.39h6.945v13.878h13.889v69.414L191.28,105.085z
		 M229.405,42.634V28.756V42.634z M219.058,70.39v13.878V70.39z M205.169,84.615h13.889H205.169z M399.613,209.17h13.889
		l-13.889-13.877h-34.722l-13.889,13.877h27.778H399.613z M354.474,209.17v41.635V209.17z M410.03,209.17v41.635V209.17z
		 M378.78,229.988v20.817V229.988z M309.335,174.476V35.696h6.945v-13.88h41.666v13.878h6.945v159.598L309.335,174.476z
		 M337.113,21.817V1V21.817z M357.946,202.232v-27.756V202.232z"/>
</g>
<g id="Shape_20">
	<path fill="none" stroke="#4A4A4A" stroke-width="2" stroke-linecap="round" stroke-linejoin="round" d="M427.389,250.805v-62.451
		h-6.945v-13.878H413.5v-62.452h-42.57L427.389,250.805z M420.444,250.805v-13.878V250.805z M364.889,139.78h13.889H364.889z
		 M448.222,250.805v-145.72h6.945V70.39h6.944V42.634H476L448.222,250.805z M455.167,105.432h6.944H455.167z M31.556,223.049h14.757
		H31.556z M101.139,222.98H60.722H101.139z"/>
</g>
<g id="Shape_21">
	<path fill="#F6F7F7" d="M232.948,236.927c-7.638,0-13.888-6.245-13.888-13.878v-6.94c0-7.632,6.25-13.877,13.888-13.877
		c7.64,0,13.89,6.245,13.89,13.878v6.939C246.838,230.682,240.588,236.927,232.948,236.927z"/>
</g>
<g id="Shape_22">
	<path fill="none" stroke="#4A4A4A" stroke-width="2" stroke-linecap="round" stroke-linejoin="round" d="M247.948,236.927
		c-7.638,0-13.888-6.245-13.888-13.878v-6.94c0-7.632,6.25-13.877,13.888-13.877c7.64,0,13.89,6.245,13.89,13.878v6.939
		C261.838,230.682,255.588,236.927,247.948,236.927z M247.948,223.049v27.756V223.049z"/>
</g>
<g id="Shape_23">
	<path fill="#F6F7F7" d="M455.17,229.988c-7.64,0-13.89-6.245-13.89-13.878v-13.878c0-7.633,6.25-13.878,13.89-13.878
		c7.639,0,13.889,6.245,13.889,13.878v13.878c0,7.633-6.25,13.878-13.89,13.878"/>
</g>
<g id="Shape_24">
	<path fill="none" stroke="#4A4A4A" stroke-width="2" stroke-linecap="round" stroke-linejoin="round" d="M455.17,229.988
		c-7.64,0-13.89-6.245-13.89-13.878v-13.878c0-7.633,6.25-13.878,13.89-13.878c7.639,0,13.889,6.245,13.889,13.878v13.878
		c0,7.633-6.25,13.878-13.89,13.878H455.17z M455.17,209.17v41.635V209.17z"/>
</g>
</svg>
