<svg width="17" height="17" viewBox="0 0 17 17" version="1.1" xmlns="http://www.w3.org/2000/svg" xmlns:xlink="http://www.w3.org/1999/xlink">
<g id="Canvas" fill="none">
<g id="Shape">
<path fill-rule="evenodd" clip-rule="evenodd" d="M 0 6.62463C 0 2.96222 3.03174 0 6.78003 0C 10.5284 0 13.5601 2.96222 13.5601 6.62463C 13.5601 8.1362 13.0336 9.51685 12.1642 10.6311L 17 15.3438L 15.305 17L 10.4069 12.2142C 9.35687 12.8657 8.11829 13.2493 6.78003 13.2493C 3.03174 13.2493 0 10.2871 0 6.62463ZM 11.9648 6.62463C 11.9648 3.81921 9.65131 1.55875 6.78009 1.55875C 3.90887 1.55875 1.59534 3.81921 1.59534 6.62463C 1.59534 9.43008 3.90887 11.6906 6.78009 11.6906C 9.65131 11.6906 11.9648 9.43008 11.9648 6.62463Z" fill="#4A4A4A"/>
</g>
</g>
</svg>

