<?xml version="1.0" encoding="UTF-8"?><!DOCTYPE svg PUBLIC "-//W3C//DTD SVG 1.1//EN" "http://www.w3.org/Graphics/SVG/1.1/DTD/svg11.dtd"><svg xmlns="http://www.w3.org/2000/svg"><symbol id="icon-arrow-right" viewBox="0 0 12 20">
    <path d="M3.716 3.79L9.729 10l-6.014 6.208a.774.774 0 0 0 0 1.07.719.719 0 0 0 1.038 0l6.532-6.743a.773.773 0 0 0 0-1.07L4.753 2.721a.72.72 0 0 0-1.039 0 .774.774 0 0 0 .002 1.07z"/>
</symbol><symbol id="icon-close" viewBox="0 0 12 12">
    <g stroke-width="2" stroke-linecap="round" stroke-linejoin="round">
        <path d="M1 1l10 10"/>
        <path d="M11 1L1 11"/>
    </g>
</symbol><symbol id="icon-gluten-free" viewBox="0 0 50 48">
    <path fill-rule="evenodd" clip-rule="evenodd" d="M1.923 0a.985.985 0 0 0-.69.266.96.96 0 0 0 0 1.36L18.81 18.88l10.968 10.785 17.608 17.345a.98.98 0 0 0 .691.266.98.98 0 0 0 .691-.266.96.96 0 0 0 0-1.359L31.43 28.602c.369-.317.665-.65.842-.974 0 0-1.844-2.342-4.117-3.221a3.838 3.838 0 0 0-1.232-.236L24.31 21.6a4.603 4.603 0 0 0-.21-1.064c-.827-2.597-3.245-4.048-3.245-4.048a3.687 3.687 0 0 0-.962.768L2.614.266A.985.985 0 0 0 1.924 0zm45.193 1.891s-4.489.019-6.55 1.92c.228.562.424 1.157.48 1.803.06.362.128 1.193-.03 2.364l.235-.025h.003c.287-.032.577-.064.874-.064.544 0 .957.037 1.142.06.653.048 1.262.225 1.832.443 1.999-1.995 2.014-6.5 2.014-6.5zM33.353 6.885c.714-2.131 2.825-3.963 4.327-4.226 0 0 1.345 1.585 1.443 3.191 0 0 .21.939-.12 2.542l-.03.147-3.156 3.133a6.599 6.599 0 0 0-.24-1.182c-.492-1.548-1.386-2.752-2.224-3.605zm-2.884.118c-1.078.565-2.265 2.283-2.674 4.107.972.842 2.264 2.246 2.884 4.196.12.377.192.787.24 1.182l2.945-2.896a5.055 5.055 0 0 0-.12-2.541c-.826-2.597-3.275-4.048-3.275-4.048zm9.766 3.014a8.192 8.192 0 0 1 1.983-.237c.53.004.871.06.871.06 1.634.096 3.245 1.418 3.245 1.418-.259 1.455-2.077 3.524-4.206 4.255-.504-.491-1.1-1.001-1.743-1.36-1.206-.672-1.78-.904-2.103-1.004a6.653 6.653 0 0 0-.992-.266l2.945-2.866zM25.57 11.819c-1.029.54-2.126 2.142-2.584 3.871.98.835 2.333 2.268 2.975 4.285.112.351.155.706.2 1.073l.01.08 2.795-2.72a4.94 4.94 0 0 0-.12-2.511c-.827-2.597-3.276-4.078-3.276-4.078zm9.796 2.955c.161-.03.315-.048.48-.059.493-.037 1.01-.011 1.473.118 2.836.684 4.597 3.31 4.597 3.31-.586 1.082-2.4 2.282-4.297 2.659l-.12-.118-.129-.13-.002-.001c-.092-.094-.191-.193-.29-.283a.577.577 0 0 0-.077-.062.698.698 0 0 1-.073-.056 20.413 20.413 0 0 1-.14-.128c-.145-.133-.296-.273-.46-.404a.378.378 0 0 0-.076-.044h-.001c-.026-.014-.052-.026-.074-.044a12.096 12.096 0 0 0-.681-.511l-.001-.001c-.024-.018-.048-.038-.07-.05-.25-.166-.51-.325-.78-.473-.028-.015-.056-.028-.083-.04l-.004-.003-.004-.001a1.34 1.34 0 0 1-.09-.044 9.38 9.38 0 0 0-.871-.414 4.798 4.798 0 0 0-.871-.236 1.217 1.217 0 0 0-.187-.019h-.006a1.673 1.673 0 0 1-.138-.011l2.975-2.955zm-4.297 4.758c-.162.014-.324.05-.485.086l-.025.005-.024.005-.097.022-2.795 2.718c.417.056.823.148 1.202.296 1.78.687 3.275 1.998 4.147 2.895 1.795-.432 3.467-1.54 4.026-2.57 0 0-1.874-2.342-4.146-3.221a3.94 3.94 0 0 0-1.803-.236zm-17.849 5.88c.425-1.8 1.582-3.49 2.645-4.049 0 0 2.449 1.482 3.275 4.078.27.846.259 1.703.09 2.512l-2.885 2.866a6.596 6.596 0 0 0-.24-1.182c-.627-1.969-1.908-3.387-2.885-4.226zm6.55-2.896a8.58 8.58 0 0 1 1.203 2.364c.12.376.191.76.24 1.152l1.052-1.064-2.494-2.452zM8.234 32.09c-.289-2.364 1.323-5.183 2.765-5.94 0 0 2.449 1.452 3.275 4.048.267.846.29 1.733.12 2.541l-3.305 3.25h1.352v1.33l3.426-3.368c.837-.173 1.712-.144 2.464.148 2.272.879 4.116 3.19 4.116 3.19-.77 1.42-3.636 3.033-6.04 2.749-2.403-.307-3.635-1.633-3.966-2.689L3.215 46.42a.979.979 0 0 1-.69.266.979.979 0 0 1-.692-.266.96.96 0 0 1 0-1.359l9.225-9.071c-1.063-.296-2.43-1.489-2.825-3.9zm15.415-5.763l-.992.946c.42.055.853.118 1.232.266.928.358 1.74.894 2.464 1.448l-2.704-2.66zm-2.769 2.835c.162-.036.324-.072.486-.086a3.99 3.99 0 0 1 1.802.236c2.273.879 4.147 3.22 4.147 3.22-.578 1.068-2.37 2.235-4.237 2.63-.879-.893-2.325-2.168-4.056-2.836a5.15 5.15 0 0 0-1.202-.296l2.915-2.836.145-.032z"/>
</symbol><symbol id="icon-gmo" viewBox="0 0 50 49">
    <path fill-rule="evenodd" clip-rule="evenodd" d="M.96 1.607c.103-.343.394-.6.873-.694a.972.972 0 0 1 .781.294l6.34 6.215 10.787 10.574c-1.704-3.658-2.425-8.461 1.984-12.636 2.307-2.262 5.102-3.84 5.679-4.123.48-.283 1.16-.206 1.352.265.192.471.09 1.043-.39 1.325l-.044.026c-.576.338-3.093 1.815-5.245 3.833-2.789 2.639-4.892 7.275.781 14.343.205 0 .383.026.548.049h.002c.144.02.278.04.412.04.288.047.572.068.856.088.284.02.568.041.856.088-2.77-3.585-4.157-6.53-4.236-8.953a.926.926 0 0 1 0-.265c.01-1.667.645-3.065 1.923-4.242 1.154-1.13 5.402-4.618 5.98-4.712.48-.094 1.045.265 1.141.736.096.472-.102.843-.39 1.031-.112.073-.867.624-1.593 1.178l14.423 7.746c.133-.472.256-.97.36-1.472.097-.566.662-.83 1.142-.737a.952.952 0 0 1 .782 1.12c-.673 2.827-2.032 6.792-5.109 9.336-2.656 2.232-9.34 1.71-16.075.972l1.863 1.826c6.618.723 12.63 1.11 15.474-1.679 2.885-2.827 4.418-5.843 4.898-9.424 0-.566.481-.943.962-.943.577 0 .967.56.871 1.03-.577 4.054-2.326 7.37-5.499 10.575-2.5 2.544-6.724 3.021-11.628 2.739a16.368 16.368 0 0 1 1.352 4.005l15.595 15.286a.945.945 0 0 1 .253.926.968.968 0 0 1-.691.677.991.991 0 0 1-.944-.248L21.815 22.708l-2.104-2.061L1.231 2.562a.93.93 0 0 1-.27-.955zM43.15 15.64L27.734 7.363a41.66 41.66 0 0 0-1.312 1.128l-.004.003-.007.007-.18.158 15.415 9.838a14.365 14.365 0 0 0 1.503-2.857zm-18.3-5.626l15.596 9.955-.05.05c-.22.22-.435.438-.671.628-.373.3-.944.509-1.593.677l-13.912-9.572a3.308 3.308 0 0 1 .63-1.738zm10.487 11.693L24.67 14.373c.621 1.754 1.977 4.083 4.568 7.216 2.046.14 4.213.219 6.1.118zM14.994 20.41c-3.964-.005-7.338.612-9.525 2.592C.885 27.22.954 34.277.96 35.003v.046c0 .471.481.943.962.943a.954.954 0 0 0 .962-.943V35c-.008-.714-.074-6.923 3.936-10.67 2.308-2.169 6.833-2.357 11.929-1.886l-2.013-2.003a44.982 44.982 0 0 0-1.743-.03zm-7.001 5.125c1.322-1.237 3.804-1.67 6.82-1.68 1.81-.004 3.805.142 5.86.354l2.103 2.18c-2.947-.31-6.115-.592-8.714-.53l13.131 8.158c.014-1.392-.244-2.759-.66-4.035l2.493 2.445c.193 1.979.108 3.946-.66 5.831-1.25 3.016-3.937 5.178-7.783 6.215h-.3c-.482 0-.866-.27-.962-.648-.096-.471.21-1.025.69-1.12a14.404 14.404 0 0 0 1.714-.618L6.49 34.136l-.032.432a27.09 27.09 0 0 0-.028.393c0 .471-.48.942-.961.942s-.962-.471-.962-.942v-.006c-.001-.226-.031-6.158 3.486-9.42zm3.005.648l15.685 9.778a.977.977 0 0 0 .27.118 9.192 9.192 0 0 1-.42 1.443 4.265 4.265 0 0 1-.199.397v.001a8.339 8.339 0 0 0-.102.191L8.684 27.686l.067-.086c.177-.226.352-.45.564-.65.378-.352.972-.589 1.683-.766zm18.63.765c-.257 0-.526-.012-.782-.029l1.382 1.355-.077-.184v-.002h-.001c-.162-.387-.324-.771-.523-1.14zM7.691 29.306L25.18 39.673A8.189 8.189 0 0 1 23.708 41L6.76 32.133c.181-.884.485-1.878.931-2.827zM30.47 40.144a15.692 15.692 0 0 0 1.171-5.183l1.833 1.796c-.192 1.508-.589 2.922-1.262 4.242-1.923 3.77-5.396 6.314-9.915 7.068h-.18c-.482 0-.866-.294-.962-.765a.975.975 0 0 1 .78-1.12c5-.848 7.38-3.776 8.535-6.038z"/>
</symbol><symbol id="icon-hamburger" viewBox="0 0 18 17">
    <path d="M1.5 1.5h15" stroke-width="2" stroke-linecap="square"/>
    <path d="M1.5 8.5h15" stroke-width="2" stroke-linecap="square"/>
    <path d="M1.5 15.5h15" stroke-width="2" stroke-linecap="square"/>
</symbol><symbol id="icon-lock" viewBox="0 0 24 30">
    <path fill-rule="evenodd" clip-rule="evenodd" d="M12 .131c-4.3 0-7.8 3.5-7.8 7.8V11.4H1.8c-.987 0-1.8.813-1.8 1.8v14.4c0 .987.813 1.8 1.8 1.8h20.4c.987 0 1.8-.813 1.8-1.8V13.2c0-.987-.813-1.8-1.8-1.8h-2.4V7.931c0-4.3-3.5-7.8-7.8-7.8zm0 1.2c3.654 0 6.6 2.946 6.6 6.6v3.47H5.4V7.93c0-3.654 2.946-6.6 6.6-6.6zm10.8 11.87c0-.338-.263-.6-.6-.6H1.8c-.338 0-.6.262-.6.6v14.4c0 .336.262.6.6.6h20.4c.337 0 .6-.264.6-.6V13.2zm-18 6a1.2 1.2 0 1 0-.001 2.398A1.2 1.2 0 0 0 4.8 19.2zm3.6 1.2a1.2 1.2 0 1 1 2.398-.002A1.2 1.2 0 0 1 8.4 20.4zm6-1.2a1.2 1.2 0 1 0-.001 2.397 1.2 1.2 0 0 0 0-2.398zm3.6 1.2a1.2 1.2 0 1 1 2.398-.003A1.2 1.2 0 0 1 18 20.4z"/>
</symbol><symbol id="icon-mastercard" viewBox="0 0 27.319 16.172">
    <path fill="currentColor" d="M27.319 8.086A8.086 8.086 0 0 0 19.233 0a8.006 8.006 0 0 0-5.094 1.815 8.72 8.72 0 0 1 2.308 3.761h-.672a8.073 8.073 0 0 0-2.122-3.343 8.087 8.087 0 0 0-2.108 3.339h-.672a8.728 8.728 0 0 1 2.284-3.752C11.768.696 10.013 0 8.086 0a8.086 8.086 0 0 0 0 16.172c1.927 0 3.682-.696 5.071-1.821a8.717 8.717 0 0 1-2.284-3.752h.672a8.087 8.087 0 0 0 2.108 3.339 8.056 8.056 0 0 0 2.122-3.343h.672a8.708 8.708 0 0 1-2.308 3.761 8.006 8.006 0 0 0 5.094 1.815 8.085 8.085 0 0 0 8.086-8.085z"/>
    <path d="M25.524 7.334c-.041-.03-.077-.068-.115-.108-.109-.115-.235-.246-.521-.246h-.074c-.448-.004-1.095-.011-1.47 1.273-.265.906.271 1.731.855 1.731.271-.01.542-.125.709-.24l.105.24h.876l.709-3.796h-.855l-.219 1.146zm-7.562-.272c.271 0 .417.021.626.146l.532-.532c-.208-.23-.449-.455-1.116-.48-.563-.021-1.528.39-1.836 1.512-.417 1.523.5 2.274 1.345 2.274.448 0 .72-.062.991-.188l-.24-.73c-.834.281-1.429-.146-1.293-1.012.114-.73.719-.99.991-.99zm-7.406-.834h.814l-.167.793h.438l-.146.647h-.417l-.229 1.21c-.042.23-.021.438.449.365l-.052.605c-.177.115-.417.146-.605.146s-.803-.115-.646-.928l.561-2.838zM21.375 9.98l.558-2.992h.706l.074.295c.126-.148.369-.295.779-.295l-.221.779h-.031c-.207-.003-.56-.007-.79.843l-.253 1.37h-.822zm-8.409-3.001c1.429 0 1.21 1.189 1.116 1.669h-1.773c-.091.659.398.658.723.657h.028c.323 0 .793-.042.918-.073l-.125.615c-.198.104-.699.146-1.043.136-1.408 0-1.387-1.324-1.356-1.512l.003-.02c.039-.247.234-1.472 1.509-1.472zm-3.182.709l.188-.605c-.337-.128-.61-.12-.751-.116l-.052.001h-.006c-.137 0-1.088-.001-1.236.709-.114.554.088.783.282.867.205.089.351.173.475.244l.003.002c.064.037.123.07.179.099.206.103.168.448-.104.448l-.096.004h-.003c-.209.011-.638.034-.975-.078l-.115.616c.375.104.678.104.96.104h.031c.252.003 1.143.012 1.272-.845.066-.437-.125-.636-.282-.73a4.715 4.715 0 0 0-.584-.324c-.166-.072-.291-.354.011-.437.188-.021.574-.021.803.041zM5.185 6.374l-.678 3.609h-.845l.48-2.545-1.138 2.545h-.771l-.219-2.608-.501 2.608H.699l.699-3.609h1.303l.157 2.19.991-2.19h1.336zm.219.699l-.126.647.197-.024c.247-.032.602-.078.815-.07l.081.002c.257.005.504.01.419.415-.026.003-.073.001-.136-.001-.426-.013-1.561-.047-1.761 1.044-.094.616.438.928.855.908.417-.021.532-.074.678-.178l.104.167h.761l.323-1.627c.083-.407.219-1.387-1.147-1.387l-.13.004c-.222.006-.491.013-.933.1zm13.642.647l.125-.647c.442-.087.711-.094.933-.1l.131-.004c1.366 0 1.231.981 1.148 1.387l-.324 1.627h-.761l-.104-.167c-.146.104-.26.157-.678.178-.417.021-.949-.292-.855-.908.2-1.091 1.335-1.056 1.761-1.043.063.002.11.003.137.001.085-.406-.163-.41-.419-.415l-.081-.002c-.213-.008-.569.038-.815.07l-.198.023z"/>
    <path fill="currentColor" d="M13.372 8.106H12.36c.094-.376.323-.542.647-.542.324-.001.418.25.365.542zm-6.768.533l.051.009-.062.323c-.053.272-.438.445-.699.345-.271-.105-.198-.418.062-.595.232-.158.498-.11.648-.082zm18.628-.085c.083-.271.038-.61-.052-.73-.25-.334-.826-.07-1.001.584-.115.427.136.751.417.751.302 0 .49-.24.636-.605zm-4.859.085l.051.009-.063.323c-.052.272-.438.445-.698.345-.271-.105-.198-.417.063-.595.231-.158.495-.11.647-.082z"/>
    <path d="M14.105 9.983l.553-2.962h.699l.073.292c.125-.146.365-.292.772-.292l-.209.782c-.198 0-.584-.062-.824.824l-.25 1.356h-.814z"/>
</symbol><symbol id="icon-paper-plane" viewBox="0 0 30 31">
    <path fill-rule="evenodd" clip-rule="evenodd" d="M28.768.588a.583.583 0 0 0-.22.074L.312 15.956a.586.586 0 0 0-.305.563c.02.232.177.43.397.503l8.015 2.629-.772 7.94a.585.585 0 0 0 .35.61.578.578 0 0 0 .68-.168l5.055-5.717 7.628 7.519a.581.581 0 0 0 .975-.276l7.058-28.235a.582.582 0 0 0-.625-.736zm-.845 1.728l-6.49 25.956-6.966-6.875L24.596 7.408a.585.585 0 1 0-.846-.809L8.952 18.585 2.06 16.342 27.923 2.316zM13.327 21.011l7.72-10.717L9.615 19.54l-.625 6.36 4.21-4.724c.011-.018.022-.036.036-.055l.037-.036a.558.558 0 0 1 .055-.074z"/>
</symbol><symbol id="icon-quality" viewBox="0 0 50 46">
    <path d="M10.98 45.348c-.196 0-.392-.096-.588-.191-.294-.19-.49-.667-.392-1.048l4.314-15.624L1.373 18.291c-.393-.19-.49-.666-.393-1.047.098-.382.49-.667.883-.667l16.666-.858L24.51.572c.197-.286.589-.572.981-.572s.785.286.883.572l5.98 15.147 16.667.858c.392 0 .784.285.882.666.098.382 0 .763-.294 1.049L36.667 28.484 40.98 44.11c.098.381 0 .762-.392 1.048-.294.19-.784.286-1.078 0l-14.02-8.765-14.02 8.765c-.195.19-.294.19-.49.19z"/>
</symbol><symbol id="icon-reminder" viewBox="0 0 19 30">
    <path d="M13.469 0c-.574 0-1.172.198-1.645.612-.474.414-.804 1.062-.804 1.837v.249c-.294-.134-.574-.249-.918-.249a2.151 2.151 0 0 0-2.143 2.143c0 1.177.966 2.143 2.143 2.143.351 0 .671-.102 1.041-.22l.03-.01c.383-.122.789-.263 1.167-.421.421-.175.745-.332.981-.446l.148-.071.105.05.013.006.031.015a14.434 14.434 0 0 0 2.147.866l.03.01c.37.118.69.22 1.041.22a2.151 2.151 0 0 0 2.143-2.143 2.151 2.151 0 0 0-2.143-2.143c-.344 0-.624.115-.918.249v-.305a2.36 2.36 0 0 0-.823-1.798A2.494 2.494 0 0 0 13.469 0zm0 1.224c.282 0 .612.11.842.306.23.196.383.452.383.861v.957a16.06 16.06 0 0 0-.191.115c-.402.25-.729.477-.981.652l-.052.036-.052-.036a22.24 22.24 0 0 0-.981-.652 16.06 16.06 0 0 0-.191-.115v-.899c0-.45.153-.72.383-.918.228-.199.558-.307.84-.307zm-3.355 2.453l-.012-.004c-.536 0-.918.383-.918.918 0 .536.383.918.918.918.069 0 .378-.045.708-.153.246-.08.511-.192.778-.306l.013-.006.261-.11a5.27 5.27 0 0 0 .206-.09l.002-.001.002-.001c.034-.016.072-.034.135-.061-.079-.052-.125-.086-.169-.118l-.002-.001a3.074 3.074 0 0 0-.25-.168 11.844 11.844 0 0 0-1.071-.593c-.282-.134-.542-.207-.601-.224zm6.723-.004c.536 0 .918.383.918.918 0 .536-.383.918-.918.918-.069 0-.378-.045-.708-.153a9.722 9.722 0 0 1-.778-.306l-.013-.006a29.018 29.018 0 0 0-.261-.11 3.61 3.61 0 0 1-.207-.091l-.002-.001c-.034-.016-.072-.034-.135-.061.079-.052.126-.086.169-.118l.002-.001a3.27 3.27 0 0 1 .25-.168 11.72 11.72 0 0 1 1.072-.593c.282-.136.542-.209.6-.226.007 0 .011-.002.011-.002zM11.02 7.347l1.224-.497v6.62c0 .368-.244.612-.612.612s-.612-.244-.612-.612v-2.45c0-.49-.306-1.224-1.224-1.224-.918 0-1.224.734-1.224 1.224v1.837c0 .368-.244.612-.612.612s-.612-.244-.612-.612v-1.224c0-.55-.184-1.224-1.224-1.224-.612 0-1.224.122-1.224 1.837v1.225c0 .368-.244.612-.612.612s-.612-.244-.612-.612c0-1.593-.612-1.837-1.224-1.837s-1.224.244-1.224 1.837v11.02a4.26 4.26 0 0 0 4.286 4.286h5.568a4.3 4.3 0 0 0 3.865-2.392l1.703-3.425c.184-.368.555-1.339.555-2.258 0-2.449-1.889-3.004-1.952-3.004-.244-.062-.497-.306-.497-.612V6.849l1.224.497v9.375c1.04.428 2.449 1.65 2.449 4.037 0 1.214-.451 2.287-.616 2.679-.026.063-.045.108-.054.133l-1.779 3.367A5.422 5.422 0 0 1 11.078 30H5.51A5.487 5.487 0 0 1 0 24.49V13.47c0-2.693 1.531-3.061 2.449-3.061.428 0 .926.053 1.416.421.428-1.346 1.401-1.645 2.258-1.645.674 0 1.22.191 1.588.497.428-.674 1.105-1.11 2.085-1.11.49 0 .856.122 1.224.306V7.347z"/>
</symbol><symbol id="icon-sustainability" viewBox="0 0 52 51">
    <path fill-rule="evenodd" clip-rule="evenodd" d="M21.756.792c.217-.25.53-.39.861-.387.15 0 .3.031.438.093 15.954 6.84 15.477 17.505 11.617 20.973-1.496 1.344-3.086 1.713-4.358 1.458a3.964 3.964 0 0 1-1.382-.575c-.362 1.989-.967 4.14-1.872 6.546a1.137 1.137 0 0 1-1.956.347c-.26-.32-.323-.76-.164-1.137.75-1.98 1.28-3.732 1.638-5.348l-.03.013a1.697 1.697 0 0 1-.195.07c-1.157.33-2.517.51-3.92.396-1.4-.11-2.854-.527-4.072-1.458-1.219-.926-2.155-2.384-2.517-4.312-.782-4.219 1.002-7.424 2.72-9.9.255-.37.509-.728.754-1.073h.001v-.002c.579-.812 1.108-1.558 1.492-2.244.552-.975.79-1.774.68-2.565-.048-.32.05-.65.265-.895zm11.397 19.01c1.988-1.782 3.864-10.075-9.555-16.499a7.896 7.896 0 0 1-.813 2.046c-.482.858-1.07 1.679-1.665 2.508l-.002.002v.001c-.233.325-.467.65-.695.98-1.63 2.353-2.999 4.777-2.354 8.219.27 1.47.883 2.344 1.665 2.941.786.597 1.801.914 2.879 1.001a9.223 9.223 0 0 0 3.122-.316 5.38 5.38 0 0 0 1.29-.553c.467-4.206-.429-7.486-2.067-11.428a1.102 1.102 0 0 1 .088-1.059c.208-.316.56-.509.936-.513.468 0 .888.28 1.06.711 1.66 3.982 2.605 7.653 2.221 12.11.49.346.994.67 1.497.772.618.123 1.28.079 2.393-.922zm-29.762-9.28c-.94 0-1.753.434-2.353 1.031C.438 12.15 0 12.958 0 13.893v14.691c0 2.099.238 3.425.733 4.452.402.827.92 1.37 1.432 1.904.125.13.248.26.37.392.843 1 4.56 5.429 6.883 8.194l.173.207 1.713 2.04v4.088a1.13 1.13 0 0 0 1.7.987 1.13 1.13 0 0 0 .561-.987v-4.496c0-.264-.092-.518-.265-.72 0 0-7.833-9.335-9.065-10.792a.118.118 0 0 0-.016-.018l-.015-.017a40.72 40.72 0 0 0-.41-.442c-.472-.5-.794-.844-1.02-1.319-.292-.597-.513-1.545-.513-3.473v-14.69c0-.19.128-.506.375-.751.247-.246.565-.374.755-.374.19 0 .508.128.755.374.248.245.376.561.376.75v13.488c0 .299.119.584.33.795l1.11 1.102c.066.851.507 1.629 1.152 2.27l.454.447.031.031c1.223 1.205 4.365 4.3 6.289 6.257a1.13 1.13 0 0 0 1.095.316 1.118 1.118 0 0 0 .52-1.888c-1.988-2.021-5.274-5.259-6.406-6.374l-.005-.004-.38-.375c-.432-.43-.516-.702-.516-.891 0-.189.084-.46.516-.891.433-.43.707-.514.897-.514.19 0 .463.083.896.514l.842.836c1.74 1.726 5.486 5.445 5.932 5.899l.018.017c2.265 2.204 3.05 4.228 3.05 8.189v6.744a1.13 1.13 0 1 0 2.262 0v-6.744c0-4.303-1.113-7.249-3.732-9.796-.55-.557-4.215-4.195-5.93-5.897l-.039-.039-.804-.799c-.698-.693-1.555-1.172-2.495-1.172-.94 0-1.798.479-2.495 1.172-.11.11-.208.233-.305.356l-.026-.026V13.893c0-.935-.438-1.743-1.038-2.34-.6-.597-1.413-1.032-2.354-1.032zm42.864 1.031c.6-.597 1.413-1.032 2.354-1.032.94 0 1.753.435 2.353 1.032.601.597 1.038 1.405 1.038 2.34v14.691c0 2.099-.238 3.425-.737 4.452-.397.823-.912 1.365-1.42 1.898-.125.132-.25.263-.373.398-.95 1.123-5.513 6.558-7.666 9.122l-1.108 1.32v4.087a1.13 1.13 0 0 1-1.7.987 1.13 1.13 0 0 1-.561-.987v-4.496c0-.264.093-.518.265-.72 0 0 7.833-9.335 9.066-10.792a.118.118 0 0 1 .015-.018 40.936 40.936 0 0 1 .426-.459c.47-.5.794-.844 1.02-1.319.292-.597.512-1.545.512-3.473v-14.69c0-.19-.128-.506-.375-.751-.247-.246-.565-.374-.755-.374-.19 0-.508.128-.755.374-.248.245-.376.561-.376.75v13.488c0 .299-.119.584-.33.795l-1.11 1.102c-.065.851-.507 1.629-1.152 2.27l-.485.478c-1.222 1.205-4.364 4.3-6.288 6.257a1.13 1.13 0 0 1-1.096.316 1.118 1.118 0 0 1-.52-1.888c1.99-2.024 5.283-5.267 6.411-6.378.206-.203.34-.334.38-.375.433-.43.517-.702.517-.891 0-.189-.084-.46-.517-.891-.433-.43-.707-.514-.896-.514-.19 0-.464.083-.897.514l-.842.836a2322.091 2322.091 0 0 0-5.932 5.899l-.017.017c-2.266 2.204-3.052 4.228-3.052 8.189v6.744a1.13 1.13 0 1 1-2.26 0v-6.744c0-4.303 1.112-7.249 3.73-9.796.555-.561 4.273-4.252 5.97-5.936l.805-.799c.697-.693 1.554-1.172 2.495-1.172.94 0 1.797.479 2.494 1.172.094.093.177.195.262.299l.047.057.023-.026V13.893c0-.935.437-1.743 1.037-2.34z"/>
</symbol><symbol id="icon-transparency" viewBox="0 0 50 50">
    <path fill-rule="evenodd" clip-rule="evenodd" d="M0 19.203C0 8.587 8.84 0 19.767 0c10.929 0 19.768 8.587 19.768 19.203 0 4.382-1.535 8.384-4.07 11.614l14.099 13.661-4.942 4.8-14.28-13.872a20.058 20.058 0 0 1-10.575 3C8.84 38.406 0 29.82 0 19.203zm34.884 0c0-8.132-6.745-14.685-15.117-14.685-8.37 0-15.116 6.553-15.116 14.685 0 8.132 6.745 14.685 15.116 14.685 8.372 0 15.117-6.553 15.117-14.685z"/>
</symbol><symbol id="icon-truck" viewBox="0 0 30 30">
    <path fill-rule="evenodd" clip-rule="evenodd" d="M1.706 7C.771 7 0 7.771 0 8.706V24.4c0 .996.804 1.8 1.8 1.8h2.456a3.6 3.6 0 0 0 3.544 3 3.6 3.6 0 0 0 3.544-3h5.55c.443 0 .839-.188 1.144-.469.311.274.71.464 1.162.469h.656a3.6 3.6 0 0 0 3.544 3c1.98 0 3.6-1.62 3.6-3.6v.6h1.2c.996 0 1.8-.804 1.8-1.8v-5.775c0-1.373-.956-2.587-.956-2.587h-.019l-2.475-3.3v-.02l-.019-.018c-.553-.668-1.383-1.5-2.531-1.5h-4.8c-.213 0-.41.045-.6.112V8.744C18.6 7.823 17.873 7 16.912 7H1.707zM27 25.6c0-1.98-1.62-3.6-3.6-3.6a3.6 3.6 0 0 0-3.544 3H19.2c-.113 0-.284-.077-.412-.206a.597.597 0 0 1-.188-.394V13c0-.225.375-.6.6-.6H24c.471 0 1.134.504 1.594 1.05a.046.046 0 0 0 .01.01.045.045 0 0 1 .009.009l.093.131H22.8c-.956 0-1.8.773-1.8 1.8v2.4c0 .5.225.938.544 1.256.319.319.757.544 1.256.544h6v4.8c0 .225-.375.6-.6.6H27v.6zM1.706 8.2h15.207c.257 0 .487.248.487.544v15.75a.503.503 0 0 1-.506.506h-5.55A3.6 3.6 0 0 0 7.8 22a3.6 3.6 0 0 0-3.544 3H1.8c-.225 0-.6-.377-.6-.6V8.706c0-.281.22-.506.506-.506zm24.9 6.6H22.8c-.244 0-.6.298-.6.6v2.4c0 .1.075.263.206.394.132.131.293.206.394.206h5.925c-.113-.72-.656-1.65-.656-1.65l-1.463-1.95zM7.8 23.2a2.39 2.39 0 0 1 2.4 2.4A2.39 2.39 0 0 1 7.8 28a2.39 2.39 0 0 1-2.4-2.4 2.39 2.39 0 0 1 2.4-2.4zm18 2.4a2.39 2.39 0 0 0-2.4-2.4 2.39 2.39 0 0 0-2.4 2.4 2.39 2.39 0 0 0 2.4 2.4 2.39 2.39 0 0 0 2.4-2.4z"/>
</symbol><symbol id="icon-vegan" viewBox="0 0 50 49">
    <path fill-rule="evenodd" clip-rule="evenodd" d="M8.38 1.437c.183-.175.422-.289.675-.315.347-.027.688.1.924.35 0 0 5.761 5.793 6.853 12.34.63 3.781-.408 7.02-1.704 9.36a17.009 17.009 0 0 1-1.953 2.839c-.613.71-1.101 1.139-1.456 1.402-.32.293-.781.381-1.185.228a1.118 1.118 0 0 1-.165-2.016c.058-.044.542-.482 1.066-1.087a14.553 14.553 0 0 0 1.704-2.453c1.123-2.025 1.989-4.733 1.456-7.923-.781-4.68-4.332-8.842-5.469-10.13-1.291 1.331-6.853 7.304-6.853 14.407 0 3.637 1.074 6.967 3.87 9.5-.033-.14-.07-.276-.106-.411-.049-.185-.099-.37-.142-.57-.901-4.128-1.279-9.04 1.42-14.9a1.135 1.135 0 0 1 1.03-.7c.395-.005.76.197.968.521.213.329.235.74.062 1.091-2.468 5.364-2.135 9.623-1.278 13.532.219 1 .48 1.976.738 2.936.748 2.792 1.46 5.453 1.002 8.21-.031.421-.302.79-.697.952a1.148 1.148 0 0 1-1.177-.184 1.113 1.113 0 0 1-.364-1.118c.293-1.761-.097-3.75-.639-5.959C1.962 28.28 0 23.403 0 18.439 0 9.127 8.38 1.437 8.38 1.437zm18.68 18.965c.808-.088 1.598-.14 2.379-.14 11.714-.005 20.241 9.079 20.241 9.079.32.342.391.846.178 1.262 0 0-6.982 13.64-21.13 15.179-7.297.793-13.458-2.524-13.458-2.524a1.123 1.123 0 0 1-.724-.964c-.03-.434.191-.846.573-1.06a1.16 1.16 0 0 1 1.216.06s5.673 2.98 12.145 2.28c11.586-1.258 17.822-11.328 18.928-13.252-1.545-1.485-9.637-8.798-20.1-7.677-7.875.846-10.937 4.746-12.287 8.554-.808 2.278-.919 4.4-.888 5.819a33.166 33.166 0 0 1 7.777-5.048c3.773-1.757 7.937-2.34 11.151-2.489 3.214-.149 5.504.14 5.504.14.44 0 .84.25 1.026.645.19.394.128.858-.151 1.191-.28.338-.733.482-1.159.373 0 0-8.696-.955-15.412 2.173-9.845 4.584-13.885 12.795-13.885 12.795a1.132 1.132 0 0 1-.95.75 1.141 1.141 0 0 1-1.096-.53 1.119 1.119 0 0 1 .022-1.201s1.558-3.168 5.043-6.766v-.035s-.67-4.15.888-8.553c1.558-4.404 5.57-9.14 14.169-10.061z"/>
</symbol></svg>