<?xml version="1.0" encoding="UTF-8"?><!DOCTYPE svg PUBLIC "-//W3C//DTD SVG 1.1//EN" "http://www.w3.org/Graphics/SVG/1.1/DTD/svg11.dtd"><svg xmlns="http://www.w3.org/2000/svg"><symbol id="icon-loop" viewBox="0 0 17 17">
    <path fill-rule="evenodd" clip-rule="evenodd" d="M0 6.625C0 2.962 3.032 0 6.78 0s6.78 2.962 6.78 6.625a6.481 6.481 0 0 1-1.396 4.006L17 15.344 15.305 17l-4.898-4.786A6.85 6.85 0 0 1 6.78 13.25C3.032 13.25 0 10.287 0 6.625zm11.965 0c0-2.806-2.314-5.066-5.185-5.066-2.871 0-5.185 2.26-5.185 5.066 0 2.805 2.314 5.066 5.185 5.066 2.871 0 5.185-2.26 5.185-5.066z"/>
</symbol></svg>