<?xml version="1.0" encoding="UTF-8"?><!DOCTYPE svg PUBLIC "-//W3C//DTD SVG 1.1//EN" "http://www.w3.org/Graphics/SVG/1.1/DTD/svg11.dtd"><svg xmlns="http://www.w3.org/2000/svg"><defs>
        <linearGradient id="a" x1="1" y1="1" x2="1" y2="2" gradientUnits="userSpaceOnUse">
            <stop stop-color="#fff" stop-opacity=".5"/>
            <stop offset="1" stop-opacity=".5"/>
        </linearGradient>
    </defs><symbol id="icon-account" viewBox="0 0 30 30">
    <path fill-rule="evenodd" clip-rule="evenodd" d="M15 0c8.27 0 15 6.73 15 15 0 4.604-2.09 8.726-5.365 11.48a.238.238 0 0 1-.025.023A14.927 14.927 0 0 1 15 30a14.927 14.927 0 0 1-9.61-3.497.233.233 0 0 1-.025-.023C2.089 23.726 0 19.604 0 15 0 6.73 6.73 0 15 0zm0 1.915C7.784 1.915 1.915 7.785 1.915 15c0 3.377 1.32 6.43 3.427 8.753.663-3.892 2.798-6.632 5.982-7.793-1.442-1.11-2.388-2.834-2.388-4.79A6.07 6.07 0 0 1 15 5.106a6.07 6.07 0 0 1 6.064 6.064c0 1.956-.946 3.68-2.388 4.79 3.184 1.161 5.319 3.9 5.982 7.793 2.107-2.324 3.427-5.376 3.427-8.753 0-7.216-5.87-13.085-13.085-13.085zm-4.149 9.255A4.154 4.154 0 0 1 15 7.021a4.154 4.154 0 0 1 4.149 4.15A4.154 4.154 0 0 1 15 15.318a4.154 4.154 0 0 1-4.149-4.149zM15 17.234c-4.701 0-7.547 2.963-7.915 8.115C9.29 27.04 12.013 28.085 15 28.085s5.71-1.045 7.915-2.736c-.368-5.152-3.214-8.115-7.915-8.115z"/>
</symbol><symbol id="icon-arrow-left" viewBox="0 0 18 13">
    <path d="M1.5 6.5h15" stroke-width="1.5" stroke-linecap="round"/>
    <path d="M1.5 6.5l4.95 4.95" stroke-width="1.5" stroke-linecap="round"/>
    <path d="M1.5 6.5l4.95-4.95" stroke-width="1.5" stroke-linecap="round"/>
</symbol><symbol id="icon-arrow-right" viewBox="0 0 12 20">
    <path d="M3.716 3.79L9.729 10l-6.014 6.208a.774.774 0 0 0 0 1.07.719.719 0 0 0 1.038 0l6.532-6.743a.773.773 0 0 0 0-1.07L4.753 2.721a.72.72 0 0 0-1.039 0 .774.774 0 0 0 .002 1.07z"/>
</symbol><symbol id="icon-close" viewBox="0 0 14 14">
    <path d="M.636 12.38L12.95.063l.985.986L1.62 13.364l-.985-.985z"/>
    <path d="M1.62.064L13.937 12.38l-.985.985L.636 1.05 1.62.064z"/>
</symbol><symbol id="icon-hamburger" viewBox="0 0 18 12">
    <path d="M1 10.5h16" stroke-width="2" stroke-linecap="round"/>
    <path d="M1 6h16" stroke-width="2" stroke-linecap="round"/>
    <path fill-rule="evenodd" clip-rule="evenodd" d="M1 1.5h16z"/>
    <path d="M1 1.5h16" stroke-width="2" stroke-linecap="round"/>
    
</symbol><symbol id="icon-help" viewBox="0 0 20 20">
    <path fill-rule="evenodd" clip-rule="evenodd" d="M0 10C0 4.486 4.486 0 10 0s10 4.486 10 10-4.486 10-10 10S0 15.514 0 10zm18.333 0A8.32 8.32 0 0 0 10 1.667 8.32 8.32 0 0 0 1.667 10 8.32 8.32 0 0 0 10 18.333 8.32 8.32 0 0 0 18.333 10zM10 5a3.344 3.344 0 0 0-3.333 3.333h1.666c0-.93.736-1.666 1.667-1.666s1.667.735 1.667 1.666c0 .638-.41 1.205-1.016 1.407l-.338.104a1.684 1.684 0 0 0-1.146 1.588V12.5h1.666v-1.068l.339-.104a3.172 3.172 0 0 0 2.161-2.995C13.333 6.501 11.833 5 10 5zm-.833 10v-1.667h1.666V15H9.167z" fill="currentColor"/>
</symbol><symbol id="icon-input-arrow" viewBox="0 0.2 19 10.5">
    <path d="M0 5h19v1H0z"/>
    <path d="M13.9.2L18.7 5l-.9.9L13 1.1l.9-.9z"/>
    <path d="M13 9.9l4.8-4.8.9.9-4.8 4.8-.9-.9z"/>
</symbol><symbol id="icon-instagram" viewBox="0 0 22 22">
    <path fill-rule="evenodd" clip-rule="evenodd" d="M6.038 0h9.803a6.044 6.044 0 0 1 6.038 6.038v9.803a6.045 6.045 0 0 1-6.038 6.038H6.038A6.044 6.044 0 0 1 0 15.84V6.038A6.045 6.045 0 0 1 6.038 0zm9.803 19.937a4.101 4.101 0 0 0 4.097-4.096V6.038A4.101 4.101 0 0 0 15.84 1.94H6.038A4.101 4.101 0 0 0 1.94 6.038v9.803a4.1 4.1 0 0 0 4.097 4.096h9.803z"/>
    <path fill-rule="evenodd" clip-rule="evenodd" d="M5.302 10.94a5.644 5.644 0 0 1 5.637-5.638 5.644 5.644 0 0 1 5.638 5.637 5.644 5.644 0 0 1-5.638 5.638 5.644 5.644 0 0 1-5.637-5.638zm1.94 0a3.7 3.7 0 0 0 3.697 3.695 3.7 3.7 0 0 0 3.697-3.696 3.7 3.7 0 0 0-3.697-3.696 3.7 3.7 0 0 0-3.696 3.696z"/>
    <path d="M16.813 3.656A1.429 1.429 0 0 0 15.39 5.08c0 .374.152.741.418 1.007.264.264.631.416 1.005.416.376 0 .742-.152 1.007-.416.265-.266.417-.633.417-1.007a1.43 1.43 0 0 0-.417-1.007 1.43 1.43 0 0 0-1.007-.417z"/>
</symbol><symbol id="icon-lock" viewBox="0 0 24 30">
    <path fill-rule="evenodd" clip-rule="evenodd" d="M12 .131c-4.3 0-7.8 3.5-7.8 7.8V11.4H1.8c-.987 0-1.8.813-1.8 1.8v14.4c0 .987.813 1.8 1.8 1.8h20.4c.987 0 1.8-.813 1.8-1.8V13.2c0-.987-.813-1.8-1.8-1.8h-2.4V7.931c0-4.3-3.5-7.8-7.8-7.8zm0 1.2c3.654 0 6.6 2.946 6.6 6.6v3.47H5.4V7.93c0-3.654 2.946-6.6 6.6-6.6zm10.8 11.87c0-.338-.263-.6-.6-.6H1.8c-.338 0-.6.262-.6.6v14.4c0 .336.262.6.6.6h20.4c.337 0 .6-.264.6-.6V13.2zm-18 6a1.2 1.2 0 1 0-.001 2.398A1.2 1.2 0 0 0 4.8 19.2zm3.6 1.2a1.2 1.2 0 1 1 2.398-.002A1.2 1.2 0 0 1 8.4 20.4zm6-1.2a1.2 1.2 0 1 0-.001 2.397 1.2 1.2 0 0 0 0-2.398zm3.6 1.2a1.2 1.2 0 1 1 2.398-.003A1.2 1.2 0 0 1 18 20.4z"/>
</symbol><symbol id="icon-mastercard" viewBox="0 0 27.319 16.172">
    <path fill="currentColor" d="M27.319 8.086A8.086 8.086 0 0 0 19.233 0a8.006 8.006 0 0 0-5.094 1.815 8.72 8.72 0 0 1 2.308 3.761h-.672a8.073 8.073 0 0 0-2.122-3.343 8.087 8.087 0 0 0-2.108 3.339h-.672a8.728 8.728 0 0 1 2.284-3.752C11.768.696 10.013 0 8.086 0a8.086 8.086 0 0 0 0 16.172c1.927 0 3.682-.696 5.071-1.821a8.717 8.717 0 0 1-2.284-3.752h.672a8.087 8.087 0 0 0 2.108 3.339 8.056 8.056 0 0 0 2.122-3.343h.672a8.708 8.708 0 0 1-2.308 3.761 8.006 8.006 0 0 0 5.094 1.815 8.085 8.085 0 0 0 8.086-8.085z"/>
    <path d="M25.524 7.334c-.041-.03-.077-.068-.115-.108-.109-.115-.235-.246-.521-.246h-.074c-.448-.004-1.095-.011-1.47 1.273-.265.906.271 1.731.855 1.731.271-.01.542-.125.709-.24l.105.24h.876l.709-3.796h-.855l-.219 1.146zm-7.562-.272c.271 0 .417.021.626.146l.532-.532c-.208-.23-.449-.455-1.116-.48-.563-.021-1.528.39-1.836 1.512-.417 1.523.5 2.274 1.345 2.274.448 0 .72-.062.991-.188l-.24-.73c-.834.281-1.429-.146-1.293-1.012.114-.73.719-.99.991-.99zm-7.406-.834h.814l-.167.793h.438l-.146.647h-.417l-.229 1.21c-.042.23-.021.438.449.365l-.052.605c-.177.115-.417.146-.605.146s-.803-.115-.646-.928l.561-2.838zM21.375 9.98l.558-2.992h.706l.074.295c.126-.148.369-.295.779-.295l-.221.779h-.031c-.207-.003-.56-.007-.79.843l-.253 1.37h-.822zm-8.409-3.001c1.429 0 1.21 1.189 1.116 1.669h-1.773c-.091.659.398.658.723.657h.028c.323 0 .793-.042.918-.073l-.125.615c-.198.104-.699.146-1.043.136-1.408 0-1.387-1.324-1.356-1.512l.003-.02c.039-.247.234-1.472 1.509-1.472zm-3.182.709l.188-.605c-.337-.128-.61-.12-.751-.116l-.052.001h-.006c-.137 0-1.088-.001-1.236.709-.114.554.088.783.282.867.205.089.351.173.475.244l.003.002c.064.037.123.07.179.099.206.103.168.448-.104.448l-.096.004h-.003c-.209.011-.638.034-.975-.078l-.115.616c.375.104.678.104.96.104h.031c.252.003 1.143.012 1.272-.845.066-.437-.125-.636-.282-.73a4.715 4.715 0 0 0-.584-.324c-.166-.072-.291-.354.011-.437.188-.021.574-.021.803.041zM5.185 6.374l-.678 3.609h-.845l.48-2.545-1.138 2.545h-.771l-.219-2.608-.501 2.608H.699l.699-3.609h1.303l.157 2.19.991-2.19h1.336zm.219.699l-.126.647.197-.024c.247-.032.602-.078.815-.07l.081.002c.257.005.504.01.419.415-.026.003-.073.001-.136-.001-.426-.013-1.561-.047-1.761 1.044-.094.616.438.928.855.908.417-.021.532-.074.678-.178l.104.167h.761l.323-1.627c.083-.407.219-1.387-1.147-1.387l-.13.004c-.222.006-.491.013-.933.1zm13.642.647l.125-.647c.442-.087.711-.094.933-.1l.131-.004c1.366 0 1.231.981 1.148 1.387l-.324 1.627h-.761l-.104-.167c-.146.104-.26.157-.678.178-.417.021-.949-.292-.855-.908.2-1.091 1.335-1.056 1.761-1.043.063.002.11.003.137.001.085-.406-.163-.41-.419-.415l-.081-.002c-.213-.008-.569.038-.815.07l-.198.023z"/>
    <path fill="currentColor" d="M13.372 8.106H12.36c.094-.376.323-.542.647-.542.324-.001.418.25.365.542zm-6.768.533l.051.009-.062.323c-.053.272-.438.445-.699.345-.271-.105-.198-.418.062-.595.232-.158.498-.11.648-.082zm18.628-.085c.083-.271.038-.61-.052-.73-.25-.334-.826-.07-1.001.584-.115.427.136.751.417.751.302 0 .49-.24.636-.605zm-4.859.085l.051.009-.063.323c-.052.272-.438.445-.698.345-.271-.105-.198-.417.063-.595.231-.158.495-.11.647-.082z"/>
    <path d="M14.105 9.983l.553-2.962h.699l.073.292c.125-.146.365-.292.772-.292l-.209.782c-.198 0-.584-.062-.824.824l-.25 1.356h-.814z"/>
</symbol><symbol id="icon-paper-plane" viewBox="0 0 30 31">
    <path fill-rule="evenodd" clip-rule="evenodd" d="M28.768.588a.583.583 0 0 0-.22.074L.312 15.956a.586.586 0 0 0-.305.563c.02.232.177.43.397.503l8.015 2.629-.772 7.94a.585.585 0 0 0 .35.61.578.578 0 0 0 .68-.168l5.055-5.717 7.628 7.519a.581.581 0 0 0 .975-.276l7.058-28.235a.582.582 0 0 0-.625-.736zm-.845 1.728l-6.49 25.956-6.966-6.875L24.596 7.408a.585.585 0 1 0-.846-.809L8.952 18.585 2.06 16.342 27.923 2.316zM13.327 21.011l7.72-10.717L9.615 19.54l-.625 6.36 4.21-4.724c.011-.018.022-.036.036-.055l.037-.036a.558.558 0 0 1 .055-.074z"/>
</symbol><symbol id="icon-reminder" viewBox="0 0 19 30">
    <path d="M13.469 0c-.574 0-1.172.198-1.645.612-.474.414-.804 1.062-.804 1.837v.249c-.294-.134-.574-.249-.918-.249a2.151 2.151 0 0 0-2.143 2.143c0 1.177.966 2.143 2.143 2.143.351 0 .671-.102 1.041-.22l.03-.01c.383-.122.789-.263 1.167-.421.421-.175.745-.332.981-.446l.148-.071.105.05.013.006.031.015a14.434 14.434 0 0 0 2.147.866l.03.01c.37.118.69.22 1.041.22a2.151 2.151 0 0 0 2.143-2.143 2.151 2.151 0 0 0-2.143-2.143c-.344 0-.624.115-.918.249v-.305a2.36 2.36 0 0 0-.823-1.798A2.494 2.494 0 0 0 13.469 0zm0 1.224c.282 0 .612.11.842.306.23.196.383.452.383.861v.957a16.06 16.06 0 0 0-.191.115c-.402.25-.729.477-.981.652l-.052.036-.052-.036a22.24 22.24 0 0 0-.981-.652 16.06 16.06 0 0 0-.191-.115v-.899c0-.45.153-.72.383-.918.228-.199.558-.307.84-.307zm-3.355 2.453l-.012-.004c-.536 0-.918.383-.918.918 0 .536.383.918.918.918.069 0 .378-.045.708-.153.246-.08.511-.192.778-.306l.013-.006.261-.11a5.27 5.27 0 0 0 .206-.09l.002-.001.002-.001c.034-.016.072-.034.135-.061-.079-.052-.125-.086-.169-.118l-.002-.001a3.074 3.074 0 0 0-.25-.168 11.844 11.844 0 0 0-1.071-.593c-.282-.134-.542-.207-.601-.224zm6.723-.004c.536 0 .918.383.918.918 0 .536-.383.918-.918.918-.069 0-.378-.045-.708-.153a9.722 9.722 0 0 1-.778-.306l-.013-.006a29.018 29.018 0 0 0-.261-.11 3.61 3.61 0 0 1-.207-.091l-.002-.001c-.034-.016-.072-.034-.135-.061.079-.052.126-.086.169-.118l.002-.001a3.27 3.27 0 0 1 .25-.168 11.72 11.72 0 0 1 1.072-.593c.282-.136.542-.209.6-.226.007 0 .011-.002.011-.002zM11.02 7.347l1.224-.497v6.62c0 .368-.244.612-.612.612s-.612-.244-.612-.612v-2.45c0-.49-.306-1.224-1.224-1.224-.918 0-1.224.734-1.224 1.224v1.837c0 .368-.244.612-.612.612s-.612-.244-.612-.612v-1.224c0-.55-.184-1.224-1.224-1.224-.612 0-1.224.122-1.224 1.837v1.225c0 .368-.244.612-.612.612s-.612-.244-.612-.612c0-1.593-.612-1.837-1.224-1.837s-1.224.244-1.224 1.837v11.02a4.26 4.26 0 0 0 4.286 4.286h5.568a4.3 4.3 0 0 0 3.865-2.392l1.703-3.425c.184-.368.555-1.339.555-2.258 0-2.449-1.889-3.004-1.952-3.004-.244-.062-.497-.306-.497-.612V6.849l1.224.497v9.375c1.04.428 2.449 1.65 2.449 4.037 0 1.214-.451 2.287-.616 2.679-.026.063-.045.108-.054.133l-1.779 3.367A5.422 5.422 0 0 1 11.078 30H5.51A5.487 5.487 0 0 1 0 24.49V13.47c0-2.693 1.531-3.061 2.449-3.061.428 0 .926.053 1.416.421.428-1.346 1.401-1.645 2.258-1.645.674 0 1.22.191 1.588.497.428-.674 1.105-1.11 2.085-1.11.49 0 .856.122 1.224.306V7.347z"/>
</symbol><symbol id="icon-truck" viewBox="0 0 30 30">
    <path fill-rule="evenodd" clip-rule="evenodd" d="M1.706 7C.771 7 0 7.771 0 8.706V24.4c0 .996.804 1.8 1.8 1.8h2.456a3.6 3.6 0 0 0 3.544 3 3.6 3.6 0 0 0 3.544-3h5.55c.443 0 .839-.188 1.144-.469.311.274.71.464 1.162.469h.656a3.6 3.6 0 0 0 3.544 3c1.98 0 3.6-1.62 3.6-3.6v.6h1.2c.996 0 1.8-.804 1.8-1.8v-5.775c0-1.373-.956-2.587-.956-2.587h-.019l-2.475-3.3v-.02l-.019-.018c-.553-.668-1.383-1.5-2.531-1.5h-4.8c-.213 0-.41.045-.6.112V8.744C18.6 7.823 17.873 7 16.912 7H1.707zM27 25.6c0-1.98-1.62-3.6-3.6-3.6a3.6 3.6 0 0 0-3.544 3H19.2c-.113 0-.284-.077-.412-.206a.597.597 0 0 1-.188-.394V13c0-.225.375-.6.6-.6H24c.471 0 1.134.504 1.594 1.05a.046.046 0 0 0 .01.01.045.045 0 0 1 .009.009l.093.131H22.8c-.956 0-1.8.773-1.8 1.8v2.4c0 .5.225.938.544 1.256.319.319.757.544 1.256.544h6v4.8c0 .225-.375.6-.6.6H27v.6zM1.706 8.2h15.207c.257 0 .487.248.487.544v15.75a.503.503 0 0 1-.506.506h-5.55A3.6 3.6 0 0 0 7.8 22a3.6 3.6 0 0 0-3.544 3H1.8c-.225 0-.6-.377-.6-.6V8.706c0-.281.22-.506.506-.506zm24.9 6.6H22.8c-.244 0-.6.298-.6.6v2.4c0 .1.075.263.206.394.132.131.293.206.394.206h5.925c-.113-.72-.656-1.65-.656-1.65l-1.463-1.95zM7.8 23.2a2.39 2.39 0 0 1 2.4 2.4A2.39 2.39 0 0 1 7.8 28a2.39 2.39 0 0 1-2.4-2.4 2.39 2.39 0 0 1 2.4-2.4zm18 2.4a2.39 2.39 0 0 0-2.4-2.4 2.39 2.39 0 0 0-2.4 2.4 2.39 2.39 0 0 0 2.4 2.4 2.39 2.39 0 0 0 2.4-2.4z"/>
</symbol><symbol id="icon-twitter" viewBox="0 0 22 19">
    <path d="M22 2.134a8.949 8.949 0 0 1-2.591.717A4.566 4.566 0 0 0 21.392.333c-.874.522-1.84.9-2.867 1.106A4.482 4.482 0 0 0 15.23 0c-2.493 0-4.514 2.04-4.514 4.553 0 .356.04.705.117 1.038C7.084 5.4 3.76 3.587 1.533.832a4.551 4.551 0 0 0-.61 2.29c0 1.58.797 2.974 2.007 3.79A4.483 4.483 0 0 1 .885 6.34v.057c0 2.205 1.557 4.046 3.62 4.465a4.53 4.53 0 0 1-1.19.16c-.29 0-.572-.03-.849-.085.575 1.81 2.241 3.127 4.215 3.163a9.003 9.003 0 0 1-5.605 1.946c-.364 0-.723-.022-1.076-.062a12.674 12.674 0 0 0 6.918 2.049c8.302 0 12.84-6.94 12.84-12.957l-.015-.59A9.057 9.057 0 0 0 22 2.134z"/>
</symbol></svg>