<?xml version="1.0" encoding="UTF-8"?><!DOCTYPE svg PUBLIC "-//W3C//DTD SVG 1.1//EN" "http://www.w3.org/Graphics/SVG/1.1/DTD/svg11.dtd"><svg xmlns="http://www.w3.org/2000/svg"><symbol id="icon-arrow-left" viewBox="0 0 18 13">
    <path d="M1.5 6.5h15" stroke-width="1.5" stroke-linecap="round"/>
    <path d="M1.5 6.5l4.95 4.95" stroke-width="1.5" stroke-linecap="round"/>
    <path d="M1.5 6.5l4.95-4.95" stroke-width="1.5" stroke-linecap="round"/>
</symbol><symbol id="icon-arrow-right" viewBox="0 0 12 20">
    <path d="M3.716 3.79L9.729 10l-6.014 6.208a.774.774 0 0 0 0 1.07.719.719 0 0 0 1.038 0l6.532-6.743a.773.773 0 0 0 0-1.07L4.753 2.721a.72.72 0 0 0-1.039 0 .774.774 0 0 0 .002 1.07z"/>
</symbol><symbol id="icon-close" viewBox="0 0 12 12">
    <g stroke-width="2" stroke-linecap="round" stroke-linejoin="round">
        <path d="M1 1l10 10"/>
        <path d="M11 1L1 11"/>
    </g>
</symbol><symbol id="icon-gluten-free" viewBox="0 0 50 48">
    <path fill-rule="evenodd" clip-rule="evenodd" d="M1.923 0a.985.985 0 0 0-.69.266.96.96 0 0 0 0 1.36L18.81 18.88l10.968 10.785 17.608 17.345a.98.98 0 0 0 .691.266.98.98 0 0 0 .691-.266.96.96 0 0 0 0-1.359L31.43 28.602c.369-.317.665-.65.842-.974 0 0-1.844-2.342-4.117-3.221a3.838 3.838 0 0 0-1.232-.236L24.31 21.6a4.603 4.603 0 0 0-.21-1.064c-.827-2.597-3.245-4.048-3.245-4.048a3.687 3.687 0 0 0-.962.768L2.614.266A.985.985 0 0 0 1.924 0zm45.193 1.891s-4.489.019-6.55 1.92c.228.562.424 1.157.48 1.803.06.362.128 1.193-.03 2.364l.235-.025h.003c.287-.032.577-.064.874-.064.544 0 .957.037 1.142.06.653.048 1.262.225 1.832.443 1.999-1.995 2.014-6.5 2.014-6.5zM33.353 6.885c.714-2.131 2.825-3.963 4.327-4.226 0 0 1.345 1.585 1.443 3.191 0 0 .21.939-.12 2.542l-.03.147-3.156 3.133a6.599 6.599 0 0 0-.24-1.182c-.492-1.548-1.386-2.752-2.224-3.605zm-2.884.118c-1.078.565-2.265 2.283-2.674 4.107.972.842 2.264 2.246 2.884 4.196.12.377.192.787.24 1.182l2.945-2.896a5.055 5.055 0 0 0-.12-2.541c-.826-2.597-3.275-4.048-3.275-4.048zm9.766 3.014a8.192 8.192 0 0 1 1.983-.237c.53.004.871.06.871.06 1.634.096 3.245 1.418 3.245 1.418-.259 1.455-2.077 3.524-4.206 4.255-.504-.491-1.1-1.001-1.743-1.36-1.206-.672-1.78-.904-2.103-1.004a6.653 6.653 0 0 0-.992-.266l2.945-2.866zM25.57 11.819c-1.029.54-2.126 2.142-2.584 3.871.98.835 2.333 2.268 2.975 4.285.112.351.155.706.2 1.073l.01.08 2.795-2.72a4.94 4.94 0 0 0-.12-2.511c-.827-2.597-3.276-4.078-3.276-4.078zm9.796 2.955c.161-.03.315-.048.48-.059.493-.037 1.01-.011 1.473.118 2.836.684 4.597 3.31 4.597 3.31-.586 1.082-2.4 2.282-4.297 2.659l-.12-.118-.129-.13-.002-.001c-.092-.094-.191-.193-.29-.283a.577.577 0 0 0-.077-.062.698.698 0 0 1-.073-.056 20.413 20.413 0 0 1-.14-.128c-.145-.133-.296-.273-.46-.404a.378.378 0 0 0-.076-.044h-.001c-.026-.014-.052-.026-.074-.044a12.096 12.096 0 0 0-.681-.511l-.001-.001c-.024-.018-.048-.038-.07-.05-.25-.166-.51-.325-.78-.473-.028-.015-.056-.028-.083-.04l-.004-.003-.004-.001a1.34 1.34 0 0 1-.09-.044 9.38 9.38 0 0 0-.871-.414 4.798 4.798 0 0 0-.871-.236 1.217 1.217 0 0 0-.187-.019h-.006a1.673 1.673 0 0 1-.138-.011l2.975-2.955zm-4.297 4.758c-.162.014-.324.05-.485.086l-.025.005-.024.005-.097.022-2.795 2.718c.417.056.823.148 1.202.296 1.78.687 3.275 1.998 4.147 2.895 1.795-.432 3.467-1.54 4.026-2.57 0 0-1.874-2.342-4.146-3.221a3.94 3.94 0 0 0-1.803-.236zm-17.849 5.88c.425-1.8 1.582-3.49 2.645-4.049 0 0 2.449 1.482 3.275 4.078.27.846.259 1.703.09 2.512l-2.885 2.866a6.596 6.596 0 0 0-.24-1.182c-.627-1.969-1.908-3.387-2.885-4.226zm6.55-2.896a8.58 8.58 0 0 1 1.203 2.364c.12.376.191.76.24 1.152l1.052-1.064-2.494-2.452zM8.234 32.09c-.289-2.364 1.323-5.183 2.765-5.94 0 0 2.449 1.452 3.275 4.048.267.846.29 1.733.12 2.541l-3.305 3.25h1.352v1.33l3.426-3.368c.837-.173 1.712-.144 2.464.148 2.272.879 4.116 3.19 4.116 3.19-.77 1.42-3.636 3.033-6.04 2.749-2.403-.307-3.635-1.633-3.966-2.689L3.215 46.42a.979.979 0 0 1-.69.266.979.979 0 0 1-.692-.266.96.96 0 0 1 0-1.359l9.225-9.071c-1.063-.296-2.43-1.489-2.825-3.9zm15.415-5.763l-.992.946c.42.055.853.118 1.232.266.928.358 1.74.894 2.464 1.448l-2.704-2.66zm-2.769 2.835c.162-.036.324-.072.486-.086a3.99 3.99 0 0 1 1.802.236c2.273.879 4.147 3.22 4.147 3.22-.578 1.068-2.37 2.235-4.237 2.63-.879-.893-2.325-2.168-4.056-2.836a5.15 5.15 0 0 0-1.202-.296l2.915-2.836.145-.032z"/>
</symbol><symbol id="icon-gmo" viewBox="0 0 50 49">
    <path fill-rule="evenodd" clip-rule="evenodd" d="M.96 1.607c.103-.343.394-.6.873-.694a.972.972 0 0 1 .781.294l6.34 6.215 10.787 10.574c-1.704-3.658-2.425-8.461 1.984-12.636 2.307-2.262 5.102-3.84 5.679-4.123.48-.283 1.16-.206 1.352.265.192.471.09 1.043-.39 1.325l-.044.026c-.576.338-3.093 1.815-5.245 3.833-2.789 2.639-4.892 7.275.781 14.343.205 0 .383.026.548.049h.002c.144.02.278.04.412.04.288.047.572.068.856.088.284.02.568.041.856.088-2.77-3.585-4.157-6.53-4.236-8.953a.926.926 0 0 1 0-.265c.01-1.667.645-3.065 1.923-4.242 1.154-1.13 5.402-4.618 5.98-4.712.48-.094 1.045.265 1.141.736.096.472-.102.843-.39 1.031-.112.073-.867.624-1.593 1.178l14.423 7.746c.133-.472.256-.97.36-1.472.097-.566.662-.83 1.142-.737a.952.952 0 0 1 .782 1.12c-.673 2.827-2.032 6.792-5.109 9.336-2.656 2.232-9.34 1.71-16.075.972l1.863 1.826c6.618.723 12.63 1.11 15.474-1.679 2.885-2.827 4.418-5.843 4.898-9.424 0-.566.481-.943.962-.943.577 0 .967.56.871 1.03-.577 4.054-2.326 7.37-5.499 10.575-2.5 2.544-6.724 3.021-11.628 2.739a16.368 16.368 0 0 1 1.352 4.005l15.595 15.286a.945.945 0 0 1 .253.926.968.968 0 0 1-.691.677.991.991 0 0 1-.944-.248L21.815 22.708l-2.104-2.061L1.231 2.562a.93.93 0 0 1-.27-.955zM43.15 15.64L27.734 7.363a41.66 41.66 0 0 0-1.312 1.128l-.004.003-.007.007-.18.158 15.415 9.838a14.365 14.365 0 0 0 1.503-2.857zm-18.3-5.626l15.596 9.955-.05.05c-.22.22-.435.438-.671.628-.373.3-.944.509-1.593.677l-13.912-9.572a3.308 3.308 0 0 1 .63-1.738zm10.487 11.693L24.67 14.373c.621 1.754 1.977 4.083 4.568 7.216 2.046.14 4.213.219 6.1.118zM14.994 20.41c-3.964-.005-7.338.612-9.525 2.592C.885 27.22.954 34.277.96 35.003v.046c0 .471.481.943.962.943a.954.954 0 0 0 .962-.943V35c-.008-.714-.074-6.923 3.936-10.67 2.308-2.169 6.833-2.357 11.929-1.886l-2.013-2.003a44.982 44.982 0 0 0-1.743-.03zm-7.001 5.125c1.322-1.237 3.804-1.67 6.82-1.68 1.81-.004 3.805.142 5.86.354l2.103 2.18c-2.947-.31-6.115-.592-8.714-.53l13.131 8.158c.014-1.392-.244-2.759-.66-4.035l2.493 2.445c.193 1.979.108 3.946-.66 5.831-1.25 3.016-3.937 5.178-7.783 6.215h-.3c-.482 0-.866-.27-.962-.648-.096-.471.21-1.025.69-1.12a14.404 14.404 0 0 0 1.714-.618L6.49 34.136l-.032.432a27.09 27.09 0 0 0-.028.393c0 .471-.48.942-.961.942s-.962-.471-.962-.942v-.006c-.001-.226-.031-6.158 3.486-9.42zm3.005.648l15.685 9.778a.977.977 0 0 0 .27.118 9.192 9.192 0 0 1-.42 1.443 4.265 4.265 0 0 1-.199.397v.001a8.339 8.339 0 0 0-.102.191L8.684 27.686l.067-.086c.177-.226.352-.45.564-.65.378-.352.972-.589 1.683-.766zm18.63.765c-.257 0-.526-.012-.782-.029l1.382 1.355-.077-.184v-.002h-.001c-.162-.387-.324-.771-.523-1.14zM7.691 29.306L25.18 39.673A8.189 8.189 0 0 1 23.708 41L6.76 32.133c.181-.884.485-1.878.931-2.827zM30.47 40.144a15.692 15.692 0 0 0 1.171-5.183l1.833 1.796c-.192 1.508-.589 2.922-1.262 4.242-1.923 3.77-5.396 6.314-9.915 7.068h-.18c-.482 0-.866-.294-.962-.765a.975.975 0 0 1 .78-1.12c5-.848 7.38-3.776 8.535-6.038z"/>
</symbol><symbol id="icon-hamburger" viewBox="0 0 18 17">
    <path d="M1.5 1.5h15" stroke-width="2" stroke-linecap="square"/>
    <path d="M1.5 8.5h15" stroke-width="2" stroke-linecap="square"/>
    <path d="M1.5 15.5h15" stroke-width="2" stroke-linecap="square"/>
</symbol><symbol id="icon-help" viewBox="0 0 20 20">
    <path fill-rule="evenodd" clip-rule="evenodd" d="M0 10C0 4.486 4.486 0 10 0s10 4.486 10 10-4.486 10-10 10S0 15.514 0 10zm18.333 0A8.32 8.32 0 0 0 10 1.667 8.32 8.32 0 0 0 1.667 10 8.32 8.32 0 0 0 10 18.333 8.32 8.32 0 0 0 18.333 10zM10 5a3.344 3.344 0 0 0-3.333 3.333h1.666c0-.93.736-1.666 1.667-1.666s1.667.735 1.667 1.666c0 .638-.41 1.205-1.016 1.407l-.338.104a1.684 1.684 0 0 0-1.146 1.588V12.5h1.666v-1.068l.339-.104a3.172 3.172 0 0 0 2.161-2.995C13.333 6.501 11.833 5 10 5zm-.833 10v-1.667h1.666V15H9.167z" fill="currentColor"/>
</symbol><symbol id="icon-lock" viewBox="0 0 24 30">
    <path fill-rule="evenodd" clip-rule="evenodd" d="M12 .131c-4.3 0-7.8 3.5-7.8 7.8V11.4H1.8c-.987 0-1.8.813-1.8 1.8v14.4c0 .987.813 1.8 1.8 1.8h20.4c.987 0 1.8-.813 1.8-1.8V13.2c0-.987-.813-1.8-1.8-1.8h-2.4V7.931c0-4.3-3.5-7.8-7.8-7.8zm0 1.2c3.654 0 6.6 2.946 6.6 6.6v3.47H5.4V7.93c0-3.654 2.946-6.6 6.6-6.6zm10.8 11.87c0-.338-.263-.6-.6-.6H1.8c-.338 0-.6.262-.6.6v14.4c0 .336.262.6.6.6h20.4c.337 0 .6-.264.6-.6V13.2zm-18 6a1.2 1.2 0 1 0-.001 2.398A1.2 1.2 0 0 0 4.8 19.2zm3.6 1.2a1.2 1.2 0 1 1 2.398-.002A1.2 1.2 0 0 1 8.4 20.4zm6-1.2a1.2 1.2 0 1 0-.001 2.397 1.2 1.2 0 0 0 0-2.398zm3.6 1.2a1.2 1.2 0 1 1 2.398-.003A1.2 1.2 0 0 1 18 20.4z"/>
</symbol><symbol id="icon-made-in-california" viewBox="0 0 100 56">
    <path d="M10.839 14.736l1.834-5.638-4.83-3.476h5.992L15.685 0l1.853 5.623h5.991L18.7 9.099l1.832 5.638-4.846-3.477-4.736 3.4-.11.076z"/>
    <path fill-rule="evenodd" clip-rule="evenodd" d="M41.994 14.776c.008-.013.04-.028.068-.034.047-.011.052-.007.052.04 0 .037.015.065.062.103.094.05.198.031.305.01h.002c.066-.012.132-.024.199-.021.067.008.134.013.2.019.129.01.256.02.385.05.103.036.154.001.218-.042a.727.727 0 0 1 .072-.045c.073.012.087.001.11-.016a.22.22 0 0 1 .083-.04c.055.02.102.032.147.042l.002.001h.002c.036.009.071.017.11.03.107-.034.147-.006.199.032a.445.445 0 0 0 .08.049c.054.016.072.016.136-.017a.73.73 0 0 1 .216-.027h.001c.043-.001.087-.003.13-.008a.31.31 0 0 1 .108.052c.048.046.229.06.312.023l.063-.029c.033.06.081.087.132.115a.72.72 0 0 1 .067.04c.08.045.108.022.14-.006.019-.015.038-.032.07-.04.08 0 .096.014.09.126 0 .111.037.117.112.128a.76.76 0 0 1 .076.015c.102-.008.198.002.294.012h.002c.099.01.197.021.3.011.04.01.044.022.04.086-.022.06-.008.101.003.135a.174.174 0 0 1 .009.037c.03.007.088-.006.164-.034a.512.512 0 0 1 .21-.04l.109.086c.02.095.065.119.21.103.083-.01.096-.006.136.034.048.048.151.06.216.029.038-.019.053-.009.108.063.032.049.027.058.018.073-.007.01-.014.023-.012.053.014.016.07.034.136.04.125.009.24.066.344.12l.07.035c.057.108.166.146.273.184l.009.003.007.003.03.01c.02.055.06.04.094.027h.002v-.001c.014-.005.026-.01.035-.008.014-.054.044-.054.108 0 .044.038.055.097.017.097a.12.12 0 0 0-.051.029c-.065.05-.022.081.018.11.02.015.038.029.044.044-.03.046.208.09.284.052.06-.029.115-.006.102.04-.016.064.045.108.17.126.1.01.161.068.227.13.032.03.065.06.103.088.075.022.145.045.214.067l.002.001c.113.037.223.073.341.098.124.01.248.05.36.085l.095.03c.02.037.032.039.113.034.05-.002.135-.014.188-.028l.002-.001c.09-.025.098-.028.174.006.112.078.216.09.345.103h.007c.106 0 .189.012.233.03.11.005.22.013.329.021h.005c.182.014.363.028.547.03.085.026.098.026.301-.017.169-.042.333-.03.5-.012.026.013.085.008.221-.017a4.31 4.31 0 0 1 .325-.039h.005l.125-.013c.084-.015.15-.012.358.012.19.021.268.025.296.011a.256.256 0 0 1 .09-.023c.062-.012.122-.03.182-.047l.01-.003.11-.03c.084-.024.173-.044.26-.063.116-.043.261-.06.455-.057.098-.013.195-.05.288-.085l.048-.018c.04 0 .13-.015.198-.029a1.39 1.39 0 0 1 .245-.023c.085 0 .166-.025.247-.05l.042-.013c.08-.02.156-.028.23-.036h.005c.1-.01.199-.02.305-.061.07-.019.14-.031.211-.044h.002l.006-.002c.082-.014.164-.03.247-.052.09-.029.187-.04.282-.05l.013-.002.086-.01a1.44 1.44 0 0 1 .199-.035c.159-.016.608-.119.625-.144a5.02 5.02 0 0 1 .162-.026l.15-.025c.05-.024.091-.03.227-.023l.33-.063a.934.934 0 0 1 .205-.075c.05 0 .219-.052.255-.08a.622.622 0 0 1 .126-.021c.02-.002.042-.004.062-.008.074-.014.263-.037.426-.045.116-.02.236-.021.353-.022l.135-.001c.128.035.19.029.387-.029.162-.048.185-.052.278-.034.11.02.53-.003.574-.035.012-.009.154-.019.318-.023.198-.004.357-.017.477-.04.153-.026.228-.02.358-.006.044.037.543.063.631.035a.304.304 0 0 1 .12-.006c.034.006.11 0 .17-.011.1-.02.115-.018.182.011.046.057.093.064.146.073a.442.442 0 0 1 .08.019c.178-.008.346.039.517.086.113.032.228.063.347.08.06.023.115.033.324.046a.867.867 0 0 0 .142-.012c.075-.011.099-.007.16.03.102.06.19.07.232.028.052-.053.126-.045.188.023.142.045.26.048.39.052l.116.005c.097.001.193.028.29.055.039.01.079.022.119.03.107-.013.182.02.284.07.042.02.103.034.159.034.093.007.168.067.24.123.024.02.048.038.072.055 0 .038.073.066.16.057l.09.022h.003l.004.002c.064.016.128.033.21.045.05.044.1.073.147.08a.53.53 0 0 0 .182.054h.005l.074.015c.023.046.067.059.11.071.02.006.039.012.055.02.118.017.239.053.352.087.07.03.137.064.203.098h.002l.001.001c.078.04.155.078.237.113.079.012.133.057.193.107l.029.024a.277.277 0 0 1 .09.035c.027.02.233.048.336.046.04-.001.06.022.125.103l.08.097.064-.004c.075-.006.15-.011.225-.019.073-.008.126.022.131.075l.002.03.004.056a.14.14 0 0 0 .028.074c.01.01.086.024.165.029.126.003.212.06.306.122.022.014.045.03.069.044.057.05.112.086.136.086.023 0 .115.022.2.046.12.035.163.058.204.103.091.052.182.09.271.128.131.055.26.109.388.205.05.049.095.087.278.12.146-.006.148.033.15.083 0 .028.002.06.032.089.024.023.063.04.085.04.094.041.185.092.273.142.065.037.13.073.193.104.028.057.133.13.21.144.094.017.182.052.182.074.119.174.288.255.483.315l.108.098c.048.157.161.263.277.372.064.06.128.12.183.19.045.02.102.04.125.04.064.003.104.044.141.082a.4.4 0 0 0 .047.044c.029.04.057.082.086.125.026.04.052.08.078.115.007.035.037.1.069.144a.232.232 0 0 0 .147.103.355.355 0 0 1 .164.096l.002.001c.018.017.037.033.056.046.04.089.098.134.256.212l.147.162.017.018.12.13c.033.03.053.067.073.106h.001c.01.02.021.04.034.06a.474.474 0 0 1 .068.12c.173.12.28.347.346.505.05.02.101.049.114.063.092.01.117.049.15.099.013.02.028.043.049.067.023.11.095.168.173.23l.054.045c.17.053.224.179.286.321.018.043.037.087.06.132a.43.43 0 0 0 .097.069c.08.039.127.114.171.187l.002.002c.01.018.021.035.032.051.04.083.103.15.168.22.063.067.128.137.178.227.042.018.08.041.086.058.05.02.084.06.12.1v.001l.056.06c0 .039.074.142.102.142.03.016.057.04.085.063l.001.002.033.027c.068.051.091.144.113.227l.012.048a.883.883 0 0 1 .234.22c.02.024.04.049.062.072.092.08.12.184.148.294.016.062.033.126.062.188.02.036.043.072.067.109l.001.002c.022.033.044.067.063.1.019.051.045.087.072.122a.89.89 0 0 1 .036.05l.199.23c0 .021.03.088.062.15.032.06.071.164.09.234.012.04.026.088.04.13l.023.082a.915.915 0 0 0 .069.172c.034.076.074.148.115.22l.001.002c.027.047.053.093.077.14.04.043.043.068.034.12-.077.069-.06.103-.04.144a.161.161 0 0 1 .023.08.961.961 0 0 1-.029.463 1.082 1.082 0 0 1-.26.379c-.012.045-.046.058-.08.072-.019.007-.036.014-.052.025-.032.036.007.192.069.275a.268.268 0 0 1 .045.075c.052.079.088.169.124.257l.007.018a.804.804 0 0 0 .063.228l.028.075c.05.049.051.115.052.178 0 .023.001.047.005.069-.029.016-.025.072.022.195l.04.124.04.122c.032.086.054.17.076.25.033.123.064.241.128.363.039.064.042.088.034.19a.339.339 0 0 0 .029.194c.033.041.057.083.082.126v.002l.002.002.046.077c0 .03.16.286.194.31.01.053.016.11.022.17v.001c.006.061.012.123.023.184-.061.06-.053.11-.045.163.004.025.008.05.005.077.062.079.091.171.12.263l.022.07c.033.148.06.297.08.447.011.053.02.106.027.158.007.049.014.097.024.146-.01.109.026.236.074.263.02.012.058.128.074.24.027.096.077.183.126.27h.001l.055.098c.023.078.02.158.017.24a1.323 1.323 0 0 0 0 .15c.039.07.043.094.04.338-.03.237-.044.42.045.636.036.057.046.169.017.189-.057.039-.073.09-.051.166a.54.54 0 0 1 .04.264c0 .05-.002.1.005.154.012.117.028.233.046.35.044.064.049.144.054.223l.002.035a.789.789 0 0 1 .023.195c.026.157.041.316.04.47.004.053.005.106.007.157v.002c.004.108.007.213.027.322.034.054.026.158.02.23v.002a.945.945 0 0 0-.003.049c.036.059.07.132.097.2.035.06.062.12.062.127 0 .007-.028.017-.062.028-.094.031-.114.063-.086.126a.33.33 0 0 1 .1.154c.01.023.019.047.031.07.009.005.017.049.023.092a.276.276 0 0 0 .045.12c.02.025.044.065.051.092.011.039.005.058-.034.086-.068.049-.053.185.023.212.073.025.098.093.057.155.01.06.04.136.068.21v.002l.001.003c.016.042.032.083.044.123.043.043.044.09.045.143 0 .026 0 .053.007.08.01.017.023.062.028.103.023.207.034.284.051.304-.018.038-.005.071.007.106a.246.246 0 0 1 .016.055c.053.045.092.151.08.212a.389.389 0 0 0 .028.143c-.005.057.025.098.054.137a.36.36 0 0 1 .037.058c.053.04.1.158.08.189 0 .03.014.06.027.088a.496.496 0 0 1 .018.044.714.714 0 0 1 .159.255l.011.026c0 .014.043.051.097.085a.959.959 0 0 1 .136.104.581.581 0 0 1 .114.292c0 .103.083.26.147.28.048.031.092.068.136.105l.002.001.001.001.038.031c.013.037.095.115.119.115.018.036.041.074.065.11l.032.05c.027.016.034.039.034.098a.606.606 0 0 0 .102.217l.023.035a.136.136 0 0 1 .04.115c-.007.136.005.17.056.223.029.03.095.132.148.23.053.097.1.177.108.177.097.055.107.16.116.266l.009.078a.44.44 0 0 0 .023.109.61.61 0 0 1 .022.137c.01.1.022.13.08.207.037.05.068.097.068.103 0 .006-.018.023-.04.04-.035.028-.034.044-.022.138.001.044.018.084.035.123a.606.606 0 0 1 .021.054c-.006.01 0 .108.017.218s.031.28.034.373c.006.167.031.423.057.596.011.073.005.098-.028.149a.474.474 0 0 0-.051.16c-.007.053-.022.105-.034.115-.02.014-.031.105-.029.189h.085c.119.02.183-.02.264-.07l.038-.022c.056-.09.137-.132.213-.172l.054-.028c.017.01.047.049.062.091.026.072 0 .14-.025.21l-.015.042c-.022.015-.014.166.012.218.03.06.096.1.193.115.14.024.203.112.278.214l.023.032c.041.032.062.067.063.098 0 .095.17.215.233.166.082-.122.098-.272.114-.418l.01-.092a1.373 1.373 0 0 0-.005-.252c-.014-.156-.015-.205.005-.247.038-.077.08-.105.131-.091.065.017.103.068.154.206.065.177.147.229.233.137.05-.017.079-.056.107-.094a.387.387 0 0 1 .046-.055c.034-.105.11-.223.142-.223.157.091.186.228.22.386l.007.038a.271.271 0 0 0-.022.172c.02.14.057.212.108.212.094.025.12.092.15.163.009.024.019.048.031.072.032.028.017.138-.022.172-.039.033-.03.132.017.195.008.045.042.075.073.102.015.014.03.027.04.04.03-.035.068-.062.105-.088l.001-.001.001-.001.047-.035c.036-.008.064-.03.09-.092.035-.08.152-.187.205-.189.013 0 .053.031.091.069.064.064.136.086.136.046.061.008.083-.036.105-.08.011-.021.022-.043.037-.058.056-.092.183-.184.279-.177.065.004.099.07.133.137.017.032.034.065.054.092l.051.132-.05.086c-.084.126-.122.33-.08.447.215.114.344-.107.444-.278l.022-.038c.098-.047.112-.051.153-.023.034.025.047.052.057.138.01.09.016.12.051.138.057.027.098.009.125-.058.056-.11.144-.203.227-.292.07-.076.13-.09.148-.034.003.01.012.029.02.048l.002.004a.941.941 0 0 1 .018.04c.024.33.126.463.261.55 0-.05.147-.152.199-.138.07.019.105.202.063.32-.015.041-.011.07.017.138.038.094.054.101.136.058.094-.05.159-.058.159-.023a.251.251 0 0 0 .078.081.485.485 0 0 1 .047.04c.017.03.14.066.182.05.01-.034.036-.057.062-.08l.001-.001a.355.355 0 0 0 .039-.039 1.4 1.4 0 0 0 .136-.097c.073-.059.17-.07.29-.034l.057.017c.037.011.073.023.096.028.048.013.075.037.097.086a.255.255 0 0 0 .063.086c.066.052.25.022.25-.04 0-.034.256-.029.295.006.036.158.127.239.244.344.075 0 .095.002.177.08a.43.43 0 0 0 .119.092c.114.082.198.198.28.31l.05.068.051.001h.022l.148.005c.157.005.212 0 .244-.023.052-.036.273-.118.324-.12.079-.035.114-.007.156.026.02.015.04.03.066.042.073.033.106.089.136.24.012.06.047.15.08.202.051.08.069.097.125.097.088 0 .208.033.215.057a.565.565 0 0 1 .199.105l.002.001c.024.017.048.034.072.049a.49.49 0 0 1 .128.215c.008.022.016.044.026.066.03.047.05.05.085.04.072.012.118.097.158.173l.035.062c.045.043.064.055.108.046.041-.009.067-.006.09.023.034.039.209.08.387.086.085.003.13.023.205.091.1.072.192.155.284.237.049.044.097.088.148.13a.487.487 0 0 1 .181.098c.058.03.099.072.141.115l.058.057c.027 0 .241.087.324.131.095.057.2.1.307.143h.002c.076.031.152.062.225.098.116.042.15.1.165.28.019.333-.097.564-.398.666-.257.05-.464.066-.664.074a2.88 2.88 0 0 0-.45-.023 2.259 2.259 0 0 1-.172.01l-.066.002c-.412.015-.82-.02-1.228-.054h-.003c-.524-.045-1.046-.09-1.57-.026-1.474-.046-2.686.06-3.959.17h-.004c-.79.07-1.605.14-2.52.18-.004.011-.352.021-.915.028-.367.004-.964.025-1.642.05h-.018c-.741.026-1.578.055-2.317.07a36.089 36.089 0 0 0-.8-.023 5.59 5.59 0 0 1-.881-.051c-1.262-.122-2.415-.128-3.634-.135h-.004c-1.056-.007-2.161-.013-3.43-.095-1.126-.14-2.344-.172-3.544-.204l-.046-.001-.047-.001-.772-.023-.761-.015h-.003c-1.07-.02-2.187-.042-3.225-.111-.346-.012-.721-.004-1.102.003-.509.01-1.029.02-1.511-.014l-.04-.002a2.655 2.655 0 0 0-.341.007c-.117.008-.18.003-.188-.011l-.21.003c-.634.007-1.293.016-1.926.071-.128-.017-.25.003-.374.023h-.004a2.07 2.07 0 0 1-.241.029c-.191.005-.323.017-.364.034-.801.022-1.51.057-2.233.15a8 8 0 0 0-.61.031h-.002c-.198.016-.396.031-.604.031a3.91 3.91 0 0 1-.413.013c-.133 0-.27-.001-.405.01-.484-.003-1.086.056-1.712.117-.61.06-1.244.122-1.81.13a21.54 21.54 0 0 0-1.187.069h-.005c-.279.021-.563.042-.82.057-.871.074-1.755.135-2.647.183-.277 0-.55.034-.823.07a6.46 6.46 0 0 1-.79.068 8.885 8.885 0 0 1-.557.046c-.248.015-.5.031-.762.074-.339-.018-.675.019-1.01.056h-.005c-.245.027-.49.054-.735.059-.1-.005-.23 0-.324.017a1.11 1.11 0 0 1-.365.035h-.032a4.29 4.29 0 0 0-.49.028h-.004a5.618 5.618 0 0 1-.387.029c-.156.007-.31.016-.465.025h-.002c-.3.017-.6.034-.902.038-.178.009-.356.003-.532-.002-.277-.008-.552-.017-.826.03-.05-.021-.32-.014-.358.012-.09-.064-.202-.042-.328-.018a1.227 1.227 0 0 1-.229.03c-.055.005-.11.01-.165.017l-.017.002c-.121.014-.242.027-.363.032-.037.024-.454.02-.54-.006a22.724 22.724 0 0 0-1.803-.178 26.902 26.902 0 0 1-1.55-.143.767.767 0 0 0-.175-.023c-.29-.04-.573-.051-.86-.063h-.005l-.04-.002-.036-.002-.167-.007a4.722 4.722 0 0 0-.58-.035 7.652 7.652 0 0 1-.352-.011c-.656-.015-1.277-.048-1.892-.08h-.004l-.005-.001h-.007c-.828-.045-1.645-.088-2.524-.085a2.096 2.096 0 0 1-.477-.04c-1.118-.114-2.178-.144-3.255-.174h-.008a72.347 72.347 0 0 1-2.044-.079c-.285-.027-.907-.017-1.011.018a9.474 9.474 0 0 0-.483.011l-.097.003c-.394.01-.67.018-.67.02-.156.006-.33.024-.508.042-.14.015-.282.029-.418.038-.96.053-1.891.13-2.826.206h-.014c-.862.071-1.727.142-2.62.195-.089.01-.186.001-.283-.007h-.001c-.05-.004-.1-.008-.148-.01-.666-.016-.92-.033-.983-.063-.11-.007-.223-.011-.336-.015-.408-.015-.828-.03-1.243-.203-.027.022-.417.036-1.029.046a69.63 69.63 0 0 0-.755.018c-.111-.008-.221-.005-.33-.003h-.007l-.107.003c-.525-.02-1.05-.033-1.579-.035-.083.02-.363 0-.625-.057-.87-.143-1.69-.122-2.588-.098H2.684c-.39.01-.797.02-1.228.018-.066.038-.34.039-.37 0-.388.007-.897-.063-1.079-.195-.022-.076.012-.145.047-.214.01-.018.019-.037.027-.056.01-.072.018-.076.148-.126a1.56 1.56 0 0 1 .437-.109c.31-.092.586-.208.847-.407l.119-.005.721-.155.398-.126.318-.063.148.046.222-.012.409-.126.29-.08.494-.27h.17l.245.064.795-.51.375-.018.37-.246.073-.224.13-.149.097.178.035.103.119-.011.13-.092.262-.034.17-.035.114-.378.057-.103.074.023.17.43.386-.064.483-.55.148-.258.051-.252h.16l.13.315.068.098.097.051.108-.114.062-.327.023-.103.034-.12.034-.184.17.029.04.155.08.24.102.103.091-.045.12-.212.147-.132h.108l.011.149.057.189.108.011.074-.131.136-.086.137.177.056.212.324.046.336-.395.159-.126.306.229.154.137.239-.034.164-.074.103.04h.221l.358-.138.136-.051.216-.07.239-.045.153-.04.103-.115.045-.12.267-.086.097-.144-.103-.286-.04-.075.046-.177.296.028.193-.074.113-.046.148.029.114.143.216.235.09-.023.109-.086.386-.069.102.184.137.051.363-.097.142-.115.13-.263.171-.167.102.063.177.063.164-.045.04-.04.404-.384.045-.063.13-.03.131.104.142.12.17-.005.25-.27.143-.183.187.006.023.223-.017.143.08.052.119-.063.216-.023.176.04.347-.137.272-.023.165.051.216-.109h.193l.074.092.261.172.341.075.165.034.125.023.37.155.275-.062.05-.011.117-.027.654-.147a.78.78 0 0 0 .011-.04c.024-.094.046-.132.068-.138.018-.004.047-.03.069-.057.12-.025.2-.105.282-.188l.041-.041a.165.165 0 0 1 .086-.052c.09-.06.219-.158.272-.206.118-.027.213-.105.306-.18l.007-.006.005-.004a2.59 2.59 0 0 1 .063-.05c.02-.004.044-.025.073-.051.03-.027.066-.058.109-.082l.07-.037.01-.005c.084-.045.19-.1.272-.152.139-.091.25-.099.4-.109h.01a.966.966 0 0 1 .164-.012c.088-.013.172-.032.257-.051h.002l.003-.001.004-.001c.07-.016.14-.032.211-.044.065-.018.166-.035.222-.035.056 0 .288-.004.517-.011.173.015.339-.02.502-.052l.055-.011a1.8 1.8 0 0 0 .494-.264c.124-.073.213-.185.302-.297.046-.058.091-.115.141-.167.02-.065.054-.123.088-.182.015-.025.03-.05.043-.076.041-.09.096-.174.149-.256l.027-.042c.022 0 .165-.308.159-.344a.583.583 0 0 0 .11-.169l.038-.072c.031-.05.053-.102.076-.155a1.82 1.82 0 0 1 .049-.108c.068-.103.146-.205.227-.292.019-.025.045-.049.071-.073v-.001a.929.929 0 0 0 .065-.064c.022-.084.077-.157.129-.224l.042-.057c.041-.013.187-.16.187-.189a1.57 1.57 0 0 0 .197-.218l.014-.017c.105-.17.243-.315.38-.458l.002-.002a4.99 4.99 0 0 0 .22-.24 1.28 1.28 0 0 1 .048-.093l.014-.027c.015 0 .045-.02.063-.045a.584.584 0 0 1 .09-.098.173.173 0 0 1 .07-.067.243.243 0 0 0 .033-.025c.079-.01.137-.086.197-.164a.977.977 0 0 1 .087-.105c.006-.018.025-.04.045-.046.07-.046.086-.113.103-.182v-.003a.877.877 0 0 1 .017-.061c.02-.11.057-.137.125-.186.015-.01.032-.023.05-.038l.04-.046.063-.074c.024-.008.046-.026.046-.04.05-.088.1-.145.15-.2.046-.053.091-.104.134-.178.011-.062.02-.073.062-.07.15-.143.173-.233.193-.314a.489.489 0 0 1 .029-.092c.139-.062.144-.206.15-.355 0-.029.001-.058.003-.086.101-.115.15-.257.193-.396a.189.189 0 0 0 .046-.12.452.452 0 0 0 .1-.227c.006-.025.012-.051.02-.077.031 0 .163-.297.21-.476.076-.075.094-.187.096-.28.001-.075.026-.173.05-.269l.018-.07c.047-.114.057-.23.068-.354v-.007c.03-.071.05-.144.07-.216.01-.037.021-.074.033-.11.082-.13.096-.273.108-.424.007-.055.017-.103.027-.148v-.002c.018-.078.033-.146.024-.217.032-.004.042-.022.05-.092a.507.507 0 0 0 0-.132c-.008-.04.028-.133.086-.223.052-.137.092-.28.13-.419.097-.151.142-.322.192-.515l.03-.115c.035-.03.059-.167.057-.31a.4.4 0 0 1 .097-.167l.022-.028c.013.008.025-.006.037-.019a.119.119 0 0 1 .014-.015c-.039-.013-.135-.11-.136-.137 0-.01.033-.047.068-.08.06-.052.051-.072.041-.097-.006-.015-.013-.032-.007-.058.006-.09.03-.13.058-.175a.543.543 0 0 0 .045-.083c.023-.04.021-.044-.012-.07-.008-.05-.04-.082-.071-.113-.015-.015-.03-.03-.042-.047-.075-.04-.16-.06-.243-.079a2.617 2.617 0 0 1-.076-.018c-.022-.011-.048-.007-.096.023-.076.047-.141.053-.193.017-.051-.035-.114-.028-.137.012-.057.048-.12.096-.181.143-.028.056-.065.053-.091-.006-.029-.064-.189-.152-.228-.126-.058.016-.087.06-.117.104a.505.505 0 0 1-.042.056c-.016.034-.03.04-.119.04-.092 0-.116.003-.17.052-.04.035-.077.058-.108.058a.483.483 0 0 0-.09-.08v-.002h-.002a.727.727 0 0 1-.067-.056c-.111.047-.188.138-.262.23-.049.047-.112.054-.153.016-.037-.034-.105-.03-.12.006-.03.075-.073.092-.198.08-.103-.01-.117-.015-.108-.04.02-.06-.13-.148-.188-.109-.031.021-.062.103-.062.16 0 .03-.01.064-.017.075-.016.023-.125.02-.16-.005a.26.26 0 0 0-.079-.03.537.537 0 0 1-.121.029h-.003a.807.807 0 0 0-.092.018c-.11-.01-.116-.007-.176.04a1.018 1.018 0 0 1-.125.086c-.057.03-.061.033-.051.092.01.054 0 .068-.04.091a.284.284 0 0 1-.114.035c-.043.01-.07.03-.1.05l-.047.03c-.044-.033-.06-.042-.08-.052a.662.662 0 0 1-.057-.034.152.152 0 0 1-.073.017c-.091.094-.207.154-.316.21l-.001.001-.013.007c-.118 0-.143.017-.199.137-.045.098-.123.134-.216.104-.098-.033-.142-.025-.142.023.03.057.033.117.036.18l.004.055c.02.078-.004.131-.057.131-.048 0-.074-.052-.074-.143a.712.712 0 0 0-.011-.126c-.01-.047-.018-.057-.074-.057-.047 0-.066.01-.08.04a.454.454 0 0 1-.04.069c.01.08-.003.157-.014.234l-.014.098c-.004.095-.019.12-.085.12-.032 0-.038-.008-.028-.149l.011-.154c-.234-.053-.242.015-.21.229a.369.369 0 0 1 .045.132c0 .04-.003.046-.05.046-.037 0-.062-.013-.075-.035a.077.077 0 0 0-.056-.034c-.027 0-.036.016-.046.074-.015.095-.035.109-.102.063-.065-.044-.14-.046-.154-.005a1.04 1.04 0 0 0-.022.126c-.014.106-.028.122-.114.137-.072.013-.109-.02-.074-.063a.092.092 0 0 0 .017-.069c-.005-.023 0-.05.011-.063a.44.44 0 0 0 .029-.154l.006-.132h-.046c-.064.023-.096-.007-.131-.04a.238.238 0 0 0-.062-.046c-.068-.032-.084-.03-.176-.012-.115.024-.14.042-.091.075a.442.442 0 0 1 .13.003c.021.003.044.007.075.008.007.027-.004.046-.029.063-.033.023-.031.031-.011.092.012.037.035.1.056.132.051.076.08.295.04.31-.052.018-.082-.029-.09-.144a.5.5 0 0 0-.029-.149c-.023-.04-.088-.07-.125-.057-.042.014-.05.112-.011.223.04.12.042.146-.017.16-.054.014-.091-.027-.091-.108 0-.052-.006-.073-.057-.11a.257.257 0 0 0-.12-.045c-.052 0-.056-.002-.05-.063a.401.401 0 0 1 .016-.092c-.006-.066-.057-.09-.104-.11a.28.28 0 0 1-.049-.027 1.06 1.06 0 0 0-.04.264c-.002.07.034.096.091.063.056-.033.104 0 .108.08a.94.94 0 0 0 .017.143c.01.042.014.089.006.103-.01.016-.004.038.011.063.028.046.037.224.012.224a.398.398 0 0 1-.074-.017c-.065-.021-.085-.07-.069-.167.017-.095-.02-.198-.085-.24-.035-.042-.053-.022-.075.002a.103.103 0 0 1-.044.032c-.066.023-.062.116.017.246.054.09.068.119.068.207 0 .098-.004.109-.045.109-.061 0-.093-.042-.08-.103a2.663 2.663 0 0 0-.153-.264c0-.027-.084-.143-.102-.143-.056 0-.075.045-.052.126.016.053.02.085.006.109-.024.041.005.15.057.212l.153.217-.034.07c-.019.035-.042.062-.05.062-.023 0-.07-.072-.07-.103 0-.038-.088-.12-.13-.12-.031 0-.04.017-.04.091.017.12.033.236.052.356l-.006.074-.074-.005-.008-.001c-.066-.005-.067-.005-.088.07-.013.042-.03.08-.04.08-.01 0-.029-.028-.046-.058-.026-.045-.029-.062-.011-.132.045-.18.018-.252-.08-.217-.101.035-.124.136-.056.258.04.072.056.306.022.332-.021.016-.036.012-.062-.006-.026-.017-.032-.042-.034-.126a1.219 1.219 0 0 0-.057-.32c-.005-.016-.028-.02-.074-.012-.052-.06-.171-.038-.186-.035h-.002c.007.025.007.056-.005.07-.002.013.026.03.055.05h.001c.014.01.029.02.04.03-.041.049-.04.104.006.154.035.038.044.063.04.109-.005.053-.011.064-.051.063a.284.284 0 0 1-.08-.017c-.028.013-.055.135-.065.182l-.003.013c-.045 0-.068.065-.04.114.023.04.027.217.006.23-.008.004-.035.004-.063 0-.048-.009-.048-.01-.04-.098l.012-.092-.068-.022c-.124-.048-.184-.024-.136.057.029.05.043.355.017.355-.011 0-.03-.015-.04-.034-.046-.078-.111-.02-.125.109-.008.072-.02.086-.051.086-.035-.04-.056-.154-.068-.224l-.006-.034a.12.12 0 0 0-.074.023c-.011.092-.053.214-.079.29l-.006.02c-.038-.006-.04-.017-.046-.121-.004-.084-.015-.115-.034-.115-.028 0-.038.024-.057.138-.013.08-.088.183-.13.183-.04 0-.028-.1.017-.195.025-.066.03-.139.035-.21l.004-.065c.037-.08.024-.117-.056-.132a.726.726 0 0 1-.104-.013h-.001l-.002-.001-.052-.009c-.052-.027-.059-.084-.065-.14a.552.552 0 0 0-.01-.06c.021-.054-.021-.06-.066-.064a.156.156 0 0 1-.064-.016c-.056-.077-.112-.015-.143.02a.079.079 0 0 1-.022.02c-.009.053-.022.068-.05.068-.034 0-.035-.013-.035-.108 0-.118-.032-.169-.108-.195-.027-.01-.04-.027-.034-.04.016-.04-.02-.077-.057-.058a.35.35 0 0 1-.12.018h-.013c-.037 0-.053 0-.06-.009-.004-.006-.003-.017 0-.037v-.006c.005-.046-.002-.057-.034-.057-.051.031-.09.024-.132.017a.315.315 0 0 0-.067-.006.361.361 0 0 1-.21-.011c-.063-.044-.08.003-.095.046-.007.019-.014.037-.025.045-.012.012-.119-.04-.119-.057 0-.024-.056-.069-.09-.069-.02 0-.062.024-.092.052-.063.06-.15.068-.164.017-.007-.023-.03-.032-.08-.04-.06-.01-.085-.008-.142.028-.041.013-.086.03-.13.047l-.004.002-.002.001h-.002l-.006.003c-.038.015-.074.03-.106.04-.022.038-.04.041-.136.045-.167.006-.234.058-.319.23-.016.033-.023.032-.13.024l-.023-.002c-.099-.01-.164.038-.236.09a.647.647 0 0 1-.156.094c-.073.006-.12.053-.161.095l-.032.03c0 .054-.008.057-.085.08-.117.037-.25.121-.25.156-.001.039-.007.04-.182.061l-.012.002c-.095 0-.179.04-.26.077l-.003.001-.01.005a2.2 2.2 0 0 1-.045.02c-.033.036-.15.047-.181.017-.012-.01-.068-.003-.148.017-.16.041-.22.039-.244 0-.053.007-.128 0-.196-.005a2.603 2.603 0 0 0-.072-.006.304.304 0 0 0-.142-.052l-.066-.007h-.002a4.582 4.582 0 0 1-.148-.016 2.66 2.66 0 0 0-.216-.023.82.82 0 0 1-.482-.166c-.114-.005-.126-.04-.145-.095a.362.362 0 0 0-.037-.083l-.108-.063v-.12c0-.091-.005-.136-.029-.166-.067-.084-.08-.118-.08-.24 0-.126.002-.127.052-.133.046-.004.048-.014.062-.105v-.004l.003-.015c.016-.105.02-.126.003-.19a4.72 4.72 0 0 0-.216-.253c-.049-.048-.032-.092.034-.092.034 0 .069.02.114.063a.396.396 0 0 0 .102.075c.021.061.07.069.117.076a.21.21 0 0 1 .06.015c.03-.127.02-.27.011-.4v-.006c.04-.038.177.133.227.286.03.093.243.178.37.15.036-.01.041-.02.034-.064a.762.762 0 0 0-.035-.115c-.021-.056-.031-.063-.085-.063-.049 0-.064-.013-.08-.051-.028-.03-.04-.069-.05-.106l-.001-.001c-.005-.017-.01-.033-.017-.048-.028-.016-.032-.167-.005-.258a.276.276 0 0 1 .079-.115c.016-.016.032-.033.046-.051a.08.08 0 0 1 .05-.063c.064-.067.128-.13.19-.19l.004-.002.008-.008.111-.11c.073-.028.086-.038.069-.057l-.06-.019-.031-.01a.9.9 0 0 0 .34-.561c.007-.08.003-.12-.017-.143-.05-.028-.124-.003-.193.02a.937.937 0 0 1-.068.02c-.076.034-.138.08-.202.126-.06.045-.121.09-.196.126-.06.046-.128.095-.193.137-.075.078-.164.135-.254.193a2.313 2.313 0 0 0-.155.105c-.06.028-.129.064-.153.08a5.364 5.364 0 0 1-.477.144c-.042.01-.075.048-.1.076l-.001.002c-.01.01-.017.02-.024.025l.001.006.021.08c.02.03.032.065.044.099l.001.003.023.059a.915.915 0 0 0 .04.137c.014.036.023.078.017.086-.017.025-.085.017-.096-.011a.898.898 0 0 1-.284-.2l-.006-.007a.237.237 0 0 0-.092-.08l-.002-.001c-.017-.011-.034-.022-.048-.033 0-.028-.098-.112-.182-.155a.598.598 0 0 0-.159-.046 1.985 1.985 0 0 1-.142-.023.906.906 0 0 0-.21.012.482.482 0 0 1-.301-.023 3.1 3.1 0 0 0-.25-.07 2.271 2.271 0 0 0-.274-.09l-.045-.012a1.499 1.499 0 0 1-.664-.292.718.718 0 0 0-.148-.11.314.314 0 0 1-.102-.074c-.037-.05-.07-.19-.052-.218.026-.037.074-.004.074.052 0 .045.005.056.04.051.063-.008.067-.07.006-.114l-.057-.035.046-.017c.028-.01.06-.01.079 0 .043.025.088.006.102-.046.019-.068-.016-.084-.119-.057-.063.017-.092.034-.097.057-.01.058-.037.07-.056.023-.016-.039-.03-.045-.137-.051-.1-.005-.186-.05-.273-.097l-.034-.018a1.984 1.984 0 0 1-.216-.178.382.382 0 0 1-.153-.292c0-.061.011-.086.068-.143.048-.04.096-.077.145-.114l.037-.03a.424.424 0 0 0 .124-.076.748.748 0 0 1 .052-.038c0-.013.071-.05.17-.086.192-.07.266-.13.245-.206a.783.783 0 0 1 .194-.234l.045-.041c.103-.1.193-.216.278-.339.056-.02.096-.09.137-.16.018-.032.036-.064.056-.092.1-.073.168-.156.239-.24l.001-.003h.001c.046-.056.093-.113.151-.17.03-.048.068-.09.105-.132l.06-.068c.033-.074.083-.141.132-.207l.033-.045c0-.03.066-.075.108-.075.048 0 .075-.033.09-.103a1.93 1.93 0 0 1 .125-.154c.03-.035.06-.07.086-.104.024 0 .044-.02.062-.063.053-.06.098-.125.143-.19l.001-.002c.044-.063.087-.125.135-.18l.062-.071.001-.001a4.3 4.3 0 0 0 .158-.186c.056-.065.096-.126.138-.19l.006-.01.001-.002.037-.056c.015-.023.041-.067.057-.098.06-.05.086-.11.116-.174.01-.022.02-.044.032-.066.074-.145.105-.233.102-.333.024-.046.031-.097.037-.14l.008-.049c-.026-.014-.086-.305-.068-.332.023-.015.037.004.052.026a.122.122 0 0 0 .028.031c.063-.025.019-.081-.016-.126a.175.175 0 0 1-.03-.046c-.04 0-.035-.017.017-.063.055-.047.055-.073.012-.12-.022-.024-.058-.037-.114-.04-.076-.007-.116-.064-.156-.122v-.001l-.002-.003-.03-.04c-.035-.04-.065-.092-.092-.14a1.04 1.04 0 0 0-.044-.073l.018-.08.005-.023a.574.574 0 0 1 .067-.219l.03-.067a1 1 0 0 0 .164-.258c0-.013.047-.09.102-.166a.753.753 0 0 0 .107-.172 1.63 1.63 0 0 1 .036-.07.408.408 0 0 1 .058-.156c.015-.028.031-.057.044-.09.037-.116.072-.166.125-.166.072-.155.153-.307.233-.46l.002-.003c.075-.142.15-.285.22-.431.063-.12.114-.187.163-.25v-.002c.026-.033.05-.065.075-.103a2.13 2.13 0 0 1 .06-.088.819.819 0 0 0 .11-.187.452.452 0 0 1 .063-.11.892.892 0 0 0 .034-.05.32.32 0 0 0 .116-.072.557.557 0 0 1 .066-.05c.028-.003.043-.018.051-.057.06-.113.15-.205.24-.295.065-.066.13-.131.18-.203.028-.026.056-.057.085-.089l.08-.083c.028-.165-.02-.323-.068-.48l-.011-.036c-.024-.033-.027-.063-.017-.132.006-.041.011-.093.015-.127l.002-.016a.35.35 0 0 1 .04-.115c-.001-.117.02-.22.038-.312l.007-.037a2.84 2.84 0 0 1 .101-.276l.018-.045c.017-.015.032-.083.04-.178.01-.118.022-.16.051-.189.025-.044.043-.09.062-.138l.023-.057c.038-.056.085-.113.135-.173.068-.081.14-.167.195-.262a.606.606 0 0 1 .113-.112l.002-.002a.508.508 0 0 1 .328-.144c.06.001.134.022.208.042h.001l.002.001.003.001c.052.014.103.028.15.036a.872.872 0 0 1 .13.178c.095.04.202.086.296.137.11.07.203.162.288.246l.03.03c.206.12.3.173.483.228.078.017.137-.02.198-.058l.007-.004.003-.002.036-.021c.023 0 .114-.021.199-.046.072-.027.172-.028.238-.028l.04-.001c.09-.025.141-.085.187-.138a.69.69 0 0 1 .046-.051c.01-.03.03-.045.052-.06a.234.234 0 0 0 .028-.02c.05-.017.055-.023.051-.098-.002-.065.034-.118.069-.17v-.002l.033-.051c.021-.076.052-.15.082-.222l.015-.036c.019-.064.059-.108.098-.152l.002-.001.036-.042.05-.078c.05-.081.1-.16.143-.249a.617.617 0 0 0 .08-.091l.09-.077c.082-.07.156-.134.28-.193.115-.046.209-.126.302-.205l.021-.018c.081-.008.172.01.264.028h.001c.058.012.116.023.173.029.035.028.078.052.096.052.145.06.268.152.358.229l.085-.012c0 .095.04.122.093.157.021.014.044.029.067.05.03.012.048.048.073.154.03.123.04.143.091.172.09.052.282.015.387-.074a.655.655 0 0 1 .255-.103c.038-.025.057-.067.076-.11.01-.021.02-.043.032-.062.09-.06.14-.112.2-.207.03-.034.047-.053.068-.074l.002-.002.037-.038c-.073-.015-.052-.046.057-.086.058-.06.11-.051.163-.041.025.004.05.009.075.006.028-.01.026-.036 0-.149.052-.09.13-.12.211-.149.025-.008.05-.017.073-.028.094 0 .165-.034.165-.08 0-.012.013-.03.029-.035l.04-.032.002-.002.005-.005c.14-.114.283-.23.419-.35.01-.02.03-.039.045-.04a.58.58 0 0 1 .032-.003h.011l.015-.002h.015l.098-.007c.142-.011.172-.03.113-.069-.044-.03-.016-.058.08-.08.047-.011.085-.03.09-.046.09-.09.198-.158.306-.226h.002l.001-.001c.044-.027.087-.054.13-.083a2.4 2.4 0 0 1 .218-.086l.002-.001a1.15 1.15 0 0 0 .387-.2c.087-.034.188-.099.256-.142.049.014.169.013.216 0 .06-.041.109-.1.156-.157l.005-.006.032-.038c.012-.05.048-.075.082-.099a.274.274 0 0 0 .043-.033c.009.057.065.066.112.074.021.003.04.006.053.012.007-.02.038-.05.102-.091.03-.035.058-.066.087-.097l.032-.035c.003-.046.058-.043.087-.04h.015c.006.012.033.028.063.028.042 0 .072-.022.13-.086l.074-.08.103.006h.01c.085.007.092.008.098-.029.004-.026.019-.042.045-.046.028-.003.043-.023.051-.057.025-.104.215-.186.239-.103.005.018.023.034.04.034a.4.4 0 0 0 .164-.092c.023-.023.169-.042.307-.04.093.002.107-.005.142-.045a.167.167 0 0 0 .04-.08c.086-.075.21-.118.328-.159l.008-.003.079-.028c.063-.031.137-.062.164-.069.142-.086.268-.195.392-.302l.08-.07c.01-.016.076-.04.182-.058.133-.021.169-.032.176-.057.005-.018.03-.028.051-.028.026 0 .044-.018.051-.046.015-.055.095-.09.148-.07.054.023.185-.035.199-.085.013-.048.188-.129.221-.103.096.005.153-.122.182-.188a.692.692 0 0 1 .012-.024l.009-.02v-.001l.002-.003c.013-.03.018-.04.068-.074a.635.635 0 0 1 .25-.08c.165-.008.168-.01.243-.074h.002a.362.362 0 0 1 .102-.07c.08 0 .233-.092.233-.143 0-.01.007-.028.022-.04a.074.074 0 0 0 .029-.051c0-.02.013-.035.034-.035.031 0 .136-.118.136-.154 0-.009.015-.018.034-.018.024 0 .043-.016.057-.057.023-.063.03-.063.13-.057.095.005.157-.025.205-.092.275-.225.548-.372.847-.51a.962.962 0 0 1 .153-.126c.082-.094.189-.137.295-.18l.052-.02c.081-.016.161-.047.24-.078l.067-.026c.08-.042.157-.096.233-.149a.502.502 0 0 1 .153-.057c.13-.026.285-.08.301-.103.008-.011.05-.025.097-.029a.648.648 0 0 0 .312-.092c.072-.044.09-.049.165-.04.074.01.095.002.142-.034.1-.078.211-.096.33-.114l.04-.007c.02.027.084.041.227.046.056.019.076-.01.1-.041.011-.016.024-.033.042-.045.052-.018.261-.027.278-.011.025.023.054.01.074-.029.023-.047.098-.065.17-.04a.793.793 0 0 0 .26-.087h.001c.039-.018.077-.036.114-.05.066-.04.077-.044.131-.023.084.033.285.013.38-.035.055-.042.136-.026.172-.02a.087.087 0 0 0 .016.003c0 .102.051.11.148.023a.814.814 0 0 0 .093-.084l.002-.002.001-.001.046-.045zm11.471 23.705c-.006-.016-.02-.029-.034-.029-.018 0-.032.025-.04.086l-.001.013c-.007.05-.017.128-.027.182v.003c-.02.099-.022.112.028.204.03.053.06.103.069.108.016.14.065.261.119.39.017.054.04.106.057.115.028.015.032.018 0 .04l.01.094.007.072c-.016.012-.029.033-.029.046 0 .036.115.19.142.19.013 0 .023.016.023.033.137.148.186.276.239.453-.005.124.019.187.102.27.034.043.058.094.082.145l.026.055c.02.026.028.05.023.058-.017.024.067.22.119.28.083.097.11.21.062.258-.031.033-.023.15.012.16.053.12.132.227.21.332l.012.016.04.054c.049.028.167.19.152.212-.006.01.001.04.018.063a8.3 8.3 0 0 1 .068.172c.047.07.047.116 0 .143-.042.024-.051.098-.012.098.028 0 .069.084.069.143 0 .089.063.205.176.31.12.11.13.128.142.275.035.072.05.147.064.22v.001c.007.032.013.063.021.094-.043.173-.042.174.006.209l.005.003c.035.025.05.056.057.103.009.059.002.074-.04.109-.038.032-.045.058-.045.115 0 .096-.043.211-.08.212a.117.117 0 0 0-.062.028c-.028.026-.027.033-.006.092a.42.42 0 0 0 .044.19c.01.025.022.052.03.08 0 .032-.012.043-.051.05a1.106 1.106 0 0 0-.114.03c-.06.02-.069.028-.062.091-.002.12-.047.172-.106.24a1.18 1.18 0 0 0-.065.081c.003.064.017.156.029.2.024.092 0 .138-.057.121-.042-.012-.13.054-.13.098-.059.04-.095.101-.13.16l-.035.057c-.01 0-.01.024 0 .052.014.047.026.13.022.178-.032.012-.068.032-.103.052l-.062.034c-.063.055-.065.062-.045.103.01.021.014.055.011.091.188-.115.395-.22.716-.171.025-.023.142-.036.227-.03.018.002.035.013.035.03 0 .016.015.042.034.063.011.027.024.054.037.082l.002.005.002.004.044.098c.023.028.032.064.023.2-.01.134-.01.172.011.172v.007c-.01.053-.065.373 1.097.51h.005a1.06 1.06 0 0 1 .17-.023c.06-.005.121-.01.182-.024a.501.501 0 0 1 .165-.04.471.471 0 0 0 .137-.023c.233-.015.466-.04.699-.065h.005l.005-.002.049-.005h.003l.182-.02c.17-.004.332-.006.358-.005.574.016.663.013.693-.017.017-.018.041-.028.062-.023.02.004.104 0 .188-.012.084-.011.218-.017.295-.017.135 0 .137-.004.168-.053l.003-.004a.636.636 0 0 1 .08-.098c.037-.038.045-.05.028-.08-.017-.029-.017-.042.005-.063a.17.17 0 0 0 .04-.069.475.475 0 0 0 .063-.1l.022-.043c.031 0 .043-.028.08-.252.02-.12.021-.163.006-.172-.027-.016-.052-.003-.052.028 0 .032-.055.032-.068 0a.318.318 0 0 0 .012-.125c0-.021-.002-.043 0-.064-.017-.075-.018-.103.005-.155l.013-.026c.012-.026.017-.038.014-.044-.004-.006-.014-.007-.034-.009h-.01c-.048-.006-.055-.008-.056-.092.043-.07.025-.094.004-.121a.117.117 0 0 1-.027-.057c0-.051.006-.065.045-.074.01-.01.004-.026 0-.041-.003-.008-.005-.016-.005-.023-.04-.007-.074-.106-.046-.131a.277.277 0 0 0 .004-.11.619.619 0 0 1-.004-.05c.006-.02.01-.13.011-.247.002-.193-.001-.216-.034-.241-.028-.022-.04-.055-.045-.15-.005-.074.004-.128.017-.142.02-.023.038-.196.04-.35a1.238 1.238 0 0 0-.062-.18c-.017-.041-.033-.081-.046-.124-.05-.02-.052-.069-.023-.206.009-.042.008-.082 0-.092a.781.781 0 0 1-.063-.24c0-.028-.015-.054-.028-.063-.03-.093-.011-.222.002-.315l.004-.03c-.023-.032-.028-.06-.017-.114a.517.517 0 0 0-.012-.298.395.395 0 0 1-.034-.109c-.061-.136-.071-.241-.081-.346a1.32 1.32 0 0 0-.027-.181.108.108 0 0 0 .017-.063c.029-.025.06-.072.076-.096l.01-.013c-.026-.036-.03-.051-.006-.132a.675.675 0 0 0 .028-.143c0-.044.01-.062.046-.075.025-.009.045-.02.045-.028 0-.026-.046-.038-.068-.018-.034.032-.068-.01-.045-.057.004-.07.012-.13.02-.188v-.001c.014-.105.028-.204.02-.344-.019-.074-.008-.092.033-.092.065 0 .002-.043-.073-.051-.1-.011-.125-.027-.125-.069 0-.03.03-.111.074-.19a.183.183 0 0 0 .017-.074c.047-.053.02-.129.007-.17a.108.108 0 0 1-.008-.024c-.02 0-.034-.009-.034-.023.034-.011.063-.038.089-.061.013-.012.025-.023.036-.031 0-.025-.005-.058-.017-.069-.016-.015-.02-.028-.005-.057a.653.653 0 0 0 .045-.2c.002-.015.018-.036.034-.047-.01-.04.01-.141.03-.249.01-.053.02-.108.027-.157-.017-.07-.003-.11.063-.15.025-.015.045-.035.045-.045 0-.03-.109-.11-.17-.12a7.988 7.988 0 0 1-.142-.03c-.2-.047-.38.055-.427.236-.035.154-.143.278-.176.2a.37.37 0 0 1 .023-.132c.068-.23.07-.335.011-.315a.287.287 0 0 1-.08.012c-.042.03-.08.09-.117.15l-.001.002-.035.054c-.015.012-.028.043-.028.075 0 .072-.077.128-.125.091-.028-.078.01-.2.03-.268l.01-.03c-.02-.031-.05-.044-.081-.057a.315.315 0 0 1-.05-.023c-.142-.052-.141-.011-.137.134v.1a.551.551 0 0 0-.056.179c0 .054-.007.062-.063.086-.077.032-.103.016-.102-.07a.66.66 0 0 1 .08-.246c.026-.024.009-.058-.034-.068-.073-.017-.167.075-.182.177-.015.099-.072.19-.12.19-.05 0-.063-.042-.034-.115.039-.098.07-.265.051-.281-.093.007-.17.072-.24.13a1.525 1.525 0 0 1-.05.042c-.05 0-.059-.026-.022-.08.029-.043.005-.089-.062-.11-.06-.017-.14.025-.165.087-.021.05-.052.04-.085-.023-.019-.035-.021-.05-.006-.063a.051.051 0 0 0 .017-.035c0-.02-.097-.066-.148-.068-.017-.001-.043-.018-.057-.035-.021-.027-.035-.03-.073-.011-.072.034-.108.073-.108.109 0 .027-.007.03-.052.023-.046.023-.088.022-.13.021l-.063.001a1.692 1.692 0 0 0-.109-.085 2.23 2.23 0 0 1-.061-.046c-.061-.018-.08-.018-.13.011-.096.054-.106.049-.092-.057.01-.078.008-.094-.017-.103-.019-.007-.04 0-.057.023a.107.107 0 0 1-.074.034c-.043 0-.087.039-.107.092-.009.021-.027.032-.063.028-.045-.005-.05-.014-.045-.063l.005-.057h-.147c-.113 0-.154.006-.154.023 0 .043-.055.133-.09.143-.056.016-.075-.004-.063-.069.008-.048.009-.063-.017-.063-.102-.056-.164-.03-.237 0l-.002.001a1.002 1.002 0 0 1-.057.022c-.013.05-.086.081-.199.086-.065.003-.08-.003-.085-.028-.004-.017.007-.041.023-.058.027-.028.023-.029-.068-.017-.054.007-.145.01-.2.011-.08.002-.1.008-.107.035-.019.067-.13.051-.13-.017 0-.026-.036-.03-.25-.04-.342-.018-.362-.016-.376.005-.02.032-.144-.003-.164-.046-.024-.048-.092-.047-.108 0-.01.028-.02.028-.04.012s-.025-.01-.034.011c-.016.039-.046.03-.046-.011 0-.046-.032-.041-.045.006-.007.023-.02.033-.029.023a.972.972 0 0 1-.085-.184zm-9.319 1.381l.012.007c.16.088.309.169.353.372.019.054.026.098.017.103-.032.018.003.04.085.051.025.02.054.037.082.053l.002.001c.06.034.118.068.132.124-.004.033-.01.103-.011.155-.002.09-.001.09.048.086h.003l.136.028v.012c.004.062.012.22.034.304a.199.199 0 0 1 .043.077c.019.052.034.093.15.066.06-.019.188.01.188.04 0 .009.016.027.04.046.036.03.064.088.096.2.003.01.044.028.091.04.072.063.145.107.216.15l.001.001.107.067.068.096.006.008.01.016c.073.129.117.205.28.23h.125l.13.212c.047 0 .157.113.17.178l.014.04c.02.059.038.117.05.177 0 .05.048.105.084.092a.935.935 0 0 0 .068.023h.004c.082.025.154.046.19.15.02.051.042.107.045.125l.045.033.004.003a.47.47 0 0 0 .093.062c.02.005.04.008.06.011.055.008.112.017.15.063l.053.041c.105.082.214.167.334.234a.389.389 0 0 0 .176.138l.052.037h.002c.074.051.147.101.162.198.084.127.185.222.29.32l.002.001c.077.072.156.146.23.235l.018.007c.066.03.246.109.119.096l-.01.004c-.027.01-.09.032-.007.076.125.115.254.215.403.292a.71.71 0 0 0 .057.022c.055.019.109.037.142.093.066.072.222.296.262.378.021.045.046.08.062.08a.766.766 0 0 1-.09.654h-.234a2.421 2.421 0 0 0-.152.012 1.384 1.384 0 0 1-.229.01 3.25 3.25 0 0 0-.5.012c-.125.008-.244.035-.244.058a2.328 2.328 0 0 1-.055.025l-.001.001a1.024 1.024 0 0 0-.137.071.456.456 0 0 1-.176.069 1.86 1.86 0 0 0-.347.074l-.004.003h-.001c-.097.048-.18.089-.262.158a.623.623 0 0 0-.05.027l-.024.013h-.017l.002-.01c0-.01.001-.019.004-.024-.1.035-.185-.036-.272-.11-.099-.082-.2-.167-.33-.102-.27.18-.376-.086-.42-.293-.056.018-.12.056-.19.096-.161.096-.353.208-.538.133-.14-.131-.308-.058-.482.018-.138.06-.28.122-.416.086a.569.569 0 0 1-.083-.112l-.001-.001c-.076-.116-.17-.26-.222-.15-.16.12-.178.01-.198-.12-.02-.126-.043-.27-.2-.242-.034.17-.248.303-.267.034-.059-.067-.108-.093-.148-.091-.068.003-.114.085-.162.168a.49.49 0 0 1-.116.158c-.098.1-.236.083-.367.067-.165-.02-.32-.04-.366.18-.066.238-.447.29-.625.218-.022-.434-.338-.232-.576-.08a3.54 3.54 0 0 1-.089.057c-.13.162-.32.106-.503.052-.109-.032-.215-.063-.304-.047a.833.833 0 0 0-.137-.032h-.001c-.136-.025-.264-.049-.203-.22.189-.139-.044-.546-.181-.28-.098.019-.112.06-.124.097-.012.034-.022.066-.098.074-.147.132-.158.033-.171-.084-.014-.124-.03-.269-.21-.19-.098.358-.554.408-.903.395-.11.01-.215.039-.322.067-.167.045-.334.09-.513.064-.02 0-.03.01-.04.018l-.221.005a.15.15 0 0 1 .113-.028c.05-.001.101-.012.114-.023l.006-.046c.006-.053.013-.113.04-.143.015 0 .035-.022.045-.046.016-.04.023-.043.085-.035.026-.012.05-.022.073-.03l.003-.001c.086-.034.153-.06.208-.21-.008-.068.027-.083.159-.08.1.003.125-.002.142-.028.01-.015.021-.028.033-.04.022-.025.043-.049.052-.08 0-.013.063-.053.137-.087.176-.08.176-.085.176-.17v-.002c.01-.011.017-.028.025-.046.017-.04.037-.084.094-.091.008-.011.077-.022.16-.029.133-.01.149-.015.164-.051.009-.01.019-.018.029-.026.02-.017.04-.033.045-.06 0-.069.022-.092.074-.092.041 0 .053-.013.09-.092.022-.013.04-.03.057-.047.036-.037.072-.073.148-.062.043-.02.048-.042.068-.183.007-.047.023-.091.034-.097h.076c.068 0 .135 0 .203-.006.026-.018.087-.223.085-.287l.041-.043.005-.005c.099-.104.186-.197.346-.198.03.01.056.013.057.011 0-.002.021-.06.04-.131a.833.833 0 0 0-.003-.056c-.006-.088-.014-.212.054-.168.157.02.207-.003.29-.12a.587.587 0 0 1 .096-.115c.031-.026.056-.05.077-.07.064-.063.1-.098.218-.085.08.005.086 0 .097-.04a.334.334 0 0 0 .001-.037c0-.025 0-.048.01-.072.019-.031.023-.03.08-.008l.006.003c.11.042.122.036.108-.052a1.195 1.195 0 0 0-.046-.178c-.065-.179-.044-.226.091-.183.067.021.078.02.108-.012a.131.131 0 0 0 .024-.06c.008-.038.014-.071.078-.06.098-.013.106-.021.114-.115.005-.06.017-.078.085-.12a1.07 1.07 0 0 1 .21-.143c.086-.017.095-.02.091-.063a.421.421 0 0 0-.026-.056c-.017-.031-.034-.063-.036-.099l.027-.028c.143-.145.314-.32.365-.54.01-.101.032-.12.13-.114.086.006.106-.019.125-.166.02-.144.06-.23.12-.258a.232.232 0 0 1 .074-.023c.014 0 .031-.04.045-.097l.026-.053c.037-.074.073-.147.088-.228a.088.088 0 0 0 .027-.022c.029-.029.07-.07.12-.024v-.075c0-.123.038-.192.12-.206.132-.091.238-.203.348-.32l.055-.058.022-.022.002-.001a.148.148 0 0 0 .039-.046l.061.034zm29.042 1.562l-.041-.003c-.066.004-.089.027-.109.075l-.046.032-.152.105a.939.939 0 0 0-.222.098.19.19 0 0 0-.114.034c-.043.034-.053.056-.062.167a.75.75 0 0 1-.017.131 2.324 2.324 0 0 1-.13-.047l-.058-.022c-.103.006-.193.09-.193.178-.023.03-.047.055-.072.08-.04.042-.082.085-.127.155-.025.08-.086.107-.158.138a.555.555 0 0 0-.16.091.528.528 0 0 1-.17.138c-.058.021-.073.04-.091.097-.05.113-.145.153-.247.196-.04.017-.082.034-.122.057-.016-.064-.065-.06-.118-.054-.023.003-.048.005-.07.002-.063-.022-.115.014-.13.097-.008.039-.023.077-.035.08a1.18 1.18 0 0 1-.159.024c-.013 0-.048.051-.08.114-.024.083-.073.13-.123.177a.916.916 0 0 0-.052.052c-.024.099-.06.132-.154.138h-.008c-.075.005-.079.005-.094.063-.015.056-.02.064-.063.057-.075-.012-.101.015-.113.132l-.012.109-.159.017c-.18.02-.23.047-.21.126.03.118.03.203 0 .287a2.254 2.254 0 0 1-.273.258.571.571 0 0 1-.085-.046c-.057.009-.085-.028-.107-.055a.11.11 0 0 0-.023-.025c0-.05-.01-.066-.046-.08-.073-.03-.105-.01-.09.057.008.043-.001.06-.024.069.008.008.04.05.067.086l.03.04c-.003.028-.004.054-.005.072v.02l-.092.034c-.086-.043-.18.02-.228.052-.013.009-.022.015-.027.016.016.04-.028.164-.074.207a.202.202 0 0 0-.057.12.317.317 0 0 1-.034.115c-.069.026-.137-.046-.197-.11a1.455 1.455 0 0 0-.03-.034c-.038 0-.063.032-.063.092 0 .053-.106.158-.176.172-.069.014-.122.062-.125.115a.285.285 0 0 1-.084.091.652.652 0 0 0-.047.04.358.358 0 0 1-.21.155c-.069.019-.074.032-.085.086-.017.086-.05.131-.102.155-.031.014-.04.04-.046.086l.034-.011.086.04.164.166.2.097.101-.206.142-.097.108.246.017.183.381-.303.227-.201.137.029.04.252.01.178.04.108.2-.045.085-.075.187-.206.193-.115.137.086.08.12.09.012.097-.063.261-.344.142.063.074.2.074.195.511.058h.154l.096-.103.046.16.05.355.62-.051.176-.344.137-.08.153.057.13.069.28-.264.118.178.142.103.194-.063.164.063.188.206.261.12.256-.074.182.115.08-.046.113-.138.034-.068.233.051.199.293.204-.018.148-.103.182.132.165.12h.08l.09-.074.21-.103.086.074.034.052.034.063.284-.023.227.092c.084.114.104.124.153.137.039.01.056.006.08-.029.04-.056.1-.042.165.04l.045.064 1.42.097c.338-.3.26-.216.035 0l.227.017.006-.002a.11.11 0 0 0 .028-.015c.094-.032.183-.079.271-.125l.036-.018a.207.207 0 0 1 .09-.045.387.387 0 0 0 .052-.018c.071-.034.15-.047.228-.059l.062-.01c.045-.01.145-.026.221-.034.076-.009.162-.024.193-.035.032-.01.139-.02.24-.023.183-.005.238-.01.488-.04.174-.02.199-.031.233-.092.024-.043.04-.051.119-.051.086 0 .148-.03.148-.075 0-.033.12-.16.153-.16.02 0 .029-.014.029-.035.06-.055.075-.122.092-.197l.01-.043v-.298l-.017-.015c-.05-.048-.052-.049-.069-.014-.025.056-.043.033-.063.007-.011-.015-.024-.031-.039-.036-.041-.027-.04-.072-.038-.108 0-.016.001-.03-.001-.04a.119.119 0 0 1-.069-.035c-.018-.018-.037-.033-.045-.029-.014.008-.084-.085-.114-.149-.007-.016-.022-.028-.034-.028a.071.071 0 0 1-.045-.023c-.116-.08-.228-.107-.34-.134-.076-.019-.152-.037-.228-.073a.573.573 0 0 1-.131-.034c-.042-.02-.063-.023-.114-.006-.067.023-.12.003-.12-.045 0-.03-.17-.034-.226-.006-.029.014-.045.012-.069-.006a.246.246 0 0 0-.062-.034.44.44 0 0 0-.21.04c-.031.014-.066.017-.142 0a1.086 1.086 0 0 0-.279-.012c-.165.01-.179.008-.187-.023a.386.386 0 0 0-.159-.059l-.04-.01a.233.233 0 0 0-.16-.022l-.081-.029c-.108-.038-.195-.069-.344-.052a.434.434 0 0 0-.114-.057 1.344 1.344 0 0 1-.166-.096l-.038-.024-.319-.052-.028-.074c-.032-.08-.08-.108-.188-.126-.052-.01-.068-.006-.096.023-.126.058-.233.005-.345-.05-.025-.013-.05-.025-.076-.036-.053-.053-.054-.066-.045-.15.008-.07.005-.09-.017-.097-.04-.014-.074.024-.074.086 0 .048-.009.05-.057.052-.08.002-.196-.021-.233-.052a.11.11 0 0 1-.034-.069c0-.02-.014-.05-.028-.069-.025-.03-.027-.029-.069.007l-.005.005c-.045.04-.05.037-.106.012h-.002c-.055-.012-.106-.034-.157-.055l-.065-.026c-.018-.017-.037-.034-.045-.034s-.032-.04-.051-.092c-.054-.145-.205-.232-.244-.137-.011.026-.034.045-.057.045-.034-.01-.043-.052-.053-.093a.3.3 0 0 0-.015-.056 1.304 1.304 0 0 1-.063-.068c-.094-.018-.13-.078-.166-.14-.013-.022-.027-.045-.044-.067-.07.009-.188-.015-.259-.03a.646.646 0 0 0-.054-.01 1.041 1.041 0 0 0-.059-.154l-.02-.046a.295.295 0 0 0-.077-.082l-.026-.022c-.012.01-.064.01-.107.006-.087-.008-.114-.04-.114-.137-.008-.033-.023-.06-.037-.088l-.014-.027c0-.026-.022-.056-.046-.075-.026-.187-.112-.225-.269-.296l-.003-.002c-.024-.026-.05-.124-.063-.229.008-.067.01-.157.011-.195v-.017c-.043-.117-.108-.068-.157-.032-.02.015-.036.027-.047.026-.042 0-.067-.047-.08-.149.007-.068.013-.103.018-.133l.005-.027-.042-.067a3.064 3.064 0 0 0-.049-.076c-.046-.013-.07-.038-.108-.12-.024-.054-.053-.11-.066-.134l-.002-.004c-.026-.05-.02-.192.011-.27.034-.086-.006-.111-.17-.12a.757.757 0 0 1-.038-.003z"/>
</symbol><symbol id="icon-mastercard" viewBox="0 0 27.319 16.172">
    <path fill="currentColor" d="M27.319 8.086A8.086 8.086 0 0 0 19.233 0a8.006 8.006 0 0 0-5.094 1.815 8.72 8.72 0 0 1 2.308 3.761h-.672a8.073 8.073 0 0 0-2.122-3.343 8.087 8.087 0 0 0-2.108 3.339h-.672a8.728 8.728 0 0 1 2.284-3.752C11.768.696 10.013 0 8.086 0a8.086 8.086 0 0 0 0 16.172c1.927 0 3.682-.696 5.071-1.821a8.717 8.717 0 0 1-2.284-3.752h.672a8.087 8.087 0 0 0 2.108 3.339 8.056 8.056 0 0 0 2.122-3.343h.672a8.708 8.708 0 0 1-2.308 3.761 8.006 8.006 0 0 0 5.094 1.815 8.085 8.085 0 0 0 8.086-8.085z"/>
    <path d="M25.524 7.334c-.041-.03-.077-.068-.115-.108-.109-.115-.235-.246-.521-.246h-.074c-.448-.004-1.095-.011-1.47 1.273-.265.906.271 1.731.855 1.731.271-.01.542-.125.709-.24l.105.24h.876l.709-3.796h-.855l-.219 1.146zm-7.562-.272c.271 0 .417.021.626.146l.532-.532c-.208-.23-.449-.455-1.116-.48-.563-.021-1.528.39-1.836 1.512-.417 1.523.5 2.274 1.345 2.274.448 0 .72-.062.991-.188l-.24-.73c-.834.281-1.429-.146-1.293-1.012.114-.73.719-.99.991-.99zm-7.406-.834h.814l-.167.793h.438l-.146.647h-.417l-.229 1.21c-.042.23-.021.438.449.365l-.052.605c-.177.115-.417.146-.605.146s-.803-.115-.646-.928l.561-2.838zM21.375 9.98l.558-2.992h.706l.074.295c.126-.148.369-.295.779-.295l-.221.779h-.031c-.207-.003-.56-.007-.79.843l-.253 1.37h-.822zm-8.409-3.001c1.429 0 1.21 1.189 1.116 1.669h-1.773c-.091.659.398.658.723.657h.028c.323 0 .793-.042.918-.073l-.125.615c-.198.104-.699.146-1.043.136-1.408 0-1.387-1.324-1.356-1.512l.003-.02c.039-.247.234-1.472 1.509-1.472zm-3.182.709l.188-.605c-.337-.128-.61-.12-.751-.116l-.052.001h-.006c-.137 0-1.088-.001-1.236.709-.114.554.088.783.282.867.205.089.351.173.475.244l.003.002c.064.037.123.07.179.099.206.103.168.448-.104.448l-.096.004h-.003c-.209.011-.638.034-.975-.078l-.115.616c.375.104.678.104.96.104h.031c.252.003 1.143.012 1.272-.845.066-.437-.125-.636-.282-.73a4.715 4.715 0 0 0-.584-.324c-.166-.072-.291-.354.011-.437.188-.021.574-.021.803.041zM5.185 6.374l-.678 3.609h-.845l.48-2.545-1.138 2.545h-.771l-.219-2.608-.501 2.608H.699l.699-3.609h1.303l.157 2.19.991-2.19h1.336zm.219.699l-.126.647.197-.024c.247-.032.602-.078.815-.07l.081.002c.257.005.504.01.419.415-.026.003-.073.001-.136-.001-.426-.013-1.561-.047-1.761 1.044-.094.616.438.928.855.908.417-.021.532-.074.678-.178l.104.167h.761l.323-1.627c.083-.407.219-1.387-1.147-1.387l-.13.004c-.222.006-.491.013-.933.1zm13.642.647l.125-.647c.442-.087.711-.094.933-.1l.131-.004c1.366 0 1.231.981 1.148 1.387l-.324 1.627h-.761l-.104-.167c-.146.104-.26.157-.678.178-.417.021-.949-.292-.855-.908.2-1.091 1.335-1.056 1.761-1.043.063.002.11.003.137.001.085-.406-.163-.41-.419-.415l-.081-.002c-.213-.008-.569.038-.815.07l-.198.023z"/>
    <path fill="currentColor" d="M13.372 8.106H12.36c.094-.376.323-.542.647-.542.324-.001.418.25.365.542zm-6.768.533l.051.009-.062.323c-.053.272-.438.445-.699.345-.271-.105-.198-.418.062-.595.232-.158.498-.11.648-.082zm18.628-.085c.083-.271.038-.61-.052-.73-.25-.334-.826-.07-1.001.584-.115.427.136.751.417.751.302 0 .49-.24.636-.605zm-4.859.085l.051.009-.063.323c-.052.272-.438.445-.698.345-.271-.105-.198-.417.063-.595.231-.158.495-.11.647-.082z"/>
    <path d="M14.105 9.983l.553-2.962h.699l.073.292c.125-.146.365-.292.772-.292l-.209.782c-.198 0-.584-.062-.824.824l-.25 1.356h-.814z"/>
</symbol><symbol id="icon-paper-plane" viewBox="0 0 30 31">
    <path fill-rule="evenodd" clip-rule="evenodd" d="M28.768.588a.583.583 0 0 0-.22.074L.312 15.956a.586.586 0 0 0-.305.563c.02.232.177.43.397.503l8.015 2.629-.772 7.94a.585.585 0 0 0 .35.61.578.578 0 0 0 .68-.168l5.055-5.717 7.628 7.519a.581.581 0 0 0 .975-.276l7.058-28.235a.582.582 0 0 0-.625-.736zm-.845 1.728l-6.49 25.956-6.966-6.875L24.596 7.408a.585.585 0 1 0-.846-.809L8.952 18.585 2.06 16.342 27.923 2.316zM13.327 21.011l7.72-10.717L9.615 19.54l-.625 6.36 4.21-4.724c.011-.018.022-.036.036-.055l.037-.036a.558.558 0 0 1 .055-.074z"/>
</symbol><symbol id="icon-quality" viewBox="0 0 50 46">
    <path d="M10.98 45.348c-.196 0-.392-.096-.588-.191-.294-.19-.49-.667-.392-1.048l4.314-15.624L1.373 18.291c-.393-.19-.49-.666-.393-1.047.098-.382.49-.667.883-.667l16.666-.858L24.51.572c.197-.286.589-.572.981-.572s.785.286.883.572l5.98 15.147 16.667.858c.392 0 .784.285.882.666.098.382 0 .763-.294 1.049L36.667 28.484 40.98 44.11c.098.381 0 .762-.392 1.048-.294.19-.784.286-1.078 0l-14.02-8.765-14.02 8.765c-.195.19-.294.19-.49.19z"/>
</symbol><symbol id="icon-reminder" viewBox="0 0 19 30">
    <path d="M13.469 0c-.574 0-1.172.198-1.645.612-.474.414-.804 1.062-.804 1.837v.249c-.294-.134-.574-.249-.918-.249a2.151 2.151 0 0 0-2.143 2.143c0 1.177.966 2.143 2.143 2.143.351 0 .671-.102 1.041-.22l.03-.01c.383-.122.789-.263 1.167-.421.421-.175.745-.332.981-.446l.148-.071.105.05.013.006.031.015a14.434 14.434 0 0 0 2.147.866l.03.01c.37.118.69.22 1.041.22a2.151 2.151 0 0 0 2.143-2.143 2.151 2.151 0 0 0-2.143-2.143c-.344 0-.624.115-.918.249v-.305a2.36 2.36 0 0 0-.823-1.798A2.494 2.494 0 0 0 13.469 0zm0 1.224c.282 0 .612.11.842.306.23.196.383.452.383.861v.957a16.06 16.06 0 0 0-.191.115c-.402.25-.729.477-.981.652l-.052.036-.052-.036a22.24 22.24 0 0 0-.981-.652 16.06 16.06 0 0 0-.191-.115v-.899c0-.45.153-.72.383-.918.228-.199.558-.307.84-.307zm-3.355 2.453l-.012-.004c-.536 0-.918.383-.918.918 0 .536.383.918.918.918.069 0 .378-.045.708-.153.246-.08.511-.192.778-.306l.013-.006.261-.11a5.27 5.27 0 0 0 .206-.09l.002-.001.002-.001c.034-.016.072-.034.135-.061-.079-.052-.125-.086-.169-.118l-.002-.001a3.074 3.074 0 0 0-.25-.168 11.844 11.844 0 0 0-1.071-.593c-.282-.134-.542-.207-.601-.224zm6.723-.004c.536 0 .918.383.918.918 0 .536-.383.918-.918.918-.069 0-.378-.045-.708-.153a9.722 9.722 0 0 1-.778-.306l-.013-.006a29.018 29.018 0 0 0-.261-.11 3.61 3.61 0 0 1-.207-.091l-.002-.001c-.034-.016-.072-.034-.135-.061.079-.052.126-.086.169-.118l.002-.001a3.27 3.27 0 0 1 .25-.168 11.72 11.72 0 0 1 1.072-.593c.282-.136.542-.209.6-.226.007 0 .011-.002.011-.002zM11.02 7.347l1.224-.497v6.62c0 .368-.244.612-.612.612s-.612-.244-.612-.612v-2.45c0-.49-.306-1.224-1.224-1.224-.918 0-1.224.734-1.224 1.224v1.837c0 .368-.244.612-.612.612s-.612-.244-.612-.612v-1.224c0-.55-.184-1.224-1.224-1.224-.612 0-1.224.122-1.224 1.837v1.225c0 .368-.244.612-.612.612s-.612-.244-.612-.612c0-1.593-.612-1.837-1.224-1.837s-1.224.244-1.224 1.837v11.02a4.26 4.26 0 0 0 4.286 4.286h5.568a4.3 4.3 0 0 0 3.865-2.392l1.703-3.425c.184-.368.555-1.339.555-2.258 0-2.449-1.889-3.004-1.952-3.004-.244-.062-.497-.306-.497-.612V6.849l1.224.497v9.375c1.04.428 2.449 1.65 2.449 4.037 0 1.214-.451 2.287-.616 2.679-.026.063-.045.108-.054.133l-1.779 3.367A5.422 5.422 0 0 1 11.078 30H5.51A5.487 5.487 0 0 1 0 24.49V13.47c0-2.693 1.531-3.061 2.449-3.061.428 0 .926.053 1.416.421.428-1.346 1.401-1.645 2.258-1.645.674 0 1.22.191 1.588.497.428-.674 1.105-1.11 2.085-1.11.49 0 .856.122 1.224.306V7.347z"/>
</symbol><symbol id="icon-sustainability" viewBox="0 0 52 51">
    <path fill-rule="evenodd" clip-rule="evenodd" d="M21.756.792c.217-.25.53-.39.861-.387.15 0 .3.031.438.093 15.954 6.84 15.477 17.505 11.617 20.973-1.496 1.344-3.086 1.713-4.358 1.458a3.964 3.964 0 0 1-1.382-.575c-.362 1.989-.967 4.14-1.872 6.546a1.137 1.137 0 0 1-1.956.347c-.26-.32-.323-.76-.164-1.137.75-1.98 1.28-3.732 1.638-5.348l-.03.013a1.697 1.697 0 0 1-.195.07c-1.157.33-2.517.51-3.92.396-1.4-.11-2.854-.527-4.072-1.458-1.219-.926-2.155-2.384-2.517-4.312-.782-4.219 1.002-7.424 2.72-9.9.255-.37.509-.728.754-1.073h.001v-.002c.579-.812 1.108-1.558 1.492-2.244.552-.975.79-1.774.68-2.565-.048-.32.05-.65.265-.895zm11.397 19.01c1.988-1.782 3.864-10.075-9.555-16.499a7.896 7.896 0 0 1-.813 2.046c-.482.858-1.07 1.679-1.665 2.508l-.002.002v.001c-.233.325-.467.65-.695.98-1.63 2.353-2.999 4.777-2.354 8.219.27 1.47.883 2.344 1.665 2.941.786.597 1.801.914 2.879 1.001a9.223 9.223 0 0 0 3.122-.316 5.38 5.38 0 0 0 1.29-.553c.467-4.206-.429-7.486-2.067-11.428a1.102 1.102 0 0 1 .088-1.059c.208-.316.56-.509.936-.513.468 0 .888.28 1.06.711 1.66 3.982 2.605 7.653 2.221 12.11.49.346.994.67 1.497.772.618.123 1.28.079 2.393-.922zm-29.762-9.28c-.94 0-1.753.434-2.353 1.031C.438 12.15 0 12.958 0 13.893v14.691c0 2.099.238 3.425.733 4.452.402.827.92 1.37 1.432 1.904.125.13.248.26.37.392.843 1 4.56 5.429 6.883 8.194l.173.207 1.713 2.04v4.088a1.13 1.13 0 0 0 1.7.987 1.13 1.13 0 0 0 .561-.987v-4.496c0-.264-.092-.518-.265-.72 0 0-7.833-9.335-9.065-10.792a.118.118 0 0 0-.016-.018l-.015-.017a40.72 40.72 0 0 0-.41-.442c-.472-.5-.794-.844-1.02-1.319-.292-.597-.513-1.545-.513-3.473v-14.69c0-.19.128-.506.375-.751.247-.246.565-.374.755-.374.19 0 .508.128.755.374.248.245.376.561.376.75v13.488c0 .299.119.584.33.795l1.11 1.102c.066.851.507 1.629 1.152 2.27l.454.447.031.031c1.223 1.205 4.365 4.3 6.289 6.257a1.13 1.13 0 0 0 1.095.316 1.118 1.118 0 0 0 .52-1.888c-1.988-2.021-5.274-5.259-6.406-6.374l-.005-.004-.38-.375c-.432-.43-.516-.702-.516-.891 0-.189.084-.46.516-.891.433-.43.707-.514.897-.514.19 0 .463.083.896.514l.842.836c1.74 1.726 5.486 5.445 5.932 5.899l.018.017c2.265 2.204 3.05 4.228 3.05 8.189v6.744a1.13 1.13 0 1 0 2.262 0v-6.744c0-4.303-1.113-7.249-3.732-9.796-.55-.557-4.215-4.195-5.93-5.897l-.039-.039-.804-.799c-.698-.693-1.555-1.172-2.495-1.172-.94 0-1.798.479-2.495 1.172-.11.11-.208.233-.305.356l-.026-.026V13.893c0-.935-.438-1.743-1.038-2.34-.6-.597-1.413-1.032-2.354-1.032zm42.864 1.031c.6-.597 1.413-1.032 2.354-1.032.94 0 1.753.435 2.353 1.032.601.597 1.038 1.405 1.038 2.34v14.691c0 2.099-.238 3.425-.737 4.452-.397.823-.912 1.365-1.42 1.898-.125.132-.25.263-.373.398-.95 1.123-5.513 6.558-7.666 9.122l-1.108 1.32v4.087a1.13 1.13 0 0 1-1.7.987 1.13 1.13 0 0 1-.561-.987v-4.496c0-.264.093-.518.265-.72 0 0 7.833-9.335 9.066-10.792a.118.118 0 0 1 .015-.018 40.936 40.936 0 0 1 .426-.459c.47-.5.794-.844 1.02-1.319.292-.597.512-1.545.512-3.473v-14.69c0-.19-.128-.506-.375-.751-.247-.246-.565-.374-.755-.374-.19 0-.508.128-.755.374-.248.245-.376.561-.376.75v13.488c0 .299-.119.584-.33.795l-1.11 1.102c-.065.851-.507 1.629-1.152 2.27l-.485.478c-1.222 1.205-4.364 4.3-6.288 6.257a1.13 1.13 0 0 1-1.096.316 1.118 1.118 0 0 1-.52-1.888c1.99-2.024 5.283-5.267 6.411-6.378.206-.203.34-.334.38-.375.433-.43.517-.702.517-.891 0-.189-.084-.46-.517-.891-.433-.43-.707-.514-.896-.514-.19 0-.464.083-.897.514l-.842.836a2322.091 2322.091 0 0 0-5.932 5.899l-.017.017c-2.266 2.204-3.052 4.228-3.052 8.189v6.744a1.13 1.13 0 1 1-2.26 0v-6.744c0-4.303 1.112-7.249 3.73-9.796.555-.561 4.273-4.252 5.97-5.936l.805-.799c.697-.693 1.554-1.172 2.495-1.172.94 0 1.797.479 2.494 1.172.094.093.177.195.262.299l.047.057.023-.026V13.893c0-.935.437-1.743 1.037-2.34z"/>
</symbol><symbol id="icon-transparency" viewBox="0 0 50 50">
    <path fill-rule="evenodd" clip-rule="evenodd" d="M0 19.203C0 8.587 8.84 0 19.767 0c10.929 0 19.768 8.587 19.768 19.203 0 4.382-1.535 8.384-4.07 11.614l14.099 13.661-4.942 4.8-14.28-13.872a20.058 20.058 0 0 1-10.575 3C8.84 38.406 0 29.82 0 19.203zm34.884 0c0-8.132-6.745-14.685-15.117-14.685-8.37 0-15.116 6.553-15.116 14.685 0 8.132 6.745 14.685 15.116 14.685 8.372 0 15.117-6.553 15.117-14.685z"/>
</symbol><symbol id="icon-truck" viewBox="0 0 30 30">
    <path fill-rule="evenodd" clip-rule="evenodd" d="M1.706 7C.771 7 0 7.771 0 8.706V24.4c0 .996.804 1.8 1.8 1.8h2.456a3.6 3.6 0 0 0 3.544 3 3.6 3.6 0 0 0 3.544-3h5.55c.443 0 .839-.188 1.144-.469.311.274.71.464 1.162.469h.656a3.6 3.6 0 0 0 3.544 3c1.98 0 3.6-1.62 3.6-3.6v.6h1.2c.996 0 1.8-.804 1.8-1.8v-5.775c0-1.373-.956-2.587-.956-2.587h-.019l-2.475-3.3v-.02l-.019-.018c-.553-.668-1.383-1.5-2.531-1.5h-4.8c-.213 0-.41.045-.6.112V8.744C18.6 7.823 17.873 7 16.912 7H1.707zM27 25.6c0-1.98-1.62-3.6-3.6-3.6a3.6 3.6 0 0 0-3.544 3H19.2c-.113 0-.284-.077-.412-.206a.597.597 0 0 1-.188-.394V13c0-.225.375-.6.6-.6H24c.471 0 1.134.504 1.594 1.05a.046.046 0 0 0 .01.01.045.045 0 0 1 .009.009l.093.131H22.8c-.956 0-1.8.773-1.8 1.8v2.4c0 .5.225.938.544 1.256.319.319.757.544 1.256.544h6v4.8c0 .225-.375.6-.6.6H27v.6zM1.706 8.2h15.207c.257 0 .487.248.487.544v15.75a.503.503 0 0 1-.506.506h-5.55A3.6 3.6 0 0 0 7.8 22a3.6 3.6 0 0 0-3.544 3H1.8c-.225 0-.6-.377-.6-.6V8.706c0-.281.22-.506.506-.506zm24.9 6.6H22.8c-.244 0-.6.298-.6.6v2.4c0 .1.075.263.206.394.132.131.293.206.394.206h5.925c-.113-.72-.656-1.65-.656-1.65l-1.463-1.95zM7.8 23.2a2.39 2.39 0 0 1 2.4 2.4A2.39 2.39 0 0 1 7.8 28a2.39 2.39 0 0 1-2.4-2.4 2.39 2.39 0 0 1 2.4-2.4zm18 2.4a2.39 2.39 0 0 0-2.4-2.4 2.39 2.39 0 0 0-2.4 2.4 2.39 2.39 0 0 0 2.4 2.4 2.39 2.39 0 0 0 2.4-2.4z"/>
</symbol><symbol id="icon-vegan" viewBox="0 0 50 49">
    <path fill-rule="evenodd" clip-rule="evenodd" d="M8.38 1.437c.183-.175.422-.289.675-.315.347-.027.688.1.924.35 0 0 5.761 5.793 6.853 12.34.63 3.781-.408 7.02-1.704 9.36a17.009 17.009 0 0 1-1.953 2.839c-.613.71-1.101 1.139-1.456 1.402-.32.293-.781.381-1.185.228a1.118 1.118 0 0 1-.165-2.016c.058-.044.542-.482 1.066-1.087a14.553 14.553 0 0 0 1.704-2.453c1.123-2.025 1.989-4.733 1.456-7.923-.781-4.68-4.332-8.842-5.469-10.13-1.291 1.331-6.853 7.304-6.853 14.407 0 3.637 1.074 6.967 3.87 9.5-.033-.14-.07-.276-.106-.411-.049-.185-.099-.37-.142-.57-.901-4.128-1.279-9.04 1.42-14.9a1.135 1.135 0 0 1 1.03-.7c.395-.005.76.197.968.521.213.329.235.74.062 1.091-2.468 5.364-2.135 9.623-1.278 13.532.219 1 .48 1.976.738 2.936.748 2.792 1.46 5.453 1.002 8.21-.031.421-.302.79-.697.952a1.148 1.148 0 0 1-1.177-.184 1.113 1.113 0 0 1-.364-1.118c.293-1.761-.097-3.75-.639-5.959C1.962 28.28 0 23.403 0 18.439 0 9.127 8.38 1.437 8.38 1.437zm18.68 18.965c.808-.088 1.598-.14 2.379-.14 11.714-.005 20.241 9.079 20.241 9.079.32.342.391.846.178 1.262 0 0-6.982 13.64-21.13 15.179-7.297.793-13.458-2.524-13.458-2.524a1.123 1.123 0 0 1-.724-.964c-.03-.434.191-.846.573-1.06a1.16 1.16 0 0 1 1.216.06s5.673 2.98 12.145 2.28c11.586-1.258 17.822-11.328 18.928-13.252-1.545-1.485-9.637-8.798-20.1-7.677-7.875.846-10.937 4.746-12.287 8.554-.808 2.278-.919 4.4-.888 5.819a33.166 33.166 0 0 1 7.777-5.048c3.773-1.757 7.937-2.34 11.151-2.489 3.214-.149 5.504.14 5.504.14.44 0 .84.25 1.026.645.19.394.128.858-.151 1.191-.28.338-.733.482-1.159.373 0 0-8.696-.955-15.412 2.173-9.845 4.584-13.885 12.795-13.885 12.795a1.132 1.132 0 0 1-.95.75 1.141 1.141 0 0 1-1.096-.53 1.119 1.119 0 0 1 .022-1.201s1.558-3.168 5.043-6.766v-.035s-.67-4.15.888-8.553c1.558-4.404 5.57-9.14 14.169-10.061z"/>
</symbol></svg>