<?xml version="1.0" encoding="UTF-8"?><!DOCTYPE svg PUBLIC "-//W3C//DTD SVG 1.1//EN" "http://www.w3.org/Graphics/SVG/1.1/DTD/svg11.dtd"><svg xmlns="http://www.w3.org/2000/svg"><symbol id="icon-lock" viewBox="0 0 24 30">
    <path fill-rule="evenodd" clip-rule="evenodd" d="M12 .131c-4.3 0-7.8 3.5-7.8 7.8V11.4H1.8c-.987 0-1.8.813-1.8 1.8v14.4c0 .987.813 1.8 1.8 1.8h20.4c.987 0 1.8-.813 1.8-1.8V13.2c0-.987-.813-1.8-1.8-1.8h-2.4V7.931c0-4.3-3.5-7.8-7.8-7.8zm0 1.2c3.654 0 6.6 2.946 6.6 6.6v3.47H5.4V7.93c0-3.654 2.946-6.6 6.6-6.6zm10.8 11.87c0-.338-.263-.6-.6-.6H1.8c-.338 0-.6.262-.6.6v14.4c0 .336.262.6.6.6h20.4c.337 0 .6-.264.6-.6V13.2zm-18 6a1.2 1.2 0 1 0-.001 2.398A1.2 1.2 0 0 0 4.8 19.2zm3.6 1.2a1.2 1.2 0 1 1 2.398-.002A1.2 1.2 0 0 1 8.4 20.4zm6-1.2a1.2 1.2 0 1 0-.001 2.397 1.2 1.2 0 0 0 0-2.398zm3.6 1.2a1.2 1.2 0 1 1 2.398-.003A1.2 1.2 0 0 1 18 20.4z"/>
</symbol><symbol id="icon-paper-plane" viewBox="0 0 30 31">
    <path fill-rule="evenodd" clip-rule="evenodd" d="M28.768.588a.583.583 0 0 0-.22.074L.312 15.956a.586.586 0 0 0-.305.563c.02.232.177.43.397.503l8.015 2.629-.772 7.94a.585.585 0 0 0 .35.61.578.578 0 0 0 .68-.168l5.055-5.717 7.628 7.519a.581.581 0 0 0 .975-.276l7.058-28.235a.582.582 0 0 0-.625-.736zm-.845 1.728l-6.49 25.956-6.966-6.875L24.596 7.408a.585.585 0 1 0-.846-.809L8.952 18.585 2.06 16.342 27.923 2.316zM13.327 21.011l7.72-10.717L9.615 19.54l-.625 6.36 4.21-4.724c.011-.018.022-.036.036-.055l.037-.036a.558.558 0 0 1 .055-.074z"/>
</symbol><symbol id="icon-truck" viewBox="0 0 30 30">
    <path fill-rule="evenodd" clip-rule="evenodd" d="M1.706 7C.771 7 0 7.771 0 8.706V24.4c0 .996.804 1.8 1.8 1.8h2.456a3.6 3.6 0 0 0 3.544 3 3.6 3.6 0 0 0 3.544-3h5.55c.443 0 .839-.188 1.144-.469.311.274.71.464 1.162.469h.656a3.6 3.6 0 0 0 3.544 3c1.98 0 3.6-1.62 3.6-3.6v.6h1.2c.996 0 1.8-.804 1.8-1.8v-5.775c0-1.373-.956-2.587-.956-2.587h-.019l-2.475-3.3v-.02l-.019-.018c-.553-.668-1.383-1.5-2.531-1.5h-4.8c-.213 0-.41.045-.6.112V8.744C18.6 7.823 17.873 7 16.912 7H1.707zM27 25.6c0-1.98-1.62-3.6-3.6-3.6a3.6 3.6 0 0 0-3.544 3H19.2c-.113 0-.284-.077-.412-.206a.597.597 0 0 1-.188-.394V13c0-.225.375-.6.6-.6H24c.471 0 1.134.504 1.594 1.05a.046.046 0 0 0 .01.01.045.045 0 0 1 .009.009l.093.131H22.8c-.956 0-1.8.773-1.8 1.8v2.4c0 .5.225.938.544 1.256.319.319.757.544 1.256.544h6v4.8c0 .225-.375.6-.6.6H27v.6zM1.706 8.2h15.207c.257 0 .487.248.487.544v15.75a.503.503 0 0 1-.506.506h-5.55A3.6 3.6 0 0 0 7.8 22a3.6 3.6 0 0 0-3.544 3H1.8c-.225 0-.6-.377-.6-.6V8.706c0-.281.22-.506.506-.506zm24.9 6.6H22.8c-.244 0-.6.298-.6.6v2.4c0 .1.075.263.206.394.132.131.293.206.394.206h5.925c-.113-.72-.656-1.65-.656-1.65l-1.463-1.95zM7.8 23.2a2.39 2.39 0 0 1 2.4 2.4A2.39 2.39 0 0 1 7.8 28a2.39 2.39 0 0 1-2.4-2.4 2.39 2.39 0 0 1 2.4-2.4zm18 2.4a2.39 2.39 0 0 0-2.4-2.4 2.39 2.39 0 0 0-2.4 2.4 2.39 2.39 0 0 0 2.4 2.4 2.39 2.39 0 0 0 2.4-2.4z"/>
</symbol></svg>