<svg width="194" height="194" viewBox="0 0 194 194" fill="none" xmlns="http://www.w3.org/2000/svg">
<path d="M18.447 26.076C18.447 19.594 23.394 14.27 29.717 13.663L26.072 0C15.284 7.613 6.32 17.637 0 29.312H18.887C18.609 28.279 18.447 27.197 18.447 26.076Z" transform="translate(21.6331 26.924)" fill="white"/>
<path fill-rule="evenodd" clip-rule="evenodd" d="M0 33.546L8.52002 1.61401C13.882 0.563966 19.417 -0.000975299 25.085 1.26394e-06C31.191 1.26394e-06 37.142 0.649049 42.886 1.86304L51.339 33.546C51.286 39.851 46.142 44.963 39.826 44.963H11.514C5.19702 44.963 0.0529785 39.851 0 33.546ZM34.356 9.85095L34.217 9.24097L33.593 9.26795C33.205 9.28394 24.038 9.73901 19.488 15.698C14.933 21.6549 16.901 30.62 16.987 30.999L17.126 31.609L17.751 31.583C18.138 31.5659 27.304 31.1079 31.856 25.15C36.41 19.194 34.442 10.229 34.356 9.85095Z" transform="translate(71.964 11.2739)" fill="white"/>
<path d="M4.878 0L0 18.289C0.053 24.594 5.197 29.706 11.514 29.706H31.505C25.076 17.831 15.915 7.659 4.878 0Z" transform="translate(140.962 26.5299)" fill="white"/>
<path fill-rule="evenodd" clip-rule="evenodd" d="M30.686 6.09802L41.133 45.256C41.081 51.5601 35.936 56.673 29.619 56.673H5.573C1.98199 47.218 0 36.973 0 26.26C0 17.098 1.453 8.27795 4.11499 0H31.664C33.347 0 34.715 1.36804 34.715 3.04895C34.715 4.72998 33.346 6.09802 31.663 6.09802H30.686ZM22.598 35.743C22.598 35.036 22.395 34.363 22.034 33.775C23.692 33.374 24.931 31.887 24.93 30.109C24.93 28.33 23.692 26.844 22.034 26.442C22.922 24.986 22.747 23.058 21.4901 21.799C20.276 20.5861 18.299 20.4141 16.8521 21.265C16.454 19.603 14.965 18.359 13.183 18.359C11.4 18.359 9.91003 19.603 9.51404 21.265C8.06799 20.4141 6.08801 20.5861 4.87604 21.799C4.16205 22.514 3.76801 23.463 3.76801 24.474C3.76801 25.1801 3.97101 25.8521 4.33099 26.4401C2.67401 26.84 1.43402 28.327 1.43402 30.1071C1.43402 31.885 2.67303 33.37 4.32904 33.772C3.44 35.23 3.61603 37.1591 4.87604 38.4141C5.58905 39.13 6.539 39.524 7.54901 39.524C8.25702 39.524 8.92902 39.321 9.51703 38.96C9.91699 40.618 11.404 41.858 13.184 41.858C14.963 41.858 16.451 40.618 16.85 38.959C17.438 39.3201 18.111 39.524 18.818 39.524C19.828 39.524 20.777 39.13 21.491 38.416C22.204 37.703 22.598 36.7531 22.598 35.743Z" transform="translate(11.346 70.7169)" fill="white"/>
<path fill-rule="evenodd" clip-rule="evenodd" d="M40.889 6.09802L50.112 40.665C43.464 40.937 38.152 46.397 38.154 53.1121C38.154 54.35 38.34 55.5439 38.676 56.673H11.514C5.19702 56.673 0.0529785 51.561 0 45.256L10.196 7.04102L10.445 6.09802H9.46802C7.78699 6.09802 6.41901 4.72998 6.41901 3.04895C6.41901 1.36804 7.78699 0 9.46802 0H41.87C43.551 0 44.919 1.36804 44.919 3.04895C44.919 4.72998 43.551 6.09802 41.866 6.09802H40.889ZM31.454 33.052L33.894 30.614L33.731 30.548L31.805 25.625L36.89 27.6169L41.082 23.422L29.107 18.734L29.044 18.573L24.849 22.766L24.85 22.769L24.754 22.865L24.911 22.927L26.84 27.8521L21.912 25.924L21.85 25.7629L20.253 27.361L17.559 30.0551L17.72 30.118L19.67 35.098L14.443 33.053L10.252 37.2469L22.369 41.991L22.41 42.095L26.602 37.901L26.57 37.818L26.584 37.804L26.561 37.795L24.612 32.816L29.538 34.745L29.601 34.906L31.454 33.052Z" transform="translate(71.966 70.7169)" fill="white"/>
<path fill-rule="evenodd" clip-rule="evenodd" d="M6.41803 3.04895C6.41803 4.72998 7.78601 6.09802 9.46698 6.09802H10.444L0 45.256C0.0529785 51.561 5.19702 56.673 11.514 56.673H36.219C39.81 47.219 41.792 36.974 41.792 26.26C41.792 17.097 40.339 8.27795 37.677 0H9.46698C7.78601 0 6.41803 1.36694 6.41803 3.04895ZM38.796 30.1639L39.357 31.6869C37.187 32.4779 36.081 33.4839 35.62 34.7339L35.692 34.7629C36.31 34.131 36.914 33.9579 37.675 33.9579C39.803 33.9579 40.837 35.2229 40.837 36.7899C40.837 38.3419 39.63 39.9659 37.244 39.9659C34.728 39.9659 33.334 38.5289 33.334 36.2289C33.334 33.111 35.591 30.897 38.796 30.1639ZM26.139 22.031H20.097H20.096V36.2271H26.57C30.26 36.2271 31.921 34.351 31.921 31.934C31.921 30.1 30.994 28.849 29.397 28.288V28.223C30.778 27.576 31.015 26.605 31.015 25.677C31.015 23.649 29.699 22.031 26.139 22.031Z" transform="translate(140.963 70.7169)" fill="white"/>
<path d="M18.966 6.098C20.649 6.098 22.018 4.73 22.018 3.049C22.018 1.368 20.65 0 18.967 0H0C5.95 9.655 13.766 18.028 22.938 24.645L17.99 6.098H18.966Z" transform="translate(24.043 141.87)" fill="white"/>
<path fill-rule="evenodd" clip-rule="evenodd" d="M42.89 3.04895C42.89 4.72998 41.522 6.09802 39.837 6.09802V6.09705H38.86L47.196 37.339C42.893 38.6 38.451 39.528 33.897 40.103C35.168 39.561 35.939 38.59 35.939 37.2C35.939 35.6381 34.868 34.658 32.998 34.658H30.238C29.476 34.658 29.13 34.403 29.13 33.931C29.13 33.6949 29.221 33.423 29.439 33.241C29.766 33.35 30.202 33.405 30.729 33.405C33.144 33.405 34.524 32.079 34.524 30.3C34.524 29.991 34.469 29.682 34.36 29.41C34.597 29.155 35.015 28.901 35.668 28.901C35.814 28.901 36.013 28.92 36.104 28.938L36.268 27.104C36.268 27.104 35.959 26.995 35.56 26.995C34.724 26.995 33.98 27.304 33.78 28.266H33.744C33.108 27.576 32.037 27.177 30.73 27.177C28.677 27.177 26.934 28.52 26.934 30.3C26.934 31.389 27.37 32.261 28.224 32.787V32.806C27.625 33.024 27.153 33.623 27.153 34.5131C27.153 34.949 27.316 35.548 27.842 36.002V36.02C26.843 36.238 26.462 37.0909 26.462 37.8361C26.462 38.96 27.397 40.197 29.754 40.525C27.541 40.697 25.313 40.811 23.055 40.811C15.064 40.811 7.33899 39.693 0 37.6479L8.16699 7.04102L8.41602 6.09802H7.43903C5.758 6.09802 4.39001 4.72998 4.39001 3.04895C4.39001 1.36804 5.758 0 7.43903 0H39.841C41.522 0 42.89 1.36804 42.89 3.04895ZM21.998 36.329H24.54V24.381H21.871L17.984 30.536H17.948L14.062 24.381H11.393V36.329H13.935V30.736C13.935 30.119 13.753 27.922 13.753 27.922L13.808 27.9039C13.808 27.9039 14.915 29.865 15.224 30.355L17.73 34.332H18.203L20.709 30.355C21.017 29.865 22.106 27.9039 22.106 27.9039L22.161 27.922C22.161 27.922 21.998 30.119 21.998 30.736V36.329Z" transform="translate(73.995 141.87)" fill="white"/>
<path d="M13.9585 0.4395C13.3725 -0.1465 12.4235 -0.1465 11.8375 0.4395L6.0485 6.2295L4.9975 5.1785L4.4715 4.6525L3.9385 4.1185L2.5605 2.7415C1.9745 2.1555 1.0255 2.1555 0.4395 2.7415C-0.1465 3.3265 -0.1465 4.2765 0.4395 4.8625L1.6335 6.0575L2.1825 6.6055L2.7235 7.1475L4.9885 9.4125C5.2695 9.6935 5.6515 9.8515 6.0495 9.8515C6.4475 9.8515 6.8285 9.6935 7.1105 9.4125L13.9605 2.5615C14.5445 1.9745 14.5445 1.0255 13.9585 0.4395Z" transform="translate(45.5035 48.3705)" fill="white"/>
<path d="M3.11995 6.738L1.71595 0C-0.290048 3.772 -0.114048 8.425 0.174952 10.87L3.37295 6.685L3.11995 6.738Z" transform="translate(89.9741 29.3899)" fill="white"/>
<path d="M3.992 6.543L3.118 0C1.965 0.708 0.889 1.589 0 2.679L1.488 9.819L3.992 6.543Z" transform="translate(92.856 24.9509)" fill="white"/>
<path d="M5.628 6.827C6.126 4.179 5.983 1.61 5.791 0L0 7.579L5.628 6.827Z" transform="translate(99.3311 23.1339)" fill="white"/>
<path d="M0 3.91L6.36 4.629C6.548 4.421 6.733 4.212 6.904 3.987C7.832 2.774 8.449 1.4 8.859 0L2.319 0.874L0 3.91Z" transform="translate(95.724 31.5249)" fill="white"/>
<path d="M0 4.346C2.238 4.012 6.251 3.094 9.304 0.676L3.322 0L0 4.346Z" transform="translate(91.341 36.824)" fill="white"/>
<path d="M0.887 7.583L6.682 0C5.047 0.244 2.465 0.799 0 2.021L0.142 2.002L0.887 7.583Z" transform="translate(97.248 22.226)" fill="white"/>
<path d="M1.877 0L0 1.878L8.691 5.281L7.482 2.193L1.877 0Z" transform="translate(84.9 105.526)" fill="white"/>
<path d="M5.037 6.188L3.088 1.209L0 0L1.951 4.98L2.324 5.931L2.696 6.882L3.316 8.466L3.35 8.55L4.943 6.956L5.227 6.672L5.037 6.188Z" transform="translate(91.588 101.581)" fill="white"/>
<path d="M7.343 2.139L2.416 0.21L1.879 0L1.627 0.252L1.048 0.831L0.993 0.885L0 1.879L1.723 2.554L2.674 2.926L3.625 3.298L8.552 5.227L7.343 2.139Z" transform="translate(92.208 98.334)" fill="white"/>
<path d="M6.671 5.227L8.549 3.348L0 0L1.208 3.087L6.671 5.227Z" transform="translate(101.818 91.355)" fill="white"/>
<path d="M5.228 8.549L3.3 3.626L2.928 2.675L2.556 1.724L1.882 0.001L1.881 0L0.252 1.627L0 1.879L0.21 2.417L2.139 7.341L2.511 8.292L2.884 9.243L3.559 10.966V10.967L5.187 9.338L5.438 9.088L5.228 8.549Z" transform="translate(98.569 91.974)" fill="white"/>
<path d="M13.9575 0.43875C13.3715 -0.14625 12.4225 -0.14625 11.8365 0.43875L6.0475 6.22975L5.5625 5.74475L5.0375 5.21875L4.5025 4.68375L2.5605 2.74075C1.9745 2.15475 1.0255 2.15475 0.4395 2.74075C-0.1465 3.32575 -0.1465 4.27575 0.4395 4.86175L2.1315 6.55475L2.6805 7.10275L3.2215 7.64475L4.9885 9.41175C5.2695 9.69275 5.6515 9.85075 6.0495 9.85075C6.4475 9.85075 6.8285 9.69275 7.1105 9.41175L13.9605 2.55975C14.5435 1.97375 14.5435 1.02475 13.9575 0.43875Z" transform="translate(115.542 119.2)" fill="white"/>
<path d="M1.076 3.049C1.076 4.73 2.444 6.098 4.125 6.098H5.102L0 25.223C9.524 18.52 17.627 9.939 23.752 0H4.125C2.444 0 1.076 1.368 1.076 3.049Z" transform="translate(146.305 141.87)" fill="white"/>
<path d="M1.295 0C1.077 0.147 0.869 0.307 0.652 0.457C0.433 0.609 0.218 0.767 0 0.921L3.645 14.584C3.898 14.56 4.155 14.554 4.411 14.545C4.559 14.54 4.703 14.523 4.851 14.523C4.955 14.523 5.058 14.536 5.163 14.539L1.295 0Z" transform="translate(47.7051 26.0039)" fill="black"/>
<path d="M19.655 0H0.768C0.635 0.247 0.515 0.502 0.384 0.75C0.252 0.998 0.129 1.25 0 1.5H20.1C20.118 1.5 20.134 1.498 20.151 1.498C20.051 1.253 19.963 1.002 19.878 0.75C19.795 0.504 19.723 0.253 19.655 0Z" transform="translate(20.8651 56.236)" fill="black"/>
<path d="M46.033 0.629C45.76 0.566 45.486 0.5 45.213 0.44C44.936 0.378 44.662 0.308 44.385 0.249L52.838 31.932C52.785 38.237 47.642 43.349 41.325 43.349H13.013C6.697 43.349 1.552 38.237 1.499 31.932L10.019 0C9.748 0.053 9.473 0.096 9.203 0.151C8.926 0.209 8.653 0.282 8.376 0.342L0.025 31.641L0 31.834C0 39.01 5.838 44.848 13.014 44.848H41.326C48.501 44.848 54.339 39.01 54.339 31.834L46.033 0.629Z" transform="translate(70.465 12.8879)" fill="black"/>
<path d="M33.388 31.357C33.257 31.109 33.137 30.854 33.004 30.607H13.013C6.697 30.607 1.552 25.495 1.499 19.19L6.377 0.901C6.158 0.749 5.945 0.588 5.726 0.438C5.508 0.29 5.286 0.146 5.067 0L0.025 18.9L0 19.093C0 26.269 5.838 32.107 13.014 32.107H33.773C33.642 31.858 33.519 31.605 33.388 31.357Z" transform="translate(139.463 25.6289)" fill="black"/>
<path d="M28.499 8.998C30.554 8.56 32.1 6.731 32.1 4.549C32.1 2.041 30.059 0 27.549 0H0.508C0.422 0.25 0.337 0.5 0.254 0.75C0.17 1 0.081 1.248 0 1.5H27.549C29.232 1.5 30.6 2.868 30.6 4.549C30.6 6.23 29.231 7.598 27.548 7.598H26.571L37.018 46.756C36.965 53.061 31.821 58.173 25.503 58.173H1.458C1.553 58.424 1.656 58.673 1.754 58.923C1.852 59.173 1.949 59.424 2.049 59.673H25.504C32.681 59.673 38.519 53.835 38.519 46.659L28.499 8.998Z" transform="translate(15.461 69.2169)" fill="black"/>
<path d="M44.316 8.999C46.372 8.562 47.919 6.733 47.919 4.549C47.919 2.041 45.878 0 43.37 0H10.968C8.46 0 6.419 2.041 6.419 4.549C6.419 6.732 7.965 8.561 10.021 8.998L0.025 46.466L0 46.659C0 53.835 5.838 59.673 13.014 59.673H40.733C40.624 59.428 40.528 59.176 40.435 58.923C40.343 58.675 40.252 58.428 40.176 58.173H13.014C6.698 58.173 1.553 53.061 1.5 46.756L11.696 8.541L11.945 7.598H10.968C9.287 7.598 7.919 6.23 7.919 4.549C7.919 2.868 9.287 1.5 10.968 1.5H43.37C45.051 1.5 46.419 2.868 46.419 4.549C46.419 6.23 45.051 7.598 43.366 7.598H42.389L51.612 42.165C51.784 42.158 51.953 42.139 52.127 42.139C52.214 42.139 52.298 42.15 52.385 42.152C52.642 42.157 52.896 42.17 53.148 42.191L44.316 8.999Z" transform="translate(70.466 69.2159)" fill="black"/>
<path d="M1.499 46.756L11.943 7.598H10.966C9.285 7.598 7.917 6.23 7.917 4.549C7.917 2.868 9.285 1.5 10.966 1.5H39.175C39.094 1.248 39.005 1 38.921 0.75C38.838 0.5 38.753 0.25 38.667 0H10.967C8.459 0 6.418 2.041 6.418 4.549C6.418 6.732 7.964 8.56 10.019 8.998L0.025 46.466L0 46.659C0 53.835 5.838 59.673 13.014 59.673H37.128C37.228 59.424 37.325 59.173 37.423 58.923C37.521 58.673 37.624 58.424 37.719 58.173H13.014C6.696 58.173 1.552 53.06 1.499 46.756Z" transform="translate(139.463 69.2169)" fill="black"/>
<path d="M20.81 8.998C22.865 8.56 24.411 6.731 24.411 4.549C24.411 2.041 22.37 0 19.86 0H0C0.146 0.249 0.283 0.503 0.432 0.75C0.584 1.001 0.74 1.25 0.893 1.5H19.86C21.543 1.5 22.911 2.868 22.911 4.549C22.911 6.23 21.542 7.598 19.859 7.598H18.882L23.83 26.145C24.147 26.374 24.467 26.601 24.788 26.826C25.103 27.047 25.412 27.279 25.73 27.496L20.81 8.998Z" transform="translate(23.15 140.37)" fill="black"/>
<path d="M42.23 8.999C44.286 8.562 45.833 6.733 45.833 4.549C45.833 2.041 43.792 0 41.284 0H8.882C6.374 0 4.333 2.041 4.333 4.549C4.333 6.732 5.879 8.561 7.935 8.998L0 38.739C0.239 38.81 0.481 38.874 0.722 38.944C0.963 39.014 1.202 39.082 1.443 39.149L9.61 8.542L9.859 7.599H8.882C7.201 7.599 5.833 6.231 5.833 4.55C5.833 2.869 7.201 1.501 8.882 1.501H41.284C42.965 1.501 44.333 2.869 44.333 4.55C44.333 6.231 42.965 7.599 41.28 7.599H40.303L48.639 38.841C48.877 38.771 49.121 38.708 49.36 38.636C49.592 38.566 49.83 38.505 50.061 38.433L42.23 8.999Z" transform="translate(72.552 140.37)" fill="black"/>
<path d="M6.026 0C3.518 0 1.477 2.041 1.477 4.549C1.477 6.732 3.023 8.56 5.078 8.998L0 28.036C0.315 27.827 0.632 27.618 0.945 27.404C1.268 27.183 1.581 26.949 1.901 26.724L7.003 7.599H6.026C4.345 7.599 2.977 6.231 2.977 4.55C2.977 2.869 4.345 1.501 6.026 1.501H25.653C25.806 1.251 25.962 1.002 26.114 0.751C26.262 0.504 26.399 0.25 26.546 0.001H6.026V0Z" transform="translate(144.404 140.37)" fill="black"/>
<path fill-rule="evenodd" clip-rule="evenodd" d="M12.733 0.0129395C12.99 0.0179443 13.244 0.0310059 13.496 0.052002C19.906 0.572021 24.95 5.92896 24.95 12.473C24.95 19.363 19.363 24.948 12.475 24.948C7.39001 24.948 3.021 21.899 1.07898 17.5341C0.968994 17.2889 0.874023 17.037 0.781006 16.7841C0.689026 16.536 0.598022 16.2889 0.521973 16.0341C0.187012 14.905 0 13.7111 0 12.473C0 5.75806 5.31201 0.297974 11.96 0.026001C12.0268 0.0233154 12.0931 0.0187988 12.1594 0.0142822C12.2639 0.00708008 12.3685 0 12.475 0C12.5226 0 12.5695 0.0032959 12.6163 0.0065918C12.6549 0.00927734 12.6937 0.012085 12.733 0.0129395ZM12.532 17.256L19.382 10.4041C19.968 9.81799 19.968 8.86902 19.379 8.28296C18.793 7.698 17.844 7.69702 17.258 8.28296L11.469 14.074L10.984 13.589L10.459 13.063L9.92401 12.528L7.98199 10.585C7.396 9.99902 6.44702 9.99902 5.86102 10.585C5.27502 11.17 5.27502 12.12 5.86102 12.7061L7.55298 14.399L8.10199 14.947L8.64301 15.489L10.41 17.256C10.692 17.537 11.073 17.6949 11.471 17.6949C11.869 17.6949 12.251 17.537 12.532 17.256Z" transform="translate(110.117 111.356)" fill="black"/>
<path fill-rule="evenodd" clip-rule="evenodd" d="M12.6434 0.00817871C12.6912 0.0115967 12.739 0.0151367 12.787 0.0159912C19.529 0.182007 24.95 5.68896 24.95 12.474C24.95 19.364 19.363 24.948 12.475 24.948C7.263 24.948 2.80103 21.749 0.934998 17.209C0.835999 16.964 0.747986 16.713 0.661987 16.4611C0.580017 16.214 0.507019 15.964 0.439026 15.7111C0.161987 14.677 0 13.5959 0 12.474C0 5.99194 4.94702 0.666992 11.269 0.0610352C11.4853 0.0405273 11.7045 0.0330811 11.9236 0.0257568L12.035 0.0219727C12.0964 0.0198975 12.1572 0.0157471 12.2178 0.0115967C12.3033 0.00585938 12.3884 0 12.475 0C12.5316 0 12.5875 0.00402832 12.6434 0.00817871ZM12.532 17.256L19.382 10.405C19.968 9.81897 19.968 8.87 19.38 8.28296C18.794 7.69702 17.845 7.69702 17.259 8.28296L11.47 14.073L10.419 13.022L9.89301 12.496L9.35999 11.962L7.98199 10.585C7.396 9.99902 6.44702 9.99902 5.86102 10.585C5.27502 11.17 5.27502 12.12 5.86102 12.7061L7.05499 13.901L7.604 14.449L8.14502 14.991L10.41 17.256C10.692 17.537 11.073 17.6949 11.471 17.6949C11.869 17.6949 12.251 17.537 12.532 17.256Z" transform="translate(40.08 40.526)" fill="black"/>
<path fill-rule="evenodd" clip-rule="evenodd" d="M184.724 56.3387C184.792 56.4836 184.86 56.6287 184.927 56.775C190.492 68.98 193.597 82.5339 193.595 96.798C193.595 101.791 193.214 106.698 192.482 111.49C192.393 112.07 192.294 112.646 192.195 113.222L192.193 113.231C192.095 113.809 191.989 114.385 191.879 114.96C191.439 117.268 190.918 119.546 190.317 121.793C190.138 122.46 189.954 123.125 189.763 123.786C189.616 124.291 189.466 124.796 189.312 125.297C187.715 130.475 185.69 135.466 183.285 140.235L183.181 140.444C183.097 140.613 183.013 140.781 182.927 140.949C182.852 141.096 182.774 141.241 182.696 141.387C182.646 141.481 182.596 141.575 182.547 141.669C173.447 158.99 159.254 173.23 141.969 182.39L141.855 182.451C141.593 182.591 141.331 182.731 141.066 182.867C140.838 182.985 140.607 183.101 140.377 183.217L140.169 183.321C135.113 185.866 129.806 187.979 124.293 189.615C124.179 189.648 124.065 189.683 123.952 189.717C123.787 189.767 123.622 189.817 123.456 189.864C123.288 189.913 123.118 189.959 122.948 190.005C122.838 190.035 122.729 190.065 122.619 190.096C114.396 192.374 105.737 193.598 96.798 193.598C88.358 193.598 80.169 192.51 72.36 190.471C72.1503 190.417 71.9421 190.36 71.7337 190.302L71.503 190.239C71.4041 190.212 71.3048 190.186 71.2056 190.159C71.0279 190.112 70.85 190.064 70.673 190.014C64.425 188.261 58.428 185.898 52.755 182.987C52.5673 182.891 52.3812 182.791 52.1952 182.692C52.0898 182.636 51.9846 182.58 51.879 182.524C51.7778 182.471 51.6765 182.417 51.5753 182.364C51.3752 182.259 51.1752 182.155 50.976 182.047C33.985 172.877 20.034 158.774 11.048 141.67C10.9852 141.549 10.921 141.429 10.8567 141.308C10.788 141.179 10.7192 141.05 10.652 140.92C10.5665 140.753 10.4828 140.585 10.3992 140.416L10.283 140.183C7.98999 135.629 6.04498 130.871 4.48602 125.943C4.34698 125.503 4.21301 125.061 4.08002 124.619L4.02106 124.422C3.88446 123.967 3.7475 123.51 3.61902 123.051C2.758 120.003 2.04498 116.894 1.48401 113.733C1.37799 113.137 1.28101 112.54 1.18701 111.941C1.08801 111.316 0.997986 110.689 0.911987 110.06C0.315002 105.723 0 101.298 0 96.8C0 82.6021 3.07202 69.109 8.58801 56.95C8.65356 56.8043 8.72192 56.6599 8.79028 56.5154C8.83032 56.4307 8.87042 56.3459 8.90997 56.261C8.9762 56.1167 9.04358 55.9728 9.11096 55.829L9.23199 55.5699C17.011 39.114 29.292 25.187 44.479 15.392C44.6315 15.2941 44.7845 15.1974 44.9373 15.101L45.143 14.9709C45.363 14.8311 45.584 14.694 45.805 14.557C55.166 8.72998 65.59 4.45703 76.713 2.10095C76.8106 2.08032 76.9079 2.05933 77.0052 2.03833C77.1631 2.00427 77.321 1.97021 77.48 1.93799C77.6314 1.9071 77.7831 1.87866 77.9351 1.85022C78.039 1.83081 78.143 1.81128 78.247 1.79102C84.253 0.619995 90.454 0 96.798 0C103.599 0 110.238 0.708984 116.646 2.05005C116.83 2.08789 117.013 2.12842 117.196 2.16882L117.414 2.21704C117.505 2.23694 117.596 2.25647 117.687 2.276C117.852 2.3114 118.017 2.34668 118.181 2.38403C128.627 4.74902 138.438 8.80701 147.309 14.255C147.463 14.3494 147.615 14.4453 147.768 14.5413L147.974 14.671C148.056 14.7222 148.137 14.7728 148.219 14.8235C148.359 14.9105 148.499 14.9976 148.638 15.0861C163.998 24.865 176.426 38.8521 184.291 55.412L184.447 55.7449C184.501 55.8619 184.556 55.979 184.611 56.0959C184.649 56.177 184.686 56.2578 184.724 56.3387ZM191.232 109.621C191.319 108.978 191.398 108.333 191.472 107.687C191.88 104.113 192.097 100.482 192.094 96.798C192.094 82.677 189.003 69.266 183.469 57.2C183.407 57.066 183.344 56.9324 183.282 56.7987C183.237 56.7029 183.192 56.6071 183.147 56.511C183.105 56.4215 183.063 56.3317 183.021 56.2417C182.954 56.0984 182.888 55.9548 182.82 55.813C175.139 39.757 163.095 26.171 148.229 16.604C148.085 16.5112 147.94 16.4203 147.794 16.3291C147.718 16.2815 147.642 16.234 147.566 16.186C147.344 16.046 147.123 15.908 146.901 15.77C138.089 10.302 128.327 6.22803 117.921 3.86401C117.751 3.82458 117.579 3.78772 117.408 3.75085L117.191 3.70398L117.039 3.67041C116.846 3.62744 116.652 3.58435 116.458 3.54395C110.111 2.20801 103.535 1.5 96.797 1.5C90.48 1.5 84.307 2.12402 78.33 3.302C78.2254 3.32275 78.1207 3.34253 78.016 3.3623C77.8744 3.38904 77.7328 3.41565 77.592 3.44495C77.4595 3.47266 77.3275 3.50208 77.1953 3.53149C77.0839 3.5564 76.9725 3.58118 76.861 3.60498C65.818 5.96497 55.479 10.2419 46.208 16.073C46.106 16.1378 46.0032 16.2014 45.9005 16.2651C45.7827 16.3381 45.6649 16.4111 45.548 16.486C45.4073 16.5759 45.2683 16.668 45.1294 16.7599C45.049 16.813 44.9686 16.8662 44.888 16.9189C30.218 26.485 18.3329 39.976 10.738 55.892C10.6566 56.0627 10.5768 56.2346 10.497 56.4064L10.407 56.6C10.3686 56.6824 10.3298 56.7645 10.2911 56.8468C10.2189 57.0001 10.1466 57.1534 10.077 57.307C4.573 69.3459 1.50098 82.72 1.50098 96.799C1.50098 99.95 1.659 103.065 1.95898 106.138C2.02698 106.828 2.104 107.515 2.18597 108.2C2.26398 108.853 2.34998 109.503 2.44098 110.151C3.15997 115.249 4.276 120.222 5.771 125.031C5.85718 125.31 5.94812 125.587 6.03918 125.865C6.07288 125.968 6.10651 126.07 6.13995 126.173L6.21503 126.406C6.30292 126.679 6.39093 126.952 6.48199 127.224C7.992 131.696 9.82599 136.021 11.955 140.169C12.0399 140.336 12.1285 140.502 12.217 140.667C12.2618 140.751 12.3066 140.835 12.351 140.919C12.481 141.169 12.612 141.42 12.7469 141.669C21.379 157.776 34.506 171.126 50.441 180.036L50.6898 180.177C50.9103 180.301 51.1306 180.426 51.353 180.547C51.5482 180.654 51.7451 180.757 51.9417 180.86C52.0383 180.911 52.1348 180.962 52.231 181.013C57.956 184.055 64.024 186.532 70.364 188.365C70.627 188.441 70.891 188.516 71.155 188.59C71.3849 188.654 71.6147 188.716 71.8453 188.777L71.948 188.805C79.874 190.948 88.204 192.099 96.8 192.099C105.875 192.099 114.658 190.822 122.978 188.442C123.134 188.397 123.289 188.351 123.444 188.304C123.553 188.271 123.661 188.238 123.771 188.206L123.885 188.172C124.104 188.108 124.325 188.042 124.544 187.975C130.163 186.263 135.563 184.043 140.691 181.371C140.992 181.213 141.294 181.054 141.594 180.893C141.896 180.732 142.199 180.57 142.5 180.405C158.733 171.496 172.101 157.999 180.852 141.67C180.969 141.452 181.084 141.233 181.199 141.014L181.248 140.92C181.3 140.82 181.354 140.72 181.407 140.62C181.487 140.471 181.567 140.321 181.644 140.17C183.836 135.901 185.709 131.445 187.244 126.836C187.367 126.465 187.487 126.094 187.606 125.721C187.738 125.306 187.869 124.889 187.996 124.472C189.273 120.267 190.272 115.941 190.961 111.513C191.058 110.885 191.146 110.253 191.232 109.621Z" transform="translate(0.202026 0.199951)" fill="black"/>
<path d="M0 4.078C0 6.327 1.83 8.156 4.08 8.156C6.328 8.156 8.157 6.326 8.157 4.078C8.157 1.83 6.328 0 4.08 0C1.83 0.001 0 1.83 0 4.078Z" transform="translate(20.45 96.6399)" fill="white"/>
<path d="M6.736 0C6.161 0.354 5.491 0.568 4.767 0.568C7.015 0.568 8.844 2.397 8.844 4.646C8.844 6.895 7.015 8.724 4.767 8.724C2.517 8.724 0.687 6.894 0.687 4.646C0.687 2.398 2.517 0.568 4.767 0.568C4.043 0.568 3.373 0.353 2.797 0C2.641 0.657 2.318 1.283 1.807 1.794C1.307 2.294 0.686 2.627 0.015 2.787C0.368 3.362 0.582 4.031 0.582 4.753C0.582 5.486 0.363 6.166 0 6.747C0.672 6.896 1.306 7.211 1.807 7.713C2.308 8.214 2.639 8.834 2.8 9.505C3.375 9.152 4.044 8.938 4.767 8.938C5.49 8.938 6.159 9.152 6.733 9.505C6.894 8.834 7.226 8.213 7.727 7.713C8.228 7.212 8.862 6.897 9.534 6.747C9.171 6.166 8.952 5.487 8.952 4.753C8.952 4.03 9.166 3.361 9.518 2.786C8.846 2.626 8.227 2.294 7.727 1.794C7.216 1.283 6.893 0.657 6.736 0Z" transform="translate(19.763 96.0719)" fill="black"/>
<path d="M2.283 4.566C3.54387 4.566 4.566 3.54387 4.566 2.283C4.566 1.02213 3.54387 0 2.283 0C1.02213 0 0 1.02213 0 2.283C0 3.54387 1.02213 4.566 2.283 4.566Z" transform="translate(22.247 106.51)" fill="white"/>
<path d="M3.667 2.665C2.117 2.665 0.855 1.499 0.672 0.001C0.467 0.202 0.239 0.37 0 0.517C0.4 2.176 1.887 3.415 3.667 3.415C5.446 3.415 6.934 2.175 7.333 0.516C7.094 0.37 6.867 0.202 6.661 0C6.478 1.499 5.216 2.665 3.667 2.665Z" transform="translate(20.863 109.161)" fill="black"/>
<path d="M0 0C0.02 0.151 0.042 0.302 0.044 0.457C0.19 0.343 0.344 0.245 0.51 0.159C0.336 0.113 0.166 0.06 0 0Z" transform="translate(22.629 105.956)" fill="black"/>
<path d="M0.465 0.456C0.467 0.302 0.489 0.151 0.51 0C0.343 0.061 0.173 0.113 0 0.158C0.164 0.243 0.319 0.342 0.465 0.456Z" transform="translate(25.922 105.956)" fill="black"/>
<path d="M1.967 0C1.244 0 0.575 0.214 0 0.567C0.029 0.692 0.048 0.817 0.065 0.945C0.231 1.006 0.401 1.058 0.575 1.103C0.993 0.885 1.462 0.749 1.967 0.749C2.472 0.749 2.941 0.884 3.359 1.102C3.532 1.058 3.702 1.005 3.869 0.944C3.886 0.817 3.904 0.691 3.933 0.566C3.359 0.215 2.69 0 1.967 0Z" transform="translate(22.563 105.01)" fill="black"/>
<path fill-rule="evenodd" clip-rule="evenodd" d="M1.60303 0.000976562C2.04901 0.115967 2.51398 0.18396 2.995 0.18396C3.47699 0.18396 3.94202 0.116943 4.38702 0C4.55103 0.0860596 4.70599 0.185059 4.85199 0.297974C4.85199 0.305908 4.85077 0.313477 4.84955 0.321289C4.84827 0.329224 4.84698 0.33728 4.84698 0.345947C4.84698 1.35596 5.23999 2.30603 5.95398 3.01794C5.95953 3.02356 5.96558 3.02808 5.97162 3.03259C5.9776 3.03711 5.98358 3.0415 5.98901 3.047C5.80603 4.54602 4.54401 5.71204 2.995 5.71204C1.44501 5.71204 0.184021 4.547 0 3.04797C0.00549316 3.04248 0.0114746 3.03796 0.0175171 3.03345C0.0234985 3.02905 0.02948 3.02454 0.0349731 3.01904C0.747986 2.30603 1.14203 1.35706 1.14203 0.347046C1.14203 0.337891 1.14075 0.328857 1.1394 0.319702C1.13843 0.312744 1.13745 0.305786 1.13702 0.29895C1.28302 0.186035 1.43701 0.0870361 1.60303 0.000976562ZM2.99597 4.96289C4.25397 4.96289 5.27698 3.93896 5.27698 2.68091C5.27698 1.42297 4.25299 0.397949 2.99597 0.397949C1.737 0.397949 0.713989 1.422 0.713989 2.68091C0.713989 3.93896 1.737 4.96289 2.99597 4.96289Z" transform="translate(21.535 106.112)" fill="black"/>
<path d="M2.784 0.353C2.366 0.135 1.897 0 1.392 0C0.887 0 0.418 0.135 0 0.354C0.445 0.469 0.91 0.537 1.392 0.537C1.874 0.537 2.339 0.469 2.784 0.353Z" transform="translate(23.138 105.76)" fill="black"/>
<path d="M2.282 4.564C3.54231 4.564 4.564 3.54231 4.564 2.282C4.564 1.02169 3.54231 0 2.282 0C1.02169 0 0 1.02169 0 2.282C0 3.54231 1.02169 4.564 2.282 4.564Z" transform="translate(22.248 90.5769)" fill="white"/>
<path d="M3.669 0.75C5.217 0.75 6.478 1.914 6.662 3.411C6.868 3.212 7.097 3.048 7.338 2.906C6.94 1.244 5.451 0 3.669 0C1.886 0 0.397 1.244 0 2.906C0.24 3.048 0.469 3.212 0.674 3.412C0.86 1.914 2.12 0.75 3.669 0.75Z" transform="translate(20.861 89.0769)" fill="black"/>
<path d="M0.022 0C0.021 0.079 0.005 0.157 0 0.235C0.074 0.208 0.146 0.177 0.222 0.154C0.151 0.108 0.088 0.052 0.022 0Z" transform="translate(22.65 95.2379)" fill="black"/>
<path d="M0.221 0.235C0.215 0.156 0.2 0.079 0.198 0C0.133 0.052 0.071 0.107 0 0.154C0.075 0.177 0.147 0.208 0.221 0.235Z" transform="translate(26.189 95.2389)" fill="black"/>
<path d="M1.97 1.248C2.694 1.248 3.364 1.033 3.939 0.68C3.891 0.482 3.866 0.283 3.85 0.081C3.776 0.054 3.704 0.023 3.628 0C3.151 0.313 2.583 0.498 1.97 0.498C1.357 0.498 0.787 0.313 0.311 0C0.235 0.023 0.164 0.054 0.089 0.081C0.074 0.283 0.047 0.482 0 0.68C0.577 1.033 1.247 1.248 1.97 1.248Z" transform="translate(22.56 95.3929)" fill="black"/>
<path d="M2.995 5.314C1.736 5.314 0.713 4.291 0.713 3.032C0.713 1.773 1.736 0.75 2.995 0.75C4.253 0.75 5.276 1.774 5.276 3.032C5.276 4.29 4.253 5.314 2.995 5.314C3.572 5.314 4.129 5.402 4.653 5.566C4.724 5.52 4.786 5.464 4.851 5.412C4.839 4.428 5.203 3.439 5.952 2.69C5.963 2.679 5.977 2.671 5.988 2.661C5.803 1.164 4.543 0 2.995 0C1.446 0 0.185 1.165 0 2.662C0.012 2.672 0.024 2.679 0.035 2.69C0.784 3.44 1.148 4.428 1.137 5.412C1.203 5.464 1.266 5.52 1.336 5.566C1.861 5.402 2.418 5.314 2.995 5.314Z" transform="translate(21.535 89.8269)" fill="black"/>
<path d="M0 0.252C0.477 0.565 1.046 0.75 1.659 0.75C2.272 0.75 2.841 0.565 3.317 0.252C2.793 0.088 2.236 0 1.659 0C1.082 0 0.525 0.088 0 0.252Z" transform="translate(22.871 95.1409)" fill="black"/>
<path d="M0 2.283C0 2.892 0.237 3.465 0.668 3.895C1.532 4.758 3.031 4.759 3.894 3.896C4.326 3.465 4.563 2.893 4.563 2.283C4.563 1.673 4.326 1.1 3.895 0.668C3.464 0.237 2.891 0 2.283 0C1.674 0 1.1 0.237 0.67 0.668C0.237 1.1 0 1.674 0 2.283Z" transform="translate(27.882 104.177)" fill="white"/>
<path d="M4.11 4.11C3.016 5.206 1.299 5.276 0.11 4.344C0.107 4.634 0.065 4.913 0 5.184C0.588 5.545 1.261 5.749 1.968 5.749C2.978 5.749 3.927 5.355 4.641 4.641C5.355 3.928 5.748 2.978 5.748 1.968C5.748 1.261 5.545 0.588 5.184 0C4.913 0.065 4.634 0.107 4.345 0.111C5.274 1.3 5.203 3.016 4.11 4.11Z" transform="translate(28.197 104.493)" fill="black"/>
<path d="M0 0.236C0.121 0.328 0.242 0.42 0.352 0.526C0.373 0.348 0.413 0.173 0.465 0C0.315 0.085 0.16 0.164 0 0.236Z" transform="translate(26.816 105.565)" fill="black"/>
<path d="M0.475 0.309C0.381 0.213 0.303 0.105 0.219 0C0.152 0.139 0.078 0.275 0 0.407C0.157 0.362 0.314 0.328 0.475 0.309Z" transform="translate(29.32 103.154)" fill="black"/>
<path d="M0.994 0.966C0.493 1.467 0.161 2.087 0 2.758C0.111 2.827 0.217 2.902 0.32 2.981C0.479 2.909 0.634 2.831 0.785 2.745C0.926 2.289 1.164 1.857 1.524 1.496C1.898 1.122 2.349 0.88 2.824 0.742C2.902 0.61 2.975 0.474 3.043 0.335C2.958 0.226 2.874 0.118 2.801 0C2.129 0.15 1.495 0.465 0.994 0.966Z" transform="translate(26.496 102.819)" fill="black"/>
<path d="M1.635 2.802C0.948 2.116 0.673 1.184 0.782 0.29C0.673 0.184 0.552 0.093 0.43 0C0.304 0.057 0.175 0.107 0.045 0.155C0.024 0.306 0.002 0.457 0 0.611C0.71 1.167 1.175 2.022 1.175 2.993C1.175 3.119 1.153 3.239 1.138 3.361C1.344 3.562 1.571 3.73 1.81 3.877C1.875 3.606 1.917 3.327 1.92 3.037C1.824 2.96 1.723 2.891 1.635 2.802Z" transform="translate(26.386 105.801)" fill="black"/>
<path d="M0 0.378C0.13 0.331 0.259 0.28 0.385 0.223C0.281 0.143 0.176 0.069 0.065 0C0.035 0.124 0.016 0.25 0 0.378Z" transform="translate(26.432 105.578)" fill="black"/>
<path d="M1.108 2.721C1.119 2.732 1.132 2.739 1.143 2.75C1.158 2.628 1.18 2.508 1.18 2.382C1.18 1.411 0.715 0.556 0.005 0C0.005 0.017 0 0.032 0 0.048C0.001 1.06 0.394 2.009 1.108 2.721Z" transform="translate(26.381 106.411)" fill="black"/>
<path fill-rule="evenodd" clip-rule="evenodd" d="M0 2.62805C0.0209961 2.44995 0.0599976 2.27502 0.112976 2.10205C0.955017 1.62305 1.65601 0.93103 2.15198 0.098999C2.30902 0.0529785 2.466 0.0200195 2.62701 0C3.31299 0.703979 4.26801 1.14404 5.32703 1.14404C5.33502 1.14404 5.34253 1.14307 5.35004 1.14197C5.35748 1.14099 5.36499 1.14001 5.37299 1.14001C6.30298 2.32996 6.23297 4.047 5.13898 5.14001C4.04498 6.23596 2.328 6.30505 1.13898 5.37402C1.13898 5.36707 1.1402 5.36023 1.14142 5.35315C1.1427 5.34595 1.14398 5.33862 1.14398 5.33105C1.14398 4.27197 0.703003 3.31604 0 2.62805ZM5.276 2.99792C5.276 2.38794 5.039 1.81494 4.60803 1.38293C4.17804 0.953003 3.604 0.714966 2.995 0.715942C2.38599 0.715942 1.81299 0.953003 1.38202 1.38391C0.950012 1.81494 0.713013 2.38794 0.713013 2.99792C0.713013 3.60791 0.950012 4.17993 1.38104 4.60999C2.24603 5.4729 3.745 5.474 4.60699 4.61096C5.039 4.17993 5.276 3.60791 5.276 2.99792Z" transform="translate(27.168 103.462)" fill="black"/>
<path d="M2.039 0C1.564 0.138 1.113 0.38 0.739 0.754C0.379 1.115 0.14 1.547 0 2.003C0.842 1.523 1.543 0.831 2.039 0Z" transform="translate(27.281 103.562)" fill="black"/>
<path d="M0.0231256 0C-0.0858744 0.895 0.189126 1.827 0.876126 2.512C0.965126 2.601 1.06513 2.671 1.16213 2.746C1.16213 2.731 1.16713 2.718 1.16713 2.703C1.16713 1.644 0.726126 0.688 0.0231256 0Z" transform="translate(27.1449 106.09)" fill="black"/>
<path d="M3.894 0.667C3.463 0.237 2.89 0 2.281 0C1.671 0 1.098 0.237 0.669003 0.667C0.237003 1.099 3.13849e-06 1.672 3.13849e-06 2.282C-0.000996862 2.891 0.237003 3.465 0.669003 3.896C1.53 4.758 3.033 4.758 3.895 3.896C4.783 3.006 4.783 1.558 3.894 0.667Z" transform="translate(16.616 92.9099)" fill="white"/>
<path d="M1.639 1.59365C2.731 0.500651 4.449 0.431651 5.638 1.35965C5.641 1.07365 5.682 0.797651 5.746 0.529651C4.301 -0.321349 2.32 -0.149349 1.108 1.06365C0.393 1.77865 0 2.72865 0 3.73865C0 4.44565 0.203 5.11665 0.563 5.70465C0.834 5.63965 1.113 5.59765 1.402 5.59365C0.473 4.40365 0.543 2.68865 1.639 1.59365Z" transform="translate(15.115 91.4532)" fill="black"/>
<path d="M0.222 0.154C0.16 0.101 0.094 0.056 0.035 0C0.025 0.088 0.017 0.176 0 0.263C0.073 0.224 0.148 0.19 0.222 0.154Z" transform="translate(21.857 95.5609)" fill="black"/>
<path d="M0 0.054C0.068 0.124 0.125 0.206 0.188 0.282C0.232 0.187 0.276 0.093 0.325 0C0.216 0.026 0.109 0.041 0 0.054Z" transform="translate(19.266 98.1339)" fill="black"/>
<path d="M2.117 2.151C2.629 1.639 2.951 1.014 3.107 0.357C2.935 0.252 2.777 0.13 2.626 0C2.552 0.036 2.477 0.069 2.404 0.109C2.286 0.663 2.017 1.191 1.587 1.621C1.174 2.035 0.668 2.295 0.137 2.419C0.088 2.511 0.044 2.606 0 2.701C0.118 2.842 0.229 2.987 0.325 3.144C0.996 2.983 1.617 2.651 2.117 2.151Z" transform="translate(19.453 95.7159)" fill="black"/>
<path d="M0.287 1.064C0.974 1.751 1.249 2.684 1.14 3.579C1.199 3.635 1.265 3.68 1.327 3.733C1.512 3.642 1.702 3.562 1.897 3.491C1.903 3.412 1.918 3.335 1.919 3.256C1.209 2.701 0.745 1.847 0.745 0.877C0.745 0.75 0.767 0.629 0.782 0.506C0.577 0.306 0.348 0.142 0.108 0C0.044 0.268 0.003 0.544 0 0.83C0.097 0.905 0.198 0.975 0.287 1.064Z" transform="translate(20.753 91.9829)" fill="black"/>
<path d="M0.57 0C0.375 0.07 0.184 0.151 0 0.242C0.151 0.372 0.31 0.493 0.481 0.599C0.528 0.401 0.556 0.201 0.57 0Z" transform="translate(22.079 95.4739)" fill="black"/>
<path d="M0.072 0.028C0.061 0.017 0.049 0.01 0.037 0C0.022 0.123 0 0.244 0 0.371C0 1.341 0.464 2.195 1.174 2.75C1.186 1.766 0.821 0.778 0.072 0.028Z" transform="translate(21.498 92.4879)" fill="black"/>
<path fill-rule="evenodd" clip-rule="evenodd" d="M6.01509 3.44899C6.00771 3.51857 6.00032 3.58803 5.9861 3.65675C5.02211 4.18581 4.2311 4.99281 3.7181 5.96681C3.6111 5.99184 3.50313 6.00685 3.39412 6.02077C2.70711 5.31581 1.75008 4.87477 0.69008 4.87477C0.682756 4.87477 0.675859 4.87575 0.66884 4.87673C0.661638 4.8777 0.654253 4.8788 0.646074 4.8788C-0.283919 3.68984 -0.213911 1.97377 0.882097 0.878801C1.97408 -0.21324 3.69209 -0.283186 4.88112 0.644792C4.88069 0.651018 4.87978 0.657243 4.8788 0.663591C4.87746 0.672502 4.87612 0.681413 4.87612 0.690813C4.87612 1.75075 5.31709 2.7068 6.02107 3.39382L6.01509 3.44899ZM0.744096 3.0248C0.74312 3.63478 0.981096 4.20778 1.4131 4.63881C2.2751 5.50087 3.77712 5.49977 4.63808 4.63881C5.52809 3.7488 5.52809 2.3008 4.63808 1.40981C4.20809 0.979875 3.63411 0.742814 3.0251 0.742814C2.41512 0.742814 1.8431 0.979875 1.4131 1.40981C0.981096 1.84181 0.744096 2.41481 0.744096 3.0248Z" transform="translate(15.8709 92.1671)" fill="black"/>
<path d="M0 2.31C0.531 2.186 1.037 1.926 1.45 1.512C1.881 1.082 2.149 0.554 2.267 0C1.303 0.529 0.512 1.336 0 2.31Z" transform="translate(19.59 95.8239)" fill="black"/>
<path d="M1.145 2.749C1.254 1.854 0.979 0.921 0.292 0.234C0.203 0.145 0.102 0.075 0.005 0C0.004 0.016 0 0.03 0 0.046C0 1.105 0.44 2.062 1.145 2.749Z" transform="translate(20.748 92.8129)" fill="black"/>
<path d="M2.281 4.562C3.54076 4.562 4.562 3.54076 4.562 2.281C4.562 1.02124 3.54076 0 2.281 0C1.02124 0 0 1.02124 0 2.281C0 3.54076 1.02124 4.562 2.281 4.562Z" transform="translate(30.215 98.5449)" fill="white"/>
<path d="M0.305 0.029C0.201 0.028 0.102 0.009 0 0C0.036 0.107 0.067 0.217 0.098 0.327C0.161 0.222 0.23 0.124 0.305 0.029Z" transform="translate(29.811 98.9399)" fill="black"/>
<path d="M0.516 0C0.371 0.237 0.204 0.464 0.001 0.671C1.501 0.857 2.662 2.12 2.662 3.666C2.662 5.214 1.5 6.476 0 6.66C0.201 6.866 0.368 7.093 0.515 7.332C2.173 6.931 3.412 5.445 3.412 3.666C3.412 1.888 2.174 0.402 0.516 0Z" transform="translate(32.865 97.1589)" fill="black"/>
<path d="M0 0.438C0.143 0.422 0.283 0.399 0.426 0.399C0.325 0.273 0.235 0.141 0.155 0C0.109 0.149 0.056 0.294 0 0.438Z" transform="translate(29.717 102.316)" fill="black"/>
<path d="M0.75 1.968C0.75 1.395 0.918 0.865 1.194 0.408C1.164 0.298 1.132 0.189 1.096 0.081C0.916 0.064 0.74 0.042 0.566 0C0.213 0.575 0 1.244 0 1.967C0 2.7 0.219 3.38 0.582 3.961C0.721 3.93 0.861 3.912 1.002 3.896C1.059 3.752 1.111 3.607 1.156 3.458C0.905 3.016 0.75 2.513 0.75 1.968Z" transform="translate(28.715 98.8579)" fill="black"/>
<path d="M2.957 1.142C2.003 1.142 1.161 0.691 0.604 0C0.461 0 0.321 0.023 0.178 0.039C0.125 0.175 0.065 0.308 0 0.439C0.084 0.544 0.162 0.652 0.256 0.748C1.149 0.639 2.082 0.914 2.768 1.601C2.858 1.69 2.926 1.791 3.002 1.888C3.291 1.884 3.57 1.843 3.841 1.777C3.695 1.538 3.528 1.311 3.326 1.105C3.204 1.12 3.084 1.142 2.957 1.142Z" transform="translate(29.538 102.715)" fill="black"/>
<path d="M0.242 0.4C0.306 0.269 0.367 0.136 0.42 0C0.279 0.016 0.139 0.034 0 0.065C0.073 0.183 0.157 0.291 0.242 0.4Z" transform="translate(29.297 102.754)" fill="black"/>
<path d="M2.7 1.16713C2.716 1.16713 2.73 1.16313 2.746 1.16313C2.67 1.06613 2.601 0.965126 2.512 0.876126C1.826 0.189126 0.893 -0.0858744 0 0.0231256C0.686 0.727126 1.642 1.16713 2.7 1.16713Z" transform="translate(29.795 103.44)" fill="black"/>
<path fill-rule="evenodd" clip-rule="evenodd" d="M0.265625 1.14038C0.274536 1.14172 0.283264 1.14294 0.29303 1.14294C1.30298 1.14294 2.25201 0.75 2.96503 0.0360107C2.96942 0.0311279 2.97345 0.0257568 2.97754 0.0201416C2.98267 0.0131836 2.98785 0.00610352 2.99402 0C4.49402 0.185059 5.65503 1.44897 5.65503 2.995C5.65503 4.54297 4.49298 5.80505 2.99298 5.98901L2.98358 5.97668C2.97791 5.96899 2.97211 5.96106 2.96503 5.95398C2.24597 5.23401 1.25702 4.87903 0.270996 4.88403C0.171021 4.75806 0.0800171 4.62598 0 4.48499C0.151978 3.97803 0.236023 3.44202 0.236023 2.88696C0.236023 2.38403 0.163025 1.89905 0.0380249 1.43506C0.0999756 1.33105 0.169983 1.23401 0.244995 1.13794C0.252258 1.13843 0.259033 1.1394 0.265625 1.14038ZM2.62402 5.276C3.883 5.276 4.90601 4.25305 4.90601 2.995C4.90601 1.73706 3.88202 0.713013 2.62402 0.712036C1.36597 0.712036 0.343994 1.73608 0.343994 2.995C0.343994 4.25305 1.36597 5.276 2.62402 5.276Z" transform="translate(29.871 97.8309)" fill="black"/>
<path d="M0.406 3.05C0.558 2.544 0.642 2.008 0.642 1.452C0.642 0.949 0.569 0.464 0.444 0C0.168 0.457 0 0.987 0 1.56C0 2.105 0.155 2.608 0.406 3.05Z" transform="translate(29.465 99.2659)" fill="black"/>
<path d="M0 5.20817e-05C0.557 0.691052 1.398 1.14205 2.353 1.14205C2.48 1.14205 2.6 1.12005 2.723 1.10505C2.713 1.09405 2.705 1.08105 2.695 1.07005C1.974 0.350052 0.986 -0.00494792 0 5.20817e-05Z" transform="translate(30.143 102.715)" fill="black"/>
<path d="M2.282 4.564C3.54231 4.564 4.564 3.54231 4.564 2.282C4.564 1.02169 3.54231 0 2.282 0C1.02169 0 0 1.02169 0 2.282C0 3.54231 1.02169 4.564 2.282 4.564Z" transform="translate(14.281 98.5428)" fill="white"/>
<path d="M0.303 0C0.201 0.009 0.104 0.028 0 0.029C0.074 0.124 0.144 0.22 0.206 0.323C0.237 0.215 0.268 0.107 0.303 0Z" transform="translate(18.943 98.939)" fill="black"/>
<path d="M0 0.396C0.142 0.397 0.282 0.419 0.423 0.435C0.367 0.292 0.315 0.148 0.271 0C0.19 0.14 0.101 0.271 0 0.396Z" transform="translate(18.917 102.319)" fill="black"/>
<path d="M0.75 3.668C0.75 2.121 1.914 0.856 3.412 0.672C3.212 0.466 3.044 0.239 2.897 0C1.24 0.4 0 1.887 0 3.667C0 5.444 1.238 6.929 2.895 7.332C3.04 7.095 3.207 6.868 3.409 6.661C1.911 6.475 0.75 5.214 0.75 3.668Z" transform="translate(12.781 97.158)" fill="black"/>
<path d="M1.196 1.966C1.196 1.244 0.981 0.574 0.629 0C0.455 0.042 0.276 0.063 0.097 0.08C0.062 0.186 0.031 0.295 0 0.404C0.277 0.862 0.446 1.393 0.446 1.966C0.446 2.512 0.29 3.017 0.038 3.46C0.082 3.608 0.135 3.752 0.19 3.895C0.333 3.911 0.474 3.929 0.614 3.96C0.977 3.379 1.196 2.699 1.196 1.966Z" transform="translate(19.15 98.8599)" fill="black"/>
<path d="M0.883 0.745C1.855 0.745 2.71 1.211 3.265 1.921C3.369 1.92 3.466 1.901 3.568 1.892C3.629 1.713 3.698 1.539 3.775 1.369C3.713 1.293 3.656 1.212 3.587 1.141C2.692 1.25 1.761 0.975 1.075 0.289C0.985 0.199 0.915 0.098 0.839 0C0.55 0.003 0.271 0.045 0 0.111C0.146 0.35 0.314 0.577 0.515 0.783C0.637 0.767 0.757 0.745 0.883 0.745Z" transform="translate(15.679 97.0479)" fill="black"/>
<path d="M0.207 0C0.13 0.17 0.061 0.345 0 0.523C0.18 0.506 0.358 0.484 0.532 0.443C0.436 0.286 0.325 0.141 0.207 0Z" transform="translate(19.246 98.4159)" fill="black"/>
<path d="M0.044 0C0.029 0 0.016 0.004 0 0.004C0.076 0.102 0.146 0.203 0.236 0.293C0.922 0.979 1.853 1.254 2.748 1.145C2.06 0.441 1.103 0 0.044 0Z" transform="translate(16.518 97.0428)" fill="black"/>
<path fill-rule="evenodd" clip-rule="evenodd" d="M5.61798 1.43201C5.492 1.89697 5.41901 2.38306 5.41901 2.88696C5.41901 3.44397 5.50403 3.98096 5.65601 4.48901C5.57501 4.62903 5.48602 4.76001 5.38501 4.88501C4.39801 4.88 3.40802 5.23596 2.685 5.95605L2.67493 5.96899C2.66962 5.97607 2.66418 5.98328 2.65802 5.98999C1.16101 5.80298 0 4.54199 0 2.99597C0 1.448 1.164 0.18396 2.66199 0C2.66748 0.00549316 2.67224 0.0117188 2.677 0.0180664C2.68176 0.024292 2.68652 0.0305176 2.69202 0.0360107C3.40503 0.75 4.354 1.14294 5.36499 1.14294C5.37299 1.14294 5.38074 1.14172 5.38849 1.14038C5.39624 1.13916 5.40399 1.13794 5.41199 1.13794C5.48602 1.23206 5.55603 1.32898 5.61798 1.43201ZM0.75 2.995C0.75 4.25305 1.77399 5.276 3.03302 5.276C4.29102 5.276 5.31403 4.25305 5.31403 2.995C5.31403 1.73706 4.28998 0.713013 3.03003 0.712036C1.77197 0.712036 0.75 1.73608 0.75 2.995Z" transform="translate(13.531 97.8309)" fill="black"/>
<path d="M0.237009 3.056C0.489009 2.614 0.645009 2.108 0.645009 1.562C0.645009 0.988 0.476009 0.458 0.199009 0C0.0730087 0.465 8.72447e-06 0.951 8.72447e-06 1.455C-0.000991276 2.012 0.0840087 2.549 0.237009 3.056Z" transform="translate(18.951 99.2629)" fill="black"/>
<path d="M2.703 1.181C2.719 1.181 2.734 1.177 2.75 1.176C2.195 0.466 1.34 0.001 0.368 0C0.242 0 0.123 0.022 0 0.037C0.012 0.048 0.02 0.062 0.03 0.073C0.744 0.788 1.693 1.181 2.703 1.181Z" transform="translate(16.193 97.7928)" fill="black"/>
<path d="M3.89413 3.896C4.78313 3.006 4.78313 1.557 3.89413 0.667C3.46313 0.238 2.89013 0 2.28113 0C1.67213 0 1.09713 0.237 0.665126 0.668C-0.222874 1.557 -0.221874 3.005 0.669126 3.896C1.52913 4.757 3.03213 4.758 3.89413 3.896Z" transform="translate(27.8819 92.9099)" fill="white"/>
<path d="M4.108 1.59392C5.202 2.68892 5.272 4.40492 4.343 5.59492C4.633 5.59892 4.911 5.63992 5.182 5.70592C6.07 4.24992 5.895 2.32192 4.638 1.06292C3.424 -0.149077 1.448 -0.321077 0 0.528923C0.063 0.796923 0.104 1.07192 0.107 1.35792C1.299 0.431923 3.014 0.501923 4.108 1.59392Z" transform="translate(28.199 91.453)" fill="black"/>
<path d="M0.186 0C0.129 0.057 0.061 0.102 0 0.154C0.074 0.191 0.15 0.224 0.223 0.263C0.204 0.176 0.198 0.088 0.186 0Z" transform="translate(26.98 95.5619)" fill="black"/>
<path d="M0.137 0.284C0.199 0.208 0.256 0.126 0.325 0.055C0.216 0.041 0.108 0.026 0 0C0.049 0.094 0.093 0.189 0.137 0.284Z" transform="translate(29.468 98.1329)" fill="black"/>
<path d="M0.991 2.151C1.491 2.651 2.11 2.983 2.782 3.143C2.879 2.986 2.989 2.842 3.106 2.701C3.061 2.606 3.017 2.511 2.968 2.418C2.439 2.293 1.934 2.034 1.521 1.621C1.09 1.191 0.821 0.663 0.704 0.109C0.632 0.069 0.556 0.036 0.481 0C0.329 0.13 0.17 0.251 0 0.357C0.157 1.013 0.48 1.639 0.991 2.151Z" transform="translate(26.499 95.7159)" fill="black"/>
<path d="M1.175 0.876C1.175 1.846 0.711 2.701 0 3.256C0.002 3.335 0.018 3.412 0.023 3.491C0.218 3.561 0.408 3.642 0.593 3.733C0.654 3.681 0.722 3.636 0.779 3.579C0.67 2.684 0.943 1.751 1.631 1.064C1.721 0.974 1.822 0.905 1.92 0.829C1.916 0.543 1.876 0.267 1.813 0C1.572 0.142 1.343 0.306 1.137 0.505C1.152 0.627 1.175 0.748 1.175 0.876Z" transform="translate(26.387 91.9829)" fill="black"/>
<path d="M0.57 0.242C0.384 0.151 0.195 0.071 0 0C0.016 0.202 0.041 0.401 0.089 0.599C0.26 0.494 0.418 0.373 0.57 0.242Z" transform="translate(26.41 95.4729)" fill="black"/>
<path d="M0.000287951 2.752C0.711288 2.197 1.17529 1.342 1.17529 0.372C1.17529 0.245 1.15329 0.123 1.13729 0C1.12629 0.011 1.11229 0.018 1.10129 0.029C0.351288 0.779 -0.011712 1.767 0.000287951 2.752Z" transform="translate(26.3867 92.4869)" fill="black"/>
<path d="M2.702 0.288C2.015 0.974 1.083 1.249 0.188 1.14C0.12 1.211 0.063 1.293 0 1.369C0.076 1.539 0.146 1.713 0.206 1.891C0.308 1.9 0.407 1.919 0.511 1.92C1.066 1.21 1.92 0.744 2.89 0.744C3.018 0.744 3.138 0.766 3.261 0.782C3.463 0.574 3.631 0.348 3.776 0.111C3.505 0.045 3.227 0.004 2.937 0C2.862 0.098 2.791 0.199 2.702 0.288Z" transform="translate(29.605 97.0479)" fill="black"/>
<path d="M0.53 0.522C0.469 0.343 0.4 0.169 0.324 0C0.207 0.141 0.096 0.285 0 0.442C0.173 0.483 0.35 0.505 0.53 0.522Z" transform="translate(29.282 98.4169)" fill="black"/>
<path d="M0 1.176C0.017 1.176 0.031 1.181 0.048 1.181C1.058 1.181 2.007 0.788 2.721 0.074C2.732 0.063 2.74 0.049 2.75 0.038C2.627 0.023 2.507 0 2.379 0C1.409 0 0.555 0.465 0 1.176Z" transform="translate(30.116 97.7928)" fill="black"/>
<path fill-rule="evenodd" clip-rule="evenodd" d="M2.62701 6.021C2.51801 6.00696 2.40997 5.99097 2.302 5.96595C1.78998 4.99097 1 4.18494 0.0369873 3.65699C0.0239868 3.59742 0.0170898 3.53736 0.0101929 3.47718C0.00695801 3.44947 0.00378418 3.42164 0 3.39393C0.705994 2.70691 1.146 1.75098 1.146 0.690922C1.146 0.682988 1.14478 0.675175 1.14349 0.667363C1.14221 0.659672 1.14099 0.651982 1.14099 0.643925C2.33197 -0.283077 4.047 -0.213008 5.14099 0.878911C6.23401 1.974 6.30499 3.68995 5.37598 4.88001C5.36932 4.87952 5.36304 4.87867 5.35669 4.87769C5.34784 4.87635 5.33893 4.875 5.32898 4.875C4.271 4.875 3.315 5.31592 2.62701 6.021ZM2.99701 0.741948C2.388 0.741948 1.81403 0.979008 1.38098 1.40992C0.492981 2.29895 0.494019 3.74695 1.38403 4.63794C2.245 5.49891 3.74799 5.5 4.60999 4.63794C5.49902 3.74793 5.49902 2.29993 4.60999 1.40894C4.17999 0.979008 3.60602 0.741948 2.99701 0.741948Z" transform="translate(27.166 92.168)" fill="black"/>
<path d="M0 0C0.117 0.554 0.387 1.082 0.817 1.512C1.23 1.925 1.735 2.184 2.264 2.309C1.753 1.334 0.963 0.528 0 0Z" transform="translate(27.203 95.825)" fill="black"/>
<path d="M1.16923 0.047C1.16923 0.031 1.16423 0.016 1.16423 0C1.06623 0.076 0.965232 0.146 0.875232 0.235C0.187232 0.922 -0.0857684 1.855 0.0232316 2.75C0.728232 2.063 1.16923 1.106 1.16923 0.047Z" transform="translate(27.1428 92.8119)" fill="black"/>
<path d="M0 1.146C0.895 1.255 1.827 0.98 2.514 0.294C2.604 0.204 2.674 0.103 2.749 0.005C2.733 0.005 2.719 0 2.702 0C1.644 0.001 0.687 0.442 0 1.146Z" transform="translate(29.793 97.0419)" fill="black"/>
<path d="M2.28175 0C1.67175 0 1.09575 0.238 0.663753 0.669C-0.223247 1.558 -0.221247 3.005 0.669753 3.894C1.53375 4.761 3.03375 4.757 3.89675 3.895C4.32775 3.464 4.56475 2.892 4.56475 2.283C4.56475 1.673 4.32775 1.1 3.89675 0.669C3.46575 0.238 2.89175 0 2.28175 0Z" transform="translate(16.6143 104.177)" fill="white"/>
<path d="M0.113 0.525C0.221 0.419 0.343 0.328 0.464 0.235C0.305 0.163 0.151 0.085 0 0C0.052 0.173 0.091 0.347 0.113 0.525Z" transform="translate(21.78 105.565)" fill="black"/>
<path d="M0.254 0C0.171 0.104 0.094 0.212 0 0.307C0.16 0.327 0.316 0.36 0.473 0.405C0.393 0.273 0.32 0.138 0.254 0Z" transform="translate(19.266 103.156)" fill="black"/>
<path d="M1.63319 4.112C0.53719 3.019 0.46619 1.302 1.39419 0.112C1.10419 0.108 0.82619 0.066 0.55519 0C-0.33381 1.458 -0.15781 3.386 1.10219 4.642C1.81519 5.358 2.76519 5.752 3.77519 5.752C4.48319 5.752 5.15519 5.548 5.74319 5.188C5.67819 4.917 5.63619 4.638 5.63219 4.348C4.44119 5.277 2.72519 5.208 1.63319 4.112Z" transform="translate(15.1208 104.491)" fill="black"/>
<path d="M2.051 0.966C1.55 0.465 0.916 0.15 0.244 0C0.17 0.118 0.086 0.228 0 0.337C0.066 0.475 0.14 0.61 0.219 0.741C0.694 0.879 1.147 1.121 1.521 1.496C1.881 1.857 2.12 2.29 2.26 2.746C2.41 2.831 2.565 2.91 2.724 2.981C2.828 2.901 2.932 2.827 3.044 2.758C2.883 2.087 2.552 1.467 2.051 0.966Z" transform="translate(19.519 102.819)" fill="black"/>
<path d="M0.747 2.993C0.747 2.022 1.212 1.167 1.922 0.612C1.92 0.457 1.898 0.307 1.878 0.155C1.747 0.108 1.618 0.057 1.492 0C1.372 0.092 1.25 0.184 1.141 0.29C1.25 1.185 0.974 2.117 0.288 2.802C0.199 2.891 0.098 2.961 0 3.037C0.004 3.327 0.046 3.606 0.111 3.877C0.35 3.73 0.578 3.563 0.783 3.361C0.769 3.24 0.747 3.119 0.747 2.993Z" transform="translate(20.751 105.8)" fill="black"/>
<path d="M0 0.223C0.126 0.28 0.255 0.33 0.386 0.378C0.368 0.251 0.35 0.125 0.321 0C0.208 0.068 0.104 0.143 0 0.223Z" transform="translate(22.243 105.578)" fill="black"/>
<path d="M1.18 0.048C1.18 0.031 1.176 0.016 1.175 0C0.465 0.555 0 1.411 0 2.381C0 2.507 0.021 2.627 0.037 2.749C0.048 2.738 0.061 2.731 0.072 2.72C0.786 2.007 1.18 1.058 1.18 0.048Z" transform="translate(21.498 106.412)" fill="black"/>
<path d="M1.073 1.601C1.761 0.914 2.696 0.639 3.591 0.748C3.685 0.653 3.762 0.545 3.845 0.441C3.781 0.309 3.72 0.176 3.665 0.039C3.524 0.023 3.384 0.001 3.242 0C2.686 0.691 1.845 1.142 0.889 1.142C0.76 1.142 0.638 1.12 0.514 1.104C0.313 1.311 0.145 1.538 0 1.775C0.271 1.841 0.549 1.883 0.839 1.887C0.915 1.791 0.984 1.691 1.073 1.601Z" transform="translate(15.675 102.714)" fill="black"/>
<path d="M0 0C0.055 0.137 0.115 0.271 0.18 0.402C0.266 0.293 0.35 0.183 0.424 0.065C0.284 0.034 0.142 0.016 0 0Z" transform="translate(19.34 102.754)" fill="black"/>
<path d="M0.027 1.07007C0.017 1.08007 0.009 1.09307 0 1.10407C0.124 1.11907 0.246 1.14207 0.375 1.14207C1.33 1.14207 2.172 0.691075 2.728 7.47894e-05C1.74 -0.00592521 0.749 0.349075 0.027 1.07007Z" transform="translate(16.19 102.716)" fill="black"/>
<path fill-rule="evenodd" clip-rule="evenodd" d="M3.39458 0C3.55559 0.0200195 3.7116 0.0529785 3.8676 0.0980225C4.3626 0.930054 5.06658 1.62195 5.90862 2.10205C5.96062 2.27405 6.0006 2.44897 6.0216 2.62695C5.31658 3.31396 4.87658 4.27002 4.87658 5.32996C4.87658 5.33752 4.87755 5.34473 4.87859 5.35193C4.87963 5.35925 4.8806 5.36658 4.8806 5.37402C3.69158 6.30505 1.9746 6.23499 0.882618 5.13904C-0.212413 4.04602 -0.284374 2.32898 0.643605 1.13904C0.651967 1.13904 0.65984 1.14026 0.667836 1.14148C0.676076 1.1427 0.684437 1.14404 0.693593 1.14404C1.75158 1.14404 2.70757 0.703979 3.39458 0ZM1.41259 4.60803C2.27758 5.47498 3.77758 5.47095 4.63958 4.60901C5.06963 4.17896 5.30761 3.60596 5.30663 2.99597C5.30663 2.38599 5.06859 1.81299 4.6386 1.38196C4.20861 0.95105 3.63457 0.713989 3.02459 0.713989C2.4146 0.713989 1.83959 0.95105 1.40661 1.38293C0.519581 2.27295 0.521596 3.71997 1.41259 4.60803Z" transform="translate(15.8704 103.463)" fill="black"/>
<path d="M2.041 2.005C1.9 1.549 1.662 1.116 1.302 0.755C0.928 0.38 0.475 0.138 0 0C0.495 0.833 1.199 1.525 2.041 2.005Z" transform="translate(19.738 103.56)" fill="black"/>
<path d="M0 2.703C0 2.718 0.004 2.732 0.004 2.747C0.102 2.671 0.203 2.601 0.292 2.512C0.978 1.826 1.254 0.894 1.145 0C0.44 0.688 0 1.644 0 2.703Z" transform="translate(20.748 106.09)" fill="black"/>
<path d="M2.751 0.0234385C1.856 -0.0865615 0.922 0.189439 0.233 0.876439C0.144 0.965439 0.075 1.06544 0 1.16344C0.017 1.16344 0.032 1.16844 0.05 1.16844C1.108 1.16744 2.064 0.727439 2.751 0.0234385Z" transform="translate(16.515 103.439)" fill="black"/>
<path fill-rule="evenodd" clip-rule="evenodd" d="M17.8648 0.609985L17.7258 0L17.1018 0.026001C16.7128 0.0429688 7.54583 0.496948 2.99681 6.45605C-1.55818 12.413 0.409839 21.3781 0.495837 21.757L0.634815 22.3669L1.25981 22.3409C1.64782 22.324 10.8138 21.866 15.3648 15.908C19.9188 9.95203 17.9508 0.988037 17.8648 0.609985ZM2.88683 20.6549L6.20781 16.309L12.1898 16.985C9.13781 19.403 5.1248 20.3209 2.88683 20.6549ZM4.62285 15.913L3.23485 8.875C1.22985 12.6479 1.40483 17.3 1.69384 19.746L4.62285 15.913ZM16.5048 9.44604L10.8768 10.198L16.6678 2.61902C16.8598 4.22998 17.0028 6.79797 16.5048 9.44604ZM8.39385 10.979L7.51982 4.43604C6.36583 5.14404 5.28984 6.02502 4.40184 7.11499L5.88982 14.255L8.39385 10.979ZM9.68084 9.29407L8.93584 3.71301L8.79381 3.73206C11.2588 2.51001 13.8408 1.95508 15.4758 1.71106L9.68084 9.29407ZM7.26982 14.92L13.6298 15.639C13.8168 15.431 14.0028 15.222 14.1738 14.9971C15.1018 13.7841 15.7188 12.41 16.1288 11.01L9.58879 11.884L7.26982 14.92Z" transform="translate(88.4542 20.5149)" fill="black"/>
<path fill-rule="evenodd" clip-rule="evenodd" d="M18.855 0.161011L30.83 4.849L26.638 9.047L21.553 7.05505L23.479 11.978L23.642 12.041L21.202 14.479L19.349 16.333L19.286 16.172L14.36 14.243L16.309 19.222L16.332 19.231L16.318 19.245L16.35 19.328L12.158 23.522L12.117 23.418L0 18.674L4.19098 14.48L9.41803 16.525L7.46802 11.545L7.30701 11.4821L10.001 8.78796L11.598 7.18994L11.66 7.35095L16.588 9.27905L14.659 4.354L14.502 4.29199L14.598 4.19604L14.597 4.19299L18.792 0L18.855 0.161011ZM11.037 9.87305L10.982 9.927L9.98901 10.922L11.712 11.5959L12.663 11.968L13.614 12.3409L18.541 14.269L17.332 11.181L12.405 9.25195L11.868 9.04199L11.616 9.29395L11.037 9.87305ZM2.68103 18.1121L4.55804 16.234L10.162 18.427L11.371 21.515L2.68103 18.1121ZM14.596 18.962L14.406 18.4771L12.457 13.498L9.36902 12.29L11.32 17.269L11.693 18.2211L12.065 19.172L12.685 20.756L12.718 20.8401L14.312 19.2461L14.596 18.962ZM21.578 11.231L21.788 11.769L21.537 12.02L19.909 13.6479L19.2339 11.924L18.861 10.973L18.489 10.022L16.56 5.09802L16.35 4.56006L16.602 4.30896L18.231 2.68201L18.232 2.68298L18.906 4.40601L19.278 5.35706L19.65 6.30798L21.578 11.231ZM19.599 2.06299L20.807 5.15002L26.27 7.28894L28.148 5.41003L19.599 2.06299Z" transform="translate(82.219 89.292)" fill="black"/>
<path d="M6.591 6.155H6.555L2.669 0H0V11.948H2.542V6.355C2.542 5.738 2.36 3.541 2.36 3.541L2.415 3.523C2.415 3.523 3.522 5.484 3.831 5.974L6.337 9.951H6.81L9.316 5.974C9.625 5.484 10.713 3.523 10.713 3.523L10.768 3.541C10.768 3.541 10.605 5.738 10.605 6.355V11.948H13.147V0H10.478L6.591 6.155Z" transform="translate(85.388 166.252)" fill="black"/>
<path fill-rule="evenodd" clip-rule="evenodd" d="M9.64203 1.94299L9.80597 0.109009C9.80597 0.109009 9.49701 0 9.09802 0C8.26202 0 7.51801 0.30896 7.31799 1.271H7.28198C6.646 0.581055 5.57501 0.182007 4.26801 0.182007C2.21503 0.182007 0.471985 1.52502 0.471985 3.30505C0.471985 4.39404 0.908997 5.26599 1.76202 5.79199V5.81104C1.16199 6.02905 0.690979 6.62805 0.690979 7.51794C0.690979 7.95398 0.854004 8.55298 1.38 9.00696V9.02502C0.380981 9.24304 0 10.0959 0 10.8409C0 11.965 0.934998 13.202 3.29199 13.53C3.67902 13.584 4.09302 13.619 4.55798 13.619C5.66998 13.619 6.64801 13.446 7.43701 13.109C8.70801 12.567 9.479 11.595 9.479 10.2061C9.479 8.64404 8.40802 7.66394 6.53802 7.66394H3.77802C3.01501 7.66394 2.66998 7.41003 2.66998 6.93701C2.66998 6.70105 2.76099 6.42896 2.979 6.24695C3.30603 6.35596 3.742 6.41101 4.26898 6.41101C6.68402 6.41101 8.06403 5.08496 8.06403 3.30603C8.06403 2.99695 8.00897 2.68799 7.90002 2.41602C8.13599 2.16199 8.55402 1.90698 9.20801 1.90698C9.35199 1.90601 9.55103 1.92505 9.64203 1.94299ZM2.99603 9.53296C3.159 9.56897 3.35901 9.56897 3.57703 9.56897H6.02802C6.71802 9.56897 7.11804 9.93201 7.11804 10.495C7.11804 11.494 6.30103 12.075 4.73901 12.075C2.86902 12.075 2.34302 11.349 2.34302 10.6219C2.34302 10.078 2.61499 9.69592 2.99603 9.53296ZM2.74298 3.30396C2.74298 4.19397 3.21399 4.86597 4.26801 4.86597C5.284 4.86597 5.79199 4.3219 5.79199 3.30396C5.79199 2.30396 5.28497 1.74194 4.26801 1.74194C3.34198 1.74194 2.74298 2.32397 2.74298 3.30396Z" transform="translate(100.456 168.866)" fill="black"/>
<path fill-rule="evenodd" clip-rule="evenodd" d="M9.29999 6.25696V6.19202C10.681 5.54504 10.918 4.57397 10.918 3.646C10.918 1.61804 9.60199 0 6.04199 0H0V14.197H6.474C10.163 14.197 11.825 12.3199 11.825 9.90405C11.825 8.06897 10.897 6.81799 9.29999 6.25696ZM3.02197 2.37305H5.63196C7.37897 2.37305 7.98395 2.97705 7.98395 4.099C7.98395 5.11304 7.315 5.82507 6.51697 5.82507H3.02197V2.37305ZM3.02301 11.823H6.12903C7.96204 11.823 8.76001 11.241 8.76099 9.83801C8.76099 8.56494 8.09302 7.745 6.19403 7.745H3.02301V11.823Z" transform="translate(161.059 92.7479)" fill="black"/>
<path fill-rule="evenodd" clip-rule="evenodd" d="M2.35797 4.599C2.97601 3.96594 3.57898 3.79395 4.341 3.79395C6.46899 3.79395 7.50299 5.05798 7.50299 6.62695C7.50299 8.17896 6.29602 9.80298 3.90997 9.80298C1.39502 9.80298 0 8.36597 0 6.06604C0 2.94702 2.25702 0.733032 5.46198 0L6.02301 1.52295C3.85303 2.31299 2.74701 3.31995 2.28601 4.56995L2.35797 4.599ZM1.95502 6.16602C1.95502 7.28699 2.55902 8.14893 3.88104 8.14893C5.03101 8.14893 5.534 7.42993 5.53503 6.59692C5.53503 5.71997 4.98901 5.13098 3.81 5.13098C2.83203 5.13098 2.28503 5.505 1.97003 5.77795C1.95502 5.92102 1.95502 5.99304 1.95502 6.16602Z" transform="translate(174.297 100.882)" fill="black"/>
</svg>
