<svg width="106" height="208" viewBox="0 0 106 208" fill="none" xmlns="http://www.w3.org/2000/svg">
<path d="M0 2.934C0 9.721 5.007 15.223 11.182 15.223H92.242C98.416 15.223 103.422 9.721 103.422 2.934V0H0V2.934Z" transform="translate(1.29 191.906)" fill="white"/>
<path d="M92.242 0H11.182C5.007 0 0 5.502 0 12.288V15.224H103.421V12.288C103.421 5.502 98.416 0 92.242 0Z" transform="translate(1.289 0.870972)" fill="white"/>
<path d="M0 0H103.42Z" transform="translate(1.29 16.095)" fill="white"/>
<path d="M0 0H103.421V1.5H0V0Z" transform="translate(1.29 15.345)" fill="#1D1D1B"/>
<path d="M0 0H103.42Z" transform="translate(1.29 60.047)" fill="white"/>
<path d="M0 0H103.421V1.5H0V0Z" transform="translate(1.29 59.297)" fill="#1D1D1B"/>
<path d="M0 0H103.42Z" transform="translate(1.29 104)" fill="white"/>
<path d="M0 0H103.421V1.5H0V0Z" transform="translate(1.29 103.25)" fill="#1D1D1B"/>
<path d="M0 0H103.42Z" transform="translate(1.29 147.953)" fill="white"/>
<path d="M0 0H103.421V1.5H0V0Z" transform="translate(1.29 147.203)" fill="#1D1D1B"/>
<path d="M0 0H103.421V1.5H0V0Z" transform="translate(1.29 191.156)" fill="black"/>
<path d="M7.448 14.896C11.5614 14.896 14.896 11.5614 14.896 7.448C14.896 3.33458 11.5614 0 7.448 0C3.33458 0 0 3.33458 0 7.448C0 11.5614 3.33458 14.896 7.448 14.896Z" transform="translate(77.099 30.6221)" fill="white"/>
<path fill-rule="evenodd" clip-rule="evenodd" d="M0 8.19702C0 12.717 3.677 16.395 8.197 16.395C12.719 16.395 16.397 12.717 16.396 8.19702C16.396 3.67798 12.718 0 8.197 0C3.678 0 0 3.677 0 8.19702ZM1.5 8.19604C1.5 4.50403 4.504 1.49902 8.197 1.49902C11.892 1.49902 14.897 4.50403 14.896 8.19604C14.896 11.889 11.891 14.894 8.197 14.894C4.504 14.894 1.5 11.889 1.5 8.19604Z" transform="translate(76.349 29.874)" fill="#1D1D1B"/>
<path d="M0 0H7.289Z" transform="translate(80.904 38.1021)" fill="white"/>
<path d="M0 0H7.289V1.5H0V0Z" transform="translate(80.904 37.3521)" fill="#1D1D1B"/>
<path d="M0 0V8.01Z" transform="translate(84.548 34.0961)" fill="white"/>
<path d="M0 0H1.5V8.011H0V0Z" transform="translate(83.798 34.0961)" fill="#1D1D1B"/>
<path d="M7.448 14.896C11.5614 14.896 14.896 11.5614 14.896 7.448C14.896 3.33458 11.5614 0 7.448 0C3.33458 0 0 3.33458 0 7.448C0 11.5614 3.33458 14.896 7.448 14.896Z" transform="translate(14.389 30.6221)" fill="white"/>
<path fill-rule="evenodd" clip-rule="evenodd" d="M0 8.19702C0 12.717 3.677 16.395 8.198 16.395C12.718 16.395 16.396 12.717 16.395 8.19702C16.395 3.67798 12.718 0 8.198 0C3.678 0 0 3.677 0 8.19702ZM1.5 8.19604C1.5 4.50403 4.505 1.49902 8.198 1.49902C11.892 1.49902 14.896 4.50403 14.895 8.19604C14.895 11.889 11.891 14.894 8.198 14.894C4.505 14.894 1.5 11.889 1.5 8.19604Z" transform="translate(13.639 29.874)" fill="#1D1D1B"/>
<path d="M0 0H7.289Z" transform="translate(18.193 38.1021)" fill="white"/>
<path d="M0 0H7.289V1.5H0V0Z" transform="translate(18.193 37.3521)" fill="#1D1D1B"/>
<path d="M7.448 14.896C11.5614 14.896 14.896 11.5614 14.896 7.448C14.896 3.33458 11.5614 0 7.448 0C3.33458 0 0 3.33458 0 7.448C0 11.5614 3.33458 14.896 7.448 14.896Z" transform="translate(77.099 74.5751)" fill="white"/>
<path fill-rule="evenodd" clip-rule="evenodd" d="M0 8.19702C0 12.717 3.677 16.395 8.197 16.395C12.719 16.395 16.396 12.717 16.396 8.19702C16.396 3.677 12.718 0 8.197 0C3.678 0 0 3.677 0 8.19702ZM1.5 8.19604C1.5 4.50305 4.504 1.49902 8.197 1.49902C11.892 1.49902 14.896 4.50305 14.896 8.19604C14.896 11.889 11.891 14.894 8.197 14.894C4.504 14.894 1.5 11.889 1.5 8.19604Z" transform="translate(76.349 73.827)" fill="#1D1D1B"/>
<path d="M0 0H7.289Z" transform="translate(80.904 82.0541)" fill="white"/>
<path d="M0 0H7.289V1.5H0V0Z" transform="translate(80.904 81.3041)" fill="#1D1D1B"/>
<path d="M0 0V8.011Z" transform="translate(84.548 78.0491)" fill="white"/>
<path d="M0 0H1.5V8.011H0V0Z" transform="translate(83.798 78.0491)" fill="#1D1D1B"/>
<path d="M7.448 14.896C11.5614 14.896 14.896 11.5614 14.896 7.448C14.896 3.33458 11.5614 0 7.448 0C3.33458 0 0 3.33458 0 7.448C0 11.5614 3.33458 14.896 7.448 14.896Z" transform="translate(14.389 74.5751)" fill="white"/>
<path fill-rule="evenodd" clip-rule="evenodd" d="M0 8.19702C0 12.717 3.677 16.395 8.198 16.395C12.718 16.395 16.395 12.717 16.395 8.19702C16.395 3.677 12.718 0 8.198 0C3.678 0 0 3.677 0 8.19702ZM1.5 8.19604C1.5 4.50305 4.505 1.49902 8.198 1.49902C11.892 1.49902 14.895 4.50305 14.895 8.19604C14.895 11.889 11.891 14.894 8.198 14.894C4.505 14.894 1.5 11.889 1.5 8.19604Z" transform="translate(13.639 73.827)" fill="#1D1D1B"/>
<path d="M0 0H7.289Z" transform="translate(18.193 82.0541)" fill="white"/>
<path d="M0 0H7.289V1.5H0V0Z" transform="translate(18.193 81.3041)" fill="#1D1D1B"/>
<path d="M7.448 14.896C11.5614 14.896 14.896 11.5614 14.896 7.448C14.896 3.33458 11.5614 0 7.448 0C3.33458 0 0 3.33458 0 7.448C0 11.5614 3.33458 14.896 7.448 14.896Z" transform="translate(77.099 118.53)" fill="white"/>
<path fill-rule="evenodd" clip-rule="evenodd" d="M0 8.198C0 12.717 3.677 16.395 8.197 16.395C12.719 16.395 16.397 12.717 16.396 8.198C16.396 3.67798 12.718 0 8.197 0C3.678 0 0 3.677 0 8.198ZM1.5 8.19702C1.5 4.50403 4.504 1.49902 8.197 1.49902C11.892 1.49902 14.897 4.50403 14.896 8.19702C14.896 11.889 11.891 14.894 8.197 14.894C4.504 14.894 1.5 11.889 1.5 8.19702Z" transform="translate(76.349 117.78)" fill="#1D1D1B"/>
<path d="M0 0H7.289Z" transform="translate(80.904 126.008)" fill="white"/>
<path d="M0 0H7.289V1.5H0V0Z" transform="translate(80.904 125.258)" fill="#1D1D1B"/>
<path d="M0 0V8.01Z" transform="translate(84.548 122.003)" fill="white"/>
<path d="M0 0H1.5V8.01H0V0Z" transform="translate(83.798 122.003)" fill="#1D1D1B"/>
<path d="M7.448 14.896C11.5614 14.896 14.896 11.5614 14.896 7.448C14.896 3.33458 11.5614 0 7.448 0C3.33458 0 0 3.33458 0 7.448C0 11.5614 3.33458 14.896 7.448 14.896Z" transform="translate(14.389 118.53)" fill="white"/>
<path fill-rule="evenodd" clip-rule="evenodd" d="M0 8.198C0 12.717 3.677 16.395 8.198 16.395C12.718 16.395 16.396 12.717 16.395 8.198C16.395 3.67798 12.718 0 8.198 0C3.678 0 0 3.677 0 8.198ZM1.5 8.19702C1.5 4.50403 4.505 1.49902 8.198 1.49902C11.892 1.49902 14.896 4.50403 14.895 8.19702C14.895 11.889 11.891 14.894 8.198 14.894C4.505 14.894 1.5 11.889 1.5 8.19702Z" transform="translate(13.639 117.78)" fill="#1D1D1B"/>
<path d="M0 0H7.289Z" transform="translate(18.193 126.008)" fill="white"/>
<path d="M0 0H7.289V1.5H0V0Z" transform="translate(18.193 125.258)" fill="#1D1D1B"/>
<path d="M7.448 14.896C11.5614 14.896 14.896 11.5614 14.896 7.448C14.896 3.33458 11.5614 0 7.448 0C3.33458 0 0 3.33458 0 7.448C0 11.5614 3.33458 14.896 7.448 14.896Z" transform="translate(77.099 162.481)" fill="white"/>
<path fill-rule="evenodd" clip-rule="evenodd" d="M0 8.19702C0 12.717 3.677 16.394 8.197 16.394C12.719 16.394 16.397 12.717 16.396 8.19702C16.396 3.67798 12.718 0 8.197 0C3.678 0 0 3.677 0 8.19702ZM1.5 8.19604C1.5 4.50403 4.504 1.49902 8.197 1.49902C11.892 1.49902 14.897 4.50403 14.896 8.19604C14.896 11.889 11.891 14.8931 8.197 14.8931C4.504 14.8931 1.5 11.889 1.5 8.19604Z" transform="translate(76.349 161.732)" fill="#1D1D1B"/>
<path d="M0 0H7.289Z" transform="translate(80.904 169.96)" fill="white"/>
<path d="M0 0H7.289V1.5H0V0Z" transform="translate(80.904 169.21)" fill="#1D1D1B"/>
<path d="M0 0V8.011Z" transform="translate(84.548 165.954)" fill="white"/>
<path d="M0 0H1.5V8.011H0V0Z" transform="translate(83.798 165.954)" fill="#1D1D1B"/>
<path d="M7.448 14.896C11.5614 14.896 14.896 11.5614 14.896 7.448C14.896 3.33458 11.5614 0 7.448 0C3.33458 0 0 3.33458 0 7.448C0 11.5614 3.33458 14.896 7.448 14.896Z" transform="translate(14.389 162.481)" fill="white"/>
<path fill-rule="evenodd" clip-rule="evenodd" d="M0 8.19702C0 12.717 3.677 16.394 8.198 16.394C12.718 16.394 16.396 12.717 16.395 8.19702C16.395 3.67798 12.718 0 8.198 0C3.678 0 0 3.677 0 8.19702ZM1.5 8.19604C1.5 4.50403 4.505 1.49902 8.198 1.49902C11.892 1.49902 14.896 4.50403 14.895 8.19604C14.895 11.889 11.891 14.8931 8.198 14.8931C4.505 14.8931 1.5 11.889 1.5 8.19604Z" transform="translate(13.639 161.732)" fill="#1D1D1B"/>
<path d="M0 0H7.289Z" transform="translate(18.193 169.96)" fill="white"/>
<path d="M0 0H7.289V1.5H0V0Z" transform="translate(18.193 169.21)" fill="#1D1D1B"/>
<path d="M12.385 5.937L8.979 8.14L0 2.202L3.407 0L12.385 5.937Z" transform="translate(38.882 39.194)" fill="white"/>
<path fill-rule="evenodd" clip-rule="evenodd" d="M0 3.09094L10.344 9.93201L15.125 6.83899L4.781 0L0 3.09094ZM10.353 8.14001L2.74 3.10596L4.771 1.79297L12.384 6.82593L10.353 8.14001Z" transform="translate(37.512 38.298)" fill="black"/>
<path d="M1.735 12.826L5.139 10.623L3.401 0L0 2.203L1.735 12.826Z" transform="translate(46.647 34.266)" fill="white"/>
<path fill-rule="evenodd" clip-rule="evenodd" d="M0 3.09399L1.999 15.332L6.777 12.239L4.775 0L0 3.09399ZM3.11 12.8259L1.638 3.81897L3.665 2.50598L5.138 11.514L3.11 12.8259Z" transform="translate(45.828 33.0129)" fill="black"/>
<path d="M12.385 5.938L8.98 8.141L0 2.203L3.405 0L12.385 5.938Z" transform="translate(47.055 34)" fill="white"/>
<path fill-rule="evenodd" clip-rule="evenodd" d="M0 3.09204L10.345 9.93298L15.125 6.83997L4.78 0L0 3.09204ZM10.354 8.14099L2.74 3.10596L4.77 1.79297L12.384 6.82703L10.354 8.14099Z" transform="translate(45.685 33.104)" fill="black"/>
<path d="M12.38 5.938L8.979 8.141L0 2.203L3.405 0L12.38 5.938Z" transform="translate(55.122 28.7839)" fill="white"/>
<path fill-rule="evenodd" clip-rule="evenodd" d="M0 3.09204L10.346 9.93298L15.12 6.83997L4.78 0L0 3.09204ZM10.354 8.14001L2.741 3.10596L4.771 1.79297L12.382 6.82703L10.354 8.14001Z" transform="translate(53.751 27.8879)" fill="black"/>
<path d="M1.737 12.825L5.141 10.621L3.407 0L0 2.202L1.737 12.825Z" transform="translate(54.71 29.0499)" fill="white"/>
<path fill-rule="evenodd" clip-rule="evenodd" d="M0 3.09094L2.001 15.33L6.779 12.236L4.781 0L0 3.09094ZM3.111 12.824L1.639 3.81702L3.67 2.50403L5.141 11.51L3.111 12.824Z" transform="translate(53.891 27.798)" fill="black"/>
<path d="M12.1247 12.1576C7.80667 16.5336 0.0506655 15.8826 0.0506655 15.8826C0.0506655 15.8826 -0.704334 8.13262 3.61467 3.75762C7.93367 -0.61938 15.6917 0.0346204 15.6917 0.0346204C15.6917 0.0346204 16.4447 7.78362 12.1247 12.1576Z" transform="translate(45.1283 118.018)" fill="white"/>
<path fill-rule="evenodd" clip-rule="evenodd" d="M0.74214 17.38C0.74214 17.38 1.17314 17.416 1.89414 17.416C4.17514 17.416 9.86614 17.028 13.4121 13.4351C17.9261 8.86304 17.2241 1.04297 17.1921 0.712036L17.1311 0.0909424L16.5091 0.0369873C16.5091 0.0369873 16.0751 0 15.3491 0C13.0681 0 7.38014 0.386963 3.83414 3.97998C-0.678859 8.55298 0.0261409 16.374 0.0581405 16.705L0.120141 17.326L0.74214 17.38ZM12.3441 12.381C8.98714 15.783 3.33714 15.952 1.51514 15.912C1.45414 14.017 1.57814 8.401 4.90314 5.03406C8.05014 1.84399 13.2571 1.5 15.3491 1.5C15.4911 1.5 15.6201 1.50098 15.7351 1.50403C15.7951 3.39905 15.6691 9.01404 12.3441 12.381Z" transform="translate(44.3749 117.269)" fill="black"/>
<path d="M15.642 0L0 15.847Z" transform="translate(45.179 118.053)" fill="white"/>
<path d="M0 0H1.50102V22.2673H0V0Z" transform="translate(60.3121 117.52) rotate(44.603)" fill="black"/>
<path d="M6.825 0L0 0.044Z" transform="translate(52.998 125.932)" fill="white"/>
<path d="M0 0H1.50003V6.82514H0V0Z" transform="translate(59.8051 125.2) rotate(89.6276)" fill="black"/>
<path d="M0.041 6.321L0 0Z" transform="translate(52.957 119.655)" fill="white"/>
<path d="M0 0H6.32013V1.50003H0V0Z" transform="translate(53.714 119.672) rotate(89.6276)" fill="black"/>
<path d="M0 0L0.589 7.401Z" transform="translate(48.744 121.775)" fill="white"/>
<path d="M0 0H7.42374V1.50095H0V0Z" transform="translate(49.5416 121.687) rotate(85.44)" fill="black"/>
<path d="M0 0L7.11 1.732Z" transform="translate(49.333 129.176)" fill="white"/>
<path d="M0 0H7.3173V1.50006H0V0Z" transform="translate(49.5317 128.495) rotate(13.6972)" fill="black"/>
<path d="M3.448 5.376C3.17 4.935 2.174 3.17 2.174 3.17L2.124 3.187C2.124 3.187 2.288 5.165 2.288 5.72V10.753H0V0H2.402L5.899 5.539H5.932L9.429 0H11.831V10.753H9.543V5.72C9.543 5.164 9.689 3.187 9.689 3.187L9.64 3.17C9.64 3.17 8.66 4.935 8.382 5.376L6.126 8.955H5.701L3.448 5.376Z" transform="translate(42.389 165.105)" fill="black"/>
<path fill-rule="evenodd" clip-rule="evenodd" d="M0 9.75903C0 9.08899 0.342999 8.32104 1.242 8.12402V8.10803C0.766998 7.69897 0.620998 7.16003 0.620998 6.76697C0.620998 5.96594 1.046 5.427 1.585 5.23096V5.21497C0.817001 4.73999 0.424999 3.95605 0.424999 2.97595C0.424999 1.37402 1.993 0.165039 3.84 0.165039C5.017 0.165039 5.982 0.524048 6.553 1.14502H6.586C6.766 0.279053 7.436 0 8.188 0C8.547 0 8.825 0.098999 8.825 0.098999L8.679 1.74902C8.597 1.73206 8.417 1.71594 8.286 1.71594C7.698 1.71594 7.322 1.94495 7.109 2.17395C7.208 2.41895 7.256 2.69604 7.256 2.97498C7.256 4.57703 6.014 5.77002 3.84 5.77002C3.366 5.77002 2.974 5.71997 2.68 5.62305C2.484 5.78601 2.403 6.03101 2.403 6.24402C2.403 6.66895 2.714 6.89697 3.4 6.89697H5.883C7.567 6.89697 8.53 7.78003 8.53 9.18506C8.53 11.2111 6.717 12.257 4.101 12.257C1.127 12.259 0 10.936 0 9.75903ZM6.406 9.448C6.406 8.94104 6.047 8.61401 5.426 8.61401H3.219C3.024 8.61401 2.844 8.61401 2.697 8.58203C2.354 8.72803 2.109 9.07202 2.109 9.56201C2.109 10.2151 2.583 10.87 4.266 10.87C5.671 10.87 6.406 10.347 6.406 9.448ZM3.84 1.57202C4.756 1.57202 5.213 2.07898 5.213 2.97705C5.213 3.89197 4.756 4.38208 3.84 4.38208C2.893 4.38208 2.468 3.77808 2.468 2.97705C2.468 2.09399 3.007 1.57202 3.84 1.57202Z" transform="translate(55.951 167.456)" fill="black"/>
<path fill-rule="evenodd" clip-rule="evenodd" d="M8.365 5.62903C9.802 6.13403 10.636 7.25903 10.636 8.90906C10.636 11.083 9.141 12.771 5.823 12.771H0V0H5.435C8.637 0 9.822 1.45605 9.822 3.28003C9.822 4.11499 9.608 4.98804 8.366 5.56995V5.62903H8.365ZM5.861 5.23999C6.58 5.23999 7.181 4.599 7.181 3.68701C7.181 2.67798 6.637 2.13403 5.066 2.13403H2.717V5.23901H5.861V5.23999ZM2.718 10.637V6.96802H5.57C7.278 6.96802 7.88 7.70508 7.88 8.85107C7.88 10.113 7.162 10.637 5.513 10.637H2.718Z" transform="translate(44.115 75.49)" fill="black"/>
<path fill-rule="evenodd" clip-rule="evenodd" d="M2.122 4.14099L2.058 4.11597C2.472 2.98999 3.469 2.08496 5.422 1.37195L4.917 0C2.031 0.660034 0 2.65295 0 5.46106C0 7.53101 1.256 8.82495 3.52 8.82495C5.668 8.82495 6.755 7.36304 6.755 5.96594C6.755 4.55505 5.823 3.41602 3.908 3.41602C3.223 3.41602 2.679 3.57202 2.122 4.14099ZM1.76 5.55298C1.76 5.39697 1.76 5.33191 1.774 5.203C2.058 4.95691 2.55 4.62097 3.429 4.62195C4.49 4.62195 4.982 5.15198 4.982 5.94092C4.982 6.69189 4.529 7.33789 3.494 7.33789C2.304 7.33789 1.76 6.56189 1.76 5.55298Z" transform="translate(56.028 82.801)" fill="black"/>
<path fill-rule="evenodd" clip-rule="evenodd" d="M11.932 207.758H92.992C99.57 207.758 104.921 201.908 104.922 194.719V13.038C104.922 5.849 99.57 0 92.992 0H11.932C5.353 0 0 5.849 0 13.038V194.719C0 201.908 5.353 207.758 11.932 207.758ZM1.5 13.038C1.5 6.67603 6.18 1.5 11.932 1.5H92.992C98.743 1.5 103.422 6.67603 103.422 13.038V194.719C103.422 201.081 98.743 206.258 92.992 206.258H11.932C6.18 206.258 1.5 201.081 1.5 194.719V13.038Z" transform="translate(0.539 0.120972)" fill="#1D1D1B"/>
</svg>
