<svg width="54" height="26" viewBox="0 0 54 26" version="1.1" xmlns="http://www.w3.org/2000/svg" xmlns:xlink="http://www.w3.org/1999/xlink">
<g id="Canvas" fill="none">
<g id="Graphic-ApplePay Logo-black">
<g id="Fill 1">
<path fill-rule="evenodd" clip-rule="evenodd" d="M 14.1711 5.84329C 14.2003 8.88952 16.9373 9.90302 16.9676 9.91604C 16.9446 9.98792 16.5305 11.3608 15.5263 12.7795C 14.6573 14.0055 13.7559 15.2273 12.336 15.2528C 10.9406 15.2778 10.4926 14.4539 8.89663 14.4539C 7.30177 14.4539 6.80305 15.2273 5.48233 15.2778C 4.11203 15.3278 3.06811 13.9513 2.19233 12.7295C 0.402674 10.2296 -0.965052 5.66724 0.871634 2.58717C 1.78395 1.05754 3.41382 0.0888319 5.18362 0.0643549C 6.5294 0.0393701 7.79997 0.938798 8.623 0.938798C 9.44497 0.938798 10.9892 -0.142939 12.6128 0.0159304C 13.2917 0.0435195 15.1988 0.281007 16.4235 2.01272C 16.3242 2.07209 14.1471 3.29652 14.1711 5.84329Z" transform="translate(0 4.85217)" fill="white"/>
</g>
<g id="Fill 3">
<path fill-rule="evenodd" clip-rule="evenodd" d="M 3.11729 3.21444C 3.84474 2.36344 4.33512 1.17912 4.20143 0C 3.15228 0.0406112 1.88379 0.674963 1.1318 1.52546C 0.457083 2.27855 -0.133044 3.48371 0.0262565 4.63939C 1.19602 4.72688 2.38982 4.06545 3.1178 3.21394" transform="translate(8.43121 0.00012207)" fill="white"/>
</g>
<g id="Fill 5">
<path fill-rule="evenodd" clip-rule="evenodd" d="M 8.89453 5.3746C 8.89453 6.08697 8.78173 6.72112 8.55931 7.25949C 8.33862 7.79352 8.0032 8.24914 7.56237 8.61363C 6.67095 9.35026 5.39082 9.72375 3.75754 9.72375C 3.31441 9.72375 2.89653 9.70571 2.51536 9.67016C 2.17552 9.63888 1.85999 9.58552 1.57585 9.51127L 1.57585 1.54445C 1.81772 1.49905 2.12404 1.45656 2.48847 1.41789C 2.90793 1.37346 3.41904 1.35095 4.00771 1.35095C 4.73574 1.35095 5.4089 1.43602 6.00837 1.60378C 6.60398 1.7711 7.12386 2.0198 7.5535 2.34293C 7.98165 2.66521 8.32408 3.0935 8.54424 3.58256C 8.77668 4.08726 8.89453 4.69019 8.89453 5.3746ZM 10.1124 3.15104C 9.86445 2.54975 9.50254 2.01423 9.03668 1.55928L 9.03486 1.55756C 8.5021 1.05665 7.8146 0.667331 6.99154 0.400423C 6.17362 0.134861 5.18902 0.000203967 4.0658 0.000203967C 3.34632 -0.00308466 2.61902 0.0333992 1.9033 0.109302C 1.30645 0.174479 0.703439 0.25718 0.111076 0.355089L 0 0.373452L 0 18.708L 1.57636 18.708L 1.57636 10.9145C 2.14758 11.0211 2.84248 11.075 3.64527 11.075C 4.61921 11.075 5.53239 10.9547 6.35961 10.7172C 7.18977 10.4777 7.91841 10.1086 8.52543 9.62007C 9.13315 9.12963 9.63256 8.49858 9.96926 7.79592C 10.3198 7.0766 10.4975 6.22548 10.4975 5.26626C 10.4975 4.47181 10.3679 3.7601 10.1124 3.15104Z" transform="translate(21.1289 1.27209)" fill="white"/>
</g>
<g id="Fill 7">
<path fill-rule="evenodd" clip-rule="evenodd" d="M 3.83192 7.16864C 4.47151 6.92888 5.17736 6.77173 5.93026 6.70152C 6.51806 6.64458 7.11353 6.61591 7.70611 6.61591C 7.80515 6.61591 7.90425 6.6167 8.00309 6.61829L 8.00309 9.31178C 8.00309 9.46105 7.95785 9.71353 7.86857 10.0623C 7.76099 10.3736 7.60265 10.6811 7.39807 10.9762C 7.19034 11.2743 6.93232 11.5431 6.63111 11.7751C 6.32625 12.0099 5.9641 12.1992 5.55432 12.3379C 5.14503 12.4776 4.67173 12.5485 4.14764 12.5485C 3.51257 12.5485 2.93118 12.339 2.4194 11.9258C 1.9151 11.5201 1.65937 10.8697 1.65937 9.99249C 1.65937 9.25162 1.86375 8.65068 2.26685 8.20641C 2.67754 7.75379 3.20415 7.40462 3.83192 7.16864ZM 9.77083 13.4441C 9.67946 12.9656 9.62399 12.4607 9.60596 11.9436L 9.60596 11.9434C 9.5892 11.4749 9.58 10.9918 9.57858 10.5051L 9.57942 10.5051L 9.57942 5.23825C 9.57812 4.62442 9.51611 4.00806 9.39531 3.40743C 9.27815 2.7976 9.04144 2.22794 8.69148 1.71395C 8.34577 1.20944 7.86534 0.793199 7.26349 0.476762C 6.66136 0.160436 5.87586 6.62139e-05 4.92938 6.62139e-05C 4.91975 2.20713e-05 4.91019 0 4.90054 0C 4.23004 0 3.56199 0.0882632 2.91416 0.262538C 2.27035 0.437784 1.63821 0.731311 1.03532 1.13499L 0.943119 1.19673L 1.46955 2.39352L 1.60119 2.30621C 2.05233 2.00692 2.56117 1.7703 3.11359 1.60288C 3.66554 1.43563 4.22957 1.35081 4.78996 1.35081C 5.52369 1.35081 6.11008 1.48147 6.53294 1.73922C 6.95666 1.99703 7.27845 2.31857 7.48958 2.69533C 7.70328 3.07345 7.84365 3.48296 7.9068 3.91236C 7.97069 4.34966 8.00309 4.74098 8.00309 5.07552L 8.00309 5.29473C 6.71614 5.28422 5.57165 5.37684 4.59936 5.57022C 3.58649 5.77167 2.73059 6.08846 2.05543 6.51179C 0.691554 7.36692 0 8.60178 0 10.1826C 0.00194754 10.6446 0.0845188 11.0985 0.244903 11.5304C 0.406793 11.9797 0.655281 12.3836 0.983375 12.7311C 1.31027 13.0776 1.73333 13.3621 2.24091 13.5768C 2.74862 13.7911 3.34322 13.8998 4.00696 13.8998C 4.02324 13.8999 4.03944 13.9 4.05571 13.9C 4.53731 13.9 5.01633 13.8344 5.48133 13.7044C 5.92632 13.5756 6.33115 13.4018 6.68462 13.1878C 7.03425 12.9759 7.34692 12.7366 7.61393 12.4768C 7.80508 12.2907 7.97332 12.1025 8.11629 11.915L 8.29411 13.6013L 9.80082 13.6013L 9.77083 13.4441Z" transform="translate(31.7639 6.37933)" fill="white"/>
</g>
<g id="Fill 9">
<path fill-rule="evenodd" clip-rule="evenodd" d="M 10.1149 0.000529711L 6.90366 8.50513C 6.70023 9.02926 6.51189 9.5477 6.34385 10.0463C 6.22764 10.3929 6.11362 10.7359 5.99787 11.087C 5.89204 10.7551 5.77479 10.3973 5.64785 10.0192C 5.48381 9.53026 5.30453 9.03917 5.11466 8.55892L 1.72342 0.107951L 1.72342 0L 0 0L 4.89672 12.2694L 4.89851 12.2738C 5.02736 12.5662 5.05442 12.7164 5.05442 12.7908C 5.05442 12.8242 5.03904 12.9418 4.89672 13.3125C 4.58586 14.0596 4.23032 14.7029 3.83986 15.2246C 3.44881 15.7487 3.08271 16.1776 2.75084 16.5004C 2.39972 16.8488 2.0053 17.1527 1.5789 17.4034C 1.22348 17.6108 0.85247 17.8004 0.476174 17.9669L 0.357086 18.0196L 0.903725 19.3149L 1.02255 19.2717C 1.17605 19.2158 1.46705 19.0854 1.91213 18.873C 2.3579 18.6606 2.85118 18.3203 3.37763 17.8623C 3.84256 17.4631 4.25788 17.0074 4.61218 16.5075C 5.0097 15.9444 5.37415 15.3499 5.69527 14.7405C 6.07934 14.0143 6.43288 13.2612 6.74597 12.5024C 7.12424 11.5922 7.49527 10.664 7.84877 9.74349L 11.797 0.000529711L 10.1149 0.000529711Z" transform="translate(42.182 6.67621)" fill="white"/>
</g>
</g>
</g>
</svg>

