<svg width="52" height="60" viewBox="0 0 52 60" fill="none" xmlns="http://www.w3.org/2000/svg">
<path fill-rule="evenodd" clip-rule="evenodd" d="M20.9091 0C18.9027 0 17.2727 1.63 17.2727 3.63635C17.2727 4.30042 17.4716 4.91833 17.7841 5.45459H10.9091C10.4084 5.45459 10 5.86292 10 6.36365V9.09094C10 9.59167 10.4084 10 10.9091 10H25.4545C25.9588 10 26.3636 9.59167 26.3636 9.09094V6.36365C26.3636 5.86292 25.9588 5.45459 25.4545 5.45459H24.0341C24.3466 4.91833 24.5455 4.30042 24.5455 3.63635C24.5455 1.63 22.9155 0 20.9091 0ZM20.9091 1.81824C21.9105 1.81824 22.7272 2.63501 22.7272 3.63647C22.7272 4.63782 21.9105 5.45459 20.9091 5.45459C19.9077 5.45459 19.0909 4.63782 19.0909 3.63647C19.0909 2.63501 19.9077 1.81824 20.9091 1.81824ZM11.8182 18.0966V10.9091H13.6364V18.1818C13.6364 19.0056 12.7415 20.3942 9.94318 24.4886C9.84741 24.6276 9.74518 24.7706 9.64136 24.9159L9.62567 24.9379L9.61768 24.9491C9.49811 25.1162 9.37689 25.2858 9.26135 25.4545H27.0739C26.9933 25.3357 26.9138 25.2173 26.835 25.1L26.8187 25.0757L26.8112 25.0646C26.6791 24.8683 26.5491 24.6752 26.4205 24.4886C23.6221 20.3942 22.7273 19.0056 22.7273 18.1818V10.9091H24.5455V18.1818C24.6697 18.6931 26.3956 21.2286 27.9261 23.4658C32.5391 30.213 36.3636 36.0759 36.3636 39.375C36.3636 44.1938 31.2571 45.4545 28.5511 45.4545H7.8125C5.10651 45.4545 0 44.1938 0 39.375C0 36.0759 3.82458 30.213 8.4375 23.4658C9.96802 21.2286 11.6904 18.679 11.8182 18.0966ZM18.1818 12.7273C16.1754 12.7273 14.5455 14.3573 14.5455 16.3636C14.5455 18.37 16.1754 20 18.1818 20C20.1882 20 21.8182 18.37 21.8182 16.3636C21.8182 14.3573 20.1882 12.7273 18.1818 12.7273ZM20 16.3636C20 15.3622 19.1832 14.5454 18.1818 14.5454C17.1804 14.5454 16.3636 15.3622 16.3636 16.3636C16.3636 17.365 17.1804 18.1818 18.1818 18.1818C19.1832 18.1818 20 17.365 20 16.3636ZM13.6364 30C15.1421 30 16.3636 31.2216 16.3636 32.7273C16.3636 34.2329 15.1421 35.4546 13.6364 35.4546C12.1307 35.4546 10.9091 34.2329 10.9091 32.7273C10.9091 31.2216 12.1307 30 13.6364 30ZM27.2727 37.2727C27.2727 35.2628 25.6463 33.6364 23.6364 33.6364C21.6264 33.6364 20 35.2628 20 37.2727C20 39.2827 21.6264 40.9091 23.6364 40.9091C25.6463 40.9091 27.2727 39.2827 27.2727 37.2727Z" transform="translate(3.27271 7.81824)" fill="black"/>
<path d="M0 0L50 50" transform="translate(1 8.95459)" stroke="black" stroke-width="2" stroke-linecap="round"/>
<path d="M1.12991 1.12991L25.5682 25.5682" transform="translate(13.5 23.7273)" stroke="white" stroke-linecap="round"/>
<path fill-rule="evenodd" clip-rule="evenodd" d="M2.27273 4.54545C3.52792 4.54545 4.54545 3.52792 4.54545 2.27273C4.54545 1.01753 3.52792 0 2.27273 0C1.01753 0 0 1.01753 0 2.27273C0 3.52792 1.01753 4.54545 2.27273 4.54545Z" transform="translate(16.9091 1)" fill="white" stroke="black" stroke-width="1.5"/>
</svg>
