<svg width="375" height="252" viewBox="0 0 375 252" version="1.1" xmlns="http://www.w3.org/2000/svg" xmlns:xlink="http://www.w3.org/1999/xlink">
<g id="Canvas" fill="none">
<g id="img skyline">
<g id="Shape">
<path d="M 3.935 228.757L 4.166 201.001L 0 201.231L 17.593 187.123L 45.833 187.353L 45.833 173.476L 52.777 173.476L 52.777 166.536L 59.722 159.598L 136.111 159.598L 136.111 90.208L 143.055 90.208L 143.055 83.268L 163.889 83.268L 163.889 62.451L 177.777 62.451L 177.777 48.573L 184.722 48.573L 184.722 27.756L 191.666 27.756L 198.611 20.817L 205.555 20.817L 212.5 27.756L 219.444 27.756L 219.444 48.573L 226.389 48.573L 226.389 62.451L 240.277 62.451L 240.277 145.72L 268.055 145.72L 281.945 152.659L 281.945 13.878L 288.889 13.878L 288.889 0L 330.555 0L 330.555 13.878L 337.5 13.878L 337.5 90.208L 386.11 90.208L 386.11 152.658L 393.055 152.658L 393.055 166.537L 400 166.537L 400 228.987L 420.833 228.987L 420.833 83.269L 427.777 83.269L 427.777 48.573L 434.722 48.573L 434.722 20.817L 448.611 20.817L 448.611 228.757" transform="translate(-73.611 21.817)" fill="#FEFEFE"/>
</g>
<g id="Shape_2">
<path d="M 0 27.825L 40.417 27.825L 40.417 0L 0 0L 0 27.825Z" transform="translate(-40.278 222.98)" fill="#EBEBEB"/>
</g>
<g id="Shape_3">
<path fill-rule="evenodd" clip-rule="evenodd" d="M 312.5 13.878L 319.444 13.878L 319.444 0L 312.5 0L 312.5 13.878ZM 159.722 90.207L 152.778 90.207L 152.778 83.268L 159.722 83.268L 159.722 90.207ZM 159.722 228.988L 166.667 228.988L 166.667 90.208L 159.722 90.208L 159.722 228.988ZM 62.5 228.988L 145.833 228.988L 145.833 173.476L 62.5 173.476L 62.5 228.988ZM 256.944 228.988L 256.944 159.598L 284.722 159.598L 284.722 228.988L 256.944 228.988ZM 371.528 187.353L 340.278 187.353L 340.278 228.988L 371.944 228.988L 371.528 187.353ZM 326.389 173.475L 319.444 180.415L 319.444 13.879L 326.389 13.879L 326.389 173.475ZM 347.222 152.659L 354.167 152.659L 354.167 166.537L 375 166.537L 375 228.988L 388.889 228.988L 388.889 166.537L 381.944 166.537L 381.944 152.659L 375 152.659L 375 90.207L 347.222 90.207L 347.222 152.659ZM 6.944 222.049L 0 222.049L 0 208.171L 6.944 208.171L 6.944 222.049ZM 131.944 117.963L 138.889 117.963L 138.889 104.086L 131.944 104.086L 131.944 117.963ZM 152.778 117.963L 145.833 117.963L 145.833 104.086L 152.778 104.086L 152.778 117.963ZM 222.223 187.353L 222.223 173.476L 208.333 173.476L 208.333 187.353L 222.223 187.353ZM 236.111 187.353L 229.167 187.353L 229.167 173.476L 236.111 173.476L 236.111 187.353ZM 243.056 187.353L 250 187.353L 250 173.476L 243.056 173.476L 243.056 187.353ZM 173.611 90.207L 166.667 90.207L 166.667 69.39L 173.611 69.39L 173.611 90.207ZM 180.556 90.207L 187.5 90.207L 187.5 69.39L 180.556 69.39L 180.556 90.207ZM 201.389 90.207L 194.444 90.207L 194.444 69.39L 201.389 69.39L 201.389 90.207ZM 208.333 90.207L 215.278 90.207L 215.278 152.659L 229.167 145.72L 229.167 62.451L 215.278 62.451L 215.278 48.573L 208.333 48.573L 208.333 27.756L 201.389 27.756L 201.389 48.573L 208.333 48.573L 208.333 62.451L 215.278 62.451L 215.278 69.39L 208.333 69.39L 208.333 90.207ZM 284.722 34.695L 277.778 34.695L 277.778 27.756L 284.722 27.756L 284.722 34.695ZM 305.556 34.695L 312.5 34.695L 312.5 27.756L 305.556 27.756L 305.556 34.695ZM 284.722 69.39L 277.778 69.39L 277.778 41.634L 284.722 41.634L 284.722 69.39ZM 305.556 69.39L 312.5 69.39L 312.5 41.634L 305.556 41.634L 305.556 69.39ZM 298.611 34.695L 291.667 34.695L 291.667 27.756L 298.611 27.756L 298.611 34.695ZM 291.667 69.39L 298.611 69.39L 298.611 41.634L 291.667 41.634L 291.667 69.39ZM 333.333 201.232L 326.389 201.232L 326.389 194.292L 333.333 194.292L 333.333 201.232ZM 423.611 69.39L 430.556 69.39L 430.556 62.451L 423.611 62.451L 423.611 69.39ZM 430.556 104.086L 423.611 104.086L 423.611 97.146L 430.556 97.146L 430.556 104.086ZM 423.611 124.903L 430.556 124.903L 430.556 111.025L 423.611 111.025L 423.611 124.903Z" transform="translate(-62.5 21.817)" fill="#EBEBEB"/>
</g>
<g id="Shape_4">
<path d="M 19.445 41.634L 0 41.634L 19.445 41.634ZM 500 41.634L 25.718 41.634L 500 41.634ZM 55.556 13.8781L 55.556 41.6341L 125 41.6341L 125 13.8791L 55.556 13.8781ZM 127.778 13.878L 111.111 0L 69.444 0L 52.778 13.878L 55.556 13.878L 127.778 13.878ZM 75.515 6.06605L 69.525 0.0810547L 75.515 6.06605Z" stroke-width="2" stroke-linecap="round" stroke-linejoin="round" transform="translate(-125 209.171)" stroke="#4A4A4A"/>
</g>
<g id="Shape_5">
<path d="M 0 27.755L 0 13.878L 6.945 13.878L 6.945 6.938L 13.889 0L 97.222 0L 104.167 6.939L 104.167 13.878L 111.111 13.878L 111.111 69.39L 27.778 69.39L 27.917 41.565L 30.556 41.634L 13.889 27.756L 0 27.755ZM 13.889 0L 20.834 6.939L 13.889 0ZM 104.167 14.225L 55.556 14.225L 104.167 14.225ZM 97.223 48.573L 111.111 48.573L 97.223 48.573ZM 27.778 48.573L 83.334 48.573L 27.778 48.573Z" stroke-width="2" stroke-linecap="round" stroke-linejoin="round" transform="translate(-27.778 181.415)" stroke="#4A4A4A"/>
</g>
<g id="Shape_6">
<path d="M 0 97.147L 0 27.757L 6.944 27.757L 6.944 20.817L 34.722 20.817L 34.722 27.757L 41.667 27.757L 41.667 166.537L 0 97.147ZM 34.722 28.103L 27.778 28.103L 34.722 28.103ZM 20.833 20.817L 20.833 0L 20.833 20.817ZM 159.722 166.537L 159.722 97.147L 131.944 83.269L 104.167 83.269L 76.389 97.147L 76.389 166.537L 159.722 166.537ZM 104.167 97.147L 76.389 97.147L 104.167 97.147ZM 104.167 74.41L 104.167 78.342L 104.167 74.41Z" stroke-width="2" stroke-linecap="round" stroke-linejoin="round" transform="translate(62.5 84.268)" stroke="#4A4A4A"/>
</g>
<g id="Shape_7">
<path d="M 0 104.085L 0 83.268L 13.889 83.268L 13.889 69.39L 20.833 69.39L 20.833 48.573L 27.778 48.573L 34.722 41.634L 41.666 41.634L 48.611 48.574L 55.555 48.574L 55.555 69.39L 62.5 69.39L 62.5 83.268L 76.389 83.268L 76.389 152.682L 0 104.085ZM 38.125 41.634L 38.125 27.756L 38.125 41.634ZM 27.778 69.39L 27.778 83.268L 27.778 69.39ZM 13.889 83.615L 27.778 83.615L 13.889 83.615ZM 208.333 208.17L 222.222 208.17L 208.333 194.293L 173.611 194.293L 159.722 208.17L 187.5 208.17L 208.333 208.17ZM 163.194 208.17L 163.194 249.805L 163.194 208.17ZM 218.75 208.17L 218.75 249.805L 218.75 208.17ZM 187.5 228.988L 187.5 249.805L 187.5 228.988ZM 118.055 173.476L 118.055 34.696L 125 34.696L 125 20.816L 166.666 20.816L 166.666 34.694L 173.611 34.694L 173.611 194.292L 118.055 173.476ZM 145.833 20.817L 145.833 0L 145.833 20.817ZM 166.666 201.232L 166.666 173.476L 166.666 201.232Z" stroke-width="2" stroke-linecap="round" stroke-linejoin="round" transform="translate(90.278 1)" stroke="#4A4A4A"/>
</g>
<g id="Shape_8">
<path d="M 395.833 208.171L 395.833 145.72L 388.888 145.72L 388.888 131.842L 381.944 131.842L 381.944 69.39L 339.374 69.39L 395.833 208.171ZM 388.888 208.171L 388.888 194.293L 388.888 208.171ZM 333.333 97.146L 347.222 97.146L 333.333 97.146ZM 416.666 208.171L 416.666 62.451L 423.611 62.451L 423.611 27.756L 430.555 27.756L 430.555 0L 444.444 0L 416.666 208.171ZM 423.611 62.798L 430.555 62.798L 423.611 62.798ZM 0 180.415L 14.757 180.415L 0 180.415ZM 69.583 180.346L 29.166 180.346L 69.583 180.346Z" stroke-width="2" stroke-linecap="round" stroke-linejoin="round" transform="translate(-69.444 42.634)" stroke="#4A4A4A"/>
</g>
<g id="Shape_9">
<path d="M 13.888 34.695C 6.25 34.695 0 28.45 0 20.817L 0 13.877C 0 6.245 6.25 0 13.888 0C 21.528 0 27.778 6.245 27.778 13.878L 27.778 20.817C 27.778 28.45 21.528 34.695 13.888 34.695Z" transform="translate(118.056 202.232)" fill="#F6F7F7"/>
</g>
<g id="Shape_10">
<path d="M 13.888 34.695C 6.25 34.695 0 28.45 0 20.817L 0 13.877C 0 6.245 6.25 0 13.888 0C 21.528 0 27.778 6.245 27.778 13.878L 27.778 20.817C 27.778 28.45 21.528 34.695 13.888 34.695ZM 13.888 20.817L 13.888 48.573L 13.888 20.817Z" stroke-width="2" stroke-linecap="round" stroke-linejoin="round" transform="translate(133.056 202.232)" stroke="#4A4A4A"/>
</g>
<g id="Shape_11">
<path d="M 13.89 41.634C 6.25 41.634 0 35.389 0 27.756L 0 13.878C 0 6.245 6.25 0 13.89 0C 21.529 0 27.779 6.245 27.779 13.878L 27.779 27.756C 27.779 35.389 21.529 41.634 13.889 41.634" transform="translate(340.277 188.354)" fill="#F6F7F7"/>
</g>
<g id="Shape_12">
<path d="M 13.89 41.634C 6.25 41.634 0 35.389 0 27.756L 0 13.878C 0 6.245 6.25 0 13.89 0C 21.529 0 27.779 6.245 27.779 13.878L 27.779 27.756C 27.779 35.389 21.529 41.634 13.889 41.634L 13.89 41.634ZM 13.89 20.816L 13.89 62.451L 13.89 20.816Z" stroke-width="2" stroke-linecap="round" stroke-linejoin="round" transform="translate(340.277 188.354)" stroke="#4A4A4A"/>
</g>
</g>
</g>
</svg>

