<?xml version="1.0" encoding="utf-8"?>
<!-- Generator: Adobe Illustrator 18.0.0, SVG Export Plug-In . SVG Version: 6.00 Build 0)  -->
<!DOCTYPE svg PUBLIC "-//W3C//DTD SVG 1.1//EN" "http://www.w3.org/Graphics/SVG/1.1/DTD/svg11.dtd">
<svg version="1.1" id="Layer_1" xmlns="http://www.w3.org/2000/svg" xmlns:xlink="http://www.w3.org/1999/xlink" x="0px" y="0px"
	 width="502px" height="245.056px" viewBox="0 0 502 245.056" enable-background="new 0 0 502 245.056" xml:space="preserve">
<g id="Shape">
	<path fill="#FFFFFF" d="M1,132.944h6.944l13.89,13.89v20.833h6.944V70.444l6.944-6.944H63.5l6.944,6.944v173.612h13.89v-34.723
		h6.944V91.278h6.944V49.61l13.89-13.889h41.666l13.889,13.89v41.666h6.944V188.5h6.945l13.888,6.944v-62.5h6.945v-48.61h6.944
		V35.721h27.778v48.611h6.945v48.611H251v13.89h27.778v6.944h13.889V126l13.889-20.833v-6.945h13.888v6.945L334.334,126v90.278
		h6.944v27.778h6.944V188.5h6.945v-13.889l13.889-13.889h34.722l13.889,13.89V188.5h6.944v55.556H1V132.944z"/>
</g>
<g id="Shape_2">
	<path fill="#ECEBEB" d="M210.333,84.333h6.945v-48.61h-6.945V84.333z M210.333,132.944h-6.944v-48.61h6.944V132.944z
		 M203.389,132.944v111.112h-6.945V132.944H203.389z M307.556,105.167h6.944v-6.945h-6.944V105.167z M314.5,216.278h-6.944v27.778
		h-20.834v-27.778h6.945V126H314.5V216.278z M390.889,188.5h-6.945v55.556h-34.722V188.5h6.945v-13.889h34.722V188.5z
		 M258.944,153.778H252v-6.945h6.944V153.778z M127,244.056v-41.667h27.778v41.667H127z M85.333,244.056h13.89v-34.723h6.944V91.278
		l6.945,0V49.61h-13.89v41.668l-6.945,0l0.001,118.055h-6.945V244.056z M57.556,244.056H29.778V70.444h27.778l0,13.889H64.5v6.945
		h-6.944v6.944H64.5v6.945h-6.944L57.556,244.056z M2,244.056h6.944v-76.39H2V244.056z M418.667,202.389h-6.945v-6.945h6.945
		V202.389z M397.833,202.389h6.945v-6.945h-6.945V202.389z M328.389,139.889h-6.945v-6.945h6.945V139.889z M321.444,160.722h6.945
		v-13.889h-6.945V160.722z M286.722,181.556h-6.944v-13.89h6.944V181.556z M265.889,181.556h6.944v-13.89h-6.944V181.556z
		 M238.111,98.222h-6.944v-6.944h6.944V98.222z M231.167,112.111h6.944v-6.944h-6.944V112.111z M238.111,126h-6.944v-6.944h6.944
		V126z M231.167,160.722h6.944V139.89h-6.944V160.722z M154.778,63.5h-6.945v-6.944h6.945V63.5z M133.944,63.5h6.945v-6.944h-6.945
		V63.5z M127,63.5h-6.944v-6.944H127V63.5z M147.833,84.333h6.945V70.444h-6.945V84.333z M140.889,84.333h-6.945V70.444h6.945
		V84.333z M120.056,84.333H127V70.444h-6.944V84.333z M161.722,139.889h-6.944v-34.722h6.944V139.889z M140.889,139.889h6.944
		v-34.722h-6.944V139.889z M133.944,139.889H127v-34.722h6.944V139.889z M113.111,139.889h6.945v-34.722h-6.945V139.889z
		 M175.611,216.278h-6.944v-6.945h6.944V216.278z M182.556,216.278h6.944v-6.945h-6.944V216.278z M22.833,195.444h-6.944
		l0.001-13.888h6.943V195.444z"/>
</g>
<polyline fill="none" stroke="#4A4A4A" stroke-width="2" stroke-linecap="round" stroke-linejoin="round" points="501,244.056 
	498.882,244.056 501,244.056 "/>
<path fill="none" stroke="#4A4A4A" stroke-width="2" stroke-linecap="round" stroke-linejoin="round" d="M444.437,244.056h47.361
	H444.437z"/>
<path fill="none" stroke="#4A4A4A" stroke-width="2" stroke-linecap="round" stroke-linejoin="round" d="M1,244.056h436.285H1z"/>
<polygon fill="none" stroke="#4A4A4A" stroke-width="2" stroke-linecap="round" stroke-linejoin="round" points="424.611,244.056 
	424.611,188.5 417.667,188.5 417.667,174.611 403.777,160.722 369.056,160.722 355.166,174.612 355.166,188.5 348.222,188.5 
	348.222,244.056 "/>
<path fill="none" stroke="#4A4A4A" stroke-width="2" stroke-linecap="round" stroke-linejoin="round" d="M389.889,174.611
	l13.889-13.889L389.889,174.611z"/>
<path fill="none" stroke="#4A4A4A" stroke-width="2" stroke-linecap="round" stroke-linejoin="round" d="M355.167,188.847H376
	H355.167z"/>
<polygon fill="none" stroke="#4A4A4A" stroke-width="2" stroke-linecap="round" stroke-linejoin="round" points="292.667,216.278 
	285.722,216.278 285.722,244.055 "/>
<path fill="none" stroke="#4A4A4A" stroke-width="2" stroke-linecap="round" stroke-linejoin="round" d="M292.667,202.389v6.944
	V202.389z"/>
<polygon fill="none" stroke="#4A4A4A" stroke-width="2" stroke-linecap="round" stroke-linejoin="round" points="334.333,244.056 
	341.278,244.056 341.278,216.278 334.333,216.278 334.333,126 320.444,105.167 320.444,98.222 306.556,98.222 306.556,105.167 
	292.666,126 292.666,195.444 "/>
<path fill="none" stroke="#4A4A4A" stroke-width="2" stroke-linecap="round" stroke-linejoin="round" d="M313.5,98.222V84.333
	V98.222z"/>
<path fill="none" stroke="#4A4A4A" stroke-width="2" stroke-linecap="round" stroke-linejoin="round" d="M306.556,244.056v-27.778
	V244.056z"/>
<polygon fill="none" stroke="#4A4A4A" stroke-width="2" stroke-linecap="round" stroke-linejoin="round" points="251,244.056 
	251,132.944 244.056,132.944 244.056,84.334 237.111,84.334 237.111,35.721 209.333,35.721 209.333,84.332 202.389,84.332 
	202.389,132.943 195.444,132.943 195.444,244.055 "/>
<g id="Shape_4">
	<path fill="none" stroke="#4A4A4A" stroke-width="2" stroke-linecap="round" stroke-linejoin="round" d="M252,146.833h27.778v6.945
		h13.889L252,146.833z M210.333,84.68h6.945H210.333z M196.444,216.278H252H196.444z M196.444,195.444l-13.888-6.944l-27.778,13.889
		L196.444,195.444z"/>
</g>
<g id="Shape_5">
	<path fill="none" stroke="#4A4A4A" stroke-width="2" stroke-linecap="round" stroke-linejoin="round" d="M182.556,188.5h-34.723
		l-24.86,13.889H127v41.667h27.778v-13.89L182.556,188.5z M92.278,209.333h-6.945v34.723L92.278,209.333z"/>
</g>
<g id="Shape_6">
	<path fill="none" stroke="#4A4A4A" stroke-width="2" stroke-linecap="round" stroke-linejoin="round" d="M175.611,188.5V91.278
		h-6.944V49.61l-13.89-13.889h-41.666l-13.889,13.89v41.666h-6.944v112.43L175.611,188.5z M224.222,35.722V1V35.722z
		 M133.944,35.722V14.89V35.722z M50.611,63.5V42.667V63.5z M99.222,91.625h41.667H99.222z M29.778,244.056V70.444l6.944-6.944H64.5
		l6.944,6.944v173.612H29.778z M29.778,167.667h-6.945v-20.834L8.944,132.944H2L29.778,167.667z M29.778,70.444h13.889H29.778z"/>
</g>
<g id="Shape_7">
	<path fill="#F6F7F7" d="M467.278,230.167c-7.64,0-13.89-6.25-13.89-13.89v-6.944c0-7.639,6.25-13.889,13.89-13.889
		c7.639,0,13.889,6.25,13.889,13.89v6.944c0,7.639-6.25,13.889-13.89,13.889"/>
</g>
<g id="Shape_8">
	<path fill="none" stroke="#4A4A4A" stroke-width="2" stroke-linecap="round" stroke-linejoin="round" d="M466.278,230.167
		c-7.64,0-13.89-6.25-13.89-13.89v-6.944c0-7.639,6.25-13.889,13.89-13.889c7.639,0,13.889,6.25,13.889,13.89v6.944
		c0,7.639-6.25,13.889-13.89,13.889H466.278z M466.278,216.278v27.778V216.278z"/>
</g>
<g id="Shape_9">
	<path fill="#F6F7F7" d="M258.944,230.167c-7.638,0-13.888-6.25-13.888-13.89c0-7.638,6.25-13.888,13.888-13.888
		c7.64,0,13.89,6.25,13.89,13.889C272.834,223.917,266.584,230.167,258.944,230.167z"/>
</g>
<g id="Shape_10">
	<path fill="none" stroke="#4A4A4A" stroke-width="2" stroke-linecap="round" stroke-linejoin="round" d="M258.944,230.167
		c-7.638,0-13.888-6.25-13.888-13.89c0-7.638,6.25-13.888,13.888-13.888c7.64,0,13.89,6.25,13.89,13.889
		C272.834,223.917,266.584,230.167,258.944,230.167z M258.944,223.222v20.834V223.222z"/>
</g>
<g id="Shape_11">
	<path fill="#F6F7F7" d="M64.5,223.222c-7.639,0-13.889-6.25-13.889-13.889c0-7.639,6.25-13.889,13.889-13.889
		s13.889,6.25,13.889,13.89C78.389,216.972,72.139,223.222,64.5,223.222z"/>
</g>
<g id="Shape_12">
	<path fill="none" stroke="#4A4A4A" stroke-width="2" stroke-linecap="round" stroke-linejoin="round" d="M64.5,223.222
		c-7.639,0-13.889-6.25-13.889-13.889c0-7.639,6.25-13.889,13.889-13.889s13.889,6.25,13.889,13.89
		C78.389,216.972,72.139,223.222,64.5,223.222z M64.5,216.278v27.778V216.278z"/>
</g>
</svg>
