<?xml version="1.0" encoding="utf-8"?>
<!-- Generator: Adobe Illustrator 18.0.0, SVG Export Plug-In . SVG Version: 6.00 Build 0)  -->
<!DOCTYPE svg PUBLIC "-//W3C//DTD SVG 1.1//EN" "http://www.w3.org/Graphics/SVG/1.1/DTD/svg11.dtd">
<svg version="1.1" id="Layer_1" xmlns="http://www.w3.org/2000/svg" xmlns:xlink="http://www.w3.org/1999/xlink" x="0px" y="0px"
	 width="502px" height="251.805px" viewBox="0 0 502 251.805" enable-background="new 0 0 502 251.805" xml:space="preserve">
<g id="Shape_13">
	<path fill="#FFFFFF" d="M56.324,250.574l0.231-27.756l-4.166,0.23l17.593-14.108l28.24,0.23v-13.877h6.944v-6.94l6.945-6.938H188.5
		v-69.39h6.944v-6.94h20.834V84.268h13.888V70.39h6.945V49.573h6.944L251,42.634h6.944l6.945,6.939h6.944V70.39h6.945v13.878h13.888
		v83.269h27.778l13.89,6.939V35.695h6.944V21.817h41.666v13.878h6.945v76.33h48.61v62.45h6.945v13.879h6.945v62.45h20.833V105.086
		h6.944V70.39h6.945V42.634H501v207.94"/>
</g>
<g id="Shape_14">
	<path fill="#ECEBEB" d="M85.72,250.805h40.417V222.98H85.72V250.805z"/>
</g>
<g id="Shape_15">
	<path fill="#ECEBEB" d="M376,35.695h6.944V21.817H376V35.695z M223.222,112.024h-6.944v-6.939h6.944V112.024z M223.222,250.805
		h6.945v-138.78h-6.945V250.805z M126,250.805h83.333v-55.512H126V250.805z M320.444,250.805v-69.39h27.778v69.39H320.444z
		 M435.028,209.17h-31.25v41.635h31.666L435.028,209.17z M389.889,195.292l-6.945,6.94V35.696h6.945V195.292z M410.722,174.476
		h6.945v13.878H438.5v62.451h13.889v-62.451h-6.945v-13.878H438.5v-62.452h-27.778V174.476z M70.444,243.866H63.5v-13.878h6.944
		V243.866z M195.444,139.78h6.945v-13.877h-6.945V139.78z M216.278,139.78h-6.945v-13.877h6.945V139.78z M285.723,209.17v-13.877
		h-13.89v13.877H285.723z M299.611,209.17h-6.944v-13.877h6.944V209.17z M306.556,209.17h6.944v-13.877h-6.944V209.17z
		 M237.111,112.024h-6.944V91.207h6.944V112.024z M244.056,112.024H251V91.207h-6.944V112.024z M264.889,112.024h-6.945V91.207
		h6.945V112.024z M271.833,112.024h6.945v62.452l13.889-6.939V84.268h-13.889V70.39h-6.945V49.573h-6.944V70.39h6.944v13.878h6.945
		v6.939h-6.945V112.024z M348.222,56.512h-6.944v-6.939h6.944V56.512z M369.056,56.512H376v-6.939h-6.944V56.512z M348.222,91.207
		h-6.944V63.451h6.944V91.207z M369.056,91.207H376V63.451h-6.944V91.207z M362.111,56.512h-6.944v-6.939h6.944V56.512z
		 M355.167,91.207h6.944V63.451h-6.944V91.207z M396.833,223.049h-6.944v-6.94h6.944V223.049z M487.111,91.207h6.945v-6.939h-6.945
		V91.207z M494.056,125.903h-6.945v-6.94h6.945V125.903z M487.111,146.72h6.945v-13.878h-6.945V146.72z"/>
</g>
<g id="Shape_16">
	<path fill="none" stroke="#4A4A4A" stroke-width="2" stroke-linecap="round" stroke-linejoin="round" d="M20.445,250.805H1H20.445z
		 M501,250.805H26.718H501z M56.556,223.049v27.756H126V223.05L56.556,223.049z M128.778,223.049l-16.667-13.878H70.444
		l-16.666,13.878h2.778H128.778z M76.515,215.237l-5.99-5.985L76.515,215.237z"/>
</g>
<g id="Shape_17">
	<path fill="none" stroke="#4A4A4A" stroke-width="2" stroke-linecap="round" stroke-linejoin="round" d="M98.22,209.17v-13.877
		h6.945v-6.94l6.944-6.938h83.333l6.945,6.939v6.939h6.944v55.512h-83.333l0.139-27.825l2.639,0.069l-16.667-13.878L98.22,209.17z
		 M112.109,181.415l6.945,6.939L112.109,181.415z M202.387,195.64h-48.611H202.387z M195.443,229.988h13.888H195.443z
		 M125.998,229.988h55.556H125.998z"/>
</g>
<g id="Shape_18">
	<path fill="none" stroke="#4A4A4A" stroke-width="2" stroke-linecap="round" stroke-linejoin="round" d="M188.5,181.415v-69.39
		h6.944v-6.94h27.778v6.94h6.945v138.78L188.5,181.415z M223.222,112.371h-6.944H223.222z M209.333,105.085V84.268V105.085z
		 M348.222,250.805v-69.39l-27.778-13.878h-27.777l-27.778,13.878v69.39H348.222z M292.667,181.415h-27.778H292.667z
		 M292.667,158.678v3.932V158.678z"/>
</g>
<g id="Shape_19">
	<path fill="none" stroke="#4A4A4A" stroke-width="2" stroke-linecap="round" stroke-linejoin="round" d="M216.28,105.085V84.268
		h13.889V70.39h6.944V49.573h6.945l6.944-6.939h6.944l6.945,6.94h6.944V70.39h6.945v13.878h13.889v69.414L216.28,105.085z
		 M254.405,42.634V28.756V42.634z M244.058,70.39v13.878V70.39z M230.169,84.615h13.889H230.169z M424.613,209.17h13.889
		l-13.889-13.877h-34.722l-13.889,13.877h27.778H424.613z M379.474,209.17v41.635V209.17z M435.03,209.17v41.635V209.17z
		 M403.78,229.988v20.817V229.988z M334.335,174.476V35.696h6.945v-13.88h41.666v13.878h6.945v159.598L334.335,174.476z
		 M362.113,21.817V1V21.817z M382.946,202.232v-27.756V202.232z"/>
</g>
<g id="Shape_20">
	<path fill="none" stroke="#4A4A4A" stroke-width="2" stroke-linecap="round" stroke-linejoin="round" d="M452.389,250.805v-62.451
		h-6.945v-13.878H438.5v-62.452h-42.57L452.389,250.805z M445.444,250.805v-13.878V250.805z M389.889,139.78h13.889H389.889z
		 M473.222,250.805v-145.72h6.945V70.39h6.944V42.634H501L473.222,250.805z M480.167,105.432h6.944H480.167z M56.556,223.049h14.757
		H56.556z M126.139,222.98H85.722H126.139z"/>
</g>
<g id="Shape_21">
	<path fill="#F6F7F7" d="M257.948,236.927c-7.638,0-13.888-6.245-13.888-13.878v-6.94c0-7.632,6.25-13.877,13.888-13.877
		c7.64,0,13.89,6.245,13.89,13.878v6.939C271.838,230.682,265.588,236.927,257.948,236.927z"/>
</g>
<g id="Shape_22">
	<path fill="none" stroke="#4A4A4A" stroke-width="2" stroke-linecap="round" stroke-linejoin="round" d="M272.948,236.927
		c-7.638,0-13.888-6.245-13.888-13.878v-6.94c0-7.632,6.25-13.877,13.888-13.877c7.64,0,13.89,6.245,13.89,13.878v6.939
		C286.838,230.682,280.588,236.927,272.948,236.927z M272.948,223.049v27.756V223.049z"/>
</g>
<g id="Shape_23">
	<path fill="#F6F7F7" d="M480.17,229.988c-7.64,0-13.89-6.245-13.89-13.878v-13.878c0-7.633,6.25-13.878,13.89-13.878
		c7.639,0,13.889,6.245,13.889,13.878v13.878c0,7.633-6.25,13.878-13.89,13.878"/>
</g>
<g id="Shape_24">
	<path fill="none" stroke="#4A4A4A" stroke-width="2" stroke-linecap="round" stroke-linejoin="round" d="M480.17,229.988
		c-7.64,0-13.89-6.245-13.89-13.878v-13.878c0-7.633,6.25-13.878,13.89-13.878c7.639,0,13.889,6.245,13.889,13.878v13.878
		c0,7.633-6.25,13.878-13.89,13.878H480.17z M480.17,209.17v41.635V209.17z"/>
</g>
</svg>
