<svg width="176" height="160" viewBox="0 0 176 160" fill="none" xmlns="http://www.w3.org/2000/svg">
<path d="M0.18 6.323L0 7.963C2.08 8.035 4.246 8.073 6.499 8.073C29.502 8.073 43.74 4.068 43.74 0.357H43.772V0C38.827 4.399 22.164 6.434 6.499 6.434C4.401 6.434 2.285 6.396 0.18 6.323Z" transform="translate(85.326 66.145)" fill="white"/>
<path d="M43.387 4.598C43.252 2.743 42.727 1.222 41.783 0C40.89 2.096 36.27 3.591 30.198 4.598C22.898 5.808 13.516 6.317 6.025 6.317C4.706 6.317 3.327 6.301 1.912 6.269L1.366 11.219L1.201 12.719L0.84 15.99L0.598 18.188L0.433 19.688L0 23.607C1.976 23.671 4.027 23.706 6.155 23.706C29.158 23.706 43.396 19.701 43.396 15.99H43.428V12.719V11.219V5.597C43.429 5.252 43.41 4.923 43.387 4.598Z" transform="translate(85.67 47.373)" fill="white"/>
<path d="M34.691 3.252C32.931 2.682 30.557 2.131 27.639 1.65C25.933 1.369 24.036 1.112 21.966 0.888C16.935 0.345 10.872 0 3.929 0C3.001 0 2.095 0.008 1.2 0.02L1.104 0.888L1.021 1.638L0.939 2.388L0 10.908H13.244C29.008 10.143 38.357 7.526 38.357 5.563C38.357 4.84 37.086 4.028 34.691 3.252Z" transform="translate(87.766 41.062)" fill="white"/>
<path d="M3.95 0.219C7.259 0.219 10.37 0.141 13.264 0H0.02L0 0.181C1.284 0.206 2.601 0.219 3.95 0.219Z" transform="translate(87.745 51.97)" fill="white"/>
<path d="M13.329 6.435C11.115 6.435 8.883 6.393 6.666 6.312L1.397 54.109L0.705 60.388L0.459 62.628L0.375 63.378L0.293 64.128L0 66.783C3.702 67.077 8.053 67.251 13.199 67.251C26.401 67.251 35.185 65.715 40.66 63.894C42.068 63.426 43.26 62.939 44.247 62.454C45.707 61.738 46.728 61.027 47.371 60.389H47.13C49.262 59.003 50.356 56.936 50.561 54.109C50.584 53.784 50.603 53.455 50.603 53.109V0C45.657 4.401 28.994 6.435 13.329 6.435Z" transform="translate(78.496 69.2839)" fill="white"/>
<path d="M33.627 7.125C33.627 11.061 26.097 14.251 16.811 14.251C7.526 14.251 0 11.061 0 7.125C0 3.189 7.525 0 16.811 0C26.097 0 33.627 3.19 33.627 7.125Z" transform="translate(101.494 137.609)" fill="white"/>
<path fill-rule="evenodd" clip-rule="evenodd" d="M0 7.875C0 12.292 7.714 15.751 17.561 15.751C27.411 15.751 35.127 12.292 35.127 7.875C35.127 3.45898 27.412 0 17.561 0C7.714 0 0 3.45898 0 7.875ZM1.5 7.875C1.5 4.79602 7.95399 1.5 17.561 1.5C27.171 1.5 33.627 4.797 33.627 7.875C33.627 10.954 27.171 14.251 17.561 14.251C7.953 14.251 1.5 10.954 1.5 7.875Z" transform="translate(100.744 136.859)" fill="#1D1D1B"/>
<path d="M5.075 3.606C6.325 4.958 7.107 6.771 7.278 9.175H7.33H8.02C7.639 3.648 4.174 1.114 0 0C2.983 0.954 4.895 2.145 5.075 3.606Z" transform="translate(122.519 42.795)" fill="#1D1D1B"/>
<path d="M0.06 1V0C0.06 0.353 0.024 0.669 0 1H0.06Z" transform="translate(130.539 122.394)" fill="#1D1D1B"/>
<path d="M0 0.971C0.943 2.193 1.469 3.714 1.604 5.569H1.646H2.344C2.173 3.165 1.391 1.351 0.141 0C0.151 0.075 0.17 0.148 0.17 0.224C0.17 0.481 0.103 0.729 0 0.971Z" transform="translate(127.453 46.402)" fill="#1D1D1B"/>
<path d="M0.042 1V0H0C0.023 0.326 0.042 0.655 0.042 1Z" transform="translate(129.057 51.97)" fill="white"/>
<path d="M0 0C0.023 0.331 0.06 0.647 0.06 1V0H0Z" transform="translate(130.539 51.9709)" fill="#1D1D1B"/>
<path d="M2.938 0C2.736 2.846 1.678 4.864 0 6.27L0.014 6.281L0.592 6.726C2.313 5.238 3.468 3.078 3.68 0.001H2.99H2.938V0Z" transform="translate(126.859 123.394)" fill="#1D1D1B"/>
<path d="M0 0.001V1.001V6.622V8.122V11.393H0.718C0.718 12.092 0.46 12.746 0 13.362V14.533H0.718C0.718 15.232 0.46 15.886 0 16.502V70.425V71.425H0.69C0.713 71.094 0.75 70.778 0.75 70.425V1C0.75 0.647 0.714 0.331 0.69 0H0V0.001Z" transform="translate(129.849 51.97)" fill="#1D1D1B"/>
<path d="M0.052 1V0C0.052 0.35 0.023 0.672 0 1H0.052Z" transform="translate(129.797 122.394)" fill="#1D1D1B"/>
<path d="M3.431 0.001C3.226 2.829 2.132 4.896 0 6.281H0.241C0.399 6.124 0.539 5.97 0.652 5.823L1.233 6.27C2.911 4.864 3.968 2.847 4.171 0H3.473H3.431V0.001Z" transform="translate(125.626 123.393)" fill="#1D1D1B"/>
<path d="M0.042 1V0C0.042 0.346 0.023 0.674 0 1H0.042Z" transform="translate(129.057 122.394)" fill="#1D1D1B"/>
<path d="M0.052 1V0H0C0.022 0.328 0.052 0.65 0.052 1Z" transform="translate(129.797 51.97)" fill="#1D1D1B"/>
<path d="M0 0.814V53.923V54.923H0.698C0.72 54.595 0.75 54.274 0.75 53.923V0C0.541 0.279 0.295 0.552 0 0.814Z" transform="translate(129.099 68.4709)" fill="#1D1D1B"/>
<path d="M0 0.814V1.171H0.75V0C0.541 0.279 0.295 0.551 0 0.814Z" transform="translate(129.099 65.332)" fill="#1D1D1B"/>
<path d="M0 3.272H0.717H0.75V0H0V3.272Z" transform="translate(129.099 60.0909)" fill="#1D1D1B"/>
<path d="M0 0.001V1.001V6.622H0.75V1C0.75 0.65 0.721 0.328 0.698 0H0V0.001Z" transform="translate(129.099 51.97)" fill="#1D1D1B"/>
<path d="M0 0H0.75V1.5H0V0Z" transform="translate(129.099 58.5909)" fill="#1D1D1B"/>
<path d="M6.319 6.737C4.203 6.737 2.121 6.699 0.083 6.63L0 7.377C2.105 7.45 4.221 7.488 6.319 7.488C21.984 7.488 38.647 5.454 43.592 1.054V0C40.131 4.097 24.465 6.737 6.319 6.737Z" transform="translate(85.506 65.092)" fill="#1D1D1B"/>
<path d="M0.718 0H0V1.969C0.461 1.353 0.718 0.699 0.718 0Z" transform="translate(129.848 63.363)" fill="#1D1D1B"/>
<path d="M0 1.729V2.783C0.295 2.521 0.541 2.248 0.75 1.969V0H0.718C0.717 0.601 0.465 1.178 0 1.729Z" transform="translate(129.099 63.363)" fill="#1D1D1B"/>
<path d="M6.236 7.717C4.108 7.717 2.056 7.683 0.081 7.618L0 8.359C2.038 8.429 4.12 8.466 6.236 8.466C24.382 8.466 40.048 5.826 43.509 1.729V0H43.477C43.477 3.712 29.239 7.717 6.236 7.717Z" transform="translate(85.589 63.3619)" fill="#1D1D1B"/>
<path d="M0.718 0H0V1.729C0.466 1.178 0.718 0.601 0.718 0Z" transform="translate(129.098 63.363)" fill="#1D1D1B"/>
<path d="M2.646 0.75C11.775 0.75 20.089 1.374 26.341 2.397C28.657 2.43 31.163 2.618 33.47 3.233C26.226 0.918 12.725 0 2.646 0C1.814 0 0.956 0.007 0.082 0.02L0 0.77C0.875 0.758 1.755 0.75 2.646 0.75Z" transform="translate(89.049 39.563)" fill="#1D1D1B"/>
<path d="M0 5.267H5.454C11.526 4.26 16.146 2.765 17.039 0.669C16.857 0.435 16.66 0.211 16.448 0C16.299 2.219 9.772 4.162 0 5.267Z" transform="translate(110.414 46.704)" fill="#1D1D1B"/>
<path d="M6.651 1.473C8.931 2.029 10.839 2.967 12.203 4.441C12.023 2.98 10.111 1.789 7.129 0.836C4.822 0.221 2.317 0.033 0 0C2.609 0.426 4.851 0.923 6.651 1.473Z" transform="translate(115.391 41.9609)" fill="#1D1D1B"/>
<path d="M4.831 3.192C4.831 3.218 4.821 3.244 4.82 3.27C5.032 3.482 5.229 3.705 5.411 3.939C5.514 3.697 5.581 3.45 5.581 3.192C5.581 3.116 5.561 3.043 5.552 2.968C4.189 1.494 2.281 0.556 0 0C3.065 0.938 4.831 2.027 4.831 3.192Z" transform="translate(122.042 43.433)" fill="#1D1D1B"/>
<path d="M4.113 0.969C2.749 0.969 1.405 0.953 0.082 0.927L0 1.671C1.415 1.703 2.794 1.719 4.113 1.719C11.604 1.719 20.986 1.211 28.286 0H22.832C17.41 0.613 10.995 0.969 4.113 0.969Z" transform="translate(87.582 51.97)" fill="#1D1D1B"/>
<path d="M2.729 0.75C9.672 0.75 15.735 1.095 20.766 1.638H25.621C25.884 1.638 26.154 1.643 26.424 1.647C20.172 0.624 11.858 0 2.729 0C1.837 0 0.958 0.008 0.083 0.02L0 0.77C0.895 0.758 1.802 0.75 2.729 0.75Z" transform="translate(88.966 40.313)" fill="#1D1D1B"/>
<path d="M25.113 2.312C25.113 4.275 15.763 6.892 0 7.657H9.404C19.175 6.553 25.703 4.61 25.852 2.389C24.789 1.327 23.341 0.532 21.447 0C23.842 0.777 25.113 1.589 25.113 2.312Z" transform="translate(101.01 44.313)" fill="#1D1D1B"/>
<path d="M0 0C2.07 0.224 3.967 0.48 5.673 0.762C8.074 0.799 10.328 1 12.31 1.483C10.51 0.934 8.268 0.437 5.659 0.009C5.389 0.005 5.119 0 4.856 0H0Z" transform="translate(109.732 41.951)" fill="#1D1D1B"/>
<path d="M7.052 1.602C8.947 2.134 10.394 2.929 11.457 3.991C11.458 3.965 11.468 3.939 11.468 3.913C11.468 2.748 9.702 1.658 6.637 0.721C4.656 0.238 2.402 0.036 0 0C2.918 0.481 5.292 1.032 7.052 1.602Z" transform="translate(115.405 42.712)" fill="#1D1D1B"/>
<path d="M0.082 0.181L0 0.927C1.323 0.954 2.667 0.969 4.031 0.969C10.913 0.969 17.328 0.613 22.75 0H13.346C10.451 0.141 7.34 0.219 4.032 0.219C2.682 0.219 1.365 0.206 0.082 0.181Z" transform="translate(87.664 51.97)" fill="#1D1D1B"/>
<path d="M49.12 0C47.893 1.06 46.391 1.783 44.763 2.278C43.501 2.662 42.169 2.909 40.825 3.06C35.35 4.881 26.566 6.417 13.364 6.417C8.218 6.417 3.867 6.243 0.165 5.949L0.083 6.701L0 7.451C3.776 7.747 8.183 7.917 13.364 7.917C35.278 7.917 46.331 3.659 49.136 0.013L49.12 0Z" transform="translate(78.331 130.119)" fill="#1D1D1B"/>
<path d="M0.027 0.011L0.013 0L0 0.011H0.027Z" transform="translate(126.846 129.663)" fill="#1D1D1B"/>
<path d="M0 2.723C1.629 2.228 3.131 1.505 4.357 0.445L3.779 0C3.17 0.792 1.963 1.754 0 2.723Z" transform="translate(123.094 129.673)" fill="#1D1D1B"/>
<path d="M0 0.458H0.979C0.984 0.455 0.989 0.451 0.993 0.447L0.412 0C0.298 0.147 0.158 0.301 0 0.458Z" transform="translate(125.867 129.216)" fill="#1D1D1B"/>
<path d="M3.587 2.065C2.6 2.55 1.408 3.037 0 3.505C1.344 3.354 2.676 3.107 3.938 2.723C5.901 1.753 7.108 0.791 7.717 0H7.69C6.57 0.935 5.182 1.605 3.587 2.065Z" transform="translate(119.156 129.674)" fill="#1D1D1B"/>
<path d="M0 2.065C1.595 1.605 2.982 0.935 4.103 0H3.124C2.482 0.638 1.46 1.348 0 2.065Z" transform="translate(122.743 129.674)" fill="#1D1D1B"/>
<path d="M6.663 7.716C4.41 7.716 2.244 7.677 0.164 7.606L0 9.094C2.217 9.175 4.449 9.217 6.663 9.217C22.328 9.217 38.991 7.183 43.936 2.783V0H43.904C43.904 3.71 29.666 7.716 6.663 7.716Z" transform="translate(85.162 66.5029)" fill="#1D1D1B"/>
<path d="M0.718 0H0V1.969C0.461 1.353 0.718 0.699 0.718 0Z" transform="translate(129.848 66.502)" fill="#1D1D1B"/>
<path d="M0 2.783C0.295 2.521 0.541 2.248 0.75 1.969V0H0V2.783Z" transform="translate(129.099 66.502)" fill="#1D1D1B"/>
<path d="M74.666 140.392L74.649 140.536L74.688 140.676C74.738 140.854 74.762 141.003 74.762 141.131C74.762 144.694 62.873 148.664 45.815 148.664C28.757 148.664 16.868 144.694 16.868 141.131C16.868 140.999 16.891 140.853 16.94 140.683L16.98 140.541L1.49 0L0 0.164L15.458 140.421C15.397 140.67 15.368 140.903 15.368 141.13C15.368 146.997 31.056 150.163 45.815 150.163C60.574 150.163 76.262 146.997 76.262 141.13C76.262 140.906 76.232 140.672 76.171 140.419L77.521 128.175C77.012 128.135 76.512 128.093 76.026 128.049L74.666 140.392Z" transform="translate(0.809998 9.39404)" fill="#1D1D1B"/>
<path d="M4.821 0.164L3.331 0L0 30.217C0.51 30.205 1.014 30.196 1.512 30.189L4.821 0.164Z" transform="translate(87.619 9.39404)" fill="#1D1D1B"/>
<path d="M0 6.279H1.509L2.202 0H0.693L0 6.279Z" transform="translate(77.692 123.394)" fill="#1D1D1B"/>
<path d="M0 1.639C0.495 1.66 0.995 1.68 1.502 1.698L1.682 0.058C1.181 0.041 0.68 0.021 0.18 0L0 1.639Z" transform="translate(83.824 72.411)" fill="#1D1D1B"/>
<path d="M0 47.859H1.509L6.778 0.062C6.276 0.044 5.776 0.023 5.276 0L0 47.859Z" transform="translate(78.385 75.535)" fill="#1D1D1B"/>
<path d="M0 3.272H1.508L1.869 0H0.36L0 3.272Z" transform="translate(85.002 60.0909)" fill="#1D1D1B"/>
<path d="M0 4.991H1.509L2.055 0.041C1.557 0.029 1.056 0.016 0.551 0L0 4.991Z" transform="translate(85.527 53.6)" fill="#1D1D1B"/>
<path d="M0 1.5H1.509L1.674 0H0.165L0 1.5Z" transform="translate(85.362 58.5909)" fill="#1D1D1B"/>
<path d="M0 2.198H1.508L1.75 0H0.242L0 2.198Z" transform="translate(84.76 63.363)" fill="#1D1D1B"/>
<path d="M0.426 0L0 3.862C0.497 3.883 0.995 3.903 1.502 3.919L1.935 0H0.426Z" transform="translate(84.168 67.061)" fill="#1D1D1B"/>
<path d="M1.509 1.5L1.674 0H0.166L0 1.5H1.509Z" transform="translate(84.594 65.561)" fill="#1D1D1B"/>
<path d="M0 0.746C0.5 0.767 1.001 0.787 1.502 0.804L1.585 0.057C1.082 0.039 0.58 0.021 0.082 0L0 0.746Z" transform="translate(84.004 71.6639)" fill="#1D1D1B"/>
<path d="M0 0.741C0.498 0.762 1 0.781 1.503 0.798L1.584 0.057C1.077 0.041 0.579 0.02 0.082 0L0 0.741Z" transform="translate(84.086 70.924)" fill="#1D1D1B"/>
<path d="M1.509 0.868L1.605 0C1.096 0.007 0.591 0.015 0.094 0.025L0 0.868H1.509V0.868Z" transform="translate(87.361 41.083)" fill="#1D1D1B"/>
<path d="M2.447 0H0.938L0 8.52H1.508L2.447 0Z" transform="translate(86.258 43.451)" fill="#1D1D1B"/>
<path d="M1.591 0H0.082L0 0.75H1.508L1.591 0Z" transform="translate(87.279 41.951)" fill="#1D1D1B"/>
<path d="M1.591 0H0.083L0 0.75H1.509L1.591 0Z" transform="translate(87.196 42.701)" fill="#1D1D1B"/>
<path d="M1.505 0.181L1.525 0H0.017L0 0.145C0.497 0.159 0.997 0.172 1.505 0.181Z" transform="translate(86.241 51.97)" fill="#1D1D1B"/>
<path d="M1.512 0.75L1.594 0C1.096 0.008 0.592 0.017 0.082 0.028L0 0.776C0.5 0.765 1.004 0.756 1.512 0.75Z" transform="translate(87.537 39.583)" fill="#1D1D1B"/>
<path d="M0.081 0L0 0.74C0.505 0.756 1.006 0.769 1.504 0.781L1.586 0.037C1.081 0.026 0.578 0.014 0.081 0Z" transform="translate(86.078 52.861)" fill="#1D1D1B"/>
<path d="M1.511 0.75L1.594 0C1.086 0.007 0.582 0.015 0.082 0.026L0 0.776C0.497 0.765 1.002 0.757 1.511 0.75Z" transform="translate(87.455 40.333)" fill="#1D1D1B"/>
<path d="M0.082 0L0 0.746C0.497 0.76 1 0.772 1.505 0.782L1.587 0.036C1.079 0.027 0.579 0.014 0.082 0Z" transform="translate(86.159 52.115)" fill="#1D1D1B"/>
<path d="M0.278 0L0 2.526C0.486 2.571 0.982 2.614 1.494 2.655L1.787 0H0.278Z" transform="translate(77.002 133.413)" fill="#1D1D1B"/>
<path d="M0 2.24H1.51L1.756 0H0.247L0 2.24Z" transform="translate(77.445 129.673)" fill="#1D1D1B"/>
<path d="M0 0.75H1.509L1.591 0H0.083L0 0.75Z" transform="translate(77.28 132.663)" fill="#1D1D1B"/>
<path d="M0 0.75H1.508L1.592 0H0.082L0 0.75Z" transform="translate(77.363 131.913)" fill="#1D1D1B"/>
<path d="M0.083 0L0 0.753C0.486 0.798 0.986 0.839 1.495 0.879L1.578 0.129C1.065 0.09 0.571 0.046 0.083 0Z" transform="translate(76.836 136.69)" fill="#1D1D1B"/>
<path d="M0.083 0L0 0.751C0.488 0.796 0.982 0.84 1.495 0.88L1.577 0.128C1.065 0.088 0.569 0.045 0.083 0Z" transform="translate(76.919 135.939)" fill="#1D1D1B"/>
<path d="M0 1.485C0.5 1.507 1 1.528 1.502 1.547L1.666 0.059C1.159 0.041 0.659 0.022 0.164 0L0 1.485Z" transform="translate(83.66 74.05)" fill="#1D1D1B"/>
<path d="M14.679 0H14.437C14.533 0.245 14.595 0.493 14.595 0.75C14.595 1.666 13.96 2.503 12.824 3.264L0 123.739C0.688 124.364 1.131 125.045 1.293 125.776L14.592 0.83L14.679 0Z" transform="translate(71.553 18.928)" fill="#1D1D1B"/>
<path d="M14.677 123.739L1.855 3.264C0.718 2.504 0.084 1.666 0.084 0.75C0.084 0.493 0.146 0.245 0.242 0H0L13.385 125.775C13.546 125.045 13.989 124.365 14.677 123.739Z" transform="translate(7.01801 18.927)" fill="#1D1D1B"/>
<path d="M75.603 0C73.249 2.558 59.351 5.626 37.939 5.626C16.527 5.626 2.628 2.558 0.275 0H0L0.188 1.764C5.466 5.293 21.78 7.126 37.94 7.126C54.1 7.126 70.414 5.293 75.692 1.764L75.88 0H75.603Z" transform="translate(8.686 20.428)" fill="#1D1D1B"/>
<path d="M39.365 1.5C60.777 1.5 74.676 4.568 77.029 7.125H78.73C76.902 2.444 58.031 0 39.365 0C20.699 0 1.828 2.445 0 7.125H1.701C4.054 4.568 17.953 1.5 39.365 1.5Z" transform="translate(7.25998 11.802)" fill="#1D1D1B"/>
<path d="M1.772 3.264L1.584 1.5H1.859C1.623 1.244 1.5 0.993 1.5 0.75C1.5 0.507 1.623 0.256 1.859 0H0.158C0.062 0.245 0 0.493 0 0.75C0.001 1.667 0.635 2.504 1.772 3.264Z" transform="translate(7.10098 18.927)" fill="#1D1D1B"/>
<path d="M0.36 0.75C0.36 0.993 0.237 1.244 0.001 1.5H0.276L0.088 3.264C1.225 2.504 1.859 1.666 1.859 0.75C1.859 0.493 1.797 0.245 1.701 0H0C0.237 0.256 0.36 0.507 0.36 0.75Z" transform="translate(84.288 18.928)" fill="#1D1D1B"/>
<path d="M0 5.221L0.202 7.126H0.342C1.845 4.33 11.52 1.5 24.93 1.5C38.34 1.5 48.013 4.33 49.516 7.126H49.656L49.858 5.221C46.11 1.812 35.258 0 24.93 0C14.601 0 3.748 1.813 0 5.221Z" transform="translate(21.695 137.445)" fill="#1D1D1B"/>
<path d="M50.885 1.368C49.382 4.164 39.709 6.994 26.299 6.994C12.889 6.994 3.214 4.164 1.711 1.368H0.222L0.076 0C0.031 0.203 0 0.408 0 0.618C0 5.734 13.55 8.494 26.299 8.494C39.047 8.494 52.596 5.734 52.596 0.618C52.596 0.408 52.565 0.202 52.52 0L52.374 1.368H50.885Z" transform="translate(20.326 144.703)" fill="#1D1D1B"/>
<path d="M0.342 0L0.14 1.905H0C0.135 2.156 0.211 2.406 0.211 2.655C0.211 2.904 0.135 3.154 0 3.405H1.489L1.635 2.037C1.473 1.306 1.03 0.626 0.342 0Z" transform="translate(71.211 142.666)" fill="#1D1D1B"/>
<path d="M1.635 3.405C1.5 3.154 1.424 2.904 1.424 2.655C1.424 2.406 1.5 2.156 1.635 1.905H1.495L1.293 0C0.605 0.625 0.162 1.306 0 2.037L0.146 3.405H1.635Z" transform="translate(20.402 142.666)" fill="#1D1D1B"/>
<path fill-rule="evenodd" clip-rule="evenodd" d="M0 9.03296C0 14.9 23.607 18.066 45.82 18.066C68.033 18.066 91.64 14.9 91.64 9.03296C91.64 3.16602 68.033 0 45.82 0C23.607 0 0 3.16602 0 9.03296ZM1.5 9.03198C1.5 5.953 17.283 1.49902 45.82 1.49902C74.357 1.49902 90.14 5.953 90.14 9.03198C90.14 12.1111 74.357 16.5651 45.82 16.5651C17.283 16.5651 1.5 12.1111 1.5 9.03198Z" transform="translate(0.804993 0.442993)" fill="#1D1D1B"/>
<path d="M11.513 6.881C11.099 6.881 10.763 6.545 10.763 6.131C10.763 3.578 8.685 1.5 6.131 1.5C3.577 1.5 1.5 3.578 1.5 6.131C1.5 6.545 1.164 6.881 0.75 6.881C0.336 6.881 0 6.545 0 6.131C0 2.751 2.75 0 6.131 0C9.512 0 12.263 2.75 12.263 6.131C12.263 6.545 11.927 6.881 11.513 6.881Z" transform="translate(29.513 78.978)" fill="black"/>
<path d="M11.514 6.881C11.1 6.881 10.764 6.545 10.764 6.131C10.764 3.578 8.686 1.5 6.131 1.5C3.577 1.5 1.5 3.578 1.5 6.131C1.5 6.545 1.164 6.881 0.75 6.881C0.336 6.881 0 6.545 0 6.131C0 2.751 2.75 0 6.131 0C9.513 0 12.264 2.75 12.264 6.131C12.264 6.545 11.928 6.881 11.514 6.881Z" transform="translate(52.189 78.978)" fill="black"/>
<path fill-rule="evenodd" clip-rule="evenodd" d="M0.0059248 0.844971C0.633946 5.74805 4.84095 9.44495 9.79093 9.44495C14.7419 9.44495 18.9489 5.74805 19.5739 0.844971C19.6009 0.630981 19.5349 0.416016 19.3919 0.254028C19.251 0.0930176 19.0459 0 18.8299 0H0.749943C0.534947 0 0.32993 0.092041 0.186925 0.254028C0.0449263 0.416016 -0.0210527 0.630981 0.0059248 0.844971ZM9.79194 7.94495C5.88294 7.94495 2.52195 5.229 1.64695 1.5H17.9349C17.062 5.229 13.7009 7.94495 9.79194 7.94495Z" transform="translate(37.3201 93.338)" fill="black"/>
<path d="M0 16.268V0H33.559V16.268" transform="translate(101.494 129.066)" fill="white"/>
<path d="M35.059 17.018H33.559V1.5H1.5V17.018H0V0H35.059V17.018Z" transform="translate(100.744 128.316)" fill="black"/>
<path d="M16.854 14.254C26.1622 14.254 33.708 11.0631 33.708 7.127C33.708 3.19087 26.1622 0 16.854 0C7.54579 0 0 3.19087 0 7.127C0 11.0631 7.54579 14.254 16.854 14.254Z" transform="translate(101.443 121.939)" fill="white"/>
<path fill-rule="evenodd" clip-rule="evenodd" d="M0 7.875C0 12.292 7.733 15.752 17.604 15.752C27.475 15.752 35.207 12.292 35.208 7.875C35.208 3.45898 27.476 0 17.604 0C7.73199 0 0 3.45898 0 7.875ZM1.5 7.875C1.5 4.79602 7.97099 1.5 17.604 1.5C27.237 1.5 33.707 4.797 33.708 7.875C33.708 10.955 27.237 14.252 17.604 14.252C7.97099 14.252 1.5 10.955 1.5 7.875Z" transform="translate(100.693 121.191)" fill="#1D1D1B"/>
<path d="M0 4.604C0 2.061 4.875 0 10.889 0C16.903 0 21.778 2.061 21.778 4.604" transform="translate(107.408 130.005)" fill="white"/>
<path d="M23.278 5.354H21.778C21.778 3.531 17.614 1.5 11.639 1.5C5.664 1.5 1.5 3.531 1.5 5.354H0C0 2.302 5.004 0 11.639 0C18.274 0 23.278 2.302 23.278 5.354Z" transform="translate(106.658 129.255)" fill="#1D1D1B"/>
<path d="M0 4.055H39.8C40.9 4.055 41.8 3.155 41.8 2.055V2C41.8 0.9 40.9 0 39.8 0H2.521" transform="translate(132.647 128.75)" fill="white"/>
<path d="M39.8 5.555H0V4.055H39.8C40.489 4.055 41.05 3.494 41.05 2.805C41.05 2.061 40.489 1.5 39.8 1.5H2.521V0H39.8C41.317 0 42.55 1.234 42.55 2.75C42.55 4.321 41.317 5.555 39.8 5.555Z" transform="translate(132.647 128)" fill="black"/>
<path fill-rule="evenodd" clip-rule="evenodd" d="M0 7.875C0 12.292 7.733 15.752 17.604 15.752C27.475 15.752 35.207 12.292 35.208 7.875C35.208 3.45898 27.476 0 17.604 0C7.73199 0 0 3.45898 0 7.875ZM1.5 7.875C1.5 4.79602 7.97099 1.5 17.604 1.5C27.237 1.5 33.707 4.797 33.708 7.875C33.708 10.955 27.237 14.252 17.604 14.252C7.97099 14.252 1.5 10.955 1.5 7.875Z" transform="translate(100.693 121.191)" fill="#1D1D1B"/>
</svg>
