<svg width="100" height="100" viewBox="0 0 100 100" fill="none" xmlns="http://www.w3.org/2000/svg">
<path d="M20.6598 27.3197C20.6598 23.9784 23.2098 21.2341 26.469 20.9212L24.5902 13.8784C19.0294 17.8026 14.4087 22.9697 11.151 28.9877H20.8866C20.7433 28.4552 20.6598 27.8975 20.6598 27.3197Z" fill="white"/>
<path fill-rule="evenodd" clip-rule="evenodd" d="M37.0948 23.1032L41.4865 6.64336C44.2505 6.10212 47.1036 5.81089 50.0252 5.8114C53.1726 5.8114 56.2402 6.14594 59.201 6.77171L63.5582 23.1032C63.5309 26.3532 60.8793 28.9882 57.6237 28.9882H43.0298C39.7737 28.9882 37.1221 26.3532 37.0948 23.1032ZM54.804 10.8892L54.7324 10.5748L54.4107 10.5887C54.2107 10.597 49.4855 10.8315 47.1401 13.9032C44.7922 16.9738 45.8066 21.5949 45.851 21.7903L45.9226 22.1047L46.2448 22.0913C46.4443 22.0825 51.169 21.8465 53.5154 18.7753C55.8628 15.7052 54.8484 11.0841 54.804 10.8892Z" fill="white"/>
<path d="M75.1753 13.6753L72.6609 23.1026C72.6882 26.3526 75.3397 28.9877 78.5959 28.9877H88.9005C85.5866 22.8665 80.8645 17.6232 75.1753 13.6753Z" fill="white"/>
<path fill-rule="evenodd" clip-rule="evenodd" d="M21.666 39.5954L27.051 59.78C27.0242 63.0295 24.3722 65.665 21.116 65.665H8.72113C6.8701 60.7913 5.84845 55.5104 5.84845 49.9882C5.84845 45.2655 6.59742 40.7192 7.96958 36.4521H22.1701C23.0376 36.4521 23.7428 37.1573 23.7428 38.0238C23.7428 38.8903 23.0371 39.5954 22.1696 39.5954H21.666ZM17.4969 54.8764C17.4969 54.5119 17.3922 54.165 17.2061 53.8619C18.0608 53.6552 18.6994 52.8887 18.6989 51.9722C18.6989 51.0552 18.0608 50.2893 17.2061 50.082C17.6639 49.3315 17.5737 48.3377 16.9257 47.6887C16.3 47.0635 15.2809 46.9748 14.535 47.4135C14.3299 46.5568 13.5623 45.9156 12.6438 45.9156C11.7247 45.9156 10.9567 46.5568 10.7525 47.4135C10.0072 46.9748 8.98655 47.0635 8.36181 47.6887C7.99377 48.0573 7.79068 48.5465 7.79068 49.0676C7.79068 49.4315 7.89532 49.7779 8.08088 50.081C7.22676 50.2872 6.58759 51.0537 6.58759 51.9712C6.58759 52.8877 7.22625 53.6532 8.07985 53.8604C7.62161 54.6119 7.71233 55.6063 8.36181 56.2532C8.72934 56.6222 9.21903 56.8253 9.73965 56.8253C10.1046 56.8253 10.451 56.7207 10.7541 56.5346C10.9603 57.3893 11.7268 58.0284 12.6443 58.0284C13.5613 58.0284 14.3283 57.3893 14.534 56.5341C14.8371 56.7202 15.184 56.8253 15.5484 56.8253C16.069 56.8253 16.5582 56.6222 16.9262 56.2542C17.2938 55.8867 17.4969 55.397 17.4969 54.8764Z" fill="white"/>
<path fill-rule="evenodd" clip-rule="evenodd" d="M58.1726 39.5954L62.9268 57.4135C59.5 57.5537 56.7618 60.3681 56.7628 63.8295C56.7628 64.4676 56.8587 65.0831 57.0319 65.665H43.0309C39.7747 65.665 37.1231 63.03 37.0958 59.78L42.3515 40.0815L42.4798 39.5954H41.9762C41.1097 39.5954 40.4046 38.8903 40.4046 38.0238C40.4046 37.1573 41.1097 36.4521 41.9762 36.4521H58.6783C59.5448 36.4521 60.25 37.1573 60.25 38.0238C60.25 38.8903 59.5448 39.5954 58.6762 39.5954H58.1726ZM53.3093 53.4893L54.567 52.2326L54.483 52.1985L53.4902 49.6609L56.1113 50.6877L58.2721 48.5253L52.0995 46.1088L52.067 46.0259L49.9046 48.1872L49.9051 48.1887L49.8556 48.2382L49.9366 48.2702L50.9309 50.8088L48.3907 49.815L48.3587 49.732L47.5355 50.5558L46.1469 51.9444L46.2299 51.9769L47.235 54.5439L44.5407 53.4898L42.3804 55.6516L48.6263 58.097L48.6474 58.1506L50.8082 55.9887L50.7917 55.946L50.7989 55.9387L50.7871 55.9341L49.7824 53.3676L52.3216 54.3619L52.3541 54.4449L53.3093 53.4893Z" fill="white"/>
<path fill-rule="evenodd" clip-rule="evenodd" d="M75.9696 38.0238C75.9696 38.8903 76.6748 39.5954 77.5413 39.5954H78.0449L72.6614 59.78C72.6887 63.03 75.3402 65.665 78.5964 65.665H91.331C93.182 60.7918 94.2037 55.5109 94.2037 49.9882C94.2037 45.265 93.4547 40.7192 92.0825 36.4521H77.5413C76.6748 36.4521 75.9696 37.1568 75.9696 38.0238ZM92.6593 52.0006L92.9485 52.7856C91.8299 53.1934 91.2598 53.7119 91.0222 54.3563L91.0593 54.3712C91.3779 54.0454 91.6892 53.9563 92.0815 53.9563C93.1784 53.9563 93.7114 54.6083 93.7114 55.4161C93.7114 56.2161 93.0892 57.0532 91.8593 57.0532C90.5624 57.0532 89.8439 56.3125 89.8439 55.1269C89.8439 53.5197 91.0073 52.3784 92.6593 52.0006ZM86.1351 47.8083H83.0207H83.0202V55.1259H86.3573C88.2593 55.1259 89.1155 54.1589 89.1155 52.913C89.1155 51.9676 88.6377 51.3228 87.8145 51.0336V51.0001C88.5263 50.6666 88.6485 50.1661 88.6485 49.6877C88.6485 48.6424 87.9702 47.8083 86.1351 47.8083Z" fill="white"/>
<path d="M22.1696 76.2722C23.0371 76.2722 23.7428 75.5671 23.7428 74.7006C23.7428 73.8341 23.0376 73.1289 22.1701 73.1289H12.3933C15.4603 78.1057 19.4892 82.4217 24.217 85.8325L21.6665 76.2722H22.1696Z" fill="white"/>
<path fill-rule="evenodd" clip-rule="evenodd" d="M60.2499 74.7006C60.2499 75.567 59.5448 76.2722 58.6762 76.2722V76.2717H58.1726L62.4695 92.3758C60.2515 93.0258 57.9618 93.5042 55.6144 93.8005C56.2695 93.5212 56.667 93.0207 56.667 92.3042C56.667 91.499 56.1149 90.9938 55.151 90.9938H53.7283C53.3355 90.9938 53.1572 90.8624 53.1572 90.6191C53.1572 90.4975 53.2041 90.3573 53.3164 90.2634C53.485 90.3196 53.7097 90.348 53.9814 90.348C55.2262 90.348 55.9376 89.6645 55.9376 88.7475C55.9376 88.5882 55.9092 88.4289 55.853 88.2887C55.9752 88.1573 56.1907 88.0263 56.5273 88.0263C56.6025 88.0263 56.7051 88.0361 56.752 88.0454L56.8365 87.1C56.8365 87.1 56.6773 87.0438 56.4716 87.0438C56.0407 87.0438 55.6572 87.2031 55.5541 87.699H55.5355C55.2077 87.3433 54.6556 87.1377 53.9819 87.1377C52.9237 87.1377 52.0252 87.8299 52.0252 88.7475C52.0252 89.3088 52.2499 89.7583 52.6901 90.0294V90.0392C52.3814 90.1516 52.1381 90.4603 52.1381 90.9191C52.1381 91.1438 52.2221 91.4526 52.4932 91.6866V91.6959C51.9783 91.8083 51.7819 92.248 51.7819 92.632C51.7819 93.2114 52.2639 93.849 53.4788 94.0181C52.3381 94.1067 51.1896 94.1655 50.0257 94.1655C45.9066 94.1655 41.9247 93.5892 38.1417 92.5351L42.3515 76.7583L42.4798 76.2722H41.9762C41.1097 76.2722 40.4046 75.567 40.4046 74.7006C40.4046 73.8341 41.1097 73.1289 41.9762 73.1289H58.6783C59.5448 73.1289 60.2499 73.8341 60.2499 74.7006ZM49.4808 91.8552H50.7911V85.6964H49.4154L47.4118 88.8691H47.3932L45.3901 85.6964H44.0143V91.8552H45.3247V88.9722C45.3247 88.6542 45.2308 87.5217 45.2308 87.5217L45.2592 87.5124C45.2592 87.5124 45.8298 88.5232 45.9891 88.7758L47.2808 90.8258H47.5247L48.8164 88.7758C48.9752 88.5232 49.5365 87.5124 49.5365 87.5124L49.5649 87.5217C49.5649 87.5217 49.4808 88.6542 49.4808 88.9722V91.8552Z" fill="white"/>
<path d="M30.6505 25.1599C30.3485 24.8578 29.8593 24.8578 29.5572 25.1599L26.5732 28.1444L26.0315 27.6027L25.7603 27.3315L25.4856 27.0563L24.7753 26.3465C24.4732 26.0444 23.9841 26.0444 23.682 26.3465C23.3799 26.648 23.3799 27.1377 23.682 27.4398L24.2975 28.0558L24.5804 28.3382L24.8593 28.6176L26.0268 29.7852C26.1717 29.93 26.3686 30.0114 26.5737 30.0114C26.7789 30.0114 26.9753 29.93 27.1207 29.7852L30.6516 26.2537C30.9526 25.9511 30.9526 25.462 30.6505 25.1599Z" fill="white"/>
<path d="M47.9865 18.6227L47.2628 15.1495C46.2288 17.0939 46.3195 19.4923 46.4685 20.7526L48.117 18.5954L47.9865 18.6227Z" fill="white"/>
<path d="M49.9216 16.2341L49.4711 12.8615C48.8768 13.2264 48.3222 13.6805 47.8639 14.2424L48.6309 17.9228L49.9216 16.2341Z" fill="white"/>
<path d="M54.1025 15.4439C54.3592 14.0789 54.2855 12.7547 54.1866 11.9248L51.2015 15.8315L54.1025 15.4439Z" fill="white"/>
<path d="M49.3422 18.2655L52.6205 18.6361C52.7175 18.5289 52.8128 18.4211 52.901 18.3052C53.3793 17.6799 53.6973 16.9716 53.9087 16.25L50.5376 16.7005L49.3422 18.2655Z" fill="white"/>
<path d="M47.0829 21.2217C48.2366 21.0495 50.3051 20.5763 51.8788 19.3299L48.7953 18.9814L47.0829 21.2217Z" fill="white"/>
<path d="M50.585 15.3655L53.5721 11.4568C52.7294 11.5826 51.3984 11.8686 50.1278 12.4985L50.201 12.4887L50.585 15.3655Z" fill="white"/>
<path d="M44.7304 54.3949L43.7629 55.3629L48.2428 57.1171L47.6196 55.5253L44.7304 54.3949Z" fill="white"/>
<path d="M49.8067 55.5511L48.8021 52.9846L47.2103 52.3615L48.216 54.9285L48.4083 55.4187L48.6 55.9089L48.9196 56.7254L48.9371 56.7687L49.7583 55.947L49.9047 55.8006L49.8067 55.5511Z" fill="white"/>
<path d="M51.3149 51.7903L48.7752 50.796L48.4984 50.6877L48.3685 50.8176L48.0701 51.1161L48.0417 51.1439L47.5299 51.6563L48.418 52.0042L48.9082 52.196L49.3984 52.3877L51.9381 53.3821L51.3149 51.7903Z" fill="white"/>
<path d="M55.9221 49.7845L56.8901 48.816L52.4834 47.0902L53.1061 48.6814L55.9221 49.7845Z" fill="white"/>
<path d="M53.5036 51.816L52.5097 49.2784L52.318 48.7882L52.1262 48.298L51.7788 47.4098L51.7783 47.4093L50.9386 48.248L50.8087 48.3779L50.917 48.6552L51.9113 51.1933L52.103 51.6835L52.2953 52.1737L52.6432 53.0619V53.0624L53.4824 52.2227L53.6118 52.0938L53.5036 51.816Z" fill="white"/>
<path d="M66.752 61.6696C66.45 61.3681 65.9608 61.3681 65.6587 61.6696L62.6747 64.6547L62.4247 64.4047L62.1541 64.1336L61.8783 63.8578L60.8773 62.8562C60.5752 62.5542 60.0861 62.5542 59.784 62.8562C59.4819 63.1578 59.4819 63.6475 59.784 63.9495L60.6562 64.8222L60.9392 65.1047L61.218 65.3841L62.1289 66.2949C62.2737 66.4397 62.4706 66.5212 62.6758 66.5212C62.8809 66.5212 63.0773 66.4397 63.2227 66.2949L66.7536 62.7629C67.0541 62.4609 67.0541 61.9717 66.752 61.6696Z" fill="white"/>
<path d="M75.9696 74.7006C75.9696 75.567 76.6748 76.2722 77.5413 76.2722H78.0449L75.415 86.1304C80.3243 82.6753 84.5011 78.2521 87.6583 73.1289H77.5413C76.6748 73.1289 75.9696 73.8341 75.9696 74.7006Z" fill="white"/>
<path d="M25.2577 13.4042C25.1453 13.4799 25.0381 13.5624 24.9263 13.6397C24.8134 13.7181 24.7026 13.7995 24.5902 13.8789L26.469 20.9217C26.5995 20.9093 26.7319 20.9062 26.8639 20.9016C26.9402 20.899 27.0144 20.8903 27.0907 20.8903C27.1443 20.8903 27.1974 20.897 27.2515 20.8985L25.2577 13.4042Z" fill="black"/>
<path d="M20.8866 28.9877H11.151C11.0825 29.115 11.0206 29.2464 10.9531 29.3743C10.8851 29.5021 10.8217 29.632 10.7552 29.7609H21.116C21.1253 29.7609 21.1335 29.7598 21.1423 29.7598C21.0907 29.6335 21.0454 29.5042 21.0016 29.3743C20.9588 29.2475 20.9217 29.1181 20.8866 28.9877Z" fill="black"/>
<path d="M60.0505 6.96754C59.9097 6.93506 59.7685 6.90104 59.6278 6.87011C59.485 6.83816 59.3438 6.80207 59.201 6.77166L63.5582 23.1031C63.5309 26.3531 60.8798 28.9882 57.6237 28.9882H43.0298C39.7742 28.9882 37.1221 26.3531 37.0948 23.1031L41.4865 6.64331C41.3469 6.67063 41.2051 6.6928 41.0659 6.72115C40.9231 6.75104 40.7824 6.78867 40.6396 6.8196L36.335 22.9531L36.3221 23.0526C36.3221 26.7516 39.3314 29.7608 43.0304 29.7608H57.6242C61.3226 29.7608 64.3319 26.7516 64.3319 23.0526L60.0505 6.96754Z" fill="black"/>
<path d="M89.0985 29.3743C89.031 29.2465 88.9691 29.1151 88.9005 28.9877H78.5959C75.3402 28.9877 72.6882 26.3527 72.6609 23.1027L75.1753 13.6754C75.0624 13.597 74.9526 13.514 74.8397 13.4367C74.7274 13.3604 74.6129 13.2862 74.5 13.2109L71.9011 22.9532L71.8882 23.0527C71.8882 26.7517 74.8975 29.7609 78.5964 29.7609H89.2969C89.2294 29.6326 89.166 29.5022 89.0985 29.3743Z" fill="black"/>
<path d="M22.6598 40.3171C23.7191 40.0913 24.516 39.1485 24.516 38.0238C24.516 36.731 23.4639 35.679 22.1701 35.679H8.23146C8.18713 35.8078 8.14332 35.9367 8.10053 36.0656C8.05723 36.1944 8.01136 36.3223 7.9696 36.4522H22.1701C23.0376 36.4522 23.7428 37.1573 23.7428 38.0238C23.7428 38.8903 23.0371 39.5954 22.1696 39.5954H21.666L27.051 59.78C27.0237 63.03 24.3722 65.665 21.1155 65.665H8.72115C8.77012 65.7944 8.82321 65.9228 8.87373 66.0516C8.92424 66.1805 8.97424 66.3099 9.02579 66.4382H21.116C24.8155 66.4382 27.8248 63.429 27.8248 59.73L22.6598 40.3171Z" fill="black"/>
<path d="M59.1659 40.3171C60.2257 40.0919 61.0231 39.1491 61.0231 38.0233C61.0231 36.7305 59.9711 35.6785 58.6783 35.6785H41.9762C40.6835 35.6785 39.6314 36.7305 39.6314 38.0233C39.6314 39.1486 40.4283 40.0914 41.4881 40.3166L36.3355 59.63L36.3226 59.7295C36.3226 63.4285 39.3319 66.4377 43.0309 66.4377H57.319C57.2628 66.3114 57.2134 66.1816 57.1654 66.0511C57.118 65.9233 57.0711 65.796 57.0319 65.6645H43.0309C39.7752 65.6645 37.1231 63.0295 37.0958 59.7795L42.3515 40.081L42.4798 39.595H41.9762C41.1097 39.595 40.4046 38.8898 40.4046 38.0233C40.4046 37.1568 41.1097 36.4517 41.9762 36.4517H58.6783C59.5448 36.4517 60.25 37.1568 60.25 38.0233C60.25 38.8898 59.5448 39.595 58.6762 39.595H58.1726L62.9268 57.413C63.0154 57.4094 63.1025 57.3996 63.1922 57.3996C63.2371 57.3996 63.2804 57.4053 63.3252 57.4063C63.4577 57.4089 63.5886 57.4156 63.7185 57.4264L59.1659 40.3171Z" fill="black"/>
<path d="M72.6609 59.78L78.0444 39.5954H77.5408C76.6743 39.5954 75.9691 38.8903 75.9691 38.0238C75.9691 37.1573 76.6743 36.4522 77.5408 36.4522H92.0815C92.0397 36.3223 91.9938 36.1944 91.9505 36.0656C91.9078 35.9367 91.8639 35.8078 91.8196 35.679H77.5413C76.2485 35.679 75.1964 36.731 75.1964 38.0238C75.1964 39.1491 75.9933 40.0913 77.0526 40.3171L71.9011 59.6305L71.8882 59.73C71.8882 63.429 74.8975 66.4382 78.5964 66.4382H91.0263C91.0779 66.3099 91.1279 66.1805 91.1784 66.0516C91.2289 65.9228 91.282 65.7944 91.331 65.665H78.5964C75.3397 65.665 72.6882 63.0295 72.6609 59.78Z" fill="black"/>
<path d="M22.6598 76.9939C23.7191 76.7681 24.516 75.8253 24.516 74.7006C24.516 73.4078 23.4639 72.3557 22.1701 72.3557H11.933C12.0083 72.4841 12.0789 72.615 12.1557 72.7423C12.234 72.8717 12.3145 73 12.3933 73.1289H22.1701C23.0377 73.1289 23.7428 73.8341 23.7428 74.7006C23.7428 75.5671 23.0371 76.2722 22.1696 76.2722H21.666L24.2165 85.8325C24.3799 85.9506 24.5449 86.0676 24.7103 86.1835C24.8727 86.2975 25.032 86.4171 25.1959 86.5289L22.6598 76.9939Z" fill="black"/>
<path d="M59.166 76.9944C60.2258 76.7691 61.0232 75.8263 61.0232 74.7006C61.0232 73.4078 59.9711 72.3557 58.6783 72.3557H41.9763C40.6835 72.3557 39.6314 73.4078 39.6314 74.7006C39.6314 75.8258 40.4283 76.7686 41.4881 76.9939L37.3979 92.3243C37.5211 92.3609 37.6459 92.3939 37.7701 92.4299C37.8943 92.466 38.0175 92.5011 38.1417 92.5356L42.3515 76.7588L42.4799 76.2727H41.9763C41.1098 76.2727 40.4046 75.5676 40.4046 74.7011C40.4046 73.8346 41.1098 73.1294 41.9763 73.1294H58.6783C59.5448 73.1294 60.25 73.8346 60.25 74.7011C60.25 75.5676 59.5448 76.2727 58.6763 76.2727H58.1727L62.4696 92.3769C62.5923 92.3408 62.718 92.3083 62.8412 92.2712C62.9608 92.2351 63.0835 92.2037 63.2026 92.1665L59.166 76.9944Z" fill="black"/>
<path d="M77.5412 72.3557C76.2484 72.3557 75.1964 73.4078 75.1964 74.7006C75.1964 75.8258 75.9933 76.7681 77.0526 76.9939L74.435 86.8073C74.5974 86.6995 74.7608 86.5918 74.9221 86.4815C75.0886 86.3676 75.25 86.247 75.4149 86.131L78.0448 76.2727H77.5412C76.6747 76.2727 75.9696 75.5676 75.9696 74.7011C75.9696 73.8346 76.6747 73.1294 77.5412 73.1294H87.6582C87.7371 73.0006 87.8175 72.8722 87.8958 72.7428C87.9721 72.6155 88.0427 72.4846 88.1185 72.3562H77.5412V72.3557Z" fill="black"/>
<path fill-rule="evenodd" clip-rule="evenodd" d="M63.3248 57.4067C63.4572 57.4093 63.5882 57.416 63.7181 57.4268C67.0222 57.6949 69.6222 60.4562 69.6222 63.8294C69.6222 67.381 66.7423 70.2598 63.1918 70.2598C60.5706 70.2598 58.3186 68.6882 57.3175 66.4382C57.2608 66.3119 57.2119 66.182 57.1639 66.0516C57.1165 65.9237 57.0696 65.7964 57.0304 65.665C56.8577 65.083 56.7614 64.4676 56.7614 63.8294C56.7614 60.3681 59.4995 57.5536 62.9263 57.4134C62.9606 57.412 62.9947 57.4097 63.0287 57.4074C63.0828 57.4037 63.1368 57.4 63.1918 57.4C63.2164 57.4 63.2405 57.4017 63.2647 57.4034C63.2846 57.4049 63.3045 57.4063 63.3248 57.4067ZM63.2212 66.2949L66.7521 62.7629C67.0542 62.4609 67.0542 61.9717 66.7506 61.6696C66.4485 61.3681 65.9593 61.3676 65.6573 61.6696L62.6733 64.6547L62.4233 64.4047L62.1526 64.1335L61.8769 63.8578L60.8758 62.8562C60.5738 62.5542 60.0846 62.5542 59.7825 62.8562C59.4805 63.1578 59.4805 63.6474 59.7825 63.9495L60.6547 64.8222L60.9377 65.1047L61.2166 65.384L62.1274 66.2949C62.2727 66.4397 62.4691 66.5212 62.6743 66.5212C62.8794 66.5212 63.0764 66.4397 63.2212 66.2949Z" fill="#167A65"/>
<path fill-rule="evenodd" clip-rule="evenodd" d="M27.1771 20.894C27.2017 20.8958 27.2263 20.8975 27.251 20.898C30.7262 20.9836 33.5206 23.8222 33.5206 27.3197C33.5206 30.8712 30.6407 33.7496 27.0901 33.7496C24.4035 33.7496 22.1035 32.1006 21.1417 29.7604C21.0907 29.6341 21.0453 29.5047 21.001 29.3748C20.9587 29.2475 20.9211 29.1186 20.886 28.9882C20.7432 28.4552 20.6597 27.898 20.6597 27.3197C20.6597 23.9784 23.2097 21.2336 26.4685 20.9212C26.5802 20.9106 26.6935 20.9068 26.8066 20.903C26.8255 20.9024 26.8444 20.9018 26.8633 20.9011C26.895 20.9 26.9264 20.8979 26.9576 20.8958C27.0016 20.8928 27.0455 20.8898 27.0901 20.8898C27.1193 20.8898 27.1482 20.8919 27.1771 20.894ZM27.1196 29.7846L30.6505 26.2532C30.9526 25.9511 30.9526 25.4619 30.6495 25.1594C30.3474 24.8573 29.8582 24.8573 29.5562 25.1594L26.5722 28.1439L26.0304 27.6021L25.7593 27.331L25.4845 27.0558L24.7742 26.346C24.4722 26.0439 23.983 26.0439 23.6809 26.346C23.3789 26.6475 23.3789 27.1372 23.6809 27.4393L24.2964 28.0552L24.5794 28.3377L24.8582 28.6171L26.0258 29.7846C26.1711 29.9295 26.3675 30.0109 26.5727 30.0109C26.7778 30.0109 26.9747 29.9295 27.1196 29.7846Z" fill="#167A65"/>
<path fill-rule="evenodd" clip-rule="evenodd" d="M95.3231 29.1441C95.358 29.2187 95.393 29.2933 95.4273 29.3686C98.2959 35.6598 99.8964 42.6464 99.8954 49.999C99.8954 52.5727 99.699 55.1021 99.3217 57.5722C99.2758 57.8727 99.2243 58.1712 99.1727 58.4696C99.1222 58.7676 99.0676 59.0645 99.0108 59.3609C98.784 60.5506 98.5155 61.7248 98.2057 62.883C98.1134 63.2268 98.0186 63.5696 97.9201 63.9104C97.8444 64.1707 97.767 64.431 97.6877 64.6892C96.8645 67.3583 95.8206 69.931 94.581 72.3892C94.5629 72.4253 94.5449 72.4615 94.527 72.4977C94.4839 72.5844 94.4408 72.6711 94.3964 72.7573C94.3575 72.8329 94.3174 72.9082 94.2774 72.9834C94.2516 73.0317 94.2259 73.08 94.2005 73.1284C89.5098 82.0567 82.1938 89.3969 73.284 94.1186C73.1294 94.2011 72.9748 94.2841 72.8186 94.3645C72.7014 94.4252 72.5834 94.4845 72.4651 94.5438C72.4288 94.562 72.3925 94.5802 72.3562 94.5985C69.75 95.9103 67.0145 96.9995 64.1727 97.8428C64.1136 97.8602 64.0546 97.878 63.9956 97.8958C63.911 97.9213 63.8263 97.9469 63.7413 97.9712C63.6543 97.9963 63.5666 98.0203 63.4788 98.0443C63.4224 98.0596 63.366 98.075 63.3098 98.0908C59.0712 99.265 54.6078 99.8959 50 99.8959C45.6495 99.8959 41.4284 99.3351 37.4031 98.2841C37.2953 98.2563 37.1883 98.2268 37.0812 98.1973C37.0413 98.1864 37.0014 98.1754 36.9614 98.1645C36.9112 98.1508 36.8609 98.1374 36.8106 98.124C36.7182 98.0993 36.6257 98.0745 36.5335 98.0485C33.3129 97.1449 30.2217 95.9268 27.2975 94.4263C27.1999 94.3763 27.1033 94.3247 27.0067 94.2731C26.9531 94.2445 26.8996 94.216 26.8459 94.1877C26.7943 94.1604 26.7426 94.1333 26.6909 94.1062C26.5873 94.0518 26.4836 93.9975 26.3804 93.9418C17.6222 89.215 10.431 81.9454 5.799 73.1289C5.76684 73.0671 5.73396 73.0053 5.70106 72.9435C5.66541 72.8766 5.62973 72.8096 5.59488 72.7423C5.55056 72.6558 5.50721 72.5686 5.46384 72.4812C5.44415 72.4416 5.42446 72.402 5.40467 72.3624C4.22271 70.015 3.22014 67.5624 2.41653 65.0222C2.34488 64.7954 2.27581 64.5676 2.20725 64.3397L2.17708 64.2391C2.10658 64.0039 2.03593 63.7683 1.96962 63.5315C1.52581 61.9604 1.15828 60.3578 0.869105 58.7284C0.814466 58.4212 0.764466 58.1134 0.716012 57.8047C0.664981 57.4825 0.618589 57.1593 0.57426 56.8351C0.266528 54.5995 0.104156 52.3186 0.104156 50C0.104156 42.6815 1.68766 35.7263 4.53096 29.4588C4.56473 29.3838 4.59992 29.3094 4.63514 29.235C4.65583 29.1913 4.67653 29.1475 4.69694 29.1037C4.73159 29.0281 4.76687 28.9528 4.80211 28.8776C4.82243 28.8342 4.84275 28.7908 4.86292 28.7475C8.87271 20.265 15.2031 13.0861 23.0315 8.03717C23.1101 7.98667 23.1889 7.93691 23.2677 7.8872C23.303 7.86486 23.3384 7.84254 23.3737 7.82016C23.4871 7.74799 23.6011 7.67737 23.715 7.60676C28.5402 4.60315 33.9134 2.40057 39.6469 1.18614C39.6968 1.17562 39.7465 1.16488 39.7962 1.15414C39.8781 1.13647 39.9599 1.11879 40.0423 1.10212C40.1198 1.08631 40.1975 1.07176 40.2753 1.05719C40.3294 1.04706 40.3835 1.03692 40.4377 1.02635C43.5335 0.422737 46.7299 0.103149 50 0.103149C53.5057 0.103149 56.9279 0.468613 60.231 1.15985C60.325 1.17925 60.4186 1.19995 60.5122 1.22066C60.5504 1.22911 60.5886 1.23757 60.6268 1.24593C60.675 1.25648 60.7232 1.26681 60.7714 1.27714C60.8551 1.2951 60.9388 1.31304 61.0222 1.33202C66.4067 2.55109 71.464 4.64284 76.0366 7.45109C76.1152 7.49937 76.1931 7.54838 76.2711 7.59745C76.3071 7.62015 76.3432 7.64286 76.3794 7.66552C76.4211 7.69159 76.4627 7.71746 76.5043 7.7433C76.577 7.78847 76.6495 7.83353 76.7217 7.87944C84.6392 12.9202 91.0454 20.1299 95.0995 28.666C95.1547 28.7836 95.2093 28.9011 95.2645 29.0186C95.2839 29.0605 95.3035 29.1023 95.3231 29.1441ZM98.6774 56.6088C98.7222 56.2774 98.7629 55.9449 98.8011 55.6119C99.0114 53.7696 99.1232 51.898 99.1217 49.999C99.1217 42.7201 97.5284 35.8073 94.6758 29.5877C94.644 29.5185 94.6116 29.4496 94.5792 29.3806C94.556 29.3313 94.5328 29.2819 94.5098 29.2325C94.4884 29.1868 94.4669 29.1409 94.4455 29.0949C94.4109 29.0206 94.3763 28.9463 94.3413 28.8727C90.382 20.5964 84.1738 13.5934 76.5109 8.66191C76.4361 8.61378 76.3607 8.56655 76.285 8.51917C76.2464 8.49502 76.2078 8.47082 76.1691 8.44645C76.0547 8.37428 75.9408 8.30315 75.8263 8.23201C71.2841 5.41346 66.2521 3.31346 60.8882 2.0949C60.801 2.07472 60.7131 2.05581 60.6252 2.03692C60.5874 2.02878 60.5496 2.02065 60.5119 2.01243C60.4878 2.0071 60.4637 2.00175 60.4396 1.9964C60.3379 1.97381 60.2362 1.95121 60.1341 1.92995C56.8624 1.24129 53.4727 0.876345 49.9995 0.876345C46.7433 0.876345 43.5614 1.19799 40.4805 1.80521C40.4266 1.81594 40.3726 1.82612 40.3187 1.83628C40.2457 1.85005 40.1727 1.8638 40.1 1.87892C40.0317 1.89322 39.9634 1.90843 39.8952 1.92364C39.8379 1.9364 39.7806 1.94917 39.7232 1.9614C34.031 3.17789 28.7016 5.38253 23.9227 8.3882C23.8701 8.42159 23.8172 8.45442 23.7642 8.48726C23.7035 8.5249 23.6428 8.56255 23.5825 8.60109C23.5094 8.64783 23.4372 8.69563 23.365 8.74341C23.3241 8.77044 23.2833 8.79746 23.2423 8.82428C15.6805 13.7552 9.55417 20.7093 5.63922 28.9135C5.59716 29.0017 5.55592 29.0905 5.5147 29.1793C5.49934 29.2123 5.48399 29.2454 5.4686 29.2784C5.44881 29.3209 5.42883 29.3633 5.40886 29.4056C5.37162 29.4847 5.3344 29.5636 5.2985 29.6428C2.46138 35.8485 0.877879 42.7423 0.877879 49.9995C0.877879 51.6238 0.959323 53.2294 1.11396 54.8134C1.14901 55.1691 1.1887 55.5232 1.23097 55.8763C1.27118 56.2129 1.31551 56.548 1.36242 56.882C1.73303 59.5098 2.30829 62.0732 3.07891 64.5521C3.12343 64.6962 3.17044 64.8396 3.21751 64.983C3.23475 65.0356 3.25199 65.0881 3.26912 65.1408C3.28172 65.1798 3.29429 65.2189 3.30687 65.2579C3.35246 65.3996 3.39814 65.5415 3.44541 65.6825C4.22376 67.9877 5.16912 70.2171 6.26654 72.3552C6.31055 72.4418 6.35639 72.5276 6.40223 72.6133C6.42512 72.6561 6.448 72.6989 6.47066 72.7418C6.53767 72.8707 6.6052 73 6.67479 73.1284C11.1243 81.431 17.8908 88.3124 26.1047 92.9052C26.1476 92.9293 26.1904 92.9535 26.2332 92.9777C26.3468 93.0419 26.4602 93.1061 26.5748 93.1686C26.6745 93.2231 26.7752 93.276 26.8756 93.3288C26.9263 93.3554 26.9769 93.382 27.0274 93.4088C29.9784 94.9768 33.1062 96.2537 36.3743 97.1985C36.5098 97.2377 36.6459 97.2763 36.782 97.3145C36.897 97.3467 37.0119 97.3774 37.1272 97.4083L37.1908 97.4253C41.2763 98.5299 45.5702 99.1232 50.0011 99.1232C54.6789 99.1232 59.2062 98.465 63.4949 97.2382C63.5765 97.2149 63.6574 97.1905 63.7383 97.166C63.7933 97.1494 63.8484 97.1328 63.9037 97.1165L63.961 97.0996C64.0746 97.066 64.1887 97.0323 64.3021 96.9975C67.1985 96.115 69.982 94.9707 72.6253 93.5933C72.7805 93.5119 72.9361 93.4299 73.0908 93.347C73.2464 93.264 73.4026 93.1805 73.5578 93.0954C81.9253 88.5031 88.816 81.5459 93.3269 73.1289C93.3879 73.0155 93.4477 72.9012 93.5074 72.7872L93.531 72.7423C93.5579 72.6909 93.5853 72.6397 93.6126 72.5884C93.6539 72.5111 93.6951 72.4338 93.7351 72.3557C94.865 70.1552 95.8305 67.8583 96.6217 65.4825C96.6851 65.2913 96.747 65.1 96.8083 64.9078C96.8763 64.6939 96.9439 64.4789 97.0093 64.264C97.6676 62.0964 98.1825 59.8665 98.5377 57.5841C98.5877 57.2604 98.633 56.9346 98.6774 56.6088Z" fill="black"/>
<path d="M10.5413 51.9165C10.5413 53.0758 11.4846 54.0186 12.6444 54.0186C13.8031 54.0186 14.7459 53.0753 14.7459 51.9165C14.7459 50.7578 13.8031 49.8145 12.6444 49.8145C11.4846 49.815 10.5413 50.7578 10.5413 51.9165Z" fill="white"/>
<path d="M13.6593 49.5217C13.3629 49.7042 13.0175 49.8145 12.6444 49.8145C13.8031 49.8145 14.7459 50.7573 14.7459 51.9166C14.7459 53.0759 13.8031 54.0186 12.6444 54.0186C11.4846 54.0186 10.5413 53.0753 10.5413 51.9166C10.5413 50.7578 11.4846 49.8145 12.6444 49.8145C12.2712 49.8145 11.9258 49.7037 11.6289 49.5217C11.5485 49.8604 11.382 50.1831 11.1186 50.4465C10.8608 50.7042 10.5407 50.8759 10.1949 50.9583C10.3768 51.2547 10.4871 51.5996 10.4871 51.9717C10.4871 52.3496 10.3742 52.7001 10.1871 52.9996C10.5335 53.0764 10.8603 53.2387 11.1186 53.4975C11.3768 53.7558 11.5474 54.0753 11.6304 54.4212C11.9268 54.2393 12.2717 54.1289 12.6444 54.1289C13.017 54.1289 13.3619 54.2393 13.6578 54.4212C13.7407 54.0753 13.9119 53.7552 14.1701 53.4975C14.4284 53.2393 14.7552 53.0769 15.1016 52.9996C14.9145 52.7001 14.8016 52.3501 14.8016 51.9717C14.8016 51.599 14.9119 51.2542 15.0933 50.9578C14.7469 50.8753 14.4279 50.7042 14.1701 50.4465C13.9067 50.1831 13.7402 49.8604 13.6593 49.5217Z" fill="black"/>
<path d="M12.6443 57.2557C13.2942 57.2557 13.8211 56.7288 13.8211 56.0789C13.8211 55.429 13.2942 54.9021 12.6443 54.9021C11.9944 54.9021 11.4675 55.429 11.4675 56.0789C11.4675 56.7288 11.9944 57.2557 12.6443 57.2557Z" fill="white"/>
<path d="M12.6443 57.6423C11.8453 57.6423 11.1948 57.0412 11.1005 56.2691C10.9948 56.3727 10.8773 56.4593 10.7541 56.535C10.9603 57.3902 11.7268 58.0289 12.6443 58.0289C13.5613 58.0289 14.3283 57.3897 14.534 56.5345C14.4108 56.4593 14.2938 56.3727 14.1876 56.2686C14.0933 57.0412 13.4427 57.6423 12.6443 57.6423Z" fill="black"/>
<path d="M11.6645 54.6166C11.6748 54.6944 11.6861 54.7722 11.6871 54.8521C11.7624 54.7934 11.8418 54.7429 11.9273 54.6985C11.8377 54.6748 11.75 54.6475 11.6645 54.6166Z" fill="black"/>
<path d="M13.6015 54.8516C13.6025 54.7722 13.6138 54.6944 13.6247 54.6166C13.5386 54.648 13.451 54.6748 13.3618 54.698C13.4463 54.7418 13.5262 54.7929 13.6015 54.8516Z" fill="black"/>
<path d="M12.6443 54.1289C12.2716 54.1289 11.9268 54.2392 11.6304 54.4212C11.6454 54.4856 11.6551 54.55 11.6639 54.616C11.7495 54.6475 11.8371 54.6743 11.9268 54.6975C12.1423 54.5851 12.384 54.515 12.6443 54.515C12.9046 54.515 13.1464 54.5846 13.3618 54.6969C13.451 54.6743 13.5386 54.6469 13.6247 54.6155C13.6335 54.55 13.6428 54.4851 13.6577 54.4207C13.3618 54.2397 13.017 54.1289 12.6443 54.1289Z" fill="black"/>
<path fill-rule="evenodd" clip-rule="evenodd" d="M11.9268 54.6974C12.1567 54.7567 12.3964 54.7917 12.6444 54.7917C12.8928 54.7917 13.1325 54.7572 13.3619 54.6969C13.4464 54.7412 13.5263 54.7923 13.6016 54.8505C13.6016 54.8546 13.601 54.8585 13.6003 54.8625C13.5997 54.8666 13.599 54.8708 13.599 54.8752C13.599 55.3959 13.8016 55.8856 14.1696 56.2526C14.1725 56.2554 14.1756 56.2577 14.1786 56.26C14.1817 56.2624 14.1848 56.2647 14.1877 56.2675C14.0933 57.0402 13.4428 57.6412 12.6444 57.6412C11.8454 57.6412 11.1954 57.0407 11.1006 56.268C11.1034 56.2652 11.1065 56.2629 11.1096 56.2606C11.1127 56.2582 11.1158 56.2559 11.1186 56.2531C11.4861 55.8856 11.6892 55.3964 11.6892 54.8758C11.6892 54.8711 11.6885 54.8663 11.6879 54.8616C11.6874 54.8581 11.6869 54.8546 11.6866 54.851C11.7619 54.7928 11.8413 54.7417 11.9268 54.6974ZM12.6448 57.2551C13.2933 57.2551 13.8206 56.7273 13.8206 56.0789C13.8206 55.4304 13.2928 54.9021 12.6448 54.9021C11.9959 54.9021 11.4685 55.4299 11.4685 56.0789C11.4685 56.7273 11.9959 57.2551 12.6448 57.2551Z" fill="black"/>
<path d="M13.3619 54.6975C13.1464 54.5851 12.9047 54.5155 12.6443 54.5155C12.384 54.5155 12.1423 54.5851 11.9268 54.698C12.1562 54.7573 12.3959 54.7923 12.6443 54.7923C12.8928 54.7923 13.1325 54.7573 13.3619 54.6975Z" fill="black"/>
<path d="M12.6443 49.0418C13.294 49.0418 13.8206 48.5151 13.8206 47.8655C13.8206 47.2159 13.294 46.6892 12.6443 46.6892C11.9947 46.6892 11.468 47.2159 11.468 47.8655C11.468 48.5151 11.9947 49.0418 12.6443 49.0418Z" fill="white"/>
<path d="M12.6443 46.3026C13.4422 46.3026 14.0922 46.9026 14.1871 47.6743C14.2933 47.5717 14.4113 47.4871 14.5355 47.4139C14.3304 46.5573 13.5628 45.916 12.6443 45.916C11.7252 45.916 10.9577 46.5573 10.7531 47.4139C10.8768 47.4871 10.9948 47.5717 11.1005 47.6748C11.1964 46.9026 11.8458 46.3026 12.6443 46.3026Z" fill="black"/>
<path d="M11.6866 49.0918C11.6861 49.1325 11.6779 49.1727 11.6753 49.2129C11.7134 49.199 11.7506 49.183 11.7897 49.1712C11.7531 49.1475 11.7207 49.1186 11.6866 49.0918Z" fill="black"/>
<path d="M13.6134 49.2134C13.6103 49.1727 13.6026 49.133 13.6015 49.0923C13.568 49.1191 13.5361 49.1474 13.4995 49.1717C13.5381 49.1835 13.5753 49.1995 13.6134 49.2134Z" fill="black"/>
<path d="M12.6443 49.8149C13.0175 49.8149 13.3629 49.7041 13.6593 49.5221C13.6345 49.4201 13.6216 49.3175 13.6134 49.2134C13.5752 49.1995 13.5381 49.1835 13.4989 49.1716C13.2531 49.333 12.9603 49.4283 12.6443 49.4283C12.3283 49.4283 12.0345 49.333 11.7892 49.1716C11.75 49.1835 11.7134 49.1995 11.6747 49.2134C11.667 49.3175 11.6531 49.4201 11.6288 49.5221C11.9263 49.7041 12.2716 49.8149 12.6443 49.8149Z" fill="black"/>
<path d="M12.6444 49.0418C11.9954 49.0418 11.4681 48.5145 11.4681 47.8655C11.4681 47.2165 11.9954 46.6892 12.6444 46.6892C13.2928 46.6892 13.8201 47.217 13.8201 47.8655C13.8201 48.514 13.2928 49.0418 12.6444 49.0418C12.9418 49.0418 13.2289 49.0871 13.499 49.1717C13.5356 49.148 13.5676 49.1191 13.6011 49.0923C13.5949 48.5851 13.7825 48.0753 14.1686 47.6892C14.1743 47.6835 14.1815 47.6794 14.1872 47.6743C14.0918 46.9026 13.4423 46.3026 12.6444 46.3026C11.8459 46.3026 11.1959 46.9031 11.1006 47.6748C11.1067 47.6799 11.1129 47.6835 11.1186 47.6892C11.5047 48.0758 11.6923 48.5851 11.6866 49.0923C11.7207 49.1191 11.7531 49.148 11.7892 49.1717C12.0598 49.0871 12.3469 49.0418 12.6444 49.0418Z" fill="black"/>
<path d="M11.7891 49.1716C12.035 49.333 12.3283 49.4283 12.6443 49.4283C12.9603 49.4283 13.2536 49.333 13.4989 49.1716C13.2288 49.0871 12.9417 49.0417 12.6443 49.0417C12.3469 49.0417 12.0597 49.0871 11.7891 49.1716Z" fill="black"/>
<path d="M14.3721 54.8763C14.3721 55.1902 14.4943 55.4855 14.7165 55.7072C15.1618 56.152 15.9345 56.1526 16.3793 55.7077C16.602 55.4855 16.7242 55.1907 16.7242 54.8763C16.7242 54.5618 16.602 54.2665 16.3799 54.0438C16.1577 53.8216 15.8623 53.6995 15.5489 53.6995C15.235 53.6995 14.9391 53.8216 14.7175 54.0438C14.4943 54.2665 14.3721 54.5623 14.3721 54.8763Z" fill="white"/>
<path d="M16.6531 55.981C16.0892 56.5459 15.2041 56.582 14.5912 56.1016C14.5897 56.2511 14.568 56.3949 14.5345 56.5346C14.8376 56.7207 15.1845 56.8258 15.5489 56.8258C16.0696 56.8258 16.5587 56.6227 16.9268 56.2547C17.2948 55.8872 17.4974 55.3975 17.4974 54.8769C17.4974 54.5124 17.3928 54.1655 17.2067 53.8624C17.067 53.8959 16.9232 53.9176 16.7742 53.9196C17.2531 54.5325 17.2165 55.4171 16.6531 55.981Z" fill="black"/>
<path d="M13.8227 54.5367C13.8851 54.5841 13.9475 54.6315 14.0042 54.6862C14.015 54.5944 14.0356 54.5042 14.0624 54.415C13.9851 54.4589 13.9052 54.4996 13.8227 54.5367Z" fill="black"/>
<path d="M15.3582 53.3315C15.3098 53.282 15.2696 53.2264 15.2263 53.1722C15.1917 53.2439 15.1536 53.314 15.1134 53.382C15.1943 53.3588 15.2752 53.3413 15.3582 53.3315Z" fill="black"/>
<path d="M14.1701 53.4974C13.9118 53.7557 13.7407 54.0753 13.6577 54.4212C13.7149 54.4567 13.7695 54.4954 13.8226 54.5361C13.9046 54.499 13.9845 54.4588 14.0623 54.4145C14.135 54.1794 14.2577 53.9567 14.4433 53.7706C14.636 53.5779 14.8685 53.4531 15.1134 53.382C15.1536 53.3139 15.1912 53.2438 15.2262 53.1722C15.1824 53.116 15.1391 53.0603 15.1015 52.9995C14.7551 53.0768 14.4283 53.2392 14.1701 53.4974Z" fill="black"/>
<path d="M14.4438 55.981C14.0897 55.6273 13.948 55.1469 14.0041 54.6861C13.948 54.6315 13.8856 54.5846 13.8227 54.5366C13.7577 54.566 13.6912 54.5918 13.6242 54.6165C13.6134 54.6944 13.6021 54.7722 13.601 54.8516C13.967 55.1382 14.2067 55.5789 14.2067 56.0794C14.2067 56.1444 14.1954 56.2062 14.1876 56.2691C14.2938 56.3727 14.4108 56.4593 14.534 56.5351C14.5675 56.3954 14.5892 56.2516 14.5907 56.1021C14.5413 56.0624 14.4892 56.0268 14.4438 55.981Z" fill="black"/>
<path d="M13.6248 54.6165C13.6918 54.5923 13.7583 54.566 13.8232 54.5366C13.7696 54.4953 13.7155 54.4572 13.6583 54.4216C13.6428 54.4855 13.633 54.5505 13.6248 54.6165Z" fill="black"/>
<path d="M14.1695 56.2537C14.1752 56.2593 14.1819 56.2629 14.1876 56.2686C14.1953 56.2057 14.2066 56.1439 14.2066 56.0789C14.2066 55.5784 13.9669 55.1377 13.601 54.8511C13.601 54.8598 13.5984 54.8676 13.5984 54.8758C13.5989 55.3975 13.8015 55.8866 14.1695 56.2537Z" fill="black"/>
<path fill-rule="evenodd" clip-rule="evenodd" d="M14.0041 54.6856C14.0149 54.5938 14.035 54.5036 14.0624 54.4144C14.4964 54.1675 14.8577 53.8108 15.1134 53.382C15.1943 53.3583 15.2753 53.3412 15.3582 53.3309C15.7119 53.6938 16.2041 53.9206 16.75 53.9206C16.7541 53.9206 16.758 53.9201 16.7619 53.9196C16.7657 53.9191 16.7696 53.9186 16.7737 53.9186C17.2531 54.532 17.217 55.417 16.6531 55.9804C16.0892 56.5454 15.2041 56.5809 14.5912 56.101C14.5912 56.0975 14.5919 56.0939 14.5925 56.0903C14.5931 56.0866 14.5938 56.0828 14.5938 56.0789C14.5938 55.533 14.3665 55.0402 14.0041 54.6856ZM16.7238 54.8763C16.7238 54.5619 16.6016 54.2665 16.3794 54.0438C16.1578 53.8222 15.8619 53.6995 15.548 53.7C15.2341 53.7 14.9387 53.8222 14.7165 54.0443C14.4939 54.2665 14.3717 54.5619 14.3717 54.8763C14.3717 55.1907 14.4939 55.4856 14.716 55.7072C15.1619 56.1521 15.9346 56.1526 16.3789 55.7077C16.6016 55.4856 16.7238 55.1907 16.7238 54.8763Z" fill="black"/>
<path d="M15.1134 53.3826C14.8685 53.4537 14.6361 53.5784 14.4433 53.7712C14.2577 53.9573 14.1345 54.18 14.0623 54.415C14.4964 54.1676 14.8577 53.8109 15.1134 53.3826Z" fill="black"/>
<path d="M14.0042 54.6857C13.948 55.147 14.0897 55.6274 14.4439 55.9805C14.4897 56.0264 14.5413 56.0625 14.5913 56.1011C14.5913 56.0934 14.5939 56.0867 14.5939 56.079C14.5939 55.5331 14.3665 55.0403 14.0042 54.6857Z" fill="black"/>
<path d="M10.5722 48.2357C10.35 48.014 10.0546 47.8918 9.74072 47.8918C9.42628 47.8918 9.13092 48.014 8.90979 48.2357C8.68711 48.4583 8.56494 48.7537 8.56494 49.0681C8.56443 49.382 8.68711 49.6779 8.90979 49.9001C9.3536 50.3444 10.1283 50.3444 10.5727 49.9001C11.0304 49.4413 11.0304 48.6949 10.5722 48.2357Z" fill="white"/>
<path d="M8.63607 47.9625C9.19896 47.3991 10.0845 47.3635 10.6974 47.8418C10.699 47.6944 10.7201 47.5522 10.7531 47.414C10.0082 46.9753 8.98711 47.064 8.36236 47.6893C7.99381 48.0578 7.79123 48.5475 7.79123 49.0681C7.79123 49.4326 7.89587 49.7784 8.08144 50.0815C8.22113 50.048 8.36494 50.0264 8.51391 50.0243C8.03504 49.4109 8.07113 48.5269 8.63607 47.9625Z" fill="black"/>
<path d="M11.3809 49.3377C11.349 49.3104 11.315 49.2872 11.2846 49.2583C11.2794 49.3037 11.2753 49.349 11.2665 49.3939C11.3041 49.3738 11.3428 49.3562 11.3809 49.3377Z" fill="black"/>
<path d="M9.93088 50.6124C9.96593 50.6485 9.99531 50.6908 10.0278 50.73C10.0505 50.681 10.0731 50.6325 10.0984 50.5846C10.0422 50.598 9.98706 50.6057 9.93088 50.6124Z" fill="black"/>
<path d="M11.1186 50.4469C11.3825 50.183 11.5485 49.8608 11.6289 49.5222C11.5403 49.468 11.4588 49.4051 11.381 49.3381C11.3428 49.3567 11.3042 49.3737 11.2665 49.3943C11.2057 49.6799 11.0671 49.9521 10.8454 50.1737C10.6325 50.3871 10.3717 50.5211 10.098 50.585C10.0727 50.6325 10.0501 50.6814 10.0274 50.7304C10.0882 50.8031 10.1454 50.8778 10.1949 50.9588C10.5408 50.8758 10.8609 50.7046 11.1186 50.4469Z" fill="black"/>
<path d="M10.8454 47.9624C11.1995 48.3165 11.3413 48.7974 11.2851 49.2588C11.3155 49.2877 11.3495 49.3108 11.3815 49.3382C11.4768 49.2913 11.5748 49.25 11.6753 49.2134C11.6784 49.1727 11.6861 49.133 11.6866 49.0923C11.3206 48.8062 11.0815 48.366 11.0815 47.866C11.0815 47.8005 11.0928 47.7382 11.1005 47.6748C10.9949 47.5717 10.8768 47.4871 10.7531 47.4139C10.7201 47.5521 10.699 47.6944 10.6974 47.8418C10.7474 47.8804 10.7995 47.9165 10.8454 47.9624Z" fill="black"/>
<path d="M11.6747 49.2134C11.5742 49.2495 11.4757 49.2912 11.3809 49.3381C11.4587 49.4051 11.5407 49.4675 11.6288 49.5221C11.653 49.4201 11.6675 49.317 11.6747 49.2134Z" fill="black"/>
<path d="M11.1185 47.6887C11.1129 47.6831 11.1067 47.6795 11.1005 47.6743C11.0928 47.7377 11.0814 47.8001 11.0814 47.8656C11.0814 48.3656 11.3206 48.8058 11.6866 49.0918C11.6928 48.5846 11.5046 48.0753 11.1185 47.6887Z" fill="black"/>
<path fill-rule="evenodd" clip-rule="evenodd" d="M11.2814 49.2872C11.2776 49.3229 11.2738 49.3585 11.2665 49.3939C10.7696 49.6665 10.3619 50.0825 10.0974 50.5846C10.0423 50.5975 9.98662 50.6052 9.93044 50.6124C9.57631 50.249 9.08301 50.0217 8.53662 50.0217C8.53282 50.0217 8.52926 50.0222 8.52565 50.0227C8.52192 50.0232 8.51813 50.0237 8.51394 50.0237C8.03456 49.4109 8.07064 48.5263 8.63559 47.9619C9.19848 47.399 10.084 47.3629 10.6969 47.8413C10.6967 47.8445 10.6962 47.8478 10.6957 47.851C10.695 47.8556 10.6944 47.8602 10.6944 47.865C10.6944 48.4114 10.9217 48.9042 11.2846 49.2583C11.2835 49.2679 11.2824 49.2776 11.2814 49.2872ZM8.56443 49.0681C8.56391 49.3825 8.68659 49.6779 8.90927 49.9C9.3536 50.3444 10.1278 50.3439 10.5716 49.9C11.0304 49.4413 11.0304 48.6949 10.5716 48.2356C10.35 48.014 10.0541 47.8918 9.7402 47.8918C9.42577 47.8918 9.13092 48.014 8.90927 48.2356C8.68659 48.4583 8.56443 48.7536 8.56443 49.0681Z" fill="black"/>
<path d="M10.0979 50.5845C10.3716 50.5206 10.6324 50.3866 10.8453 50.1732C11.0675 49.9515 11.2056 49.6794 11.2665 49.3938C10.7695 49.6665 10.3618 50.0825 10.0979 50.5845Z" fill="black"/>
<path d="M11.285 49.2588C11.3412 48.7975 11.1995 48.3165 10.8453 47.9624C10.7995 47.9165 10.7474 47.8805 10.6974 47.8418C10.6969 47.85 10.6948 47.8573 10.6948 47.8655C10.6948 48.4114 10.9216 48.9047 11.285 49.2588Z" fill="black"/>
<path d="M16.7505 53.1479C17.3998 53.1479 17.9263 52.6215 17.9263 51.9722C17.9263 51.3228 17.3998 50.7964 16.7505 50.7964C16.1011 50.7964 15.5747 51.3228 15.5747 51.9722C15.5747 52.6215 16.1011 53.1479 16.7505 53.1479Z" fill="white"/>
<path d="M15.5237 51.0149C15.4701 51.0144 15.419 51.0046 15.3665 51C15.385 51.0552 15.401 51.1119 15.417 51.1686C15.4494 51.1144 15.485 51.0639 15.5237 51.0149Z" fill="black"/>
<path d="M17.2067 50.082C17.1319 50.2042 17.0459 50.3212 16.9412 50.4279C17.7144 50.5238 18.3129 51.1748 18.3129 51.9717C18.3129 52.7697 17.7139 53.4202 16.9407 53.515C17.0443 53.6212 17.1304 53.7382 17.2062 53.8614C18.0608 53.6547 18.6995 52.8887 18.6995 51.9717C18.6995 51.0552 18.0613 50.2892 17.2067 50.082Z" fill="black"/>
<path d="M15.318 52.966C15.3917 52.9578 15.4639 52.9459 15.5376 52.9459C15.4855 52.881 15.4392 52.8129 15.3979 52.7402C15.3742 52.817 15.3469 52.8918 15.318 52.966Z" fill="black"/>
<path d="M15.1881 51.9722C15.1881 51.6768 15.2747 51.4036 15.4169 51.1681C15.4015 51.1114 15.385 51.0552 15.3664 50.9995C15.2736 50.9908 15.1829 50.9794 15.0932 50.9578C14.9113 51.2542 14.8015 51.599 14.8015 51.9717C14.8015 52.3495 14.9144 52.7 15.1015 52.9995C15.1731 52.9835 15.2453 52.9743 15.318 52.966C15.3474 52.8918 15.3742 52.817 15.3974 52.7402C15.268 52.5124 15.1881 52.2531 15.1881 51.9722Z" fill="black"/>
<path d="M16.75 53.5346C16.2582 53.5346 15.8242 53.3021 15.5371 52.9459C15.4634 52.9459 15.3912 52.9578 15.3175 52.966C15.2902 53.0361 15.2592 53.1047 15.2257 53.1722C15.269 53.2263 15.3092 53.282 15.3577 53.3315C15.818 53.2753 16.2989 53.4171 16.6525 53.7712C16.6989 53.8171 16.734 53.8691 16.7732 53.9191C16.9221 53.9171 17.0659 53.8959 17.2056 53.8619C17.1304 53.7387 17.0443 53.6217 16.9402 53.5155C16.8773 53.5232 16.8154 53.5346 16.75 53.5346Z" fill="black"/>
<path d="M15.2262 53.1723C15.2592 53.1047 15.2906 53.0362 15.318 52.9661C15.2453 52.9743 15.1731 52.9836 15.1015 52.9996C15.1391 53.0604 15.1824 53.1161 15.2262 53.1723Z" fill="black"/>
<path d="M16.75 53.9212C16.7583 53.9212 16.7655 53.9191 16.7737 53.9191C16.7346 53.8691 16.699 53.8171 16.6531 53.7712C16.2995 53.4171 15.8186 53.2753 15.3583 53.3315C15.7119 53.6944 16.2047 53.9212 16.75 53.9212Z" fill="black"/>
<path fill-rule="evenodd" clip-rule="evenodd" d="M15.5345 51.0162C15.539 51.0169 15.5435 51.0175 15.5484 51.0175C16.069 51.0175 16.5582 50.8149 16.9257 50.4469C16.928 50.4444 16.9301 50.4415 16.9322 50.4386C16.9349 50.4351 16.9375 50.4315 16.9407 50.4283C17.7139 50.5237 18.3123 51.1753 18.3123 51.9722C18.3123 52.7701 17.7133 53.4206 16.9402 53.5155C16.9385 53.5134 16.9369 53.5113 16.9353 53.5091C16.9324 53.5051 16.9294 53.5011 16.9257 53.4974C16.5551 53.1263 16.0453 52.9433 15.5371 52.9459C15.4855 52.8809 15.4386 52.8129 15.3974 52.7402C15.4757 52.4789 15.519 52.2026 15.519 51.9165C15.519 51.6572 15.4814 51.4072 15.417 51.168C15.4489 51.1144 15.485 51.0644 15.5237 51.0149C15.5275 51.0152 15.531 51.0157 15.5345 51.0162ZM16.7499 53.1479C17.3989 53.1479 17.9262 52.6206 17.9262 51.9722C17.9262 51.3237 17.3984 50.7959 16.7499 50.7954C16.1015 50.7954 15.5747 51.3232 15.5747 51.9722C15.5747 52.6206 16.1015 53.1479 16.7499 53.1479Z" fill="black"/>
<path d="M15.3974 52.7403C15.4757 52.4794 15.519 52.2031 15.519 51.9165C15.519 51.6573 15.4814 51.4073 15.4169 51.1681C15.2747 51.4037 15.1881 51.6769 15.1881 51.9722C15.1881 52.2531 15.268 52.5124 15.3974 52.7403Z" fill="black"/>
<path d="M15.5376 52.9459C15.8247 53.3021 16.2582 53.5346 16.7505 53.5346C16.8159 53.5346 16.8778 53.5233 16.9412 53.5155C16.9361 53.5099 16.9319 53.5032 16.9268 53.4975C16.5551 53.1264 16.0458 52.9434 15.5376 52.9459Z" fill="black"/>
<path d="M8.53762 53.148C9.18726 53.148 9.71391 52.6213 9.71391 51.9717C9.71391 51.3221 9.18726 50.7954 8.53762 50.7954C7.88797 50.7954 7.36133 51.3221 7.36133 51.9717C7.36133 52.6213 7.88797 53.148 8.53762 53.148Z" fill="white"/>
<path d="M9.92056 50.9995C9.86798 51.0042 9.81798 51.0139 9.76437 51.0145C9.80252 51.0634 9.8386 51.1129 9.87056 51.166C9.88654 51.1103 9.90252 51.0547 9.92056 50.9995Z" fill="black"/>
<path d="M9.75104 52.9459C9.82423 52.9465 9.8964 52.9578 9.96908 52.966C9.94021 52.8923 9.91341 52.8181 9.89073 52.7418C9.84898 52.814 9.8031 52.8815 9.75104 52.9459Z" fill="black"/>
<path d="M6.97473 51.9721C6.97473 51.1747 7.57473 50.5227 8.3469 50.4278C8.24381 50.3216 8.15721 50.2046 8.08143 50.0814C7.22731 50.2876 6.58813 51.0541 6.58813 51.9716C6.58813 52.8876 7.22628 53.6531 8.0804 53.8608C8.15515 53.7386 8.24123 53.6216 8.34535 53.5149C7.57319 53.4191 6.97473 52.7691 6.97473 51.9721Z" fill="black"/>
<path d="M10.4877 51.9721C10.4877 51.6 10.3769 51.2546 10.1954 50.9587C10.1057 50.9804 10.0135 50.9912 9.92119 51C9.90314 51.0546 9.88716 51.1108 9.87119 51.167C10.014 51.4031 10.1011 51.6768 10.1011 51.9721C10.1011 52.2536 10.0207 52.5139 9.89077 52.7422C9.91345 52.8185 9.94077 52.8928 9.96912 52.9665C10.0428 52.9747 10.1155 52.984 10.1877 53C10.3748 52.7005 10.4877 52.35 10.4877 51.9721Z" fill="black"/>
<path d="M8.53712 50.4088C9.03816 50.4088 9.47888 50.649 9.76496 51.015C9.81857 51.0145 9.86857 51.0047 9.92115 51C9.95259 50.9078 9.98816 50.8181 10.0278 50.7304C9.99589 50.6913 9.96651 50.6495 9.93094 50.6129C9.4696 50.6691 8.9897 50.5274 8.63609 50.1737C8.5897 50.1274 8.55362 50.0753 8.51444 50.0248C8.36548 50.0263 8.22166 50.048 8.08197 50.082C8.15723 50.2052 8.24383 50.3222 8.34743 50.4284C8.41032 50.4201 8.47218 50.4088 8.53712 50.4088Z" fill="black"/>
<path d="M10.0273 50.73C9.98757 50.8176 9.95201 50.9078 9.92056 50.9996C10.0133 50.9908 10.1051 50.9795 10.1948 50.9583C10.1453 50.8774 10.0881 50.8027 10.0273 50.73Z" fill="black"/>
<path d="M8.53708 50.0222C8.52935 50.0222 8.52265 50.0243 8.5144 50.0243C8.55358 50.0748 8.58966 50.1269 8.63605 50.1732C8.98966 50.5269 9.46956 50.6686 9.9309 50.6124C9.57626 50.2495 9.08296 50.0222 8.53708 50.0222Z" fill="black"/>
<path fill-rule="evenodd" clip-rule="evenodd" d="M9.87061 51.1665C9.80566 51.4062 9.76803 51.6567 9.76803 51.9165C9.76803 52.2036 9.81185 52.4804 9.8902 52.7423C9.84844 52.8144 9.80257 52.8819 9.75051 52.9464C9.24174 52.9438 8.73143 53.1273 8.35875 53.4984C8.35695 53.5006 8.35522 53.5029 8.35348 53.5052C8.35075 53.5088 8.34798 53.5125 8.34483 53.516C7.57319 53.4196 6.97473 52.7696 6.97473 51.9727C6.97473 51.1747 7.57473 50.5232 8.3469 50.4283C8.34973 50.4312 8.35218 50.4344 8.35463 50.4376C8.35708 50.4408 8.35953 50.4441 8.36236 50.4469C8.72989 50.8149 9.21906 51.0175 9.7402 51.0175C9.74432 51.0175 9.74831 51.0169 9.75231 51.0162C9.7563 51.0156 9.7603 51.0149 9.76442 51.0149C9.80257 51.0634 9.83865 51.1134 9.87061 51.1665ZM7.36133 51.9722C7.36133 52.6206 7.88916 53.1479 8.53813 53.1479C9.18659 53.1479 9.71391 52.6206 9.71391 51.9722C9.71391 51.3237 9.18607 50.7959 8.53659 50.7954C7.88813 50.7954 7.36133 51.3232 7.36133 51.9722Z" fill="black"/>
<path d="M9.89075 52.7418C10.0207 52.5139 10.1011 52.2531 10.1011 51.9717C10.1011 51.6758 10.014 51.4026 9.87117 51.1665C9.80622 51.4062 9.76859 51.6567 9.76859 51.9165C9.76807 52.2036 9.81189 52.4804 9.89075 52.7418Z" fill="black"/>
<path d="M9.74013 51.0176C9.74838 51.0176 9.75611 51.0155 9.76436 51.015C9.47828 50.649 9.03755 50.4093 8.53652 50.4088C8.47157 50.4088 8.41023 50.4202 8.34683 50.4279C8.35302 50.4336 8.35714 50.4408 8.3623 50.4464C8.73034 50.815 9.21951 51.0176 9.74013 51.0176Z" fill="black"/>
<path d="M16.3794 49.9001C16.8376 49.4413 16.8376 48.6944 16.3794 48.2357C16.1572 48.0145 15.8619 47.8918 15.5479 47.8918C15.234 47.8918 14.9376 48.014 14.7149 48.2362C14.2572 48.6944 14.2577 49.4408 14.717 49.9001C15.1603 50.3439 15.9351 50.3444 16.3794 49.9001Z" fill="white"/>
<path d="M16.6531 47.9624C17.217 48.5268 17.2531 49.4113 16.7742 50.0247C16.9237 50.0268 17.067 50.0479 17.2067 50.0819C17.6645 49.3314 17.5742 48.3376 16.9263 47.6886C16.3005 47.0639 15.282 46.9752 14.5356 47.4134C14.5681 47.5515 14.5892 47.6933 14.5907 47.8407C15.2052 47.3634 16.0892 47.3995 16.6531 47.9624Z" fill="black"/>
<path d="M14.0031 49.2588C13.9737 49.2882 13.9387 49.3114 13.9072 49.3382C13.9454 49.3572 13.9845 49.3743 14.0222 49.3944C14.0124 49.3495 14.0093 49.3041 14.0031 49.2588Z" fill="black"/>
<path d="M15.2603 50.7305C15.2922 50.6913 15.3216 50.6491 15.3572 50.6125C15.301 50.6052 15.2453 50.5975 15.1897 50.5841C15.2149 50.6326 15.2376 50.6815 15.2603 50.7305Z" fill="black"/>
<path d="M14.1701 50.4469C14.4278 50.7046 14.7469 50.8758 15.0933 50.9582C15.1433 50.8773 15.2 50.8031 15.2603 50.7304C15.2371 50.6814 15.2144 50.6325 15.1892 50.5845C14.9165 50.5201 14.6562 50.3866 14.4433 50.1737C14.2211 49.9521 14.0825 49.6799 14.0222 49.3943C13.985 49.3737 13.9459 49.3567 13.9072 49.3381C13.8289 49.4051 13.7469 49.4675 13.6593 49.5222C13.7402 49.8603 13.9067 50.183 14.1701 50.4469Z" fill="black"/>
<path d="M14.2072 47.8655C14.2072 48.3655 13.9681 48.8062 13.6016 49.0923C13.6026 49.133 13.6108 49.1727 13.6134 49.2134C13.7139 49.2495 13.8119 49.2913 13.9072 49.3382C13.9387 49.3114 13.9737 49.2882 14.0031 49.2588C13.9469 48.7974 14.0876 48.3165 14.4423 47.9624C14.4887 47.916 14.5407 47.8804 14.5913 47.8413C14.5892 47.6938 14.5686 47.5516 14.5361 47.4139C14.4119 47.4871 14.2938 47.5717 14.1876 47.6742C14.1954 47.7371 14.2072 47.7995 14.2072 47.8655Z" fill="black"/>
<path d="M13.9072 49.3376C13.8114 49.2907 13.7139 49.2495 13.6134 49.2129C13.6217 49.317 13.6346 49.4196 13.6593 49.5217C13.7475 49.4675 13.8289 49.4052 13.9072 49.3376Z" fill="black"/>
<path d="M13.6015 49.0923C13.968 48.8062 14.2072 48.3655 14.2072 47.8655C14.2072 47.8 14.1959 47.7371 14.1876 47.6737C14.1819 47.6794 14.1747 47.683 14.1691 47.6887C13.7825 48.0753 13.5953 48.5845 13.6015 49.0923Z" fill="black"/>
<path d="M16.6531 50.1732C16.299 50.5268 15.8186 50.6686 15.3572 50.6124C15.3222 50.649 15.2928 50.6913 15.2603 50.7304C15.2995 50.8181 15.3356 50.9078 15.3665 50.9995C15.4191 51.0042 15.4701 51.0139 15.5237 51.0145C15.8098 50.6485 16.25 50.4083 16.75 50.4083C16.816 50.4083 16.8778 50.4196 16.9412 50.4279C17.0454 50.3207 17.132 50.2042 17.2067 50.082C17.067 50.048 16.9237 50.0268 16.7742 50.0248C16.7356 50.0753 16.699 50.1274 16.6531 50.1732Z" fill="black"/>
<path d="M15.367 50.9995C15.3356 50.9073 15.3 50.8176 15.2608 50.7305C15.2005 50.8031 15.1433 50.8774 15.0938 50.9583C15.183 50.9794 15.2742 50.9908 15.367 50.9995Z" fill="black"/>
<path d="M15.5237 51.015C15.5325 51.015 15.5397 51.0176 15.5485 51.0176C16.0691 51.0176 16.5582 50.815 16.9263 50.447C16.932 50.4413 16.9361 50.4341 16.9412 50.4284C16.8778 50.4207 16.816 50.4088 16.75 50.4088C16.25 50.4088 15.8098 50.6485 15.5237 51.015Z" fill="black"/>
<path fill-rule="evenodd" clip-rule="evenodd" d="M15.3572 50.613C15.301 50.6058 15.2454 50.5975 15.1897 50.5846C14.9258 50.0821 14.5185 49.6666 14.0222 49.3944C14.0154 49.3637 14.0119 49.3326 14.0083 49.3016C14.0067 49.2873 14.005 49.2731 14.0031 49.2589C14.367 48.9047 14.5938 48.4119 14.5938 47.8656C14.5938 47.8614 14.5932 47.8574 14.5925 47.8534C14.5919 47.8494 14.5912 47.8455 14.5912 47.8413C15.2051 47.3635 16.0892 47.3996 16.6531 47.9625C17.2165 48.5269 17.2531 49.4114 16.7742 50.0248C16.7707 50.0246 16.7674 50.0241 16.764 50.0236C16.7595 50.0229 16.755 50.0223 16.75 50.0223C16.2046 50.0223 15.7118 50.2496 15.3572 50.613ZM15.5479 47.8918C15.234 47.8918 14.9381 48.014 14.7149 48.2362C14.2572 48.6944 14.2577 49.4408 14.7164 49.9001C15.1603 50.3439 15.935 50.3444 16.3793 49.9001C16.8376 49.4413 16.8376 48.6949 16.3793 48.2357C16.1577 48.014 15.8618 47.8918 15.5479 47.8918Z" fill="black"/>
<path d="M14.0222 49.3944C14.0825 49.68 14.2217 49.9521 14.4434 50.1738C14.6562 50.3867 14.9165 50.5202 15.1892 50.5846C14.9258 50.082 14.5186 49.6666 14.0222 49.3944Z" fill="black"/>
<path d="M14.5938 47.8655C14.5938 47.8573 14.5912 47.8496 14.5912 47.8413C14.5407 47.8805 14.4886 47.9166 14.4422 47.9624C14.0876 48.3166 13.9469 48.7975 14.0031 49.2588C14.3665 48.9047 14.5938 48.4114 14.5938 47.8655Z" fill="black"/>
<path d="M15.3572 50.6125C15.8186 50.6686 16.299 50.5269 16.6531 50.1733C16.6995 50.1269 16.7356 50.0748 16.7742 50.0243C16.766 50.0243 16.7588 50.0217 16.75 50.0217C16.2047 50.0222 15.7114 50.2496 15.3572 50.6125Z" fill="black"/>
<path d="M9.74019 53.6995C9.42575 53.6995 9.12885 53.8221 8.90617 54.0443C8.44895 54.5026 8.44998 55.2484 8.90926 55.7067C9.35462 56.1536 10.1278 56.1515 10.5727 55.7072C10.7948 55.485 10.917 55.1902 10.917 54.8763C10.917 54.5618 10.7948 54.2665 10.5727 54.0443C10.3505 53.8221 10.0546 53.6995 9.74019 53.6995Z" fill="white"/>
<path d="M11.285 54.6857C11.3407 54.631 11.4036 54.5841 11.466 54.5362C11.384 54.4991 11.3046 54.4589 11.2268 54.415C11.2536 54.5042 11.2737 54.5939 11.285 54.6857Z" fill="black"/>
<path d="M10.0618 53.1732C10.019 53.2268 9.97933 53.2825 9.93088 53.3315C10.0134 53.3418 10.0938 53.3588 10.1747 53.382C10.1335 53.3139 10.0958 53.2444 10.0618 53.1732Z" fill="black"/>
<path d="M8.63607 55.9809C8.07112 55.4175 8.03452 54.5325 8.51287 53.9191C8.36339 53.917 8.22009 53.8953 8.0804 53.8613C7.62215 54.6129 7.71287 55.6067 8.36236 56.2541C8.72988 56.6232 9.21958 56.8263 9.74019 56.8263C10.1051 56.8263 10.4515 56.7211 10.7546 56.5356C10.7211 56.3959 10.6995 56.252 10.6974 56.1026C10.0835 56.5814 9.19896 56.5459 8.63607 55.9809Z" fill="black"/>
<path d="M11.1185 53.4974C10.8603 53.2392 10.5335 53.0768 10.1871 52.9995C10.1489 53.0603 10.1056 53.117 10.0613 53.1732C10.0953 53.2444 10.1335 53.3139 10.1742 53.3815C10.419 53.4526 10.6525 53.5773 10.8453 53.7706C11.0309 53.9567 11.1541 54.1799 11.2263 54.415C11.3036 54.4588 11.3835 54.4995 11.4654 54.5361C11.519 54.4949 11.5726 54.4567 11.6304 54.4212C11.5474 54.0753 11.3768 53.7557 11.1185 53.4974Z" fill="black"/>
<path d="M11.0815 56.0789C11.0815 55.5784 11.3212 55.1377 11.6871 54.8516C11.6861 54.7717 11.6748 54.6944 11.6645 54.616C11.5969 54.5918 11.5304 54.5655 11.4655 54.5361C11.4036 54.5836 11.3407 54.631 11.2846 54.6856C11.3407 55.147 11.1985 55.6274 10.8449 55.9805C10.799 56.0263 10.7469 56.0624 10.6964 56.1016C10.6985 56.2511 10.7201 56.3949 10.7536 56.5346C10.8768 56.4588 10.9943 56.3727 11.1 56.2686C11.0928 56.2062 11.0815 56.1439 11.0815 56.0789Z" fill="black"/>
<path d="M11.4655 54.5366C11.5304 54.566 11.5969 54.5917 11.6645 54.6165C11.6552 54.551 11.6459 54.4861 11.6309 54.4216C11.5727 54.4567 11.5191 54.4953 11.4655 54.5366Z" fill="black"/>
<path d="M11.6897 54.8763C11.6897 54.8675 11.6876 54.8598 11.6871 54.8516C11.3211 55.1376 11.0814 55.5789 11.0814 56.0789C11.0814 56.1438 11.0922 56.2057 11.1005 56.2686C11.1062 56.2629 11.1129 56.2593 11.1185 56.2536C11.4866 55.8861 11.6897 55.3969 11.6897 54.8763Z" fill="black"/>
<path d="M8.63296 53.7707C8.9876 53.4166 9.46956 53.2748 9.9309 53.331C9.97935 53.282 10.019 53.2264 10.0618 53.1728C10.0288 53.1047 9.99739 53.0362 9.96904 52.9655C9.89636 52.9573 9.82419 52.946 9.751 52.9454C9.4644 53.3016 9.0309 53.5341 8.53811 53.5341C8.47162 53.5341 8.40873 53.5228 8.34481 53.5145C8.2412 53.6212 8.15461 53.7382 8.07986 53.8604C8.21956 53.8944 8.36285 53.9161 8.51234 53.9181C8.55151 53.8686 8.58708 53.8171 8.63296 53.7707Z" fill="black"/>
<path d="M9.96902 52.9661C9.99738 53.0367 10.0283 53.1058 10.0618 53.1733C10.1061 53.1171 10.1494 53.0604 10.1876 52.9996C10.1154 52.9836 10.0422 52.9743 9.96902 52.9661Z" fill="black"/>
<path d="M8.35928 53.498C8.35413 53.5032 8.35001 53.5099 8.34537 53.5155C8.40929 53.5233 8.47217 53.5351 8.53867 53.5351C9.03094 53.5351 9.46496 53.3026 9.75155 52.9464C9.24228 52.9434 8.73145 53.1263 8.35928 53.498Z" fill="black"/>
<path fill-rule="evenodd" clip-rule="evenodd" d="M9.93043 53.3315C10.0134 53.3419 10.0938 53.3589 10.1742 53.3821C10.4294 53.8109 10.7923 54.1676 11.2263 54.415C11.2531 54.5037 11.2737 54.5939 11.2846 54.6857C10.9212 55.0398 10.6943 55.5326 10.6943 56.079C10.6943 56.0828 10.6949 56.0866 10.6954 56.0903C10.6959 56.094 10.6964 56.0978 10.6964 56.1016C10.0835 56.5815 9.19847 56.5455 8.63559 55.9805C8.07115 55.4171 8.03404 54.5321 8.51239 53.9187C8.51671 53.9187 8.52078 53.9193 8.5249 53.9199C8.52915 53.9206 8.53346 53.9212 8.53816 53.9212C9.08352 53.9212 9.57631 53.6944 9.93043 53.3315ZM8.90875 55.7068C9.35463 56.1537 10.1278 56.1516 10.5722 55.7073C10.7938 55.4857 10.9165 55.1903 10.916 54.8759C10.916 54.5614 10.7933 54.2661 10.5716 54.0439C10.35 53.8218 10.0541 53.6996 9.73968 53.6996C9.42525 53.6996 9.12886 53.8218 8.90566 54.0444C8.44844 54.5032 8.44947 55.2491 8.90875 55.7068Z" fill="black"/>
<path d="M11.2263 54.415C11.1536 54.1799 11.0309 53.9567 10.8453 53.7706C10.6525 53.5773 10.419 53.4526 10.1742 53.3815C10.4293 53.8109 10.7922 54.1676 11.2263 54.415Z" fill="black"/>
<path d="M10.6948 56.079C10.6948 56.0867 10.6969 56.0939 10.6969 56.1017C10.7474 56.0625 10.7995 56.0264 10.8453 55.9805C11.1989 55.6269 11.3412 55.1465 11.285 54.6857C10.9216 55.0403 10.6948 55.5331 10.6948 56.079Z" fill="black"/>
<path d="M9.93098 53.3314C9.46964 53.2747 8.9882 53.417 8.63304 53.7711C8.58717 53.817 8.5516 53.8685 8.51294 53.9191C8.5217 53.9191 8.52943 53.9216 8.53871 53.9216C9.08407 53.9211 9.57686 53.6943 9.93098 53.3314Z" fill="black"/>
<path fill-rule="evenodd" clip-rule="evenodd" d="M54.8036 10.8893L54.732 10.5748L54.4103 10.5882C54.2098 10.597 49.4845 10.831 47.1397 13.9027C44.7918 16.9733 45.8062 21.5944 45.8505 21.7898L45.9222 22.1042L46.2443 22.0908C46.4443 22.082 51.1691 21.846 53.515 18.7748C55.8624 15.7047 54.848 11.0841 54.8036 10.8893ZM47.083 21.2217L48.7949 18.9815L51.8784 19.33C50.3052 20.5764 48.2367 21.0496 47.083 21.2217ZM47.9779 18.7774L47.2624 15.1496C46.2289 17.0944 46.3191 19.4924 46.4681 20.7532L47.9779 18.7774ZM54.1026 15.4439L51.2016 15.8315L54.1867 11.9248C54.2856 12.7552 54.3593 14.079 54.1026 15.4439ZM49.9216 16.2341L49.4711 12.8614C48.8763 13.2264 48.3216 13.6805 47.8639 14.2424L48.6309 17.9228L49.9216 16.2341ZM50.585 15.3656L50.201 12.4887L50.1278 12.4985C51.3984 11.8686 52.7293 11.5826 53.5721 11.4568L50.585 15.3656ZM49.3423 18.2656L52.6206 18.6362C52.717 18.529 52.8129 18.4212 52.9011 18.3052C53.3794 17.68 53.6975 16.9717 53.9088 16.2501L50.5377 16.7006L49.3423 18.2656Z" fill="black"/>
<path fill-rule="evenodd" clip-rule="evenodd" d="M52.1 46.1098L58.2727 48.5263L56.1118 50.6903L53.4907 49.6635L54.4835 52.2011L54.5675 52.2336L53.3098 53.4903L52.3546 54.4459L52.3222 54.3629L49.783 53.3686L50.7876 55.9351L50.7995 55.9397L50.7923 55.947L50.8088 55.9897L48.6479 58.1516L48.6268 58.098L42.3809 55.6526L44.5412 53.4908L47.2356 54.5449L46.2304 51.9779L46.1474 51.9454L47.5361 50.5568L48.3593 49.733L48.3912 49.816L50.9314 50.8098L49.9371 48.2712L49.8562 48.2392L49.9057 48.1897L49.9051 48.1882L52.0675 46.0269L52.1 46.1098ZM48.0701 51.116L48.0417 51.1439L47.5299 51.6568L48.418 52.0042L48.9082 52.1959L49.3984 52.3882L51.9381 53.382L51.3149 51.7903L48.7752 50.7959L48.4984 50.6877L48.3685 50.8176L48.0701 51.116ZM43.7629 55.3629L44.7304 54.3949L47.6191 55.5253L48.2423 57.1171L43.7629 55.3629ZM49.9047 55.8011L49.8067 55.5511L48.8021 52.9846L47.2104 52.3619L48.216 54.9284L48.4083 55.4191L48.6 55.9093L48.9196 56.7258L48.9366 56.7691L49.7583 55.9475L49.9047 55.8011ZM53.5036 51.816L53.6118 52.0934L53.4824 52.2227L52.6432 53.0619L52.2953 52.1732L52.103 51.683L51.9113 51.1928L50.917 48.6547L50.8087 48.3774L50.9386 48.248L51.7783 47.4093L51.7788 47.4098L52.1262 48.298L52.318 48.7882L52.5097 49.2784L53.5036 51.816ZM52.4834 47.0903L53.1061 48.6815L55.9221 49.7841L56.8901 48.8155L52.4834 47.0903Z" fill="black"/>
<path d="M47.4119 88.8697H47.3933L45.3902 85.697H44.0145V91.8558H45.3248V88.9728C45.3248 88.6548 45.231 87.5223 45.231 87.5223L45.2593 87.513C45.2593 87.513 45.8299 88.5238 45.9892 88.7764L47.281 90.8264H47.5248L48.8165 88.7764C48.9758 88.5238 49.5366 87.513 49.5366 87.513L49.565 87.5223C49.565 87.5223 49.481 88.6548 49.481 88.9728V91.8558H50.7913V85.697H49.4155L47.4119 88.8697Z" fill="black"/>
<path fill-rule="evenodd" clip-rule="evenodd" d="M56.7515 88.046L56.836 87.1006C56.836 87.1006 56.6768 87.0444 56.4711 87.0444C56.0402 87.0444 55.6567 87.2037 55.5536 87.6996H55.535C55.2072 87.3439 54.6551 87.1382 53.9814 87.1382C52.9232 87.1382 52.0247 87.8305 52.0247 88.748C52.0247 89.3094 52.25 89.7589 52.6896 90.03V90.0398C52.3804 90.1522 52.1376 90.4609 52.1376 90.9197C52.1376 91.1444 52.2216 91.4532 52.4927 91.6872V91.6965C51.9778 91.8089 51.7814 92.2486 51.7814 92.6326C51.7814 93.212 52.2634 93.8496 53.4783 94.0187C53.6778 94.0465 53.8912 94.0645 54.1309 94.0645C54.7041 94.0645 55.2082 93.9754 55.6149 93.8017C56.2701 93.5223 56.6675 93.0212 56.6675 92.3053C56.6675 91.5001 56.1154 90.9949 55.1515 90.9949H53.7288C53.3355 90.9949 53.1577 90.864 53.1577 90.6202C53.1577 90.4986 53.2046 90.3584 53.317 90.2645C53.4855 90.3207 53.7103 90.3491 53.9819 90.3491C55.2268 90.3491 55.9381 89.6656 55.9381 88.7486C55.9381 88.5893 55.9098 88.43 55.8536 88.2898C55.9752 88.1589 56.1907 88.0274 56.5278 88.0274C56.602 88.0269 56.7046 88.0367 56.7515 88.046ZM53.3257 91.9584C53.4097 91.9769 53.5128 91.9769 53.6252 91.9769H54.8886C55.2443 91.9769 55.4505 92.164 55.4505 92.4542C55.4505 92.9692 55.0293 93.2687 54.2242 93.2687C53.2603 93.2687 52.9891 92.8944 52.9891 92.5197C52.9891 92.2393 53.1293 92.0424 53.3257 91.9584ZM53.1954 88.7475C53.1954 89.2063 53.4381 89.5527 53.9814 89.5527C54.5052 89.5527 54.767 89.2723 54.767 88.7475C54.767 88.2321 54.5057 87.9424 53.9814 87.9424C53.5041 87.9424 53.1954 88.2424 53.1954 88.7475Z" fill="black"/>
<path fill-rule="evenodd" clip-rule="evenodd" d="M87.8139 51.0336V51.0001C88.5257 50.6666 88.6479 50.1661 88.6479 49.6877C88.6479 48.6424 87.9695 47.8083 86.1345 47.8083H83.0201V55.1264H86.3572C88.2587 55.1264 89.1154 54.1589 89.1154 52.9135C89.1154 51.9676 88.6371 51.3228 87.8139 51.0336ZM84.5778 49.0315H85.9232C86.8237 49.0315 87.1355 49.3429 87.1355 49.9212C87.1355 50.4439 86.7907 50.8109 86.3793 50.8109H84.5778V49.0315ZM84.5783 53.9027H86.1794C87.1242 53.9027 87.5355 53.6027 87.5361 52.8795C87.5361 52.2233 87.1917 51.8006 86.2129 51.8006H84.5783V53.9027Z" fill="black"/>
<path fill-rule="evenodd" clip-rule="evenodd" d="M91.0593 54.3717C91.3779 54.0454 91.6887 53.9568 92.0815 53.9568C93.1784 53.9568 93.7114 54.6083 93.7114 55.4171C93.7114 56.2171 93.0892 57.0542 91.8593 57.0542C90.5629 57.0542 89.8439 56.3135 89.8439 55.1279C89.8439 53.5202 91.0073 52.3789 92.6593 52.0011L92.9485 52.7862C91.83 53.1934 91.2599 53.7124 91.0222 54.3568L91.0593 54.3717ZM90.8516 55.1795C90.8516 55.7573 91.1629 56.2016 91.8444 56.2016C92.4371 56.2016 92.6964 55.831 92.6969 55.4016C92.6969 54.9496 92.4155 54.646 91.8078 54.646C91.3036 54.646 91.0217 54.8387 90.8593 54.9795C90.8516 55.0532 90.8516 55.0903 90.8516 55.1795Z" fill="black"/>
</svg>
