<svg width="166" height="176" viewBox="0 0 166 176" fill="none" xmlns="http://www.w3.org/2000/svg">
<path d="M0 38.093C0 43.24 4.174 47.414 9.32 47.414H38.838C43.984 47.414 48.158 43.24 48.158 38.093V0H0V38.093H0Z" transform="translate(89.751 72.785)" fill="white"/>
<path d="M0 38.093C0 43.24 4.174 47.414 9.32 47.414H38.838C43.984 47.414 48.158 43.24 48.158 38.093V0H0V38.093H0Z" transform="translate(28.0909 72.785)" fill="white"/>
<path d="M30.617 42.738H39.377V36.515L61.659 19.169V0H30.51H31.148H0V19.169L22.281 36.515V42.738H31.042H30.617Z" transform="translate(21.3409 1.01404)" fill="white"/>
<path d="M30.617 42.738H39.377V36.515L61.659 19.169V0H30.51H31.149H0V19.169L22.282 36.515V42.738H31.042H30.617Z" transform="translate(83 1.01404)" fill="white"/>
<path d="M41.151 1.743C41.151 2.706 40.606 3.485 39.934 3.485H1.217C0.545 3.485 0 2.706 0 1.743V1.743C0 0.78 0.545 0 1.217 0H39.934C40.606 0 41.151 0.781 41.151 1.743V1.743Z" transform="translate(93.254 65.4041)" fill="white"/>
<path d="M41.151 1.741C41.151 2.704 40.606 3.484 39.934 3.484H1.217C0.545 3.484 0 2.704 0 1.741V1.741C0 0.780001 0.545 9.59237e-07 1.217 9.59237e-07H39.934C40.606 -0.000999041 41.151 0.780001 41.151 1.741V1.741Z" transform="translate(93.254 68.985)" fill="white"/>
<path d="M41.151 1.743C41.151 2.706 40.606 3.485 39.934 3.485H1.217C0.545 3.485 0 2.706 0 1.743V1.743C0 0.78 0.545 0 1.217 0H39.934C40.606 0 41.151 0.781 41.151 1.743V1.743Z" transform="translate(31.594 65.4041)" fill="white"/>
<path d="M41.151 1.741C41.151 2.704 40.606 3.484 39.934 3.484H1.217C0.545 3.484 0 2.704 0 1.741V1.741C0 0.780001 0.545 9.59237e-07 1.217 9.59237e-07H39.934C40.606 -0.000999041 41.151 0.780001 41.151 1.741V1.741Z" transform="translate(31.594 68.985)" fill="white"/>
<path fill-rule="evenodd" clip-rule="evenodd" d="M1.96698 4.98499H40.684C41.787 4.98499 42.651 3.89001 42.651 2.49304C42.651 1.09497 41.787 0 40.684 0H1.96698C0.864014 0 0 1.09497 0 2.49304C0 3.89001 0.864014 4.98499 1.96698 4.98499ZM1.50098 2.49207C1.50098 1.88599 1.80798 1.49902 1.96796 1.49902H40.685C40.845 1.49902 41.152 1.88599 41.152 2.49207C41.152 3.09705 40.845 3.48401 40.685 3.48401H1.96796C1.80798 3.48401 1.50098 3.09705 1.50098 2.49207Z" transform="translate(92.504 64.655)" fill="black"/>
<path fill-rule="evenodd" clip-rule="evenodd" d="M1.96698 4.98401H40.684C41.787 4.98401 42.651 3.88904 42.651 2.49097C42.651 1.09497 41.787 0 40.684 0H1.96698C0.864014 0 0 1.09497 0 2.49097C0 3.88904 0.864014 4.98401 1.96698 4.98401ZM1.50098 2.48999C1.50098 1.88599 1.80798 1.49902 1.96796 1.49902H40.685C40.845 1.49902 41.152 1.88599 41.152 2.48999C41.152 3.09607 40.845 3.48303 40.685 3.48303H1.96796C1.80798 3.48303 1.50098 3.09607 1.50098 2.48999Z" transform="translate(92.504 68.235)" fill="black"/>
<path fill-rule="evenodd" clip-rule="evenodd" d="M10.07 48.9139H39.588C45.141 48.9139 49.658 44.397 49.658 38.843V0H0V38.843C0 44.396 4.51703 48.9139 10.07 48.9139ZM1.5 38.843V1.5H48.158V38.843C48.158 43.569 44.314 47.4139 39.588 47.4139H10.07C5.34497 47.4139 1.5 43.5699 1.5 38.843Z" transform="translate(89.001 72.035)" fill="black"/>
<path fill-rule="evenodd" clip-rule="evenodd" d="M10.07 48.9139H39.588C45.14 48.9139 49.658 44.397 49.658 38.843V0H0V38.843C0 44.396 4.51703 48.9139 10.07 48.9139ZM1.5 38.843V1.5H48.158V38.843C48.158 43.569 44.314 47.4139 39.588 47.4139H10.07C5.34497 47.4139 1.5 43.5699 1.5 38.843Z" transform="translate(27.3409 72.035)" fill="black"/>
<path d="M0 0.605C0 1.962 1.102 3.064 2.459 3.064C3.817 3.064 4.918 1.962 4.918 0.605C4.918 0.394 4.884 0.194 4.834 0H0.084C0.034 0.194 0 0.394 0 0.605Z" transform="translate(52.14 44.5021)" fill="black"/>
<path d="M0 0V20.286L22.281 37.632V44.238H31.633C31.795 43.6 32.203 43.066 32.754 42.738H31.792H23.781V36.898L1.5 19.552V1.5H61.659V19.553L39.377 36.899V42.739H35.262C35.813 43.067 36.221 43.601 36.383 44.239H40.877V37.633L63.159 20.286V0H0Z" transform="translate(20.5909 0.264038)" fill="black"/>
<path d="M3.629 0H1.121C0.57 0.328 0.162 0.862 0 1.5H4.75C4.588 0.862 4.179 0.328 3.629 0Z" transform="translate(52.224 43.0021)" fill="black"/>
<path fill-rule="evenodd" clip-rule="evenodd" d="M22.282 44.238H40.877V37.632L63.159 20.286V0H0V20.286L22.282 37.632V44.238ZM39.377 42.738H31.792V42.739H23.782V36.899L1.5 19.553V1.5H61.659V19.552L39.377 36.8979V42.738Z" transform="translate(82.25 0.264038)" fill="black"/>
<path d="M0 0H14.268V1.5H0V0Z" transform="translate(1.08197 146.667)" fill="black"/>
<path d="M0 0H14.263V1.5H0V0Z" transform="translate(41.48 146.667)" fill="black"/>
<path fill-rule="evenodd" clip-rule="evenodd" d="M0 28.0909C0 43.579 12.598 56.1801 28.082 56.1801C43.564 56.1801 56.161 43.579 56.161 28.0909C56.161 12.6021 43.564 0 28.082 0C12.598 0 0 12.6021 0 28.0909ZM1.5 28.0909C1.5 13.429 13.425 1.5 28.082 1.5C42.738 1.5 54.661 13.429 54.661 28.0909C54.661 42.752 42.738 54.6801 28.082 54.6801C13.425 54.6801 1.5 42.752 1.5 28.0909Z" transform="translate(0.33197 119.326)" fill="black"/>
<path d="M0 0H1.50004V14.7024H0V0Z" transform="translate(17.1111 153.094) rotate(59.9943)" fill="black"/>
<path d="M0 0H1.50004V14.7044H0V0Z" transform="translate(51.7219 133.106) rotate(59.9943)" fill="black"/>
<path d="M0 0H14.6969V1.49999H0V0Z" transform="translate(39.7253 153.082) rotate(30.0135)" fill="black"/>
<path d="M0 0H14.7017V1.49997H0V0Z" transform="translate(5.1189 133.087) rotate(30.0007)" fill="black"/>
<path d="M0 0H1.50004V14.7004H0V0Z" transform="translate(21.4452 158.002) rotate(30.0057)" fill="black"/>
<path d="M0 0H1.50004V14.7044H0V0Z" transform="translate(41.4302 123.38) rotate(30.0057)" fill="black"/>
<path d="M0 0H1.5V14.181H0V0Z" transform="translate(27.6639 160.575)" fill="black"/>
<path d="M0 0H1.5V14.068H0V0Z" transform="translate(27.6639 120.076)" fill="black"/>
<path d="M0 0H14.7032V1.50002H0V0Z" transform="translate(35.3891 157.989) rotate(60.0071)" fill="black"/>
<path d="M0 0H14.7012V1.50002H0V0Z" transform="translate(15.3845 123.371) rotate(60.0071)" fill="black"/>
<path fill-rule="evenodd" clip-rule="evenodd" d="M0 13.3879C0 20.769 6.00403 26.7729 13.384 26.7729C20.763 26.7729 26.766 20.769 26.766 13.3879C26.766 6.00598 20.763 0 13.384 0C6.00403 0 0 6.00598 0 13.3879ZM1.5 13.3879C1.5 6.83301 6.83099 1.5 13.384 1.5C19.936 1.5 25.266 6.83301 25.266 13.3879C25.266 19.942 19.936 25.2729 13.384 25.2729C6.83099 25.2729 1.5 19.942 1.5 13.3879Z" transform="translate(15.03 134.029)" fill="black"/>
<path fill-rule="evenodd" clip-rule="evenodd" d="M0 6.521C0 10.116 2.92401 13.04 6.51801 13.04C10.112 13.04 13.035 10.116 13.035 6.521C13.035 2.92505 10.112 0 6.51801 0C2.92401 0 0 2.92505 0 6.521ZM1.5 6.521C1.5 3.75195 3.75098 1.5 6.51801 1.5C9.28497 1.5 11.535 3.75195 11.535 6.521C11.535 9.28894 9.28497 11.54 6.51801 11.54C3.75098 11.54 1.5 9.28894 1.5 6.521Z" transform="translate(21.896 140.896)" fill="black"/>
<path fill-rule="evenodd" clip-rule="evenodd" d="M0 28.082C0 43.5649 12.598 56.163 28.082 56.163C43.566 56.163 56.163 43.566 56.163 28.082C56.163 12.598 43.566 0 28.082 0C12.598 0 0 12.598 0 28.082ZM1.5 28.082C1.5 13.425 13.425 1.5 28.082 1.5C42.739 1.5 54.663 13.425 54.663 28.082C54.663 42.738 42.739 54.663 28.082 54.663C13.425 54.663 1.5 42.738 1.5 28.082Z" transform="translate(109.505 119.573)" fill="black"/>
<path fill-rule="evenodd" clip-rule="evenodd" d="M0 23.748C0 36.843 10.653 47.496 23.747 47.496C36.842 47.496 47.495 36.843 47.495 23.748C47.495 10.653 36.842 0 23.747 0C10.653 0 0 10.653 0 23.748ZM1.5 23.748C1.5 11.48 11.48 1.5 23.747 1.5C36.014 1.5 45.995 11.48 45.995 23.748C45.995 36.016 36.015 45.996 23.747 45.996C11.48 45.996 1.5 36.016 1.5 23.748Z" transform="translate(113.84 123.907)" fill="black"/>
<path d="M0 0H1.5V10.066H0V0Z" transform="translate(136.837 124.657)" fill="black"/>
<path d="M0 0H1.50004V10.0763H0V0Z" transform="translate(126.036 153.479) rotate(59.9943)" fill="black"/>
<path fill-rule="evenodd" clip-rule="evenodd" d="M0 13.682C0 21.226 6.13898 27.364 13.684 27.364C21.228 27.364 27.366 21.226 27.366 13.682C27.366 6.13794 21.228 0 13.684 0C6.13898 0 0 6.13794 0 13.682ZM1.5 13.683C1.5 6.96594 6.966 1.50098 13.684 1.50098C20.401 1.50098 25.866 6.96594 25.866 13.683C25.866 20.4 20.401 25.865 13.684 25.865C6.966 25.865 1.5 20.4 1.5 13.683Z" transform="translate(123.903 133.973)" fill="black"/>
<path fill-rule="evenodd" clip-rule="evenodd" d="M0 8.36096C0 12.9709 3.75201 16.722 8.36298 16.722C12.973 16.722 16.723 12.9709 16.723 8.36096C16.723 3.75098 12.973 0 8.36298 0C3.75201 0 0 3.75098 0 8.36096ZM1.5 8.35999C1.5 4.57703 4.57898 1.49902 8.36298 1.49902C12.146 1.49902 15.223 4.57703 15.223 8.35999C15.223 12.1431 12.146 15.2211 8.36298 15.2211C4.57898 15.2211 1.5 12.1431 1.5 8.35999Z" transform="translate(129.224 139.295)" fill="black"/>
<path d="M0 0H10.0778V1.49997H0V0Z" transform="translate(149.309 153.456) rotate(30.0007)" fill="black"/>
<path d="M0 0H1.50004V10.0763H0V0Z" transform="translate(126.036 153.479) rotate(59.9943)" fill="black"/>
<path d="M0 0H109.173V1.5H0V0Z" transform="translate(28.4109 119.339) rotate(0.13178)" fill="black"/>
<path d="M0 0H109.173V1.5H0V0Z" transform="translate(28.4188 174.002) rotate(0.120321)" fill="black"/>
<path d="M2.458 4.916C3.81552 4.916 4.916 3.81552 4.916 2.458C4.916 1.10048 3.81552 0 2.458 0C1.10048 0 0 1.10048 0 2.458C0 3.81552 1.10048 4.916 2.458 4.916Z" transform="translate(46.153 83.1731)" fill="black"/>
<path d="M2.459 4.918C3.81707 4.918 4.918 3.81707 4.918 2.459C4.918 1.10093 3.81707 0 2.459 0C1.10093 0 0 1.10093 0 2.459C0 3.81707 1.10093 4.918 2.459 4.918Z" transform="translate(47.681 74.7631)" fill="black"/>
<path d="M2.459 4.918C3.81707 4.918 4.918 3.81707 4.918 2.459C4.918 1.10093 3.81707 0 2.459 0C1.10093 0 0 1.10093 0 2.459C0 3.81707 1.10093 4.918 2.459 4.918Z" transform="translate(52.6 85.8661)" fill="black"/>
<path d="M2.459 4.918C3.81707 4.918 4.918 3.81707 4.918 2.459C4.918 1.10093 3.81707 0 2.459 0C1.10093 0 0 1.10093 0 2.459C0 3.81707 1.10093 4.918 2.459 4.918Z" transform="translate(46.573 48.567)" fill="black"/>
<path d="M2.459 4.918C3.81707 4.918 4.918 3.81707 4.918 2.459C4.918 1.10093 3.81707 0 2.459 0C1.10093 0 0 1.10093 0 2.459C0 3.81707 1.10093 4.918 2.459 4.918Z" transform="translate(50.14 57.889)" fill="black"/>
<path d="M4.918 0C4.918 1.358 3.817 2.459 2.459 2.459C1.102 2.459 0 1.358 0 0" transform="translate(52.14 73.399)" fill="black"/>
<path d="M2.46 4.92C3.81862 4.92 4.92 3.81862 4.92 2.46C4.92 1.10138 3.81862 0 2.46 0C1.10138 0 0 1.10138 0 2.46C0 3.81862 1.10138 4.92 2.46 4.92Z" transform="translate(52.14 104.329)" fill="black"/>
<path d="M2.459 4.918C3.81707 4.918 4.918 3.81707 4.918 2.459C4.918 1.10093 3.81707 0 2.459 0C1.10093 0 0 1.10093 0 2.459C0 3.81707 1.10093 4.918 2.459 4.918Z" transform="translate(50.304 92.699)" fill="black"/>
<path d="M2.459 4.918C3.81707 4.918 4.918 3.81707 4.918 2.459C4.918 1.10093 3.81707 0 2.459 0C1.10093 0 0 1.10093 0 2.459C0 3.81707 1.10093 4.918 2.459 4.918Z" transform="translate(45.573 99.386)" fill="black"/>
<path d="M12.385 5.938L8.978 8.141L0 2.203L3.405 0L12.385 5.938Z" transform="translate(39.546 19.443)" fill="white"/>
<path fill-rule="evenodd" clip-rule="evenodd" d="M0 3.09204L10.344 9.93201L15.125 6.83997L4.78003 0L0 3.09204ZM10.353 8.14001L2.73999 3.10596L4.77002 1.79297L12.384 6.82703L10.353 8.14001Z" transform="translate(38.176 18.547)" fill="black"/>
<path d="M1.737 12.827L5.14 10.623L3.402 0L0 2.204L1.737 12.827Z" transform="translate(47.341 14.4001)" fill="white"/>
<path fill-rule="evenodd" clip-rule="evenodd" d="M0 3.09399L2.00201 15.332L6.77899 12.238L4.776 0L0 3.09399ZM3.112 12.8269L1.63898 3.81995L3.66699 2.50696L5.14099 11.5139L3.112 12.8269Z" transform="translate(46.521 13.1471)" fill="black"/>
<path d="M12.385 5.937L8.978 8.141L0 2.203L3.404 0L12.385 5.937Z" transform="translate(47.892 14.0431)" fill="white"/>
<path fill-rule="evenodd" clip-rule="evenodd" d="M0 3.09204L10.344 9.93298L15.126 6.83997L4.77802 0L0 3.09204ZM10.354 8.14099L2.74103 3.10596L4.77106 1.79297L12.386 6.82703L10.354 8.14099Z" transform="translate(46.521 13.1471)" fill="black"/>
<path d="M12.381 5.937L8.978 8.14L0 2.203L3.403 0L12.381 5.937Z" transform="translate(56.201 8.63501)" fill="white"/>
<path fill-rule="evenodd" clip-rule="evenodd" d="M0 3.09302L10.344 9.93396L15.121 6.84094L4.77802 0L0 3.09302ZM10.351 8.14099L2.73999 3.10693L4.76801 1.79395L12.38 6.828L10.351 8.14099Z" transform="translate(54.831 7.73804)" fill="black"/>
<path d="M1.735 12.826L5.14 10.622L3.406 0L0 2.202L1.735 12.826Z" transform="translate(55.688 9.00098)" fill="white"/>
<path fill-rule="evenodd" clip-rule="evenodd" d="M0 3.09094L1.99902 15.3311L6.77899 12.2371L4.78101 0L0 3.09094ZM3.11096 12.8251L1.63898 3.81702L3.66998 2.50403L5.14099 11.511L3.11096 12.8251Z" transform="translate(54.868 7.74902)" fill="black"/>
<path d="M1.23 2.46C1.90931 2.46 2.46 1.90931 2.46 1.23C2.46 0.55069 1.90931 0 1.23 0C0.55069 0 0 0.55069 0 1.23C0 1.90931 0.55069 2.46 1.23 2.46Z" transform="translate(112.37 99.385)" fill="black"/>
<path d="M1.229 2.458C1.90776 2.458 2.458 1.90776 2.458 1.229C2.458 0.550242 1.90776 0 1.229 0C0.550242 0 0 0.550242 0 1.229C0 1.90776 0.550242 2.458 1.229 2.458Z" transform="translate(109.947 72.416)" fill="black"/>
<path d="M1.23 2.46C1.90931 2.46 2.46 1.90931 2.46 1.23C2.46 0.55069 1.90931 0 1.23 0C0.55069 0 0 0.55069 0 1.23C0 1.90931 0.55069 2.46 1.23 2.46Z" transform="translate(109.345 96.4661)" fill="black"/>
<path d="M1.23 2.46C1.90931 2.46 2.46 1.90931 2.46 1.23C2.46 0.55069 1.90931 0 1.23 0C0.55069 0 0 0.55069 0 1.23C0 1.90931 0.55069 2.46 1.23 2.46Z" transform="translate(111.37 84.092)" fill="black"/>
<path d="M1.23 2.46C1.90931 2.46 2.46 1.90931 2.46 1.23C2.46 0.55069 1.90931 0 1.23 0C0.55069 0 0 0.55069 0 1.23C0 1.90931 0.55069 2.46 1.23 2.46Z" transform="translate(112.601 93.9291)" fill="black"/>
<path d="M1.23 2.46C1.90931 2.46 2.46 1.90931 2.46 1.23C2.46 0.55069 1.90931 0 1.23 0C0.55069 0 0 0.55069 0 1.23C0 1.90931 0.55069 2.46 1.23 2.46Z" transform="translate(114.866 89.009)" fill="black"/>
<path d="M1.229 2.458C1.90776 2.458 2.458 1.90776 2.458 1.229C2.458 0.550242 1.90776 0 1.229 0C0.550242 0 0 0.550242 0 1.229C0 1.90776 0.550242 2.458 1.229 2.458Z" transform="translate(109.64 79.723)" fill="black"/>
<path d="M1.229 2.458C1.90776 2.458 2.458 1.90776 2.458 1.229C2.458 0.550242 1.90776 0 1.229 0C0.550242 0 0 0.550242 0 1.229C0 1.90776 0.550242 2.458 1.229 2.458Z" transform="translate(107.681 82.863)" fill="black"/>
<path d="M1.23 2.46C1.90931 2.46 2.46 1.90931 2.46 1.23C2.46 0.55069 1.90931 0 1.23 0C0.55069 0 0 0.55069 0 1.23C0 1.90931 0.55069 2.46 1.23 2.46Z" transform="translate(112.361 62.806)" fill="black"/>
<path d="M1.23 2.46C1.90931 2.46 2.46 1.90931 2.46 1.23C2.46 0.55069 1.90931 0 1.23 0C0.55069 0 0 0.55069 0 1.23C0 1.90931 0.55069 2.46 1.23 2.46Z" transform="translate(114.822 78.222)" fill="black"/>
<path d="M1.23 2.46C1.90931 2.46 2.46 1.90931 2.46 1.23C2.46 0.55069 1.90931 0 1.23 0C0.55069 0 0 0.55069 0 1.23C0 1.90931 0.55069 2.46 1.23 2.46Z" transform="translate(110.14 55.427)" fill="black"/>
<path d="M1.23 2.46C1.90931 2.46 2.46 1.90931 2.46 1.23C2.46 0.55069 1.90931 0 1.23 0C0.55069 0 0 0.55069 0 1.23C0 1.90931 0.55069 2.46 1.23 2.46Z" transform="translate(113.591 51.7061)" fill="black"/>
<path d="M1.23 2.46C1.90931 2.46 2.46 1.90931 2.46 1.23C2.46 0.55069 1.90931 0 1.23 0C0.55069 0 0 0.55069 0 1.23C0 1.90931 0.55069 2.46 1.23 2.46Z" transform="translate(115.208 60.3461)" fill="black"/>
<path d="M1.23 2.46C1.90931 2.46 2.46 1.90931 2.46 1.23C2.46 0.55069 1.90931 0 1.23 0C0.55069 0 0 0.55069 0 1.23C0 1.90931 0.55069 2.46 1.23 2.46Z" transform="translate(111.37 47.566)" fill="black"/>
<path d="M1.23 2.46C1.90931 2.46 2.46 1.90931 2.46 1.23C2.46 0.55069 1.90931 0 1.23 0C0.55069 0 0 0.55069 0 1.23C0 1.90931 0.55069 2.46 1.23 2.46Z" transform="translate(114.822 45.3361)" fill="black"/>
<path d="M1.229 2.458C1.90776 2.458 2.458 1.90776 2.458 1.229C2.458 0.550242 1.90776 0 1.229 0C0.550242 0 0 0.550242 0 1.229C0 1.90776 0.550242 2.458 1.229 2.458Z" transform="translate(90.2679 107.675)" fill="black"/>
<path d="M1.229 2.458C1.90776 2.458 2.458 1.90776 2.458 1.229C2.458 0.550242 1.90776 0 1.229 0C0.550242 0 0 0.550242 0 1.229C0 1.90776 0.550242 2.458 1.229 2.458Z" transform="translate(95.188 107.675)" fill="black"/>
<path d="M1.23 2.46C1.90931 2.46 2.46 1.90931 2.46 1.23C2.46 0.55069 1.90931 0 1.23 0C0.55069 0 0 0.55069 0 1.23C0 1.90931 0.55069 2.46 1.23 2.46Z" transform="translate(100.106 107.674)" fill="black"/>
<path d="M1.229 2.458C1.90776 2.458 2.458 1.90776 2.458 1.229C2.458 0.550242 1.90776 0 1.229 0C0.550242 0 0 0.550242 0 1.229C0 1.90776 0.550242 2.458 1.229 2.458Z" transform="translate(105.027 107.675)" fill="black"/>
<path d="M1.229 2.458C1.90776 2.458 2.458 1.90776 2.458 1.229C2.458 0.550242 1.90776 0 1.229 0C0.550242 0 0 0.550242 0 1.229C0 1.90776 0.550242 2.458 1.229 2.458Z" transform="translate(109.947 107.675)" fill="black"/>
<path d="M1.229 2.458C1.90776 2.458 2.458 1.90776 2.458 1.229C2.458 0.550242 1.90776 0 1.229 0C0.550242 0 0 0.550242 0 1.229C0 1.90776 0.550242 2.458 1.229 2.458Z" transform="translate(114.868 107.675)" fill="black"/>
<path d="M1.23 2.46C1.90931 2.46 2.46 1.90931 2.46 1.23C2.46 0.55069 1.90931 0 1.23 0C0.55069 0 0 0.55069 0 1.23C0 1.90931 0.55069 2.46 1.23 2.46Z" transform="translate(119.786 107.674)" fill="black"/>
<path d="M1.23 2.46C1.90931 2.46 2.46 1.90931 2.46 1.23C2.46 0.55069 1.90931 0 1.23 0C0.55069 0 0 0.55069 0 1.23C0 1.90931 0.55069 2.46 1.23 2.46Z" transform="translate(124.706 107.674)" fill="black"/>
<path d="M1.229 2.458C1.90776 2.458 2.458 1.90776 2.458 1.229C2.458 0.550242 1.90776 0 1.229 0C0.550242 0 0 0.550242 0 1.229C0 1.90776 0.550242 2.458 1.229 2.458Z" transform="translate(129.627 107.675)" fill="black"/>
<path d="M1.229 2.458C1.90776 2.458 2.458 1.90776 2.458 1.229C2.458 0.550242 1.90776 0 1.229 0C0.550242 0 0 0.550242 0 1.229C0 1.90776 0.550242 2.458 1.229 2.458Z" transform="translate(90.2679 112.699)" fill="black"/>
<path d="M1.23 2.46C1.90931 2.46 2.46 1.90931 2.46 1.23C2.46 0.55069 1.90931 0 1.23 0C0.55069 0 0 0.55069 0 1.23C0 1.90931 0.55069 2.46 1.23 2.46Z" transform="translate(92.727 110.134)" fill="black"/>
<path d="M1.229 2.458C1.90776 2.458 2.458 1.90776 2.458 1.229C2.458 0.550242 1.90776 0 1.229 0C0.550242 0 0 0.550242 0 1.229C0 1.90776 0.550242 2.458 1.229 2.458Z" transform="translate(95.188 112.699)" fill="black"/>
<path d="M1.23 2.46C1.90931 2.46 2.46 1.90931 2.46 1.23C2.46 0.55069 1.90931 0 1.23 0C0.55069 0 0 0.55069 0 1.23C0 1.90931 0.55069 2.46 1.23 2.46Z" transform="translate(97.646 110.134)" fill="black"/>
<path d="M1.23 2.46C1.90931 2.46 2.46 1.90931 2.46 1.23C2.46 0.55069 1.90931 0 1.23 0C0.55069 0 0 0.55069 0 1.23C0 1.90931 0.55069 2.46 1.23 2.46Z" transform="translate(100.106 112.698)" fill="black"/>
<path d="M1.23 2.46C1.90931 2.46 2.46 1.90931 2.46 1.23C2.46 0.55069 1.90931 0 1.23 0C0.55069 0 0 0.55069 0 1.23C0 1.90931 0.55069 2.46 1.23 2.46Z" transform="translate(102.567 110.134)" fill="black"/>
<path d="M1.23 2.46C1.90931 2.46 2.46 1.90931 2.46 1.23C2.46 0.55069 1.90931 0 1.23 0C0.55069 0 0 0.55069 0 1.23C0 1.90931 0.55069 2.46 1.23 2.46Z" transform="translate(97.646 105.214)" fill="black"/>
<path d="M1.23 2.46C1.90931 2.46 2.46 1.90931 2.46 1.23C2.46 0.55069 1.90931 0 1.23 0C0.55069 0 0 0.55069 0 1.23C0 1.90931 0.55069 2.46 1.23 2.46Z" transform="translate(102.567 105.214)" fill="black"/>
<path d="M1.229 2.458C1.90776 2.458 2.458 1.90776 2.458 1.229C2.458 0.550242 1.90776 0 1.229 0C0.550242 0 0 0.550242 0 1.229C0 1.90776 0.550242 2.458 1.229 2.458Z" transform="translate(105.027 112.699)" fill="black"/>
<path d="M1.231 2.462C1.91086 2.462 2.462 1.91086 2.462 1.231C2.462 0.551137 1.91086 0 1.231 0C0.551137 0 0 0.551137 0 1.231C0 1.91086 0.551137 2.462 1.231 2.462Z" transform="translate(107.485 110.133)" fill="black"/>
<path d="M1.229 2.458C1.90776 2.458 2.458 1.90776 2.458 1.229C2.458 0.550242 1.90776 0 1.229 0C0.550242 0 0 0.550242 0 1.229C0 1.90776 0.550242 2.458 1.229 2.458Z" transform="translate(109.947 112.699)" fill="black"/>
<path d="M1.231 2.462C1.91086 2.462 2.462 1.91086 2.462 1.231C2.462 0.551137 1.91086 0 1.231 0C0.551137 0 0 0.551137 0 1.231C0 1.91086 0.551137 2.462 1.231 2.462Z" transform="translate(112.405 110.133)" fill="black"/>
<path d="M1.231 2.462C1.91086 2.462 2.462 1.91086 2.462 1.231C2.462 0.551137 1.91086 0 1.231 0C0.551137 0 0 0.551137 0 1.231C0 1.91086 0.551137 2.462 1.231 2.462Z" transform="translate(112.405 105.213)" fill="black"/>
<path d="M1.229 2.458C1.90776 2.458 2.458 1.90776 2.458 1.229C2.458 0.550242 1.90776 0 1.229 0C0.550242 0 0 0.550242 0 1.229C0 1.90776 0.550242 2.458 1.229 2.458Z" transform="translate(114.868 112.699)" fill="black"/>
<path d="M1.23 2.46C1.90931 2.46 2.46 1.90931 2.46 1.23C2.46 0.55069 1.90931 0 1.23 0C0.55069 0 0 0.55069 0 1.23C0 1.90931 0.55069 2.46 1.23 2.46Z" transform="translate(117.326 110.134)" fill="black"/>
<path d="M1.23 2.46C1.90931 2.46 2.46 1.90931 2.46 1.23C2.46 0.55069 1.90931 0 1.23 0C0.55069 0 0 0.55069 0 1.23C0 1.90931 0.55069 2.46 1.23 2.46Z" transform="translate(117.326 105.214)" fill="black"/>
<path d="M1.23 2.46C1.90931 2.46 2.46 1.90931 2.46 1.23C2.46 0.55069 1.90931 0 1.23 0C0.55069 0 0 0.55069 0 1.23C0 1.90931 0.55069 2.46 1.23 2.46Z" transform="translate(119.786 112.698)" fill="black"/>
<path d="M1.23 2.46C1.90931 2.46 2.46 1.90931 2.46 1.23C2.46 0.55069 1.90931 0 1.23 0C0.55069 0 0 0.55069 0 1.23C0 1.90931 0.55069 2.46 1.23 2.46Z" transform="translate(122.246 110.134)" fill="black"/>
<path d="M1.23 2.46C1.90931 2.46 2.46 1.90931 2.46 1.23C2.46 0.55069 1.90931 0 1.23 0C0.55069 0 0 0.55069 0 1.23C0 1.90931 0.55069 2.46 1.23 2.46Z" transform="translate(124.706 112.698)" fill="black"/>
<path d="M1.23 2.46C1.90931 2.46 2.46 1.90931 2.46 1.23C2.46 0.55069 1.90931 0 1.23 0C0.55069 0 0 0.55069 0 1.23C0 1.90931 0.55069 2.46 1.23 2.46Z" transform="translate(127.166 110.134)" fill="black"/>
<path d="M1.229 2.458C1.90776 2.458 2.458 1.90776 2.458 1.229C2.458 0.550242 1.90776 0 1.229 0C0.550242 0 0 0.550242 0 1.229C0 1.90776 0.550242 2.458 1.229 2.458Z" transform="translate(129.627 112.699)" fill="black"/>
<path d="M1.229 2.458C1.90776 2.458 2.458 1.90776 2.458 1.229C2.458 0.550242 1.90776 0 1.229 0C0.550242 0 0 0.550242 0 1.229C0 1.90776 0.550242 2.458 1.229 2.458Z" transform="translate(95.188 117.619)" fill="black"/>
<path d="M1.23 2.46C1.90931 2.46 2.46 1.90931 2.46 1.23C2.46 0.55069 1.90931 0 1.23 0C0.55069 0 0 0.55069 0 1.23C0 1.90931 0.55069 2.46 1.23 2.46Z" transform="translate(100.106 117.618)" fill="black"/>
<path d="M1.229 2.458C1.90776 2.458 2.458 1.90776 2.458 1.229C2.458 0.550242 1.90776 0 1.229 0C0.550242 0 0 0.550242 0 1.229C0 1.90776 0.550242 2.458 1.229 2.458Z" transform="translate(105.027 117.619)" fill="black"/>
<path d="M1.229 2.458C1.90776 2.458 2.458 1.90776 2.458 1.229C2.458 0.550242 1.90776 0 1.229 0C0.550242 0 0 0.550242 0 1.229C0 1.90776 0.550242 2.458 1.229 2.458Z" transform="translate(109.947 117.619)" fill="black"/>
<path d="M1.229 2.458C1.90776 2.458 2.458 1.90776 2.458 1.229C2.458 0.550242 1.90776 0 1.229 0C0.550242 0 0 0.550242 0 1.229C0 1.90776 0.550242 2.458 1.229 2.458Z" transform="translate(114.868 117.619)" fill="black"/>
<path d="M1.23 2.46C1.90931 2.46 2.46 1.90931 2.46 1.23C2.46 0.55069 1.90931 0 1.23 0C0.55069 0 0 0.55069 0 1.23C0 1.90931 0.55069 2.46 1.23 2.46Z" transform="translate(119.786 117.618)" fill="black"/>
<path d="M1.23 2.46C1.90931 2.46 2.46 1.90931 2.46 1.23C2.46 0.55069 1.90931 0 1.23 0C0.55069 0 0 0.55069 0 1.23C0 1.90931 0.55069 2.46 1.23 2.46Z" transform="translate(124.706 117.618)" fill="black"/>
<path d="M1.229 2.458C1.90776 2.458 2.458 1.90776 2.458 1.229C2.458 0.550242 1.90776 0 1.229 0C0.550242 0 0 0.550242 0 1.229C0 1.90776 0.550242 2.458 1.229 2.458Z" transform="translate(129.627 117.619)" fill="black"/>
<path d="M1.23 2.46C1.90931 2.46 2.46 1.90931 2.46 1.23C2.46 0.55069 1.90931 0 1.23 0C0.55069 0 0 0.55069 0 1.23C0 1.90931 0.55069 2.46 1.23 2.46Z" transform="translate(92.727 115.158)" fill="black"/>
<path d="M1.23 2.46C1.90931 2.46 2.46 1.90931 2.46 1.23C2.46 0.55069 1.90931 0 1.23 0C0.55069 0 0 0.55069 0 1.23C0 1.90931 0.55069 2.46 1.23 2.46Z" transform="translate(97.646 115.158)" fill="black"/>
<path d="M1.23 2.46C1.90931 2.46 2.46 1.90931 2.46 1.23C2.46 0.55069 1.90931 0 1.23 0C0.55069 0 0 0.55069 0 1.23C0 1.90931 0.55069 2.46 1.23 2.46Z" transform="translate(102.567 115.158)" fill="black"/>
<path d="M1.231 2.462C1.91086 2.462 2.462 1.91086 2.462 1.231C2.462 0.551137 1.91086 0 1.231 0C0.551137 0 0 0.551137 0 1.231C0 1.91086 0.551137 2.462 1.231 2.462Z" transform="translate(107.485 115.157)" fill="black"/>
<path d="M1.231 2.462C1.91086 2.462 2.462 1.91086 2.462 1.231C2.462 0.551137 1.91086 0 1.231 0C0.551137 0 0 0.551137 0 1.231C0 1.91086 0.551137 2.462 1.231 2.462Z" transform="translate(112.405 115.157)" fill="black"/>
<path d="M1.23 2.46C1.90931 2.46 2.46 1.90931 2.46 1.23C2.46 0.55069 1.90931 0 1.23 0C0.55069 0 0 0.55069 0 1.23C0 1.90931 0.55069 2.46 1.23 2.46Z" transform="translate(117.326 115.158)" fill="black"/>
<path d="M1.23 2.46C1.90931 2.46 2.46 1.90931 2.46 1.23C2.46 0.55069 1.90931 0 1.23 0C0.55069 0 0 0.55069 0 1.23C0 1.90931 0.55069 2.46 1.23 2.46Z" transform="translate(122.246 115.158)" fill="black"/>
<path d="M1.23 2.46C1.90931 2.46 2.46 1.90931 2.46 1.23C2.46 0.55069 1.90931 0 1.23 0C0.55069 0 0 0.55069 0 1.23C0 1.90931 0.55069 2.46 1.23 2.46Z" transform="translate(127.166 115.158)" fill="black"/>
<path d="M1.229 2.458C1.90776 2.458 2.458 1.90776 2.458 1.229C2.458 0.550242 1.90776 0 1.229 0C0.550242 0 0 0.550242 0 1.229C0 1.90776 0.550242 2.458 1.229 2.458Z" transform="translate(134.934 107.675)" fill="black"/>
<path d="M1.23 2.46C1.90931 2.46 2.46 1.90931 2.46 1.23C2.46 0.55069 1.90931 0 1.23 0C0.55069 0 0 0.55069 0 1.23C0 1.90931 0.55069 2.46 1.23 2.46Z" transform="translate(132.474 110.134)" fill="black"/>
<path d="M1.229 2.458C1.90776 2.458 2.458 1.90776 2.458 1.229C2.458 0.550242 1.90776 0 1.229 0C0.550242 0 0 0.550242 0 1.229C0 1.90776 0.550242 2.458 1.229 2.458Z" transform="translate(134.934 112.699)" fill="black"/>
<path d="M1.23 2.46C1.90931 2.46 2.46 1.90931 2.46 1.23C2.46 0.55069 1.90931 0 1.23 0C0.55069 0 0 0.55069 0 1.23C0 1.90931 0.55069 2.46 1.23 2.46Z" transform="translate(132.474 115.158)" fill="black"/>
<path d="M1.23 2.46C1.90931 2.46 2.46 1.90931 2.46 1.23C2.46 0.55069 1.90931 0 1.23 0C0.55069 0 0 0.55069 0 1.23C0 1.90931 0.55069 2.46 1.23 2.46Z" transform="translate(124.706 102.754)" fill="black"/>
<path d="M1.229 2.458C1.90776 2.458 2.458 1.90776 2.458 1.229C2.458 0.550242 1.90776 0 1.229 0C0.550242 0 0 0.550242 0 1.229C0 1.90776 0.550242 2.458 1.229 2.458Z" transform="translate(129.627 102.755)" fill="black"/>
<path d="M1.23 2.46C1.90931 2.46 2.46 1.90931 2.46 1.23C2.46 0.55069 1.90931 0 1.23 0C0.55069 0 0 0.55069 0 1.23C0 1.90931 0.55069 2.46 1.23 2.46Z" transform="translate(122.246 105.214)" fill="black"/>
<path d="M1.23 2.46C1.90931 2.46 2.46 1.90931 2.46 1.23C2.46 0.55069 1.90931 0 1.23 0C0.55069 0 0 0.55069 0 1.23C0 1.90931 0.55069 2.46 1.23 2.46Z" transform="translate(127.166 105.214)" fill="black"/>
<path d="M1.23 2.46C1.90931 2.46 2.46 1.90931 2.46 1.23C2.46 0.55069 1.90931 0 1.23 0C0.55069 0 0 0.55069 0 1.23C0 1.90931 0.55069 2.46 1.23 2.46Z" transform="translate(132.474 105.214)" fill="black"/>
<path fill-rule="evenodd" clip-rule="evenodd" d="M1.96698 4.98499H40.684C41.787 4.98499 42.651 3.89001 42.651 2.49304C42.651 1.09497 41.787 0 40.684 0H1.96698C0.864014 0 0 1.09497 0 2.49304C0 3.89001 0.864014 4.98499 1.96698 4.98499ZM1.50098 2.49207C1.50098 1.88599 1.80798 1.49902 1.96796 1.49902H40.685C40.845 1.49902 41.152 1.88599 41.152 2.49207C41.152 3.09705 40.845 3.48401 40.685 3.48401H1.96796C1.80798 3.48401 1.50098 3.09705 1.50098 2.49207Z" transform="translate(30.844 64.655)" fill="black"/>
<path fill-rule="evenodd" clip-rule="evenodd" d="M1.96698 4.98401H40.684C41.787 4.98401 42.651 3.88904 42.651 2.49097C42.651 1.09497 41.787 0 40.684 0H1.96698C0.864014 0 0 1.09497 0 2.49097C0 3.88904 0.864014 4.98401 1.96698 4.98401ZM1.50098 2.48999C1.50098 1.88599 1.80798 1.49902 1.96796 1.49902H40.685C40.845 1.49902 41.152 1.88599 41.152 2.48999C41.152 3.09607 40.845 3.48303 40.685 3.48303H1.96796C1.80798 3.48303 1.50098 3.09607 1.50098 2.48999Z" transform="translate(30.844 68.235)" fill="black"/>
<path d="M0 3.09C0 8.237 4.174 12.411 9.32 12.411H38.838C43.984 12.411 48.158 8.237 48.158 3.09V0H0V3.09H0Z" transform="translate(28.0909 107.788)" fill="black"/>
<path d="M12.1255 12.1576C7.80752 16.5336 0.0505165 15.8826 0.0505165 15.8826C0.0505165 15.8826 -0.703483 8.13262 3.61452 3.75762C7.93352 -0.61938 15.6925 0.0346204 15.6925 0.0346204C15.6925 0.0346204 16.4445 7.78362 12.1255 12.1576Z" transform="translate(106.958 10.0494)" fill="white"/>
<path fill-rule="evenodd" clip-rule="evenodd" d="M0.742008 17.38C0.742008 17.38 1.17298 17.416 1.89399 17.416C4.17499 17.416 9.86603 17.028 13.413 13.4351C17.927 8.86206 17.225 1.04297 17.193 0.712036L17.132 0.0909424L16.51 0.0369873C16.51 0.0369873 16.075 0 15.35 0C13.068 0 7.38001 0.386963 3.83399 3.97998C-0.677975 8.55298 0.0260048 16.374 0.0579872 16.705L0.119999 17.326L0.742008 17.38ZM12.345 12.381C8.98798 15.783 3.331 15.952 1.516 15.912C1.456 14.014 1.586 8.39294 4.90302 5.03394C8.263 1.62793 13.919 1.45996 15.736 1.50403C15.796 3.39905 15.67 9.01294 12.345 12.381Z" transform="translate(106.205 9.30005)" fill="black"/>
<path d="M15.183 9.155L15.173 7.655L10.163 7.687L16.711 1.053L15.642 0L9.09 6.636L9.061 2.124L7.561 2.133L7.601 8.146L5.344 10.432L4.846 4.189L3.35 4.308L3.959 11.836L0 15.847L1.068 16.901L5.335 12.578L11.62 14.11L11.975 12.653L6.563 11.334L8.672 9.197L15.183 9.155Z" transform="translate(106.475 9.55811)" fill="black"/>
</svg>
