<svg width="529" height="188" viewBox="0 0 529 188" version="1.1" xmlns="http://www.w3.org/2000/svg" xmlns:xlink="http://www.w3.org/1999/xlink">
<path fill-rule="evenodd" clip-rule="evenodd" d="M 116.097 0C 114.441 0 113.097 1.34315 113.097 3L 113.097 46.576C 101.514 38.3338 87.5411 33.5196 72.4983 33.5196C 32.4586 33.5196 0 67.627 0 109.701C 0 151.774 32.4586 185.882 72.4983 185.882C 87.5411 185.882 101.514 181.067 113.097 172.825L 113.097 182.882C 113.097 184.538 114.441 185.882 116.097 185.882L 141.997 185.882C 143.654 185.882 144.997 184.538 144.997 182.882L 144.997 109.701L 144.997 3C 144.997 1.34315 143.654 0 141.997 0L 116.097 0ZM 113.097 109.701C 113.097 86.1394 94.9206 67.0392 72.4983 67.0392C 50.0761 67.0392 31.8993 86.1394 31.8993 109.701C 31.8993 133.262 50.0761 152.362 72.4983 152.362C 94.9206 152.362 113.097 133.262 113.097 109.701Z" transform="translate(0 0.348981)" fill="#000"/>
<path fill-rule="evenodd" clip-rule="evenodd" d="M 144.997 76.181L 144.997 149.362C 144.997 151.019 143.653 152.362 141.997 152.362L 116.097 152.362C 114.441 152.362 113.097 151.019 113.097 149.362L 113.097 139.306C 101.514 147.548 87.5412 152.362 72.4983 152.362C 32.4586 152.362 0 118.255 0 76.181C 0 34.1074 32.4586 0 72.4983 0C 87.5412 0 101.514 4.81422 113.097 13.0564L 113.097 3C 113.097 1.34315 114.441 0 116.097 0L 141.997 0C 143.653 0 144.997 1.34315 144.997 3L 144.997 76.181ZM 113.097 76.181C 113.097 99.7422 94.9206 118.842 72.4983 118.842C 50.0761 118.842 31.8993 99.7422 31.8993 76.181C 31.8993 52.6198 50.0761 33.5196 72.4983 33.5196C 94.9206 33.5196 113.097 52.6198 113.097 76.181Z" transform="translate(155.192 35.0049)" fill="#000"/>
<path fill-rule="evenodd" clip-rule="evenodd" d="M 144.997 76.181L 144.997 149.362C 144.997 151.019 143.653 152.362 141.997 152.362L 116.097 152.362C 114.441 152.362 113.097 151.019 113.097 149.362L 113.097 139.306C 101.514 147.548 87.5412 152.362 72.4983 152.362C 32.4586 152.362 0 118.255 0 76.181C 0 34.1074 32.4586 0 72.4983 0C 87.5412 0 101.514 4.81421 113.097 13.0564L 113.097 3C 113.097 1.34315 114.441 0 116.097 0L 141.997 0C 143.653 0 144.997 1.34315 144.997 3L 144.997 76.181ZM 113.097 76.181C 113.097 99.7422 94.9206 118.842 72.4983 118.842C 50.0761 118.842 31.8993 99.7422 31.8993 76.181C 31.8993 52.6198 50.0761 33.5196 72.4983 33.5196C 94.9206 33.5196 113.097 52.6198 113.097 76.181Z" transform="translate(383.747 35.0049)" fill="#000"/>
<path fill-rule="evenodd" clip-rule="evenodd" d="M 0 3C 0 1.34315 1.34314 0 3 0L 28.8993 0C 30.5561 0 31.8993 1.34315 31.8993 3L 31.8993 16.426C 43.4831 8.58179 57.4565 4 72.5 4C 72.6668 4 72.8335 4.00056 73 4.00169L 73 36.0019C 72.8668 36.0006 72.7335 36 72.6 36C 50.3776 36 32.3252 53.8539 32.0043 76L 32 76L 32 76.6L 32 136.642L 31.8993 136.574L 31.8993 149.362C 31.8993 151.019 30.5561 152.362 28.8993 152.362L 3 152.362C 1.34314 152.362 0 151.019 0 149.362L 0 76.5L 0 3Z" transform="translate(311 34)" fill="#000"/>
</svg>

