<svg width="100" height="100" viewBox="0 0 100 100" fill="none" xmlns="http://www.w3.org/2000/svg">
<path d="M59.6814 68.2949H77.4633C80.5633 68.2949 83.0777 65.9233 83.0777 62.9989V41.3551H54.0669V62.9989C54.0669 65.9233 56.5814 68.2949 59.6814 68.2949Z" fill="white"/>
<path d="M16.9223 62.9989C16.9223 65.9233 19.4368 68.2949 22.5368 68.2949H40.3187C43.4187 68.2949 45.9331 65.9233 45.9331 62.9989V41.3551H16.9223V62.9989H16.9223Z" fill="white"/>
<path d="M31.3 24.8591H36.5771V21.3233L50 11.4677V0.576172H31.2355H31.6199H12.856V11.4677L26.2783 21.3233V24.8591H31.556H31.3Z" fill="white"/>
<path d="M68.444 24.8591H73.7211V21.3233L87.144 11.4677V0.576172H68.3795H68.7645H50V11.4677L63.4229 21.3233V24.8591H68.7H68.444Z" fill="white"/>
<path d="M80.9669 38.1517C80.9669 38.6989 80.6386 39.1415 80.2338 39.1415H56.9103C56.5055 39.1415 56.1772 38.6989 56.1772 38.1517C56.1772 37.6046 56.5055 37.1614 56.9103 37.1614H80.2338C80.6386 37.1614 80.9669 37.6051 80.9669 38.1517Z" fill="white"/>
<path d="M80.9669 40.1852C80.9669 40.7324 80.6386 41.1756 80.2338 41.1756H56.9103C56.5055 41.1756 56.1772 40.7324 56.1772 40.1852C56.1772 39.6392 56.5055 39.196 56.9103 39.196H80.2338C80.6386 39.1955 80.9669 39.6392 80.9669 40.1852Z" fill="white"/>
<path d="M43.8223 38.1517C43.8223 38.6989 43.494 39.1415 43.0892 39.1415H19.7657C19.3608 39.1415 19.0325 38.6989 19.0325 38.1517C19.0325 37.6046 19.3608 37.1614 19.7657 37.1614H43.0892C43.494 37.1614 43.8223 37.6051 43.8223 38.1517Z" fill="white"/>
<path d="M43.8223 40.1852C43.8223 40.7324 43.494 41.1756 43.0892 41.1756H19.7657C19.3608 41.1756 19.0325 40.7324 19.0325 40.1852C19.0325 39.6392 19.3608 39.196 19.7657 39.196H43.0892C43.494 39.1955 43.8223 39.6392 43.8223 40.1852Z" fill="white"/>
<path fill-rule="evenodd" clip-rule="evenodd" d="M56.9103 39.5682H80.2338C80.8982 39.5682 81.4187 38.9461 81.4187 38.1523C81.4187 37.358 80.8982 36.7358 80.2338 36.7358H56.9103C56.2458 36.7358 55.7253 37.358 55.7253 38.1523C55.7253 38.9461 56.2458 39.5682 56.9103 39.5682ZM56.6296 38.1518C56.6296 37.8074 56.8145 37.5875 56.9109 37.5875H80.2344C80.3308 37.5875 80.5157 37.8074 80.5157 38.1518C80.5157 38.4955 80.3308 38.7154 80.2344 38.7154H56.9109C56.8145 38.7154 56.6296 38.4955 56.6296 38.1518Z" fill="black"/>
<path fill-rule="evenodd" clip-rule="evenodd" d="M56.9103 41.6017H80.2338C80.8982 41.6017 81.4187 40.9796 81.4187 40.1852C81.4187 39.3921 80.8982 38.7699 80.2338 38.7699H56.9103C56.2458 38.7699 55.7253 39.3921 55.7253 40.1852C55.7253 40.9796 56.2458 41.6017 56.9103 41.6017ZM56.6296 40.1847C56.6296 39.8415 56.8145 39.6216 56.9109 39.6216H80.2344C80.3308 39.6216 80.5157 39.8415 80.5157 40.1847C80.5157 40.529 80.3308 40.7489 80.2344 40.7489H56.9109C56.8145 40.7489 56.6296 40.529 56.6296 40.1847Z" fill="black"/>
<path fill-rule="evenodd" clip-rule="evenodd" d="M59.6814 68.721H77.4633C80.8085 68.721 83.5296 66.1545 83.5296 62.9988V40.929H53.6151V62.9988C53.6151 66.154 56.3362 68.721 59.6814 68.721ZM54.5187 62.9988V41.7812H82.626V62.9988C82.626 65.6841 80.3103 67.8687 77.4633 67.8687H59.6814C56.835 67.8687 54.5187 65.6846 54.5187 62.9988Z" fill="black"/>
<path fill-rule="evenodd" clip-rule="evenodd" d="M22.5367 68.721H40.3187C43.6632 68.721 46.3849 66.1545 46.3849 62.9988V40.929H16.4705V62.9988C16.4705 66.154 19.1915 68.721 22.5367 68.721ZM17.3741 62.9988V41.7812H45.4813V62.9988C45.4813 65.6841 43.1656 67.8687 40.3187 67.8687H22.5367C19.6903 67.8687 17.3741 65.6846 17.3741 62.9988Z" fill="black"/>
<path d="M31.4097 25.629C31.4097 26.4001 32.0736 27.0262 32.8911 27.0262C33.7091 27.0262 34.3724 26.4001 34.3724 25.629C34.3724 25.5091 34.3519 25.3955 34.3218 25.2853H31.4603C31.4302 25.3955 31.4097 25.5091 31.4097 25.629Z" fill="#167A65"/>
<path d="M12.4042 0.150024V11.6762L25.8265 21.5318V25.2853H31.4603C31.5578 24.9228 31.8036 24.6193 32.1356 24.433H31.556H26.7301V21.1148L13.3079 11.2591V1.0023H49.5482V11.2597L36.1253 21.1154V24.4335H33.6464C33.9783 24.6199 34.2241 24.9233 34.3217 25.2858H37.0289V21.5324L50.4518 11.6762V0.150024H12.4042Z" fill="black"/>
<path d="M33.6463 24.433H32.1355C31.8036 24.6193 31.5578 24.9228 31.4602 25.2853H34.3216C34.2241 24.9228 33.9777 24.6193 33.6463 24.433Z" fill="black"/>
<path fill-rule="evenodd" clip-rule="evenodd" d="M62.9711 25.2853H74.1729V21.5318L87.5958 11.6762V0.150024H49.5482V11.6762L62.9711 21.5318V25.2853ZM73.2693 24.433H68.7V24.4335H63.8747V21.1154L50.4518 11.2597V1.0023H86.6922V11.2591L73.2693 21.1148V24.433Z" fill="black"/>
<path d="M0.651794 83.3335H9.24697V84.1858H0.651794V83.3335Z" fill="black"/>
<path d="M24.988 83.3335H33.5801V84.1858H24.988V83.3335Z" fill="black"/>
<path fill-rule="evenodd" clip-rule="evenodd" d="M0.200012 83.7596C0.200012 92.5596 7.78917 99.7193 17.1169 99.7193C26.4434 99.7193 34.0319 92.5596 34.0319 83.7596C34.0319 74.9591 26.4434 67.7988 17.1169 67.7988C7.78917 67.7988 0.200012 74.9591 0.200012 83.7596ZM1.10363 83.7596C1.10363 75.4289 8.28736 68.6511 17.1169 68.6511C25.9458 68.6511 33.1283 75.4289 33.1283 83.7596C33.1283 92.0897 25.9458 98.867 17.1169 98.867C8.28736 98.867 1.10363 92.0897 1.10363 83.7596Z" fill="black"/>
<rect width="0.865423" height="8.73374" transform="matrix(0.52217 0.852842 -0.878184 0.478322 10.3079 86.9851)" fill="black"/>
<path d="M31.1578 75.6285L31.6097 76.3666L23.9389 80.5447L23.487 79.8067L31.1578 75.6285Z" fill="black"/>
<path d="M23.9309 86.9786L31.5972 91.1556L31.1453 91.8936L23.4789 87.7166L23.9309 86.9786Z" fill="black"/>
<rect width="8.73335" height="0.865376" transform="matrix(0.878224 0.478249 -0.522093 0.852888 3.08374 75.6174)" fill="black"/>
<path d="M12.9188 89.7738L13.7014 90.2L9.27276 97.4331L8.49023 97.0069L12.9188 89.7738Z" fill="black"/>
<path d="M24.958 70.1025L25.7405 70.5288L21.3107 77.7638L20.5282 77.3376L24.958 70.1025Z" fill="black"/>
<path d="M16.665 91.2358H17.5687V99.2932H16.665V91.2358Z" fill="black"/>
<path d="M16.665 68.225H17.5687V76.2182H16.665V68.225Z" fill="black"/>
<path d="M21.3188 89.7664L25.7465 97.0017L24.9639 97.4278L20.5362 90.1924L21.3188 89.7664Z" fill="black"/>
<path d="M9.26776 70.0974L13.6949 77.3318L12.9123 77.7579L8.48514 70.5235L9.26776 70.0974Z" fill="black"/>
<path fill-rule="evenodd" clip-rule="evenodd" d="M9.0542 83.7597C9.0542 87.9534 12.6711 91.3648 17.1168 91.3648C21.562 91.3648 25.1783 87.9534 25.1783 83.7597C25.1783 79.5653 21.562 76.1528 17.1168 76.1528C12.6711 76.1528 9.0542 79.5653 9.0542 83.7597ZM9.95781 83.7597C9.95781 80.0352 13.1693 77.0051 17.1168 77.0051C21.0638 77.0051 24.2747 80.0352 24.2747 83.7597C24.2747 87.4835 21.0638 90.5125 17.1168 90.5125C13.1693 90.5125 9.95781 87.4835 9.95781 83.7597Z" fill="black"/>
<path fill-rule="evenodd" clip-rule="evenodd" d="M13.1904 83.7597C13.1904 85.8023 14.9518 87.4637 17.1169 87.4637C19.2819 87.4637 21.0428 85.8023 21.0428 83.7597C21.0428 81.7165 19.2819 80.0546 17.1169 80.0546C14.9518 80.0546 13.1904 81.7165 13.1904 83.7597ZM14.094 83.7597C14.094 82.1864 15.45 80.9068 17.1169 80.9068C18.7837 80.9068 20.1392 82.1864 20.1392 83.7597C20.1392 85.3324 18.7837 86.6114 17.1169 86.6114C15.45 86.6114 14.094 85.3324 14.094 83.7597Z" fill="black"/>
<path fill-rule="evenodd" clip-rule="evenodd" d="M65.9669 83.8949C65.9669 92.6921 73.5561 99.85 82.8838 99.85C92.2115 99.85 99.8 92.6926 99.8 83.8949C99.8 75.0972 92.2115 67.9392 82.8838 67.9392C73.5561 67.9392 65.9669 75.0972 65.9669 83.8949ZM66.8705 83.8949C66.8705 75.5671 74.0543 68.7915 82.8838 68.7915C91.7133 68.7915 98.8964 75.5671 98.8964 83.8949C98.8964 92.2222 91.7133 98.9977 82.8838 98.9977C74.0543 98.9977 66.8705 92.2222 66.8705 83.8949Z" fill="black"/>
<path fill-rule="evenodd" clip-rule="evenodd" d="M68.5783 83.8949C68.5783 91.3353 74.9958 97.3881 82.8837 97.3881C90.7723 97.3881 97.1897 91.3353 97.1897 83.8949C97.1897 76.4546 90.7723 70.4017 82.8837 70.4017C74.9958 70.4017 68.5783 76.4546 68.5783 83.8949ZM69.4819 83.8949C69.4819 76.9245 75.494 71.254 82.8837 71.254C90.2735 71.254 96.2861 76.9245 96.2861 83.8949C96.2861 90.8654 90.2741 96.5358 82.8837 96.5358C75.494 96.5358 69.4819 90.8654 69.4819 83.8949Z" fill="black"/>
<rect x="82.432" y="70.8279" width="0.90361" height="5.71932" fill="black"/>
<path d="M75.9252 87.204L76.3771 87.942L71.1206 90.8051L70.6687 90.0671L75.9252 87.204Z" fill="black"/>
<path fill-rule="evenodd" clip-rule="evenodd" d="M74.6404 83.895C74.6404 88.1813 78.3386 91.6688 82.8838 91.6688C87.4283 91.6688 91.1259 88.1813 91.1259 83.895C91.1259 79.6086 87.4283 76.1211 82.8838 76.1211C78.3386 76.1211 74.6404 79.6086 74.6404 83.895ZM75.544 83.8955C75.544 80.0791 78.8368 76.9739 82.8838 76.9739C86.9301 76.9739 90.2223 80.0791 90.2223 83.8955C90.2223 87.712 86.9301 90.8171 82.8838 90.8171C78.8368 90.8171 75.544 87.712 75.544 83.8955Z" fill="black"/>
<path fill-rule="evenodd" clip-rule="evenodd" d="M77.8458 83.8955C77.8458 86.5148 80.106 88.646 82.8837 88.646C85.6608 88.646 87.9199 86.5148 87.9199 83.8955C87.9199 81.2761 85.6608 79.1449 82.8837 79.1449C80.106 79.1449 77.8458 81.2761 77.8458 83.8955ZM78.7494 83.8949C78.7494 81.7455 80.6042 79.9966 82.8837 79.9966C85.1626 79.9966 87.0162 81.7455 87.0162 83.8949C87.0162 86.0443 85.1626 87.7932 82.8837 87.7932C80.6042 87.7932 78.7494 86.0443 78.7494 83.8949Z" fill="black"/>
<path d="M89.945 87.191L95.2026 90.0541L94.7508 90.7922L89.4932 87.9291L89.945 87.191Z" fill="black"/>
<path d="M75.9252 87.204L76.3771 87.942L71.1206 90.8051L70.6687 90.0671L75.9252 87.204Z" fill="black"/>
<rect width="65.767" height="0.852275" transform="matrix(0.999998 0.00216931 -0.00243855 0.999997 17.1151 67.8065)" fill="black"/>
<rect width="65.767" height="0.852282" transform="matrix(0.999998 0.00198069 -0.00222648 0.999997 17.1198 98.8651)" fill="black"/>
<path d="M29.2837 50.0506C30.1015 50.0506 30.7644 49.4253 30.7644 48.654C30.7644 47.8827 30.1015 47.2574 29.2837 47.2574C28.4659 47.2574 27.803 47.8827 27.803 48.654C27.803 49.4253 28.4659 50.0506 29.2837 50.0506Z" fill="#167A65"/>
<path d="M30.2049 45.2733C31.023 45.2733 31.6862 44.6478 31.6862 43.8762C31.6862 43.1045 31.023 42.479 30.2049 42.479C29.3868 42.479 28.7236 43.1045 28.7236 43.8762C28.7236 44.6478 29.3868 45.2733 30.2049 45.2733Z" fill="#167A65"/>
<path d="M33.168 51.5818C33.9861 51.5818 34.6494 50.9563 34.6494 50.1846C34.6494 49.413 33.9861 48.7875 33.168 48.7875C32.3499 48.7875 31.6867 49.413 31.6867 50.1846C31.6867 50.9563 32.3499 51.5818 33.168 51.5818Z" fill="#167A65"/>
<path d="M29.5374 30.3893C30.3555 30.3893 31.0187 29.7638 31.0187 28.9921C31.0187 28.2205 30.3555 27.595 29.5374 27.595C28.7192 27.595 28.056 28.2205 28.056 28.9921C28.056 29.7638 28.7192 30.3893 29.5374 30.3893Z" fill="#167A65"/>
<path d="M31.6862 35.6858C32.5043 35.6858 33.1675 35.0603 33.1675 34.2886C33.1675 33.517 32.5043 32.8915 31.6862 32.8915C30.8681 32.8915 30.2049 33.517 30.2049 34.2886C30.2049 35.0603 30.8681 35.6858 31.6862 35.6858Z" fill="#167A65"/>
<path d="M34.3724 41.704C34.3724 42.4756 33.7091 43.1011 32.8911 43.1011C32.0736 43.1011 31.4097 42.4756 31.4097 41.704" fill="#167A65"/>
<path d="M32.8917 62.0733C33.7101 62.0733 34.3736 61.4475 34.3736 60.6756C34.3736 59.9036 33.7101 59.2778 32.8917 59.2778C32.0732 59.2778 31.4097 59.9036 31.4097 60.6756C31.4097 61.4475 32.0732 62.0733 32.8917 62.0733Z" fill="#167A65"/>
<path d="M31.785 55.4642C32.6031 55.4642 33.2663 54.8387 33.2663 54.0671C33.2663 53.2954 32.6031 52.6699 31.785 52.6699C30.9669 52.6699 30.3036 53.2954 30.3036 54.0671C30.3036 54.8387 30.9669 55.4642 31.785 55.4642Z" fill="#167A65"/>
<path d="M28.9349 59.2637C29.7531 59.2637 30.4163 58.6381 30.4163 57.8665C30.4163 57.0949 29.7531 56.4694 28.9349 56.4694C28.1168 56.4694 27.4536 57.0949 27.4536 57.8665C27.4536 58.6381 28.1168 59.2637 28.9349 59.2637Z" fill="#167A65"/>
<path d="M31.2838 14.421L29.2314 15.6727L23.823 12.2988L25.8742 11.0471L31.2838 14.421Z" fill="white"/>
<path fill-rule="evenodd" clip-rule="evenodd" d="M22.9976 12.2949L29.2289 16.1813L32.1091 14.4244L25.8771 10.5381L22.9976 12.2949ZM29.2344 15.1631L24.6482 12.3029L25.8711 11.5568L30.4579 14.4171L29.2344 15.1631Z" fill="black"/>
<path d="M29.5651 15.47L31.6151 14.2177L30.5681 8.18188L28.5187 9.43416L29.5651 15.47Z" fill="white"/>
<path fill-rule="evenodd" clip-rule="evenodd" d="M28.0247 9.22793L29.2307 16.1813L32.1085 14.4234L30.9018 7.46997L28.0247 9.22793ZM29.8995 14.758L29.0121 9.64043L30.2338 8.8944L31.1217 14.012L29.8995 14.758Z" fill="black"/>
<path d="M36.3114 11.3523L34.259 12.6046L28.8506 9.23071L30.9012 7.979L36.3114 11.3523Z" fill="white"/>
<path fill-rule="evenodd" clip-rule="evenodd" d="M28.0247 9.22679L34.256 13.1137L37.1368 11.3563L30.903 7.46997L28.0247 9.22679ZM34.2621 12.0955L29.6759 9.23474L30.8988 8.48872L35.4862 11.3489L34.2621 12.0955Z" fill="black"/>
<path d="M41.3145 8.27955L39.2645 9.53125L33.8561 6.15795L35.9061 4.90625L41.3145 8.27955Z" fill="white"/>
<path fill-rule="evenodd" clip-rule="evenodd" d="M33.0307 6.15399L39.262 10.0409L42.1397 8.28354L35.909 4.39661L33.0307 6.15399ZM39.2662 9.02217L34.6813 6.16195L35.903 5.41592L40.4885 8.27615L39.2662 9.02217Z" fill="black"/>
<path d="M34.5922 12.4016L36.6434 11.1494L35.5988 5.11414L33.547 6.36527L34.5922 12.4016Z" fill="white"/>
<path fill-rule="evenodd" clip-rule="evenodd" d="M33.053 6.15908L34.2573 13.1136L37.1368 11.3557L35.9332 4.40283L33.053 6.15908ZM34.9272 11.6898L34.0404 6.57158L35.2639 5.82556L36.1501 10.9432L34.9272 11.6898Z" fill="black"/>
<path d="M68.4337 57.8665C68.8429 57.8665 69.1747 57.5536 69.1747 57.1676C69.1747 56.7816 68.8429 56.4688 68.4337 56.4688C68.0245 56.4688 67.6927 56.7816 67.6927 57.1676C67.6927 57.5536 68.0245 57.8665 68.4337 57.8665Z" fill="#167A65"/>
<path d="M66.9735 42.5421C67.3824 42.5421 67.7139 42.2295 67.7139 41.8438C67.7139 41.4581 67.3824 41.1455 66.9735 41.1455C66.5646 41.1455 66.2332 41.4581 66.2332 41.8438C66.2332 42.2295 66.5646 42.5421 66.9735 42.5421Z" fill="#167A65"/>
<path d="M66.6114 56.208C67.0207 56.208 67.3524 55.8951 67.3524 55.5092C67.3524 55.1232 67.0207 54.8103 66.6114 54.8103C66.2022 54.8103 65.8705 55.1232 65.8705 55.5092C65.8705 55.8951 66.2022 56.208 66.6114 56.208Z" fill="#167A65"/>
<path d="M67.8313 49.1773C68.2405 49.1773 68.5723 48.8644 68.5723 48.4784C68.5723 48.0924 68.2405 47.7795 67.8313 47.7795C67.4221 47.7795 67.0903 48.0924 67.0903 48.4784C67.0903 48.8644 67.4221 49.1773 67.8313 49.1773Z" fill="#167A65"/>
<path d="M68.5729 54.7665C68.9821 54.7665 69.3138 54.4536 69.3138 54.0676C69.3138 53.6817 68.9821 53.3688 68.5729 53.3688C68.1637 53.3688 67.8319 53.6817 67.8319 54.0676C67.8319 54.4536 68.1637 54.7665 68.5729 54.7665Z" fill="#167A65"/>
<path d="M69.9374 51.9711C70.3466 51.9711 70.6783 51.6582 70.6783 51.2722C70.6783 50.8863 70.3466 50.5734 69.9374 50.5734C69.5282 50.5734 69.1964 50.8863 69.1964 51.2722C69.1964 51.6582 69.5282 51.9711 69.9374 51.9711Z" fill="#167A65"/>
<path d="M66.7886 46.6937C67.1975 46.6937 67.529 46.3811 67.529 45.9954C67.529 45.6098 67.1975 45.2971 66.7886 45.2971C66.3797 45.2971 66.0483 45.6098 66.0483 45.9954C66.0483 46.3811 66.3797 46.6937 66.7886 46.6937Z" fill="#167A65"/>
<path d="M65.6085 48.4779C66.0174 48.4779 66.3488 48.1653 66.3488 47.7796C66.3488 47.3939 66.0174 47.0813 65.6085 47.0813C65.1996 47.0813 64.8681 47.3939 64.8681 47.7796C64.8681 48.1653 65.1996 48.4779 65.6085 48.4779Z" fill="#167A65"/>
<path d="M68.4283 37.083C68.8375 37.083 69.1692 36.7701 69.1692 36.3842C69.1692 35.9982 68.8375 35.6853 68.4283 35.6853C68.0191 35.6853 67.6873 35.9982 67.6873 36.3842C67.6873 36.7701 68.0191 37.083 68.4283 37.083Z" fill="#167A65"/>
<path d="M69.9109 45.8421C70.3201 45.8421 70.6519 45.5292 70.6519 45.1432C70.6519 44.7572 70.3201 44.4443 69.9109 44.4443C69.5017 44.4443 69.1699 44.7572 69.1699 45.1432C69.1699 45.5292 69.5017 45.8421 69.9109 45.8421Z" fill="#167A65"/>
<path d="M67.0905 32.8904C67.4997 32.8904 67.8314 32.5775 67.8314 32.1915C67.8314 31.8056 67.4997 31.4927 67.0905 31.4927C66.6812 31.4927 66.3495 31.8056 66.3495 32.1915C66.3495 32.5775 66.6812 32.8904 67.0905 32.8904Z" fill="#167A65"/>
<path d="M69.1693 30.7761C69.5785 30.7761 69.9103 30.4633 69.9103 30.0773C69.9103 29.6913 69.5785 29.3784 69.1693 29.3784C68.7601 29.3784 68.4283 29.6913 68.4283 30.0773C68.4283 30.4633 68.7601 30.7761 69.1693 30.7761Z" fill="#167A65"/>
<path d="M70.1434 35.6852C70.5526 35.6852 70.8843 35.3723 70.8843 34.9863C70.8843 34.6004 70.5526 34.2875 70.1434 34.2875C69.7341 34.2875 69.4024 34.6004 69.4024 34.9863C69.4024 35.3723 69.7341 35.6852 70.1434 35.6852Z" fill="#167A65"/>
<path d="M67.8313 28.4239C68.2405 28.4239 68.5723 28.111 68.5723 27.725C68.5723 27.339 68.2405 27.0261 67.8313 27.0261C67.4221 27.0261 67.0903 27.339 67.0903 27.725C67.0903 28.111 67.4221 28.4239 67.8313 28.4239Z" fill="#167A65"/>
<path d="M69.9109 27.1569C70.3201 27.1569 70.6519 26.844 70.6519 26.458C70.6519 26.072 70.3201 25.7592 69.9109 25.7592C69.5017 25.7592 69.1699 26.072 69.1699 26.458C69.1699 26.844 69.5017 27.1569 69.9109 27.1569Z" fill="#167A65"/>
<path d="M55.1187 62.5755C55.5275 62.5755 55.859 62.2629 55.859 61.8772C55.859 61.4916 55.5275 61.179 55.1187 61.179C54.7098 61.179 54.3783 61.4916 54.3783 61.8772C54.3783 62.2629 54.7098 62.5755 55.1187 62.5755Z" fill="#167A65"/>
<path d="M58.0826 62.5755C58.4915 62.5755 58.823 62.2629 58.823 61.8772C58.823 61.4916 58.4915 61.179 58.0826 61.179C57.6737 61.179 57.3422 61.4916 57.3422 61.8772C57.3422 62.2629 57.6737 62.5755 58.0826 62.5755Z" fill="#167A65"/>
<path d="M61.0458 62.5762C61.4551 62.5762 61.7868 62.2633 61.7868 61.8773C61.7868 61.4914 61.4551 61.1785 61.0458 61.1785C60.6366 61.1785 60.3049 61.4914 60.3049 61.8773C60.3049 62.2633 60.6366 62.5762 61.0458 62.5762Z" fill="#167A65"/>
<path d="M64.0097 62.5755C64.4185 62.5755 64.75 62.2629 64.75 61.8772C64.75 61.4916 64.4185 61.179 64.0097 61.179C63.6008 61.179 63.2693 61.4916 63.2693 61.8772C63.2693 62.2629 63.6008 62.5755 64.0097 62.5755Z" fill="#167A65"/>
<path d="M66.9735 62.5755C67.3824 62.5755 67.7139 62.2629 67.7139 61.8772C67.7139 61.4916 67.3824 61.179 66.9735 61.179C66.5646 61.179 66.2332 61.4916 66.2332 61.8772C66.2332 62.2629 66.5646 62.5755 66.9735 62.5755Z" fill="#167A65"/>
<path d="M69.938 62.5755C70.3469 62.5755 70.6784 62.2629 70.6784 61.8772C70.6784 61.4916 70.3469 61.179 69.938 61.179C69.5291 61.179 69.1976 61.4916 69.1976 61.8772C69.1976 62.2629 69.5291 62.5755 69.938 62.5755Z" fill="#167A65"/>
<path d="M72.9012 62.5762C73.3105 62.5762 73.6422 62.2633 73.6422 61.8773C73.6422 61.4914 73.3105 61.1785 72.9012 61.1785C72.492 61.1785 72.1603 61.4914 72.1603 61.8773C72.1603 62.2633 72.492 62.5762 72.9012 62.5762Z" fill="#167A65"/>
<path d="M75.865 62.5762C76.2743 62.5762 76.606 62.2633 76.606 61.8773C76.606 61.4914 76.2743 61.1785 75.865 61.1785C75.4558 61.1785 75.1241 61.4914 75.1241 61.8773C75.1241 62.2633 75.4558 62.5762 75.865 62.5762Z" fill="#167A65"/>
<path d="M78.829 62.5755C79.2379 62.5755 79.5693 62.2629 79.5693 61.8772C79.5693 61.4916 79.2379 61.179 78.829 61.179C78.4201 61.179 78.0886 61.4916 78.0886 61.8772C78.0886 62.2629 78.4201 62.5755 78.829 62.5755Z" fill="#167A65"/>
<path d="M55.1187 65.4302C55.5275 65.4302 55.859 65.1175 55.859 64.7319C55.859 64.3462 55.5275 64.0336 55.1187 64.0336C54.7098 64.0336 54.3783 64.3462 54.3783 64.7319C54.3783 65.1175 54.7098 65.4302 55.1187 65.4302Z" fill="#167A65"/>
<path d="M56.6006 63.9739C57.0098 63.9739 57.3415 63.661 57.3415 63.275C57.3415 62.8891 57.0098 62.5762 56.6006 62.5762C56.1914 62.5762 55.8596 62.8891 55.8596 63.275C55.8596 63.661 56.1914 63.9739 56.6006 63.9739Z" fill="#167A65"/>
<path d="M58.0826 65.4302C58.4915 65.4302 58.823 65.1175 58.823 64.7319C58.823 64.3462 58.4915 64.0336 58.0826 64.0336C57.6737 64.0336 57.3422 64.3462 57.3422 64.7319C57.3422 65.1175 57.6737 65.4302 58.0826 65.4302Z" fill="#167A65"/>
<path d="M59.5639 63.9739C59.9731 63.9739 60.3049 63.661 60.3049 63.275C60.3049 62.8891 59.9731 62.5762 59.5639 62.5762C59.1547 62.5762 58.8229 62.8891 58.8229 63.275C58.8229 63.661 59.1547 63.9739 59.5639 63.9739Z" fill="#167A65"/>
<path d="M61.0458 65.4307C61.4551 65.4307 61.7868 65.1178 61.7868 64.7318C61.7868 64.3458 61.4551 64.033 61.0458 64.033C60.6366 64.033 60.3049 64.3458 60.3049 64.7318C60.3049 65.1178 60.6366 65.4307 61.0458 65.4307Z" fill="#167A65"/>
<path d="M62.5284 63.9739C62.9376 63.9739 63.2693 63.661 63.2693 63.275C63.2693 62.8891 62.9376 62.5762 62.5284 62.5762C62.1192 62.5762 61.7874 62.8891 61.7874 63.275C61.7874 63.661 62.1192 63.9739 62.5284 63.9739Z" fill="#167A65"/>
<path d="M59.5639 61.1785C59.9731 61.1785 60.3049 60.8656 60.3049 60.4796C60.3049 60.0937 59.9731 59.7808 59.5639 59.7808C59.1547 59.7808 58.8229 60.0937 58.8229 60.4796C58.8229 60.8656 59.1547 61.1785 59.5639 61.1785Z" fill="#167A65"/>
<path d="M62.5284 61.1785C62.9376 61.1785 63.2693 60.8656 63.2693 60.4796C63.2693 60.0937 62.9376 59.7808 62.5284 59.7808C62.1192 59.7808 61.7874 60.0937 61.7874 60.4796C61.7874 60.8656 62.1192 61.1785 62.5284 61.1785Z" fill="#167A65"/>
<path d="M64.0097 65.4302C64.4185 65.4302 64.75 65.1175 64.75 64.7319C64.75 64.3462 64.4185 64.0336 64.0097 64.0336C63.6008 64.0336 63.2693 64.3462 63.2693 64.7319C63.2693 65.1175 63.6008 65.4302 64.0097 65.4302Z" fill="#167A65"/>
<path d="M65.4916 63.9744C65.9011 63.9744 66.2331 63.6613 66.2331 63.275C66.2331 62.8887 65.9011 62.5756 65.4916 62.5756C65.082 62.5756 64.75 62.8887 64.75 63.275C64.75 63.6613 65.082 63.9744 65.4916 63.9744Z" fill="#167A65"/>
<path d="M66.9735 65.4302C67.3824 65.4302 67.7139 65.1175 67.7139 64.7319C67.7139 64.3462 67.3824 64.0336 66.9735 64.0336C66.5646 64.0336 66.2332 64.3462 66.2332 64.7319C66.2332 65.1175 66.5646 65.4302 66.9735 65.4302Z" fill="#167A65"/>
<path d="M68.4554 63.9744C68.865 63.9744 69.197 63.6613 69.197 63.275C69.197 62.8887 68.865 62.5756 68.4554 62.5756C68.0459 62.5756 67.7139 62.8887 67.7139 63.275C67.7139 63.6613 68.0459 63.9744 68.4554 63.9744Z" fill="#167A65"/>
<path d="M68.4554 61.179C68.865 61.179 69.197 60.8659 69.197 60.4796C69.197 60.0933 68.865 59.7802 68.4554 59.7802C68.0459 59.7802 67.7139 60.0933 67.7139 60.4796C67.7139 60.8659 68.0459 61.179 68.4554 61.179Z" fill="#167A65"/>
<path d="M69.938 65.4302C70.3469 65.4302 70.6784 65.1175 70.6784 64.7319C70.6784 64.3462 70.3469 64.0336 69.938 64.0336C69.5291 64.0336 69.1976 64.3462 69.1976 64.7319C69.1976 65.1175 69.5291 65.4302 69.938 65.4302Z" fill="#167A65"/>
<path d="M71.4193 63.9739C71.8285 63.9739 72.1603 63.661 72.1603 63.275C72.1603 62.8891 71.8285 62.5762 71.4193 62.5762C71.0101 62.5762 70.6783 62.8891 70.6783 63.275C70.6783 63.661 71.0101 63.9739 71.4193 63.9739Z" fill="#167A65"/>
<path d="M71.4193 61.1785C71.8285 61.1785 72.1603 60.8656 72.1603 60.4796C72.1603 60.0937 71.8285 59.7808 71.4193 59.7808C71.0101 59.7808 70.6783 60.0937 70.6783 60.4796C70.6783 60.8656 71.0101 61.1785 71.4193 61.1785Z" fill="#167A65"/>
<path d="M72.9012 65.4307C73.3105 65.4307 73.6422 65.1178 73.6422 64.7318C73.6422 64.3458 73.3105 64.033 72.9012 64.033C72.492 64.033 72.1603 64.3458 72.1603 64.7318C72.1603 65.1178 72.492 65.4307 72.9012 65.4307Z" fill="#167A65"/>
<path d="M74.3831 63.9739C74.7923 63.9739 75.1241 63.661 75.1241 63.275C75.1241 62.8891 74.7923 62.5762 74.3831 62.5762C73.9739 62.5762 73.6422 62.8891 73.6422 63.275C73.6422 63.661 73.9739 63.9739 74.3831 63.9739Z" fill="#167A65"/>
<path d="M75.865 65.4307C76.2743 65.4307 76.606 65.1178 76.606 64.7318C76.606 64.3458 76.2743 64.033 75.865 64.033C75.4558 64.033 75.1241 64.3458 75.1241 64.7318C75.1241 65.1178 75.4558 65.4307 75.865 65.4307Z" fill="#167A65"/>
<path d="M77.347 63.9739C77.7562 63.9739 78.0879 63.661 78.0879 63.275C78.0879 62.8891 77.7562 62.5762 77.347 62.5762C76.9378 62.5762 76.606 62.8891 76.606 63.275C76.606 63.661 76.9378 63.9739 77.347 63.9739Z" fill="#167A65"/>
<path d="M78.829 65.4302C79.2379 65.4302 79.5693 65.1175 79.5693 64.7319C79.5693 64.3462 79.2379 64.0336 78.829 64.0336C78.4201 64.0336 78.0886 64.3462 78.0886 64.7319C78.0886 65.1175 78.4201 65.4302 78.829 65.4302Z" fill="#167A65"/>
<path d="M58.0826 68.2256C58.4915 68.2256 58.823 67.9129 58.823 67.5273C58.823 67.1416 58.4915 66.829 58.0826 66.829C57.6737 66.829 57.3422 67.1416 57.3422 67.5273C57.3422 67.9129 57.6737 68.2256 58.0826 68.2256Z" fill="#167A65"/>
<path d="M61.0458 68.2261C61.4551 68.2261 61.7868 67.9132 61.7868 67.5272C61.7868 67.1413 61.4551 66.8284 61.0458 66.8284C60.6366 66.8284 60.3049 67.1413 60.3049 67.5272C60.3049 67.9132 60.6366 68.2261 61.0458 68.2261Z" fill="#167A65"/>
<path d="M64.0097 68.2256C64.4185 68.2256 64.75 67.9129 64.75 67.5273C64.75 67.1416 64.4185 66.829 64.0097 66.829C63.6008 66.829 63.2693 67.1416 63.2693 67.5273C63.2693 67.9129 63.6008 68.2256 64.0097 68.2256Z" fill="#167A65"/>
<path d="M66.9735 68.2256C67.3824 68.2256 67.7139 67.9129 67.7139 67.5273C67.7139 67.1416 67.3824 66.829 66.9735 66.829C66.5646 66.829 66.2332 67.1416 66.2332 67.5273C66.2332 67.9129 66.5646 68.2256 66.9735 68.2256Z" fill="#167A65"/>
<path d="M69.938 68.2256C70.3469 68.2256 70.6784 67.9129 70.6784 67.5273C70.6784 67.1416 70.3469 66.829 69.938 66.829C69.5291 66.829 69.1976 67.1416 69.1976 67.5273C69.1976 67.9129 69.5291 68.2256 69.938 68.2256Z" fill="#167A65"/>
<path d="M72.9012 68.2261C73.3105 68.2261 73.6422 67.9132 73.6422 67.5272C73.6422 67.1413 73.3105 66.8284 72.9012 66.8284C72.492 66.8284 72.1603 67.1413 72.1603 67.5272C72.1603 67.9132 72.492 68.2261 72.9012 68.2261Z" fill="#167A65"/>
<path d="M75.865 68.2261C76.2743 68.2261 76.606 67.9132 76.606 67.5272C76.606 67.1413 76.2743 66.8284 75.865 66.8284C75.4558 66.8284 75.1241 67.1413 75.1241 67.5272C75.1241 67.9132 75.4558 68.2261 75.865 68.2261Z" fill="#167A65"/>
<path d="M78.829 68.2256C79.2379 68.2256 79.5693 67.9129 79.5693 67.5273C79.5693 67.1416 79.2379 66.829 78.829 66.829C78.4201 66.829 78.0886 67.1416 78.0886 67.5273C78.0886 67.9129 78.4201 68.2256 78.829 68.2256Z" fill="#167A65"/>
<path d="M56.6006 66.8284C57.0098 66.8284 57.3415 66.5155 57.3415 66.1295C57.3415 65.7436 57.0098 65.4307 56.6006 65.4307C56.1914 65.4307 55.8596 65.7436 55.8596 66.1295C55.8596 66.5155 56.1914 66.8284 56.6006 66.8284Z" fill="#167A65"/>
<path d="M59.5639 66.8284C59.9731 66.8284 60.3049 66.5155 60.3049 66.1295C60.3049 65.7436 59.9731 65.4307 59.5639 65.4307C59.1547 65.4307 58.8229 65.7436 58.8229 66.1295C58.8229 66.5155 59.1547 66.8284 59.5639 66.8284Z" fill="#167A65"/>
<path d="M62.5284 66.8284C62.9376 66.8284 63.2693 66.5155 63.2693 66.1295C63.2693 65.7436 62.9376 65.4307 62.5284 65.4307C62.1192 65.4307 61.7874 65.7436 61.7874 66.1295C61.7874 66.5155 62.1192 66.8284 62.5284 66.8284Z" fill="#167A65"/>
<path d="M65.4916 66.829C65.9011 66.829 66.2331 66.5159 66.2331 66.1296C66.2331 65.7433 65.9011 65.4302 65.4916 65.4302C65.082 65.4302 64.75 65.7433 64.75 66.1296C64.75 66.5159 65.082 66.829 65.4916 66.829Z" fill="#167A65"/>
<path d="M68.4554 66.829C68.865 66.829 69.197 66.5159 69.197 66.1296C69.197 65.7433 68.865 65.4302 68.4554 65.4302C68.0459 65.4302 67.7139 65.7433 67.7139 66.1296C67.7139 66.5159 68.0459 66.829 68.4554 66.829Z" fill="#167A65"/>
<path d="M71.4193 66.8284C71.8285 66.8284 72.1603 66.5155 72.1603 66.1295C72.1603 65.7436 71.8285 65.4307 71.4193 65.4307C71.0101 65.4307 70.6783 65.7436 70.6783 66.1295C70.6783 66.5155 71.0101 66.8284 71.4193 66.8284Z" fill="#167A65"/>
<path d="M74.3831 66.8284C74.7923 66.8284 75.1241 66.5155 75.1241 66.1295C75.1241 65.7436 74.7923 65.4307 74.3831 65.4307C73.9739 65.4307 73.6422 65.7436 73.6422 66.1295C73.6422 66.5155 73.9739 66.8284 74.3831 66.8284Z" fill="#167A65"/>
<path d="M77.347 66.8284C77.7562 66.8284 78.0879 66.5155 78.0879 66.1295C78.0879 65.7436 77.7562 65.4307 77.347 65.4307C76.9378 65.4307 76.606 65.7436 76.606 66.1295C76.606 66.5155 76.9378 66.8284 77.347 66.8284Z" fill="#167A65"/>
<path d="M82.0259 62.5755C82.4348 62.5755 82.7663 62.2629 82.7663 61.8772C82.7663 61.4916 82.4348 61.179 82.0259 61.179C81.617 61.179 81.2855 61.4916 81.2855 61.8772C81.2855 62.2629 81.617 62.5755 82.0259 62.5755Z" fill="#167A65"/>
<path d="M80.5446 63.9739C80.9538 63.9739 81.2855 63.661 81.2855 63.275C81.2855 62.8891 80.9538 62.5762 80.5446 62.5762C80.1353 62.5762 79.8036 62.8891 79.8036 63.275C79.8036 63.661 80.1353 63.9739 80.5446 63.9739Z" fill="#167A65"/>
<path d="M82.0259 65.4302C82.4348 65.4302 82.7663 65.1175 82.7663 64.7319C82.7663 64.3462 82.4348 64.0336 82.0259 64.0336C81.617 64.0336 81.2855 64.3462 81.2855 64.7319C81.2855 65.1175 81.617 65.4302 82.0259 65.4302Z" fill="#167A65"/>
<path d="M80.5446 66.8284C80.9538 66.8284 81.2855 66.5155 81.2855 66.1295C81.2855 65.7436 80.9538 65.4307 80.5446 65.4307C80.1353 65.4307 79.8036 65.7436 79.8036 66.1295C79.8036 66.5155 80.1353 66.8284 80.5446 66.8284Z" fill="#167A65"/>
<path d="M75.865 59.7807C76.2743 59.7807 76.606 59.4678 76.606 59.0818C76.606 58.6958 76.2743 58.3829 75.865 58.3829C75.4558 58.3829 75.1241 58.6958 75.1241 59.0818C75.1241 59.4678 75.4558 59.7807 75.865 59.7807Z" fill="#167A65"/>
<path d="M78.829 59.7801C79.2379 59.7801 79.5693 59.4675 79.5693 59.0818C79.5693 58.6962 79.2379 58.3835 78.829 58.3835C78.4201 58.3835 78.0886 58.6962 78.0886 59.0818C78.0886 59.4675 78.4201 59.7801 78.829 59.7801Z" fill="#167A65"/>
<path d="M74.3831 61.1785C74.7923 61.1785 75.1241 60.8656 75.1241 60.4796C75.1241 60.0937 74.7923 59.7808 74.3831 59.7808C73.9739 59.7808 73.6422 60.0937 73.6422 60.4796C73.6422 60.8656 73.9739 61.1785 74.3831 61.1785Z" fill="#167A65"/>
<path d="M77.347 61.1785C77.7562 61.1785 78.0879 60.8656 78.0879 60.4796C78.0879 60.0937 77.7562 59.7808 77.347 59.7808C76.9378 59.7808 76.606 60.0937 76.606 60.4796C76.606 60.8656 76.9378 61.1785 77.347 61.1785Z" fill="#167A65"/>
<path d="M80.5446 61.1785C80.9538 61.1785 81.2855 60.8656 81.2855 60.4796C81.2855 60.0937 80.9538 59.7808 80.5446 59.7808C80.1353 59.7808 79.8036 60.0937 79.8036 60.4796C79.8036 60.8656 80.1353 61.1785 80.5446 61.1785Z" fill="#167A65"/>
<path fill-rule="evenodd" clip-rule="evenodd" d="M19.7657 39.5682H43.0892C43.7536 39.5682 44.2741 38.9461 44.2741 38.1523C44.2741 37.358 43.7536 36.7358 43.0892 36.7358H19.7657C19.1012 36.7358 18.5807 37.358 18.5807 38.1523C18.5807 38.9461 19.1012 39.5682 19.7657 39.5682ZM19.485 38.1518C19.485 37.8074 19.6699 37.5875 19.7663 37.5875H43.0898C43.1862 37.5875 43.3711 37.8074 43.3711 38.1518C43.3711 38.4955 43.1862 38.7154 43.0898 38.7154H19.7663C19.6699 38.7154 19.485 38.4955 19.485 38.1518Z" fill="black"/>
<path fill-rule="evenodd" clip-rule="evenodd" d="M19.7657 41.6017H43.0892C43.7536 41.6017 44.2741 40.9796 44.2741 40.1852C44.2741 39.3921 43.7536 38.7699 43.0892 38.7699H19.7657C19.1012 38.7699 18.5807 39.3921 18.5807 40.1852C18.5807 40.9796 19.1012 41.6017 19.7657 41.6017ZM19.485 40.1847C19.485 39.8415 19.6699 39.6216 19.7663 39.6216H43.0898C43.1862 39.6216 43.3711 39.8415 43.3711 40.1847C43.3711 40.529 43.1862 40.7489 43.0898 40.7489H19.7663C19.6699 40.7489 19.485 40.529 19.485 40.1847Z" fill="black"/>
<path d="M16.9223 62.9988C16.9223 65.9233 19.4368 68.2949 22.5368 68.2949H40.3187C43.4187 68.2949 45.9331 65.9233 45.9331 62.9988V61.2432H16.9223V62.9988H16.9223Z" fill="#167A65"/>
<path d="M71.7373 12.6176C69.1361 15.1039 64.4632 14.7341 64.4632 14.7341C64.4632 14.7341 64.009 10.3306 66.6102 7.84485C69.212 5.35792 73.8861 5.72951 73.8861 5.72951C73.8861 5.72951 74.3391 10.1324 71.7373 12.6176Z" fill="white"/>
<path fill-rule="evenodd" clip-rule="evenodd" d="M64.4259 15.1591C64.4259 15.1591 64.6855 15.1795 65.1198 15.1795C66.4939 15.1795 69.9223 14.9591 72.059 12.9176C74.7783 10.3193 74.3554 5.87667 74.3361 5.6886L74.2994 5.33576L73.9247 5.30508C73.9247 5.30508 73.6626 5.28406 73.2259 5.28406C71.8512 5.28406 68.4247 5.50394 66.2885 7.54542C63.5704 10.1437 63.9945 14.5875 64.0138 14.7755L64.0512 15.1284L64.4259 15.1591ZM71.4156 12.3187C69.3933 14.2517 65.9855 14.3477 64.8921 14.325C64.856 13.2466 64.9343 10.0528 66.9325 8.14428C68.9566 6.20906 72.3638 6.1136 73.4584 6.1386C73.4945 7.21531 73.4186 10.4051 71.4156 12.3187Z" fill="black"/>
<path d="M73.2879 10.6324L73.2819 9.7801L70.2638 9.79828L74.2084 6.02896L73.5644 5.43066L69.6174 9.20112L69.6 6.63748L68.6964 6.6426L68.7205 10.0591L67.3608 11.3579L67.0608 7.81078L66.1596 7.87839L66.5265 12.1557L64.1415 14.4346L64.7849 15.0335L67.3554 12.5773L71.1415 13.4477L71.3554 12.6199L68.0952 11.8704L69.3656 10.6562L73.2879 10.6324Z" fill="black"/>
</svg>
