<svg width="100" height="100" viewBox="0 0 100 100" fill="none" xmlns="http://www.w3.org/2000/svg">
<path d="M48.583 45.2925L48.4807 46.3175C49.6625 46.3625 50.8932 46.3862 52.1733 46.3862C65.2432 46.3862 73.333 43.8831 73.333 41.5637H73.3512V41.3406C70.5415 44.09 61.0739 45.3618 52.1733 45.3618C50.9813 45.3618 49.779 45.3381 48.583 45.2925Z" fill="white"/>
<path d="M73.3279 32.4819C73.2511 31.3225 72.9529 30.3719 72.4165 29.6082C71.9091 30.9182 69.2841 31.8525 65.8341 32.4819C61.6864 33.2382 56.3557 33.5563 52.0994 33.5563C51.35 33.5563 50.5665 33.5463 49.7625 33.5263L49.4523 36.62L49.3585 37.5575L49.1534 39.6019L49.0159 40.9757L48.9222 41.9132L48.6761 44.3625C49.7989 44.4025 50.9642 44.4244 52.1733 44.4244C65.2432 44.4244 73.333 41.9213 73.333 39.6019H73.3511V37.5575V36.62V33.1063C73.3517 32.8907 73.3409 32.685 73.3279 32.4819Z" fill="white"/>
<path d="M69.5777 27.6962C68.5777 27.3399 67.2289 26.9956 65.5709 26.6949C64.6016 26.5193 63.5238 26.3587 62.3476 26.2187C59.4891 25.8793 56.0442 25.6637 52.0993 25.6637C51.5721 25.6637 51.0573 25.6687 50.5488 25.6762L50.4942 26.2187L50.4471 26.6874L50.4005 27.1562L49.8669 32.4812H57.3919C66.3488 32.0031 71.6607 30.3674 71.6607 29.1406C71.6607 28.6887 70.9385 28.1812 69.5777 27.6962Z" fill="white"/>
<path d="M52.0994 32.6181C53.9795 32.6181 55.7471 32.5693 57.3915 32.4812H49.8665L49.8551 32.5943C50.5846 32.61 51.3329 32.6181 52.0994 32.6181Z" fill="white"/>
<path d="M52.1733 47.3244C50.9153 47.3244 49.6471 47.2981 48.3875 47.2475L45.3937 77.1206L45.0005 81.045L44.8608 82.445L44.813 82.9137L44.7665 83.3825L44.6 85.0419C46.7034 85.2256 49.1755 85.3344 52.0994 85.3344C59.6005 85.3344 64.5915 84.3744 67.7022 83.2362C68.5022 82.9437 69.1795 82.6394 69.7403 82.3362C70.5699 81.8887 71.15 81.4444 71.5153 81.0456H71.3784C72.5897 80.1794 73.2113 78.8875 73.3278 77.1206C73.3409 76.9175 73.3517 76.7119 73.3517 76.4956V43.3025C70.5415 46.0531 61.0738 47.3244 52.1733 47.3244Z" fill="white"/>
<path d="M76.7734 90.4587C76.7734 92.9187 72.495 94.9125 67.2188 94.9125C61.9433 94.9125 57.6671 92.9187 57.6671 90.4587C57.6671 87.9987 61.9427 86.0056 67.2188 86.0056C72.495 86.0056 76.7734 87.9994 76.7734 90.4587Z" fill="white"/>
<path fill-rule="evenodd" clip-rule="evenodd" d="M57.241 90.4587C57.241 93.2194 61.6239 95.3812 67.2188 95.3812C72.8154 95.3812 77.1995 93.2194 77.1995 90.4587C77.1995 87.6987 72.816 85.5369 67.2188 85.5369C61.6239 85.5369 57.241 87.6987 57.241 90.4587ZM58.0932 90.4587C58.0932 88.5344 61.7603 86.4744 67.2188 86.4744C72.679 86.4744 76.3472 88.535 76.3472 90.4587C76.3472 92.3831 72.679 94.4437 67.2188 94.4437C61.7597 94.4437 58.0932 92.3831 58.0932 90.4587Z" fill="#1D1D1B"/>
<path d="M72.4966 29.0006C73.2068 29.8456 73.6511 30.9787 73.7483 32.4812H73.7778H74.1699C73.9534 29.0268 71.9846 27.4431 69.613 26.7468C71.3079 27.3431 72.3943 28.0875 72.4966 29.0006Z" fill="#1D1D1B"/>
<path d="M74.2039 77.1212V76.4962C74.2039 76.7168 74.1834 76.9143 74.1698 77.1212H74.2039Z" fill="#1D1D1B"/>
<path d="M72.4164 29.6081C72.9522 30.3718 73.251 31.3225 73.3277 32.4818H73.3516H73.7482C73.651 30.9793 73.2067 29.8456 72.4965 29.0012C72.5022 29.0481 72.513 29.0937 72.513 29.1412C72.513 29.3018 72.4749 29.4568 72.4164 29.6081Z" fill="#1D1D1B"/>
<path d="M73.3516 33.1062V32.4812H73.3278C73.3408 32.685 73.3516 32.8906 73.3516 33.1062Z" fill="white"/>
<path d="M74.1698 32.4818C74.1829 32.6887 74.2039 32.8862 74.2039 33.1068V32.4818H74.1698Z" fill="#1D1D1B"/>
<path d="M73.7483 77.1212C73.6335 78.9 73.0324 80.1612 72.079 81.04L72.0869 81.0468L72.4153 81.325C73.3932 80.395 74.0494 79.045 74.1699 77.1218H73.7779H73.7483V77.1212Z" fill="#1D1D1B"/>
<path d="M73.7778 32.4818V33.1068V36.62V37.5575V39.6018H74.1858C74.1858 40.0387 74.0392 40.4475 73.7778 40.8325V41.5643H74.1858C74.1858 42.0012 74.0392 42.41 73.7778 42.795V76.4968V77.1218H74.1699C74.1829 76.915 74.204 76.7175 74.204 76.4968V33.1062C74.204 32.8856 74.1835 32.6881 74.1699 32.4812H73.7778V32.4818Z" fill="#1D1D1B"/>
<path d="M73.7778 77.1212V76.4962C73.7778 76.715 73.7614 76.9162 73.7483 77.1212H73.7778Z" fill="#1D1D1B"/>
<path d="M73.3278 77.1212C73.2114 78.8887 72.5898 80.1806 71.3784 81.0462H71.5153C71.6051 80.9481 71.6847 80.8519 71.7489 80.76L72.079 81.0394C73.0324 80.1606 73.633 78.9 73.7483 77.1206H73.3517H73.3278V77.1212Z" fill="#1D1D1B"/>
<path d="M73.3516 77.1212V76.4962C73.3516 76.7125 73.3408 76.9175 73.3278 77.1212H73.3516Z" fill="#1D1D1B"/>
<path d="M73.7778 33.1062V32.4812H73.7483C73.7608 32.6862 73.7778 32.8875 73.7778 33.1062Z" fill="#1D1D1B"/>
<path d="M73.3517 43.3031V76.4962V77.1212H73.7483C73.7608 76.9162 73.7778 76.7156 73.7778 76.4962V42.7943C73.6591 42.9687 73.5193 43.1393 73.3517 43.3031Z" fill="#1D1D1B"/>
<path d="M73.3517 41.3413V41.5644H73.7778V40.8325C73.6591 41.0069 73.5193 41.1769 73.3517 41.3413Z" fill="#1D1D1B"/>
<path d="M73.3517 39.6019H73.7591H73.7778V37.5569H73.3517V39.6019Z" fill="#1D1D1B"/>
<path d="M73.3517 32.4818V33.1068V36.62H73.7778V33.1062C73.7778 32.8875 73.7614 32.6862 73.7483 32.4812H73.3517V32.4818Z" fill="#1D1D1B"/>
<path d="M73.3517 36.6194H73.7778V37.5569H73.3517V36.6194Z" fill="#1D1D1B"/>
<path d="M52.1732 44.8931C50.971 44.8931 49.788 44.8694 48.63 44.8262L48.5829 45.2931C49.7789 45.3387 50.9812 45.3625 52.1732 45.3625C61.0738 45.3625 70.5414 44.0912 73.3511 41.3412V40.6825C71.3846 43.2431 62.4835 44.8931 52.1732 44.8931Z" fill="#1D1D1B"/>
<path d="M74.1853 39.6018H73.7773V40.8324C74.0393 40.4474 74.1853 40.0387 74.1853 39.6018Z" fill="#1D1D1B"/>
<path d="M73.3517 40.6824V41.3412C73.5193 41.1774 73.6591 41.0068 73.7778 40.8324V39.6018H73.7596C73.7591 39.9774 73.6159 40.3381 73.3517 40.6824Z" fill="#1D1D1B"/>
<path d="M52.1732 44.4243C50.9641 44.4243 49.7982 44.4031 48.676 44.3624L48.63 44.8256C49.788 44.8693 50.9709 44.8924 52.1732 44.8924C62.4834 44.8924 71.3845 43.2424 73.351 40.6818V39.6012H73.3328C73.3328 41.9212 65.2431 44.4243 52.1732 44.4243Z" fill="#1D1D1B"/>
<path d="M73.7591 39.6018H73.3512V40.6824C73.616 40.3381 73.7591 39.9774 73.7591 39.6018Z" fill="#1D1D1B"/>
<path d="M52.0994 25.1956C57.2863 25.1956 62.0102 25.5856 65.5624 26.2249C66.8783 26.2456 68.3022 26.3631 69.613 26.7474C65.4971 25.3006 57.8261 24.7268 52.0994 24.7268C51.6266 24.7268 51.1391 24.7312 50.6425 24.7393L50.5959 25.2081C51.0931 25.2006 51.5931 25.1956 52.0994 25.1956Z" fill="#1D1D1B"/>
<path d="M62.7352 32.4818H65.8341C69.2841 31.8524 71.9091 30.9181 72.4165 29.6081C72.3131 29.4618 72.2011 29.3218 72.0807 29.1899C71.996 30.5768 68.2875 31.7912 62.7352 32.4818Z" fill="#1D1D1B"/>
<path d="M69.342 27.1462C70.6374 27.4937 71.7215 28.08 72.4965 29.0012C72.3942 28.0881 71.3079 27.3437 69.6136 26.7481C68.3028 26.3637 66.8795 26.2462 65.563 26.2256C67.0454 26.4918 68.3192 26.8025 69.342 27.1462Z" fill="#1D1D1B"/>
<path d="M72.0869 29.1406C72.0869 29.1569 72.0813 29.1731 72.0807 29.1894C72.2011 29.3219 72.3131 29.4613 72.4165 29.6075C72.475 29.4563 72.5131 29.3019 72.5131 29.1406C72.5131 29.0931 72.5017 29.0475 72.4966 29.0006C71.7222 28.0794 70.6381 27.4931 69.342 27.1456C71.0835 27.7319 72.0869 28.4125 72.0869 29.1406Z" fill="#1D1D1B"/>
<path d="M52.0994 33.0868C51.3244 33.0868 50.5607 33.0768 49.809 33.0606L49.7625 33.5256C50.5664 33.5456 51.35 33.5556 52.0994 33.5556C56.3556 33.5556 61.6863 33.2381 65.834 32.4812H62.7352C59.6545 32.8643 56.0096 33.0868 52.0994 33.0868Z" fill="#1D1D1B"/>
<path d="M52.0994 25.6643C56.0443 25.6643 59.4892 25.8799 62.3477 26.2193H65.1062C65.2556 26.2193 65.409 26.2224 65.5625 26.2249C62.0102 25.5856 57.2863 25.1956 52.0994 25.1956C51.5926 25.1956 51.0931 25.2006 50.596 25.2081L50.5488 25.6768C51.0574 25.6693 51.5727 25.6643 52.0994 25.6643Z" fill="#1D1D1B"/>
<path d="M71.6607 29.1406C71.6607 30.3674 66.3482 32.0031 57.392 32.4812H62.7351C68.2869 31.7912 71.9959 30.5768 72.0806 29.1887C71.4766 28.5249 70.6539 28.0281 69.5778 27.6956C70.9386 28.1812 71.6607 28.6887 71.6607 29.1406Z" fill="#1D1D1B"/>
<path d="M62.3478 26.2194C63.5239 26.3594 64.6018 26.5194 65.5711 26.6956C66.9353 26.7187 68.216 26.8444 69.3421 27.1462C68.3194 26.8031 67.0455 26.4925 65.5631 26.225C65.4097 26.2225 65.2563 26.2194 65.1069 26.2194H62.3478Z" fill="#1D1D1B"/>
<path d="M69.5779 27.6962C70.6546 28.0287 71.4767 28.5256 72.0807 29.1893C72.0813 29.1731 72.087 29.1568 72.087 29.1406C72.087 28.4124 71.0835 27.7312 69.3421 27.1456C68.2165 26.8437 66.9358 26.7174 65.571 26.6949C67.229 26.9956 68.5779 27.3399 69.5779 27.6962Z" fill="#1D1D1B"/>
<path d="M49.8557 32.5943L49.8091 33.0606C50.5608 33.0775 51.3244 33.0868 52.0994 33.0868C56.0096 33.0868 59.6545 32.8643 62.7352 32.4812H57.392C55.7471 32.5693 53.9795 32.6181 52.1 32.6181C51.3329 32.6181 50.5846 32.61 49.8557 32.5943Z" fill="#1D1D1B"/>
<path d="M72.4153 81.3243C71.7182 81.9868 70.8648 82.4387 69.9398 82.7481C69.2227 82.9881 68.4659 83.1425 67.7023 83.2368C64.5915 84.375 59.6005 85.335 52.0994 85.335C49.1755 85.335 46.7034 85.2262 44.6 85.0425L44.5534 85.5125L44.5062 85.9812C46.6517 86.1662 49.1557 86.2725 52.0994 86.2725C64.5505 86.2725 70.8307 83.6112 72.4244 81.3325L72.4153 81.3243Z" fill="#1D1D1B"/>
<path d="M72.087 81.0462L72.079 81.0393L72.0717 81.0462H72.087Z" fill="#1D1D1B"/>
<path d="M69.9397 82.7475C70.8653 82.4382 71.7187 81.9863 72.4153 81.3238L72.0869 81.0457C71.7408 81.5407 71.055 82.1419 69.9397 82.7475Z" fill="#1D1D1B"/>
<path d="M71.5154 81.0463H72.0716C72.0745 81.0444 72.0773 81.0419 72.0796 81.0394L71.7495 80.76C71.6847 80.8519 71.6052 80.9481 71.5154 81.0463Z" fill="#1D1D1B"/>
<path d="M69.7403 82.3369C69.1795 82.64 68.5023 82.9444 67.7023 83.2369C68.4659 83.1425 69.2227 82.9881 69.9398 82.7481C71.0551 82.1419 71.7409 81.5406 72.0869 81.0463H72.0716C71.4352 81.6306 70.6466 82.0494 69.7403 82.3369Z" fill="#1D1D1B"/>
<path d="M69.7404 82.3369C70.6466 82.0494 71.4347 81.6306 72.0716 81.0463H71.5154C71.1506 81.445 70.5699 81.8888 69.7404 82.3369Z" fill="#1D1D1B"/>
<path d="M52.1732 46.3868C50.8931 46.3868 49.6625 46.3625 48.4806 46.3181L48.3875 47.2481C49.6471 47.2987 50.9153 47.325 52.1732 47.325C61.0738 47.325 70.5414 46.0537 73.3511 43.3037V41.5643H73.3329C73.3329 43.8831 65.2431 46.3868 52.1732 46.3868Z" fill="#1D1D1B"/>
<path d="M74.1853 41.5637H73.7773V42.7943C74.0393 42.4093 74.1853 42.0006 74.1853 41.5637Z" fill="#1D1D1B"/>
<path d="M73.3517 43.3031C73.5193 43.1393 73.6591 42.9687 73.7778 42.7943V41.5637H73.3517V43.3031Z" fill="#1D1D1B"/>
<path d="M42.8841 93.6162L42.8744 93.7062L42.8966 93.7937C42.925 93.9049 42.9386 93.9981 42.9386 94.0781C42.9386 96.3049 36.1835 98.7862 26.4915 98.7862C16.7994 98.7862 10.0443 96.3049 10.0443 94.0781C10.0443 93.9956 10.0574 93.9043 10.0852 93.7981L10.1079 93.7093L1.3068 5.87122L0.460205 5.97372L9.24316 93.6343C9.2085 93.79 9.19202 93.9356 9.19202 94.0775C9.19202 97.7443 18.1057 99.7231 26.4915 99.7231C34.8772 99.7231 43.7909 97.7443 43.7909 94.0775C43.7909 93.9375 43.7738 93.7912 43.7392 93.6331L44.5062 85.9806C44.217 85.9556 43.9329 85.9293 43.6568 85.9018L42.8841 93.6162Z" fill="#1D1D1B"/>
<path d="M52.5228 5.97372L51.6762 5.87122L49.7836 24.7568C50.0733 24.7493 50.3597 24.7437 50.6427 24.7393L52.5228 5.97372Z" fill="#1D1D1B"/>
<path d="M44.1432 81.0456H45.0006L45.3943 77.1212H44.5369L44.1432 81.0456Z" fill="#1D1D1B"/>
<path d="M47.6273 46.2812C47.9086 46.2943 48.1927 46.3068 48.4807 46.3181L48.583 45.2931C48.2983 45.2825 48.0137 45.27 47.7296 45.2568L47.6273 46.2812Z" fill="#1D1D1B"/>
<path d="M44.5369 77.1212H45.3943L48.388 47.2481C48.1028 47.2369 47.8187 47.2237 47.5346 47.2094L44.5369 77.1212Z" fill="#1D1D1B"/>
<path d="M48.2966 39.6019H49.1534L49.3586 37.5569H48.5012L48.2966 39.6019Z" fill="#1D1D1B"/>
<path d="M48.5948 36.6194H49.4522L49.7625 33.5256C49.4795 33.5181 49.1948 33.51 48.9079 33.5L48.5948 36.6194Z" fill="#1D1D1B"/>
<path d="M48.5011 37.5569H49.3585L49.4522 36.6194H48.5948L48.5011 37.5569Z" fill="#1D1D1B"/>
<path d="M48.1591 40.9756H49.0159L49.1534 39.6018H48.2966L48.1591 40.9756Z" fill="#1D1D1B"/>
<path d="M48.0648 41.9131L47.8228 44.3268C48.1051 44.34 48.3881 44.3525 48.6762 44.3625L48.9222 41.9131H48.0648Z" fill="#1D1D1B"/>
<path d="M48.9221 41.9131L49.0158 40.9756H48.159L48.0647 41.9131H48.9221Z" fill="#1D1D1B"/>
<path d="M47.7296 45.2563C48.0137 45.2694 48.2984 45.2819 48.583 45.2925L48.6302 44.8257C48.3444 44.8144 48.0592 44.8032 47.7762 44.79L47.7296 45.2563Z" fill="#1D1D1B"/>
<path d="M47.7761 44.7906C48.0591 44.8038 48.3443 44.8156 48.6301 44.8263L48.6761 44.3631C48.3881 44.3531 48.1051 44.34 47.8227 44.3275L47.7761 44.7906Z" fill="#1D1D1B"/>
<path d="M50.4942 26.2194L50.5488 25.6769C50.2596 25.6813 49.9726 25.6863 49.6903 25.6925L49.6368 26.2194H50.4942V26.2194Z" fill="#1D1D1B"/>
<path d="M50.4005 27.1569H49.5431L49.0101 32.4819H49.8669L50.4005 27.1569Z" fill="#1D1D1B"/>
<path d="M50.4943 26.2194H49.6369L49.5903 26.6881H50.4471L50.4943 26.2194Z" fill="#1D1D1B"/>
<path d="M50.4471 26.6881H49.5903L49.5431 27.1569H50.4005L50.4471 26.6881Z" fill="#1D1D1B"/>
<path d="M49.8557 32.5943L49.8671 32.4812H49.0103L49.0006 32.5718C49.283 32.5806 49.5671 32.5887 49.8557 32.5943Z" fill="#1D1D1B"/>
<path d="M50.5959 25.2081L50.6425 24.7394C50.3595 24.7444 50.0732 24.75 49.7834 24.7569L49.7368 25.2244C50.0209 25.2175 50.3073 25.2119 50.5959 25.2081Z" fill="#1D1D1B"/>
<path d="M48.9539 33.0381L48.9078 33.5006C49.1948 33.5106 49.4794 33.5187 49.7624 33.5262L49.809 33.0612C49.522 33.0543 49.2362 33.0468 48.9539 33.0381Z" fill="#1D1D1B"/>
<path d="M50.5488 25.6769L50.596 25.2081C50.3074 25.2125 50.021 25.2175 49.7369 25.2244L49.6903 25.6931C49.9727 25.6863 50.2596 25.6813 50.5488 25.6769Z" fill="#1D1D1B"/>
<path d="M49.0006 32.5719L48.954 33.0381C49.2364 33.0469 49.5222 33.0544 49.8091 33.0606L49.8557 32.5944C49.567 32.5888 49.283 32.5806 49.0006 32.5719Z" fill="#1D1D1B"/>
<path d="M43.9091 83.3831L43.7511 84.9618C44.0272 84.9899 44.309 85.0168 44.6 85.0424L44.7664 83.3831H43.9091Z" fill="#1D1D1B"/>
<path d="M44.0028 82.4456H44.8608L45.0005 81.0457H44.1431L44.0028 82.4456Z" fill="#1D1D1B"/>
<path d="M43.9091 83.3831H44.7664L44.813 82.9143H43.9562L43.9091 83.3831Z" fill="#1D1D1B"/>
<path d="M43.9562 82.9143H44.813L44.8607 82.4456H44.0028L43.9562 82.9143Z" fill="#1D1D1B"/>
<path d="M43.704 85.4313L43.6569 85.9019C43.933 85.93 44.2171 85.9556 44.5063 85.9806L44.5535 85.5119C44.262 85.4875 43.9813 85.46 43.704 85.4313Z" fill="#1D1D1B"/>
<path d="M43.7511 84.9619L43.704 85.4313C43.9813 85.4594 44.2619 85.4869 44.5534 85.5119L44.6 85.0419C44.3091 85.0169 44.0273 84.99 43.7511 84.9619Z" fill="#1D1D1B"/>
<path d="M47.5341 47.2094C47.8181 47.2231 48.1022 47.2362 48.3875 47.2481L48.4807 46.3181C48.1926 46.3069 47.9085 46.295 47.6272 46.2812L47.5341 47.2094Z" fill="#1D1D1B"/>
<path d="M48.9955 11.83H48.858C48.9125 11.9831 48.9478 12.1381 48.9478 12.2987C48.9478 12.8712 48.587 13.3943 47.9415 13.87L40.6552 89.1668C41.0461 89.5575 41.2978 89.9831 41.3898 90.44L48.9461 12.3487L48.9955 11.83Z" fill="#1D1D1B"/>
<path d="M12.3266 89.1662L5.0414 13.8693C4.39538 13.3943 4.03515 12.8706 4.03515 12.2981C4.03515 12.1375 4.07038 11.9825 4.12493 11.8293H3.98743L11.5925 90.4387C11.684 89.9825 11.9357 89.5575 12.3266 89.1662Z" fill="#1D1D1B"/>
<path d="M47.8914 12.7675C46.5539 14.3662 38.6573 16.2837 26.4914 16.2837C14.3255 16.2837 6.42836 14.3662 5.09143 12.7675H4.93518L5.042 13.87C8.04086 16.0756 17.3102 17.2212 26.492 17.2212C35.6738 17.2212 44.9431 16.0756 47.942 13.87L48.0488 12.7675H47.8914Z" fill="#1D1D1B"/>
<path d="M26.4915 8.31372C38.6574 8.31372 46.5545 10.2312 47.8915 11.8293H48.858C47.8193 8.90372 37.0972 7.37622 26.4915 7.37622C15.8858 7.37622 5.16364 8.90435 4.125 11.8293H5.09148C6.42841 10.2312 14.3256 8.31372 26.4915 8.31372Z" fill="#1D1D1B"/>
<path d="M5.04149 13.8693L4.93467 12.7668H5.09092C4.95683 12.6068 4.88694 12.45 4.88694 12.2981C4.88694 12.1462 4.95683 11.9893 5.09092 11.8293H4.12444C4.0699 11.9825 4.03467 12.1375 4.03467 12.2981C4.03524 12.8712 4.39546 13.3943 5.04149 13.8693Z" fill="#1D1D1B"/>
<path d="M48.0954 12.2987C48.0954 12.4506 48.0255 12.6075 47.8914 12.7675H48.0477L47.9409 13.87C48.5869 13.395 48.9471 12.8712 48.9471 12.2987C48.9471 12.1381 48.9119 11.9831 48.8573 11.83H47.8909C48.0255 11.99 48.0954 12.1468 48.0954 12.2987Z" fill="#1D1D1B"/>
<path d="M12.3267 89.1662L12.4414 90.3568H12.521C13.375 88.6093 18.8721 86.8406 26.4914 86.8406C34.1108 86.8406 39.6068 88.6093 40.4608 90.3568H40.5403L40.6551 89.1662C38.5255 87.0356 32.3596 85.9031 26.4914 85.9031C20.6227 85.9031 14.4562 87.0362 12.3267 89.1662Z" fill="#1D1D1B"/>
<path d="M40.4608 91.2943C39.6068 93.0418 34.1108 94.8106 26.4914 94.8106C18.8721 94.8106 13.375 93.0418 12.521 91.2943H11.675L11.592 90.4393C11.5664 90.5662 11.5488 90.6943 11.5488 90.8256C11.5488 94.0231 19.2477 95.7481 26.4914 95.7481C33.7346 95.7481 41.4329 94.0231 41.4329 90.8256C41.4329 90.6943 41.4153 90.5656 41.3897 90.4393L41.3068 91.2943H40.4608Z" fill="#1D1D1B"/>
<path d="M40.6551 89.1663L40.5404 90.3569H40.4608C40.5375 90.5138 40.5807 90.67 40.5807 90.8256C40.5807 90.9813 40.5375 91.1375 40.4608 91.2944H41.3068L41.3898 90.4394C41.2977 89.9825 41.046 89.5575 40.6551 89.1663Z" fill="#1D1D1B"/>
<path d="M12.521 91.2944C12.4443 91.1375 12.4011 90.9813 12.4011 90.8256C12.4011 90.67 12.4443 90.5138 12.521 90.3569H12.4415L12.3267 89.1663C11.9358 89.5569 11.6841 89.9825 11.592 90.4394L11.675 91.2944H12.521Z" fill="#1D1D1B"/>
<path fill-rule="evenodd" clip-rule="evenodd" d="M0.457397 5.92248C0.457397 9.58936 13.8705 11.5681 26.4915 11.5681C39.1125 11.5681 52.5256 9.58936 52.5256 5.92248C52.5256 2.25561 39.1125 0.276855 26.4915 0.276855C13.8705 0.276855 0.457397 2.25561 0.457397 5.92248ZM1.30967 5.92186C1.30967 3.99748 10.2773 1.21373 26.4915 1.21373C42.7057 1.21373 51.6733 3.99748 51.6733 5.92186C51.6733 7.84623 42.7057 10.63 26.4915 10.63C10.2773 10.63 1.30967 7.84623 1.30967 5.92186Z" fill="#1D1D1B"/>
<path d="M23.3103 53.6618C23.075 53.6618 22.8841 53.4518 22.8841 53.1931C22.8841 51.5975 21.7035 50.2987 20.2523 50.2987C18.8012 50.2987 17.6211 51.5975 17.6211 53.1931C17.6211 53.4518 17.4302 53.6618 17.1949 53.6618C16.9597 53.6618 16.7688 53.4518 16.7688 53.1931C16.7688 51.0806 18.3313 49.3612 20.2523 49.3612C22.1733 49.3612 23.7364 51.08 23.7364 53.1931C23.7364 53.4518 23.5455 53.6618 23.3103 53.6618Z" fill="#167A65"/>
<path d="M36.1949 53.6618C35.9596 53.6618 35.7687 53.4518 35.7687 53.1931C35.7687 51.5975 34.5881 50.2987 33.1364 50.2987C31.6852 50.2987 30.5051 51.5975 30.5051 53.1931C30.5051 53.4518 30.3142 53.6618 30.079 53.6618C29.8437 53.6618 29.6528 53.4518 29.6528 53.1931C29.6528 51.0806 31.2153 49.3612 33.1364 49.3612C35.0579 49.3612 36.621 51.08 36.621 53.1931C36.621 53.4518 36.4301 53.6618 36.1949 53.6618Z" fill="#167A65"/>
<path fill-rule="evenodd" clip-rule="evenodd" d="M21.208 58.8643C21.5648 61.9287 23.9551 64.2393 26.7676 64.2393C29.5807 64.2393 31.971 61.9287 32.3261 58.8643C32.3415 58.7306 32.304 58.5962 32.2227 58.4949C32.1426 58.3943 32.0261 58.3362 31.9034 58.3362H21.6307C21.5085 58.3362 21.3921 58.3937 21.3108 58.4949C21.2301 58.5962 21.1926 58.7306 21.208 58.8643ZM26.7682 63.3018C24.5471 63.3018 22.6375 61.6043 22.1403 59.2737H31.3949C30.8989 61.6043 28.9892 63.3018 26.7682 63.3018Z" fill="#167A65"/>
<path d="M57.6671 90.8338V80.6663H76.7347V90.8338" fill="white"/>
<path d="M77.1609 90.8338H76.3086V81.135H58.0932V90.8338H57.241V80.1975H77.1609V90.8338Z" fill="black"/>
<path d="M67.2141 85.1207C72.5028 85.1207 76.7902 83.1264 76.7902 80.6663C76.7902 78.2062 72.5028 76.2119 67.2141 76.2119C61.9253 76.2119 57.6379 78.2062 57.6379 80.6663C57.6379 83.1264 61.9253 85.1207 67.2141 85.1207Z" fill="white"/>
<path fill-rule="evenodd" clip-rule="evenodd" d="M57.2119 80.6663C57.2119 83.4269 61.6057 85.5894 67.2142 85.5894C72.8227 85.5894 77.2159 83.4269 77.2165 80.6663C77.2165 77.9063 72.8233 75.7444 67.2142 75.7444C61.6051 75.7444 57.2119 77.9063 57.2119 80.6663ZM58.0642 80.6663C58.0642 78.7419 61.7409 76.6819 67.2142 76.6819C72.6875 76.6819 76.3636 78.7425 76.3642 80.6663C76.3642 82.5913 72.6875 84.6519 67.2142 84.6519C61.7409 84.6519 58.0642 82.5913 58.0642 80.6663Z" fill="#1D1D1B"/>
<path d="M61.0272 84.1306C61.0272 82.5412 63.7971 81.2531 67.2141 81.2531C70.6312 81.2531 73.4011 82.5412 73.4011 84.1306" fill="white"/>
<path d="M73.8272 84.1306H72.9749C72.9749 82.9912 70.609 81.7218 67.2141 81.7218C63.8193 81.7218 61.4533 82.9912 61.4533 84.1306H60.6011C60.6011 82.2231 63.4443 80.7843 67.2141 80.7843C70.984 80.7843 73.8272 82.2231 73.8272 84.1306Z" fill="#1D1D1B"/>
<path d="M75.3677 83.0031H97.9813C98.6063 83.0031 99.1177 82.4406 99.1177 81.7531V81.7187C99.1177 81.0312 98.6063 80.4688 97.9813 80.4688H76.8001" fill="white"/>
<path d="M97.9813 83.4719H75.3677V82.5344H97.9813C98.3728 82.5344 98.6915 82.1837 98.6915 81.7531C98.6915 81.2881 98.3728 80.9375 97.9813 80.9375H76.8001V80H97.9813C98.8432 80 99.5438 80.7712 99.5438 81.7187C99.5438 82.7006 98.8432 83.4719 97.9813 83.4719Z" fill="black"/>
<path fill-rule="evenodd" clip-rule="evenodd" d="M57.2119 80.6663C57.2119 83.4269 61.6057 85.5894 67.2142 85.5894C72.8227 85.5894 77.2159 83.4269 77.2165 80.6663C77.2165 77.9063 72.8233 75.7444 67.2142 75.7444C61.6051 75.7444 57.2119 77.9063 57.2119 80.6663ZM58.0642 80.6663C58.0642 78.7419 61.7409 76.6819 67.2142 76.6819C72.6875 76.6819 76.3636 78.7425 76.3642 80.6663C76.3642 82.5913 72.6875 84.6519 67.2142 84.6519C61.7409 84.6519 58.0642 82.5913 58.0642 80.6663Z" fill="#1D1D1B"/>
</svg>
